<svg version="1.1" xmlns="http://www.w3.org/2000/svg" viewBox="0 0 406 459" width="406" height="459">
  <g transform="translate(93 87) rotate(0 150 67)" stroke="none"><path fill="#1e1e1e" d="M -2.20,0.44 Q -2.20,0.44 -2.90,-2.40 -3.60,-5.26 -3.91,-8.64 -4.22,-12.02 -4.37,-15.75 -4.51,-19.49 -4.57,-23.95 -4.62,-28.41 -4.65,-34.04 -4.67,-39.67 -4.68,-46.95 -4.68,-54.23 -4.69,-59.63 -4.70,-65.02 -4.98,-68.05 -5.26,-71.08 -5.16,-73.26 -5.05,-75.44 -4.18,-76.58 -3.31,-77.71 -1.34,-78.14 0.61,-78.57 2.47,-78.66 4.32,-78.75 6.46,-78.49 8.60,-78.23 12.08,-77.56 15.57,-76.88 19.55,-75.39 23.54,-73.91 28.09,-71.83 32.65,-69.75 37.45,-67.43 42.25,-65.11 48.84,-62.13 55.43,-59.16 60.57,-56.72 65.72,-54.29 69.38,-52.37 73.05,-50.45 75.28,-49.00 77.52,-47.55 78.55,-47.06 79.57,-46.56 80.79,-46.40 82.01,-46.23 84.07,-46.44 86.14,-46.64 87.32,-47.23 88.50,-47.81 90.99,-48.22 93.48,-48.63 96.53,-48.77 99.58,-48.91 102.57,-48.96 105.57,-49.02 108.99,-48.75 112.41,-48.48 117.34,-47.78 122.28,-47.08 126.35,-46.50 130.42,-45.92 134.01,-45.07 137.61,-44.23 140.38,-43.26 143.16,-42.29 145.98,-41.32 148.80,-40.36 151.97,-39.39 155.15,-38.42 159.65,-37.15 164.14,-35.88 167.46,-35.06 170.77,-34.23 173.60,-33.60 176.43,-32.97 178.82,-32.40 181.21,-31.84 182.44,-31.61 183.67,-31.39 184.86,-30.89 186.05,-30.39 187.12,-30.10 188.19,-29.81 189.03,-29.16 189.88,-28.51 191.16,-29.36 192.45,-30.20 194.76,-31.24 197.06,-32.27 201.18,-34.42 205.31,-36.57 209.33,-38.90 213.36,-41.23 217.96,-43.96 222.56,-46.69 227.66,-49.84 232.75,-53.00 239.53,-57.22 246.30,-61.44 252.17,-64.45 258.04,-67.47 262.62,-69.35 267.20,-71.23 270.13,-72.06 273.06,-72.89 274.67,-73.24 276.29,-73.59 278.22,-72.77 280.16,-71.94 280.94,-70.20 281.72,-68.47 282.39,-67.07 283.07,-65.68 283.46,-63.97 283.85,-62.26 284.23,-59.41 284.61,-56.55 284.78,-52.93 284.95,-49.30 285.02,-45.18 285.09,-41.06 284.83,-36.63 284.56,-32.19 284.16,-27.72 283.76,-23.25 283.30,-18.76 282.85,-14.27 282.35,-11.14 281.86,-8.00 281.34,-5.98 280.81,-3.95 280.63,-2.73 280.46,-1.51 279.97,-0.26 279.48,0.98 279.02,1.97 278.55,2.96 277.61,4.42 276.67,5.87 276.49,7.67 276.32,9.47 275.42,11.22 274.52,12.98 274.90,11.93 275.27,10.87 277.78,12.66 280.30,14.45 282.40,15.83 284.50,17.20 287.34,19.67 290.17,22.15 292.86,24.99 295.55,27.83 298.07,33.13 300.58,38.44 302.17,42.96 303.75,47.48 304.47,51.92 305.19,56.35 305.48,61.15 305.77,65.94 305.61,71.23 305.44,76.51 304.49,83.46 303.54,90.40 302.56,95.94 301.58,101.47 300.88,105.78 300.18,110.09 299.29,114.05 298.40,118.00 297.14,122.06 295.87,126.13 294.75,129.29 293.63,132.46 292.58,135.25 291.53,138.05 290.16,140.81 288.78,143.57 287.37,146.40 285.95,149.24 283.53,152.91 281.11,156.59 279.31,159.72 277.51,162.84 275.85,165.66 274.20,168.48 272.28,171.22 270.36,173.96 268.13,177.09 265.90,180.23 263.72,182.82 261.55,185.40 259.52,187.87 257.50,190.35 255.79,192.53 254.08,194.71 252.49,196.79 250.90,198.86 248.91,200.80 246.92,202.73 245.17,204.15 243.41,205.56 241.24,206.61 239.06,207.66 236.62,208.39 234.18,209.12 231.71,209.70 229.25,210.29 225.98,210.57 222.72,210.84 220.41,211.22 218.10,211.59 215.78,211.77 213.47,211.95 211.62,212.03 209.77,212.10 207.74,212.40 205.70,212.70 203.81,212.85 201.91,212.99 199.02,212.65 196.13,212.30 195.92,212.29 195.71,212.28 195.51,212.20 195.31,212.12 195.15,211.98 194.99,211.84 194.88,211.66 194.77,211.48 194.73,211.27 194.68,211.06 194.71,210.85 194.73,210.64 194.82,210.45 194.91,210.25 195.06,210.10 195.21,209.95 195.39,209.85 195.58,209.75 195.79,209.72 196.00,209.68 196.21,209.72 196.42,209.75 196.61,209.85 196.79,209.95 196.94,210.11 197.09,210.26 197.17,210.46 197.26,210.65 197.28,210.86 197.31,211.07 197.26,211.28 197.21,211.49 197.10,211.67 196.99,211.85 196.83,211.99 196.67,212.12 196.47,212.20 196.27,212.28 196.06,212.29 195.85,212.30 195.64,212.24 195.44,212.18 195.26,212.06 195.09,211.94 194.96,211.77 194.83,211.60 194.76,211.40 194.70,211.20 194.70,210.99 194.70,210.78 194.77,210.57 194.84,210.37 194.97,210.21 195.10,210.04 195.27,209.92 195.45,209.80 195.65,209.74 195.86,209.69 195.86,209.69 195.86,209.69 197.20,208.56 198.55,207.43 199.97,207.02 201.39,206.60 203.09,206.47 204.79,206.35 207.15,206.02 209.52,205.68 211.25,205.62 212.98,205.55 215.04,205.40 217.09,205.25 219.65,204.84 222.21,204.44 225.00,204.24 227.78,204.04 230.08,203.50 232.38,202.96 234.39,202.39 236.39,201.82 237.91,201.17 239.43,200.53 240.95,199.31 242.48,198.08 244.14,196.52 245.81,194.95 247.42,192.85 249.02,190.75 250.77,188.51 252.53,186.28 254.58,183.77 256.64,181.26 258.65,178.88 260.66,176.51 262.88,173.38 265.10,170.26 266.89,167.74 268.67,165.22 270.31,162.43 271.95,159.64 273.86,156.34 275.77,153.04 278.00,149.71 280.23,146.37 281.65,143.54 283.06,140.71 284.30,138.24 285.54,135.78 286.57,133.06 287.60,130.33 288.69,127.27 289.77,124.22 290.97,120.40 292.17,116.59 293.02,112.83 293.88,109.07 294.58,104.71 295.28,100.35 296.25,94.94 297.21,89.53 298.14,82.91 299.06,76.30 299.23,71.31 299.40,66.32 299.14,61.83 298.88,57.33 298.30,53.45 297.72,49.56 296.25,45.33 294.78,41.09 292.82,36.60 290.85,32.12 288.41,29.53 285.96,26.93 283.48,24.73 281.00,22.53 278.71,21.03 276.43,19.52 274.78,18.26 273.14,17.00 272.12,16.35 271.09,15.70 270.24,14.44 269.39,13.18 269.87,11.15 270.34,9.13 270.61,7.88 270.87,6.63 271.05,4.95 271.24,3.27 272.00,1.75 272.77,0.24 273.46,-1.14 274.15,-2.53 274.39,-4.05 274.63,-5.57 275.09,-7.29 275.55,-9.00 276.02,-11.96 276.49,-14.92 276.95,-19.37 277.40,-23.82 277.80,-28.19 278.19,-32.57 278.45,-36.77 278.70,-40.96 278.64,-44.99 278.58,-49.01 278.43,-52.37 278.29,-55.72 277.93,-59.13 277.57,-62.53 276.99,-63.52 276.42,-64.50 276.90,-65.96 277.39,-67.42 276.08,-67.11 274.78,-66.80 272.19,-66.08 269.60,-65.36 265.27,-63.59 260.93,-61.82 255.29,-58.94 249.65,-56.06 242.87,-51.83 236.09,-47.61 230.94,-44.42 225.79,-41.23 221.16,-38.49 216.54,-35.75 212.38,-33.35 208.23,-30.94 203.93,-28.71 199.63,-26.48 196.99,-25.32 194.36,-24.16 192.05,-23.55 189.74,-22.94 188.59,-23.10 187.43,-23.25 186.35,-23.74 185.28,-24.23 183.89,-24.77 182.50,-25.31 181.14,-25.56 179.78,-25.81 177.43,-26.36 175.08,-26.92 172.18,-27.57 169.28,-28.22 165.87,-29.06 162.45,-29.90 157.89,-31.19 153.33,-32.48 150.06,-33.49 146.80,-34.49 143.95,-35.46 141.09,-36.43 138.63,-37.31 136.17,-38.19 132.86,-38.99 129.54,-39.78 125.47,-40.36 121.41,-40.95 116.66,-41.62 111.91,-42.30 108.79,-42.56 105.68,-42.82 102.76,-42.77 99.84,-42.71 97.09,-42.60 94.34,-42.49 92.66,-42.32 90.98,-42.14 89.11,-41.35 87.24,-40.55 85.34,-40.26 83.44,-39.97 82.37,-40.02 81.29,-40.07 80.10,-40.24 78.90,-40.40 77.91,-40.78 76.91,-41.16 75.57,-41.84 74.23,-42.52 72.25,-43.83 70.26,-45.14 66.70,-47.00 63.15,-48.86 58.05,-51.27 52.96,-53.68 46.30,-56.69 39.63,-59.71 34.89,-62.00 30.14,-64.30 25.77,-66.32 21.39,-68.34 17.90,-69.74 14.40,-71.14 11.11,-71.83 7.82,-72.51 6.18,-72.77 4.55,-73.02 1.98,-73.38 -0.58,-73.74 -0.23,-72.66 0.12,-71.58 0.41,-68.30 0.71,-65.03 0.71,-59.63 0.71,-54.24 0.72,-46.97 0.73,-39.69 0.74,-34.08 0.76,-28.46 0.79,-24.05 0.82,-19.64 0.88,-16.02 0.94,-12.41 1.12,-9.32 1.30,-6.23 1.75,-3.34 2.20,-0.44 2.22,-0.17 2.24,0.09 2.20,0.36 2.15,0.63 2.04,0.88 1.94,1.13 1.77,1.34 1.61,1.56 1.40,1.73 1.19,1.90 0.94,2.01 0.70,2.13 0.43,2.18 0.17,2.24 -0.09,2.22 -0.36,2.21 -0.62,2.14 -0.88,2.06 -1.12,1.92 -1.35,1.79 -1.55,1.60 -1.74,1.41 -1.89,1.18 -2.03,0.95 -2.11,0.69 -2.20,0.44 -2.20,0.44 L -2.20,0.44 Z"></path></g><g transform="translate(89 97) rotate(0 13.5 176)" stroke="none"><path fill="#1e1e1e" d="M 1.29,1.84 Q 1.29,1.84 -1.54,3.88 -4.37,5.92 -6.45,8.85 -8.53,11.77 -10.21,16.30 -11.89,20.82 -13.46,29.81 -15.03,38.81 -15.99,47.82 -16.95,56.83 -17.35,65.22 -17.75,73.61 -17.89,81.77 -18.04,89.92 -16.08,100.03 -14.13,110.13 -11.05,118.64 -7.97,127.14 -3.86,134.37 0.24,141.60 5.11,148.05 9.98,154.50 14.90,160.09 19.82,165.68 26.17,171.72 32.53,177.77 37.51,182.05 42.48,186.33 47.29,189.17 52.09,192.01 56.78,193.42 61.48,194.83 66.23,195.44 70.99,196.04 77.23,196.02 83.47,195.99 88.22,195.99 92.97,195.98 95.85,195.98 98.74,195.98 100.57,195.98 102.40,195.98 103.66,196.36 104.92,196.73 106.53,198.85 108.13,200.97 107.69,202.28 107.25,203.59 106.47,204.77 105.69,205.95 104.60,208.27 103.52,210.60 102.18,213.88 100.85,217.17 100.05,220.41 99.24,223.65 98.60,227.04 97.97,230.42 97.71,233.47 97.45,236.53 97.02,238.89 96.60,241.26 96.44,242.93 96.29,244.61 95.91,246.67 95.53,248.73 95.04,250.29 94.56,251.86 92.96,254.33 91.36,256.80 89.30,256.60 87.23,256.39 85.23,256.29 83.22,256.20 79.76,256.98 76.30,257.76 72.71,258.67 69.12,259.57 66.23,260.51 63.34,261.45 60.68,262.42 58.02,263.38 55.16,263.87 52.29,264.36 49.44,264.27 46.59,264.17 42.28,262.91 37.97,261.65 34.18,260.25 30.40,258.85 26.69,257.06 22.97,255.27 18.93,252.39 14.88,249.51 11.73,246.83 8.57,244.14 5.78,241.56 2.99,238.97 0.37,236.43 -2.25,233.89 -4.80,231.37 -7.36,228.85 -9.43,226.20 -11.51,223.55 -13.83,220.10 -16.15,216.65 -18.03,213.41 -19.91,210.17 -21.54,207.40 -23.17,204.63 -25.80,200.98 -28.44,197.33 -31.19,194.45 -33.93,191.57 -36.45,189.55 -38.96,187.53 -41.33,186.17 -43.71,184.81 -45.99,184.00 -48.28,183.19 -50.25,182.87 -52.23,182.54 -54.73,182.40 -57.23,182.25 -59.28,182.46 -61.33,182.67 -63.65,183.04 -65.97,183.41 -68.56,183.59 -71.15,183.76 -72.55,184.09 -73.95,184.41 -75.02,184.58 -76.09,184.75 -76.79,184.82 -77.49,184.88 -77.86,184.89 -78.22,184.90 -78.58,184.83 -78.93,184.75 -79.26,184.60 -79.59,184.44 -79.87,184.21 -80.15,183.97 -80.36,183.68 -80.58,183.39 -80.72,183.05 -80.86,182.72 -80.92,182.36 -80.97,182.00 -80.94,181.64 -80.91,181.27 -80.79,180.93 -80.67,180.59 -80.48,180.28 -80.28,179.98 -80.01,179.73 -79.75,179.48 -79.43,179.30 -79.12,179.12 -78.77,179.02 -78.42,178.92 -76.56,179.97 -74.70,181.02 -73.42,181.55 -72.14,182.08 -68.55,183.87 -64.96,185.66 -60.88,187.55 -56.81,189.44 -52.66,191.74 -48.51,194.04 -44.57,197.15 -40.63,200.25 -37.43,203.70 -34.22,207.16 -32.10,211.82 -29.98,216.49 -28.83,220.50 -27.67,224.52 -27.17,228.08 -26.67,231.63 -26.46,235.18 -26.26,238.74 -25.34,242.83 -24.42,246.93 -23.22,249.98 -22.03,253.03 -20.22,255.54 -18.41,258.06 -16.29,260.22 -14.17,262.39 -11.62,264.41 -9.07,266.43 -5.24,268.66 -1.40,270.88 1.75,272.75 4.90,274.62 7.80,275.90 10.71,277.19 13.53,278.67 16.36,280.16 19.24,280.94 22.13,281.72 24.86,282.38 27.59,283.04 29.93,283.61 32.27,284.18 34.42,284.72 36.57,285.25 38.82,286.11 41.07,286.97 43.64,288.59 46.22,290.21 48.36,290.99 50.49,291.78 52.66,292.09 54.83,292.40 57.45,292.55 60.07,292.70 62.78,292.48 65.48,292.27 69.08,292.17 72.69,292.08 75.20,291.76 77.70,291.45 80.06,291.31 82.41,291.16 83.85,290.61 85.29,290.05 87.46,289.22 89.63,288.39 90.98,287.99 92.32,287.59 93.33,287.33 94.34,287.06 94.71,287.04 95.08,287.01 95.45,287.08 95.81,287.14 96.15,287.29 96.49,287.44 96.79,287.67 97.08,287.90 97.31,288.19 97.54,288.48 97.70,288.82 97.85,289.16 97.92,289.52 97.99,289.89 97.97,290.26 97.95,290.63 97.84,290.99 97.73,291.34 97.54,291.66 97.35,291.98 97.09,292.25 96.83,292.51 96.51,292.70 96.19,292.90 95.84,293.01 95.48,293.12 95.59,294.41 95.70,295.70 95.23,297.12 94.77,298.54 94.27,300.55 93.78,302.57 93.29,305.92 92.81,309.27 92.60,312.36 92.39,315.46 91.69,318.77 91.00,322.08 89.49,325.94 87.98,329.79 86.17,333.46 84.36,337.12 81.82,341.33 79.29,345.54 77.96,347.83 76.64,350.12 75.66,351.24 74.69,352.36 74.53,352.85 74.37,353.34 74.10,353.59 73.83,353.83 73.51,354.00 73.20,354.17 72.85,354.26 72.50,354.35 72.13,354.35 71.77,354.35 71.42,354.27 71.07,354.19 70.75,354.02 70.43,353.86 70.15,353.62 69.88,353.38 69.67,353.09 69.47,352.79 69.34,352.46 69.20,352.12 69.16,351.76 69.11,351.40 69.15,351.04 69.19,350.69 69.32,350.35 69.44,350.01 69.64,349.71 69.85,349.41 71.50,347.69 73.15,345.96 74.53,344.62 75.90,343.27 76.04,343.11 76.19,342.96 76.38,342.86 76.56,342.76 76.77,342.72 76.98,342.68 77.19,342.71 77.40,342.75 77.59,342.84 77.78,342.94 77.93,343.09 78.07,343.25 78.17,343.44 78.26,343.63 78.28,343.84 78.31,344.05 78.26,344.26 78.22,344.47 78.11,344.65 78.01,344.83 77.84,344.97 77.68,345.11 77.49,345.19 77.29,345.27 77.08,345.29 76.87,345.30 76.66,345.25 76.46,345.19 76.28,345.08 76.10,344.96 75.97,344.79 75.84,344.62 75.77,344.42 75.70,344.22 75.70,344.01 75.70,343.80 75.76,343.59 75.83,343.39 75.95,343.22 76.08,343.05 76.26,342.93 76.43,342.81 76.63,342.75 76.84,342.69 77.05,342.70 77.26,342.71 77.46,342.79 77.66,342.86 77.82,343.00 77.99,343.13 78.10,343.31 78.21,343.50 78.26,343.70 78.31,343.91 78.28,344.12 78.26,344.33 78.18,344.53 78.09,344.72 78.09,344.72 78.09,344.72 77.39,346.51 76.69,348.30 75.53,350.82 74.37,353.34 74.10,353.59 73.83,353.83 73.51,354.00 73.20,354.17 72.85,354.26 72.50,354.35 72.13,354.35 71.77,354.35 71.42,354.27 71.07,354.19 70.75,354.02 70.43,353.86 70.16,353.62 69.88,353.38 69.67,353.09 69.47,352.79 69.34,352.46 69.20,352.12 69.16,351.76 69.11,351.40 69.15,351.04 69.19,350.69 69.32,350.35 69.44,350.01 69.64,349.71 69.85,349.41 69.84,349.07 69.84,348.72 70.57,347.87 71.31,347.02 72.66,344.68 74.01,342.35 76.42,338.36 78.83,334.38 80.54,330.95 82.25,327.52 83.61,324.14 84.97,320.77 85.61,317.90 86.24,315.03 86.47,311.70 86.70,308.37 87.25,304.73 87.79,301.08 88.36,298.80 88.94,296.52 89.63,294.60 90.32,292.69 90.88,291.75 91.45,290.82 92.89,288.94 94.34,287.06 94.71,287.04 95.08,287.01 95.45,287.08 95.81,287.14 96.15,287.29 96.49,287.44 96.79,287.67 97.08,287.90 97.31,288.19 97.54,288.48 97.70,288.82 97.85,289.16 97.92,289.52 97.99,289.89 97.97,290.26 97.95,290.63 97.84,290.99 97.73,291.34 97.54,291.66 97.35,291.98 97.09,292.25 96.83,292.51 96.51,292.70 96.19,292.90 95.84,293.01 95.48,293.12 94.76,293.29 94.03,293.46 92.92,293.78 91.81,294.10 89.55,294.96 87.29,295.82 85.07,296.53 82.84,297.24 80.65,297.37 78.45,297.51 75.65,297.84 72.85,298.18 69.39,298.27 65.93,298.36 62.82,298.58 59.72,298.80 56.79,298.62 53.87,298.43 51.11,297.96 48.34,297.49 45.64,296.43 42.93,295.37 40.88,294.01 38.83,292.66 36.96,291.91 35.09,291.17 32.95,290.64 30.82,290.11 28.49,289.54 26.16,288.97 23.31,288.29 20.47,287.60 17.00,286.58 13.54,285.57 10.88,284.16 8.22,282.76 5.01,281.32 1.79,279.87 -1.34,278.01 -4.48,276.15 -8.68,273.68 -12.88,271.20 -15.71,268.92 -18.55,266.64 -20.98,264.10 -23.42,261.56 -25.56,258.41 -27.70,255.26 -29.03,251.75 -30.37,248.24 -31.34,243.67 -32.31,239.09 -32.49,235.77 -32.67,232.45 -33.09,229.30 -33.50,226.16 -34.51,222.52 -35.51,218.89 -37.11,215.02 -38.71,211.15 -41.55,208.06 -44.39,204.96 -47.92,202.13 -51.45,199.30 -55.39,197.10 -59.34,194.90 -63.49,192.97 -67.64,191.04 -71.22,189.25 -74.81,187.45 -76.15,186.17 -77.49,184.88 -77.86,184.89 -78.22,184.90 -78.58,184.83 -78.93,184.75 -79.26,184.60 -79.59,184.44 -79.87,184.21 -80.15,183.97 -80.36,183.68 -80.58,183.39 -80.72,183.05 -80.86,182.72 -80.92,182.36 -80.97,182.00 -80.94,181.64 -80.91,181.28 -80.79,180.93 -80.67,180.59 -80.48,180.28 -80.28,179.98 -80.01,179.73 -79.75,179.48 -79.43,179.30 -79.12,179.12 -78.77,179.02 -78.42,178.92 -76.83,178.72 -75.25,178.52 -73.40,178.14 -71.56,177.75 -69.23,177.60 -66.90,177.46 -64.40,177.07 -61.90,176.67 -59.38,176.45 -56.87,176.23 -54.03,176.42 -51.19,176.61 -48.71,177.06 -46.23,177.52 -43.46,178.55 -40.69,179.59 -37.93,181.21 -35.17,182.83 -32.36,185.12 -29.55,187.41 -26.55,190.61 -23.54,193.80 -20.76,197.69 -17.98,201.57 -16.33,204.36 -14.69,207.15 -12.92,210.22 -11.15,213.28 -8.94,216.56 -6.74,219.84 -4.93,222.20 -3.12,224.56 -0.58,227.05 1.94,229.55 4.52,232.05 7.10,234.55 9.79,237.05 12.48,239.55 15.44,242.08 18.41,244.61 22.01,247.23 25.61,249.85 29.06,251.52 32.50,253.19 36.11,254.54 39.71,255.88 43.31,257.01 46.90,258.14 49.12,258.27 51.35,258.39 53.66,258.04 55.97,257.69 58.72,256.69 61.48,255.69 64.56,254.69 67.64,253.70 71.34,252.77 75.05,251.84 79.27,251.00 83.49,250.16 86.02,250.31 88.56,250.46 89.71,250.84 90.87,251.23 89.80,250.63 88.74,250.02 89.13,248.81 89.53,247.59 89.87,245.81 90.21,244.03 90.40,242.10 90.59,240.16 90.98,238.08 91.37,235.99 91.67,232.64 91.97,229.29 92.64,225.72 93.32,222.16 94.25,218.51 95.19,214.87 96.59,211.42 97.99,207.98 99.29,205.28 100.59,202.59 101.84,201.30 103.09,200.02 102.68,201.01 102.27,202.01 100.50,202.01 98.74,202.01 95.86,202.01 92.98,202.01 88.23,202.02 83.48,202.02 76.84,202.00 70.21,201.99 64.96,201.27 59.71,200.54 54.39,198.84 49.08,197.13 43.85,193.98 38.63,190.82 33.54,186.42 28.46,182.02 21.96,175.76 15.45,169.50 10.42,163.72 5.38,157.94 0.35,151.16 -4.66,144.38 -8.96,136.71 -13.25,129.05 -16.42,120.10 -19.58,111.16 -21.50,100.49 -23.42,89.83 -23.21,81.59 -22.99,73.35 -22.55,64.81 -22.10,56.27 -21.08,47.09 -20.06,37.91 -18.31,28.46 -16.57,19.01 -14.51,13.95 -12.45,8.89 -9.78,5.50 -7.12,2.12 -4.20,0.13 -1.29,-1.84 -1.05,-1.97 -0.81,-2.10 -0.55,-2.17 -0.28,-2.23 -0.01,-2.24 0.25,-2.24 0.52,-2.17 0.78,-2.11 1.02,-1.99 1.27,-1.86 1.47,-1.68 1.67,-1.50 1.83,-1.28 1.99,-1.06 2.08,-0.80 2.18,-0.55 2.22,-0.28 2.25,-0.01 2.22,0.25 2.19,0.52 2.10,0.78 2.00,1.03 1.85,1.26 1.69,1.48 1.49,1.66 1.29,1.84 1.29,1.84 L 1.29,1.84 Z"></path></g><g transform="translate(284 305) rotate(0 16 66)" stroke="none"><path fill="#1e1e1e" d="M 1.58,-1.31 Q 1.58,-1.31 3.29,0.17 5.00,1.67 7.02,3.75 9.05,5.83 11.22,8.92 13.40,12.01 15.51,16.00 17.61,19.99 19.45,27.11 21.29,34.22 22.34,40.69 23.39,47.16 23.86,53.43 24.32,59.71 23.94,65.68 23.55,71.66 22.51,77.17 21.46,82.69 19.85,88.79 18.24,94.89 17.29,99.11 16.34,103.33 15.96,106.17 15.57,109.02 15.41,111.06 15.24,113.10 15.16,114.75 15.08,116.40 16.47,117.70 17.86,119.00 19.56,120.32 21.26,121.64 23.00,122.70 24.75,123.75 26.62,124.84 28.49,125.93 29.84,127.18 31.20,128.44 31.92,129.65 32.65,130.86 32.81,130.99 32.98,131.12 33.09,131.30 33.20,131.48 33.25,131.69 33.30,131.90 33.29,132.11 33.27,132.32 33.18,132.51 33.10,132.71 32.96,132.87 32.81,133.02 32.63,133.13 32.44,133.23 32.23,133.27 32.02,133.31 31.81,133.28 31.60,133.25 31.41,133.15 31.22,133.06 31.07,132.91 30.92,132.76 30.83,132.56 30.74,132.37 30.71,132.16 30.68,131.95 30.72,131.74 30.76,131.54 30.87,131.35 30.98,131.17 31.13,131.03 31.29,130.88 31.49,130.80 31.68,130.72 31.90,130.70 32.11,130.69 32.31,130.74 32.52,130.79 32.70,130.91 32.88,131.02 33.01,131.19 33.14,131.35 33.21,131.55 33.29,131.75 33.29,131.97 33.30,132.18 33.23,132.38 33.17,132.58 33.04,132.76 32.92,132.93 32.75,133.05 32.57,133.17 32.37,133.24 32.17,133.30 31.95,133.29 31.74,133.28 31.54,133.21 31.34,133.13 31.34,133.13 31.34,133.13 29.42,132.83 27.49,132.52 26.61,131.72 25.73,130.92 23.69,129.88 21.66,128.84 19.63,127.61 17.60,126.37 15.82,124.99 14.05,123.62 12.29,121.97 10.53,120.31 9.83,118.34 9.13,116.38 9.20,114.49 9.26,112.61 9.45,110.41 9.63,108.20 10.06,105.11 10.49,102.02 11.47,97.69 12.44,93.36 14.01,87.45 15.57,81.55 16.58,76.40 17.59,71.25 17.99,65.68 18.39,60.12 17.99,54.10 17.60,48.08 16.61,41.87 15.62,35.65 14.03,29.15 12.44,22.66 10.53,18.98 8.61,15.30 6.75,12.52 4.89,9.74 2.81,7.48 0.74,5.22 -0.41,3.27 -1.58,1.31 -1.71,1.11 -1.85,0.90 -1.93,0.66 -2.01,0.43 -2.03,0.18 -2.06,-0.06 -2.02,-0.30 -1.98,-0.55 -1.89,-0.78 -1.79,-1.01 -1.64,-1.21 -1.50,-1.41 -1.31,-1.57 -1.11,-1.73 -0.89,-1.84 -0.67,-1.94 -0.42,-2.00 -0.18,-2.05 0.06,-2.04 0.31,-2.03 0.54,-1.97 0.78,-1.90 1.00,-1.78 1.22,-1.66 1.40,-1.49 1.58,-1.31 1.58,-1.31 L 1.58,-1.31 Z"></path></g></svg>