<svg version="1.1" xmlns="http://www.w3.org/2000/svg" viewBox="0 0 581 395" width="581" height="395">
  <g transform="translate(198 177) rotate(0 -1.5 -73)" stroke="none"><path fill="#1e1e1e" d="M -2.84,0.71 Q -2.84,0.71 -3.45,-1.58 -4.05,-3.88 -4.63,-10.55 -5.20,-17.23 -5.43,-27.24 -5.67,-37.26 -5.47,-49.58 -5.28,-61.91 -4.89,-74.90 -4.51,-87.90 -4.28,-100.86 -4.05,-113.83 -3.85,-121.64 -3.65,-129.46 -3.10,-134.28 -2.56,-139.10 -1.93,-142.59 -1.31,-146.08 -1.26,-146.29 -1.21,-146.50 -1.10,-146.68 -0.99,-146.86 -0.82,-146.99 -0.66,-147.13 -0.46,-147.20 -0.26,-147.28 -0.05,-147.29 0.15,-147.30 0.36,-147.24 0.56,-147.18 0.74,-147.06 0.91,-146.94 1.04,-146.77 1.16,-146.60 1.23,-146.39 1.29,-146.19 1.29,-145.98 1.29,-145.77 1.22,-145.57 1.15,-145.37 1.02,-145.20 0.89,-145.03 0.71,-144.91 0.53,-144.80 0.33,-144.74 0.12,-144.69 -0.08,-144.70 -0.29,-144.72 -0.49,-144.80 -0.69,-144.88 -0.85,-145.02 -1.01,-145.16 -1.11,-145.34 -1.22,-145.52 -1.26,-145.73 -1.31,-145.94 -1.28,-146.15 -1.26,-146.36 -1.16,-146.55 -1.07,-146.75 -0.92,-146.90 -0.78,-147.05 -0.59,-147.15 -0.40,-147.24 -0.19,-147.28 0.01,-147.31 0.22,-147.27 0.43,-147.23 0.62,-147.13 0.80,-147.03 0.95,-146.87 1.09,-146.72 1.18,-146.52 1.26,-146.33 1.29,-146.12 1.31,-145.91 1.31,-145.91 1.31,-145.91 1.46,-142.36 1.62,-138.82 1.54,-134.11 1.45,-129.41 1.52,-121.59 1.59,-113.76 1.50,-100.74 1.41,-87.73 1.06,-74.77 0.71,-61.81 0.52,-49.60 0.33,-37.39 0.55,-27.56 0.78,-17.72 1.26,-11.52 1.75,-5.31 2.30,-3.01 2.84,-0.71 2.89,-0.36 2.93,-0.00 2.89,0.34 2.85,0.69 2.72,1.02 2.60,1.35 2.40,1.64 2.20,1.93 1.93,2.17 1.67,2.41 1.36,2.57 1.04,2.74 0.70,2.82 0.36,2.91 0.00,2.91 -0.34,2.91 -0.68,2.83 -1.03,2.74 -1.34,2.58 -1.65,2.42 -1.92,2.18 -2.19,1.95 -2.39,1.66 -2.59,1.37 -2.72,1.04 -2.84,0.71 -2.84,0.71 L -2.84,0.71 Z"></path></g><g transform="translate(197 15) rotate(0 85.5 -2)" stroke="none"><path fill="#1e1e1e" d="M 0.10,-2.48 Q 0.10,-2.48 6.72,-2.29 13.34,-2.11 26.74,-2.06 40.14,-2.00 54.19,-1.98 68.23,-1.97 82.25,-1.95 96.27,-1.93 108.55,-1.90 120.84,-1.87 130.58,-2.38 140.32,-2.88 149.03,-3.81 157.74,-4.74 164.26,-5.52 170.79,-6.29 171.00,-6.29 171.21,-6.29 171.42,-6.22 171.62,-6.15 171.78,-6.02 171.95,-5.89 172.07,-5.72 172.19,-5.54 172.25,-5.34 172.30,-5.13 172.29,-4.92 172.28,-4.71 172.20,-4.51 172.12,-4.31 171.98,-4.15 171.84,-3.99 171.66,-3.88 171.47,-3.77 171.27,-3.73 171.06,-3.68 170.85,-3.71 170.64,-3.73 170.44,-3.82 170.25,-3.91 170.10,-4.06 169.95,-4.21 169.85,-4.39 169.75,-4.58 169.71,-4.79 169.68,-5.00 169.72,-5.21 169.75,-5.42 169.85,-5.61 169.95,-5.80 170.11,-5.94 170.26,-6.09 170.46,-6.17 170.65,-6.26 170.86,-6.28 171.07,-6.31 171.28,-6.26 171.49,-6.21 171.67,-6.10 171.85,-5.99 171.99,-5.83 172.12,-5.67 172.20,-5.47 172.28,-5.27 172.29,-5.06 172.30,-4.85 172.24,-4.64 172.18,-4.44 172.06,-4.26 171.94,-4.09 171.77,-3.96 171.60,-3.83 171.40,-3.76 171.20,-3.70 171.20,-3.70 171.20,-3.70 164.76,-2.42 158.31,-1.13 149.47,0.71 140.64,2.57 130.74,3.21 120.83,3.84 108.55,3.86 96.26,3.87 82.24,3.84 68.21,3.81 54.15,3.73 40.09,3.64 26.60,3.45 13.10,3.26 6.50,2.87 -0.10,2.48 -0.40,2.43 -0.69,2.38 -0.97,2.26 -1.24,2.14 -1.48,1.96 -1.72,1.78 -1.91,1.55 -2.10,1.32 -2.23,1.05 -2.35,0.77 -2.41,0.48 -2.47,0.19 -2.46,-0.10 -2.45,-0.40 -2.36,-0.69 -2.28,-0.98 -2.13,-1.24 -1.98,-1.49 -1.77,-1.71 -1.56,-1.92 -1.31,-2.08 -1.05,-2.24 -0.77,-2.34 -0.48,-2.43 -0.19,-2.45 0.10,-2.48 0.10,-2.48 L 0.10,-2.48 Z"></path></g><g transform="translate(400 10) rotate(0 -12 99.5)" stroke="none"><path fill="#1e1e1e" d="M 2.51,1.25 Q 2.51,1.25 1.08,4.13 -0.34,7.00 -1.72,11.73 -3.11,16.47 -4.53,25.59 -5.95,34.71 -7.65,55.81 -9.36,76.91 -10.40,97.08 -11.44,117.26 -11.88,133.86 -12.32,150.47 -13.09,162.20 -13.86,173.94 -15.07,181.07 -16.28,188.21 -17.92,191.71 -19.56,195.20 -21.17,197.35 -22.78,199.50 -22.90,199.68 -23.01,199.86 -23.17,200.00 -23.34,200.13 -23.54,200.21 -23.74,200.28 -23.95,200.29 -24.16,200.30 -24.37,200.24 -24.57,200.18 -24.74,200.05 -24.92,199.93 -25.04,199.76 -25.17,199.59 -25.23,199.39 -25.29,199.18 -25.29,198.97 -25.29,198.76 -25.22,198.56 -25.14,198.36 -25.01,198.19 -24.88,198.02 -24.70,197.91 -24.52,197.79 -24.32,197.74 -24.11,197.69 -23.90,197.70 -23.69,197.72 -23.49,197.80 -23.30,197.88 -23.14,198.02 -22.98,198.16 -22.87,198.35 -22.77,198.53 -22.72,198.74 -22.68,198.95 -22.71,199.16 -22.74,199.37 -22.83,199.56 -22.92,199.75 -23.07,199.90 -23.22,200.06 -23.41,200.15 -23.60,200.25 -23.81,200.28 -24.02,200.31 -24.23,200.27 -24.44,200.23 -24.62,200.13 -24.81,200.03 -24.95,199.87 -25.10,199.71 -25.18,199.52 -25.27,199.32 -25.29,199.11 -25.30,198.90 -25.26,198.69 -25.21,198.49 -25.21,198.49 -25.21,198.49 -24.80,195.83 -24.39,193.17 -23.29,190.17 -22.20,187.16 -21.04,180.35 -19.88,173.54 -19.11,161.92 -18.35,150.31 -17.91,133.63 -17.46,116.94 -16.41,96.67 -15.36,76.40 -13.50,55.10 -11.64,33.80 -10.08,24.33 -8.53,14.86 -6.96,9.67 -5.40,4.49 -3.96,1.61 -2.51,-1.25 -2.33,-1.54 -2.14,-1.82 -1.89,-2.05 -1.64,-2.28 -1.34,-2.45 -1.05,-2.61 -0.72,-2.70 -0.39,-2.78 -0.05,-2.79 0.28,-2.80 0.61,-2.72 0.94,-2.65 1.25,-2.50 1.55,-2.34 1.81,-2.12 2.07,-1.90 2.27,-1.63 2.46,-1.35 2.59,-1.04 2.72,-0.72 2.76,-0.39 2.81,-0.05 2.78,0.28 2.74,0.62 2.63,0.94 2.51,1.26 2.51,1.26 L 2.51,1.25 Z"></path></g><g transform="translate(188 197) rotate(0 -89 -0.5)" stroke="none"><path fill="#1e1e1e" d="M 0,2.92 Q 0,2.92 -2.30,2.93 -4.60,2.94 -13.67,2.64 -22.74,2.35 -33.45,2.23 -44.16,2.11 -56.76,2.06 -69.36,2.01 -83.06,1.99 -96.75,1.97 -110.05,1.96 -123.34,1.95 -134.45,1.94 -145.57,1.93 -154.60,1.64 -163.64,1.34 -167.70,1.42 -171.76,1.50 -174.83,1.40 -177.90,1.31 -178.12,1.29 -178.33,1.27 -178.52,1.18 -178.72,1.09 -178.87,0.95 -179.03,0.81 -179.13,0.62 -179.23,0.43 -179.27,0.22 -179.31,0.01 -179.28,-0.19 -179.25,-0.40 -179.15,-0.58 -179.05,-0.77 -178.90,-0.92 -178.75,-1.07 -178.56,-1.16 -178.37,-1.25 -178.15,-1.28 -177.94,-1.31 -177.74,-1.26 -177.53,-1.22 -177.34,-1.12 -177.16,-1.01 -177.02,-0.85 -176.88,-0.69 -176.80,-0.49 -176.72,-0.30 -176.70,-0.08 -176.69,0.12 -176.74,0.32 -176.79,0.53 -176.91,0.71 -177.03,0.88 -177.20,1.01 -177.36,1.15 -177.56,1.22 -177.76,1.29 -177.98,1.29 -178.19,1.29 -178.39,1.23 -178.59,1.16 -178.76,1.04 -178.93,0.91 -179.06,0.74 -179.18,0.56 -179.24,0.36 -179.30,0.16 -179.29,-0.05 -179.28,-0.26 -179.21,-0.46 -179.13,-0.66 -179.00,-0.82 -178.86,-0.98 -178.68,-1.10 -178.50,-1.21 -178.29,-1.26 -178.09,-1.31 -178.09,-1.31 -178.09,-1.31 -175.06,-1.83 -172.03,-2.35 -167.83,-2.85 -163.64,-3.34 -154.60,-3.63 -145.57,-3.92 -134.45,-3.92 -123.34,-3.92 -110.04,-3.91 -96.74,-3.90 -83.04,-3.88 -69.34,-3.85 -56.71,-3.80 -44.09,-3.75 -33.32,-3.63 -22.56,-3.50 -13.58,-3.22 -4.59,-2.94 -2.29,-2.93 0,-2.92 0.35,-2.88 0.70,-2.84 1.03,-2.71 1.36,-2.59 1.65,-2.39 1.94,-2.19 2.17,-1.92 2.41,-1.66 2.57,-1.35 2.73,-1.03 2.82,-0.69 2.90,-0.35 2.90,0.00 2.90,0.35 2.82,0.69 2.73,1.03 2.57,1.35 2.41,1.66 2.17,1.92 1.94,2.19 1.65,2.39 1.36,2.59 1.03,2.71 0.70,2.84 0.35,2.88 -0.00,2.92 -0.00,2.92 L 0,2.92 Z"></path></g><g transform="translate(26 198) rotate(0 -4 86.5)" stroke="none"><path fill="#1e1e1e" d="M 1.09,1.90 Q 1.09,1.90 -0.69,3.12 -2.48,4.33 -3.46,7.17 -4.44,10.02 -4.94,16.81 -5.43,23.61 -5.05,36.00 -4.66,48.39 -3.63,64.30 -2.61,80.21 -1.61,95.91 -0.61,111.61 0.09,126.35 0.80,141.09 1.10,149.67 1.40,158.24 1.80,162.37 2.19,166.49 2.23,169.58 2.27,172.67 2.29,172.88 2.30,173.09 2.26,173.30 2.21,173.50 2.09,173.68 1.98,173.86 1.82,174.00 1.65,174.13 1.45,174.21 1.26,174.28 1.04,174.29 0.83,174.30 0.63,174.24 0.42,174.18 0.25,174.06 0.08,173.93 -0.04,173.76 -0.17,173.59 -0.23,173.39 -0.29,173.19 -0.29,172.97 -0.29,172.76 -0.22,172.56 -0.14,172.36 -0.01,172.19 0.11,172.03 0.29,171.91 0.46,171.79 0.67,171.74 0.88,171.69 1.09,171.70 1.30,171.72 1.50,171.80 1.69,171.88 1.85,172.02 2.01,172.16 2.12,172.35 2.22,172.53 2.27,172.74 2.31,172.95 2.28,173.16 2.25,173.37 2.16,173.56 2.07,173.75 1.92,173.90 1.77,174.05 1.58,174.15 1.39,174.25 1.18,174.28 0.97,174.31 0.76,174.27 0.55,174.23 0.37,174.13 0.18,174.03 0.04,173.87 -0.09,173.71 -0.18,173.52 -0.27,173.32 -0.27,173.32 -0.27,173.32 -1.85,170.19 -3.42,167.05 -3.86,162.75 -4.30,158.45 -4.60,149.91 -4.91,141.37 -5.62,126.67 -6.33,111.97 -7.33,96.27 -8.33,80.57 -9.30,64.55 -10.27,48.53 -10.51,35.84 -10.76,23.16 -10.04,15.59 -9.32,8.03 -7.44,4.15 -5.56,0.26 -3.32,-0.82 -1.09,-1.90 -0.84,-2.01 -0.60,-2.11 -0.34,-2.15 -0.07,-2.19 0.18,-2.17 0.44,-2.15 0.69,-2.06 0.95,-1.98 1.17,-1.83 1.39,-1.69 1.57,-1.50 1.76,-1.31 1.89,-1.08 2.02,-0.85 2.09,-0.59 2.17,-0.34 2.17,-0.07 2.18,0.18 2.13,0.44 2.08,0.70 1.96,0.94 1.85,1.18 1.68,1.38 1.51,1.59 1.30,1.74 1.08,1.90 1.09,1.90 L 1.09,1.90 Z"></path></g><g transform="translate(13 385) rotate(0 243.5 -8.5)" stroke="none"><path fill="#1e1e1e" d="M -0.77,-2.58 Q -0.77,-2.58 2.10,-3.44 4.97,-4.29 9.46,-5.26 13.95,-6.24 20.26,-6.97 26.56,-7.70 35.33,-8.02 44.10,-8.34 56.72,-8.49 69.35,-8.63 92.25,-8.69 115.15,-8.74 138.92,-9.62 162.68,-10.51 188.32,-11.75 213.95,-12.99 240.96,-14.09 267.97,-15.20 301.87,-16.55 335.77,-17.90 362.28,-18.47 388.79,-19.03 408.68,-19.26 428.57,-19.48 443.12,-18.87 457.66,-18.25 466.14,-17.60 474.62,-16.95 480.85,-16.13 487.07,-15.31 487.28,-15.26 487.49,-15.21 487.67,-15.10 487.85,-14.99 487.99,-14.83 488.12,-14.67 488.20,-14.47 488.28,-14.27 488.29,-14.06 488.30,-13.85 488.24,-13.64 488.18,-13.44 488.07,-13.26 487.95,-13.09 487.78,-12.96 487.61,-12.83 487.40,-12.77 487.20,-12.70 486.99,-12.70 486.78,-12.70 486.58,-12.77 486.38,-12.84 486.21,-12.97 486.04,-13.10 485.92,-13.27 485.80,-13.45 485.74,-13.65 485.69,-13.86 485.70,-14.07 485.71,-14.28 485.79,-14.48 485.87,-14.68 486.01,-14.84 486.15,-15.00 486.33,-15.11 486.51,-15.22 486.72,-15.26 486.93,-15.31 487.14,-15.28 487.35,-15.26 487.54,-15.17 487.74,-15.08 487.89,-14.93 488.04,-14.79 488.14,-14.60 488.24,-14.41 488.27,-14.20 488.31,-13.99 488.27,-13.78 488.24,-13.57 488.14,-13.38 488.04,-13.20 487.88,-13.05 487.73,-12.91 487.53,-12.82 487.34,-12.73 487.13,-12.71 486.92,-12.68 486.92,-12.68 486.92,-12.68 480.64,-12.58 474.36,-12.48 465.93,-12.81 457.50,-13.14 443.07,-13.47 428.64,-13.80 408.77,-13.54 388.91,-13.28 362.45,-12.72 335.99,-12.15 302.10,-10.84 268.20,-9.54 241.21,-8.44 214.22,-7.34 188.56,-6.10 162.89,-4.87 139.03,-3.98 115.16,-3.09 92.28,-3.04 69.41,-2.99 56.84,-2.89 44.28,-2.79 35.73,-2.52 27.17,-2.25 21.12,-1.61 15.08,-0.97 10.80,-0.06 6.52,0.84 3.64,1.71 0.77,2.58 0.45,2.64 0.13,2.69 -0.19,2.67 -0.51,2.65 -0.82,2.55 -1.13,2.45 -1.41,2.27 -1.68,2.10 -1.91,1.87 -2.14,1.64 -2.30,1.36 -2.47,1.08 -2.56,0.77 -2.66,0.45 -2.67,0.13 -2.69,-0.19 -2.63,-0.51 -2.57,-0.83 -2.43,-1.12 -2.29,-1.42 -2.09,-1.67 -1.88,-1.93 -1.63,-2.12 -1.37,-2.32 -1.07,-2.45 -0.77,-2.58 -0.77,-2.58 L -0.77,-2.58 Z"></path></g><g transform="translate(571 346) rotate(0 -16 -65)" stroke="none"><path fill="#1e1e1e" d="M -2.13,1.96 Q -2.13,1.96 -5.59,-1.77 -9.06,-5.52 -12.20,-11.76 -15.33,-18.01 -17.25,-27.48 -19.18,-36.95 -19.95,-48.49 -20.72,-60.02 -21.03,-73.24 -21.34,-86.47 -21.70,-95.77 -22.07,-105.08 -22.98,-111.17 -23.89,-117.26 -25.78,-120.42 -27.67,-123.59 -29.13,-124.94 -30.60,-126.30 -31.72,-127.65 -32.84,-128.99 -32.98,-129.15 -33.12,-129.31 -33.20,-129.51 -33.28,-129.71 -33.29,-129.92 -33.30,-130.13 -33.25,-130.33 -33.19,-130.54 -33.07,-130.72 -32.95,-130.89 -32.79,-131.02 -32.62,-131.15 -32.42,-131.22 -32.21,-131.29 -32.00,-131.29 -31.79,-131.29 -31.59,-131.23 -31.39,-131.16 -31.22,-131.03 -31.05,-130.90 -30.93,-130.73 -30.81,-130.55 -30.75,-130.35 -30.69,-130.14 -30.70,-129.93 -30.71,-129.72 -30.79,-129.52 -30.87,-129.32 -31.00,-129.16 -31.14,-129.00 -31.32,-128.89 -31.50,-128.78 -31.71,-128.73 -31.92,-128.68 -32.13,-128.71 -32.34,-128.73 -32.53,-128.82 -32.73,-128.90 -32.88,-129.05 -33.04,-129.19 -33.14,-129.38 -33.24,-129.57 -33.27,-129.78 -33.31,-129.99 -33.28,-130.20 -33.24,-130.41 -33.14,-130.60 -33.04,-130.78 -32.89,-130.93 -32.74,-131.08 -32.55,-131.17 -32.35,-131.26 -32.14,-131.28 -31.93,-131.31 -31.72,-131.26 -31.52,-131.22 -31.33,-131.11 -31.15,-131.00 -31.15,-131.00 -31.15,-131.00 -29.63,-130.13 -28.12,-129.26 -26.01,-127.62 -23.91,-125.98 -21.46,-122.10 -19.01,-118.21 -17.84,-111.77 -16.66,-105.33 -16.18,-95.97 -15.69,-86.61 -15.34,-73.51 -15.00,-60.41 -14.23,-49.24 -13.47,-38.08 -11.77,-29.31 -10.08,-20.54 -7.40,-14.98 -4.73,-9.42 -1.30,-5.69 2.13,-1.96 2.33,-1.68 2.54,-1.40 2.67,-1.07 2.80,-0.75 2.85,-0.40 2.90,-0.05 2.86,0.28 2.83,0.63 2.71,0.96 2.59,1.29 2.40,1.58 2.21,1.87 1.95,2.11 1.69,2.35 1.39,2.52 1.08,2.69 0.74,2.78 0.40,2.87 0.05,2.87 -0.29,2.88 -0.63,2.80 -0.97,2.73 -1.28,2.57 -1.59,2.42 -1.86,2.19 -2.13,1.96 -2.13,1.96 L -2.13,1.96 Z"></path></g><g transform="translate(531 209) rotate(0 -66.5 -3)" stroke="none"><path fill="#1e1e1e" d="M -0.26,2.41 Q -0.26,2.41 -2.87,2.31 -5.48,2.21 -10.28,1.79 -15.08,1.38 -22.28,0.92 -29.48,0.46 -41.79,-0.58 -54.09,-1.63 -65.86,-2.05 -77.62,-2.47 -88.33,-2.39 -99.04,-2.30 -108.71,-1.76 -118.38,-1.22 -125.63,-0.96 -132.87,-0.69 -133.09,-0.70 -133.30,-0.72 -133.49,-0.80 -133.69,-0.88 -133.85,-1.02 -134.01,-1.16 -134.12,-1.34 -134.22,-1.53 -134.27,-1.74 -134.31,-1.94 -134.28,-2.16 -134.25,-2.37 -134.16,-2.56 -134.07,-2.75 -133.92,-2.90 -133.77,-3.05 -133.58,-3.15 -133.39,-3.25 -133.18,-3.28 -132.97,-3.31 -132.76,-3.27 -132.56,-3.23 -132.37,-3.13 -132.18,-3.03 -132.04,-2.87 -131.90,-2.71 -131.81,-2.52 -131.72,-2.33 -131.70,-2.11 -131.68,-1.90 -131.73,-1.70 -131.78,-1.49 -131.90,-1.31 -132.01,-1.13 -132.17,-0.99 -132.34,-0.86 -132.53,-0.78 -132.73,-0.71 -132.95,-0.70 -133.16,-0.69 -133.36,-0.75 -133.57,-0.81 -133.74,-0.93 -133.91,-1.06 -134.04,-1.23 -134.17,-1.40 -134.23,-1.60 -134.29,-1.80 -134.29,-2.02 -134.29,-2.23 -134.22,-2.43 -134.15,-2.63 -134.01,-2.80 -133.88,-2.96 -133.70,-3.08 -133.53,-3.20 -133.32,-3.25 -133.12,-3.30 -133.12,-3.30 -133.12,-3.30 -125.94,-4.37 -118.77,-5.44 -108.93,-6.70 -99.09,-7.97 -88.25,-8.08 -77.40,-8.19 -65.51,-7.71 -53.61,-7.23 -41.37,-6.16 -29.13,-5.09 -21.87,-4.63 -14.61,-4.17 -9.73,-3.76 -4.86,-3.36 -2.29,-2.88 0.26,-2.41 0.55,-2.34 0.83,-2.27 1.09,-2.14 1.35,-2.01 1.57,-1.81 1.80,-1.62 1.96,-1.38 2.13,-1.14 2.24,-0.87 2.35,-0.60 2.38,-0.31 2.42,-0.02 2.39,0.26 2.36,0.55 2.26,0.83 2.16,1.10 1.99,1.34 1.83,1.59 1.61,1.78 1.39,1.98 1.14,2.12 0.88,2.26 0.60,2.33 0.31,2.40 0.02,2.40 -0.26,2.41 -0.26,2.41 L -0.26,2.41 Z"></path></g></svg>