<svg version="1.1" xmlns="http://www.w3.org/2000/svg" viewBox="0 0 807 746" width="807" height="746">
  <g transform="translate(206 271) rotate(0 -98 81.5)" stroke="none"><path fill="#1e1e1e" d="M -1.32,2.38 Q -1.32,2.38 -3.92,0.96 -6.51,-0.46 -13.54,-3.61 -20.57,-6.75 -31.21,-10.07 -41.85,-13.40 -59.16,-15.92 -76.48,-18.45 -91.97,-17.47 -107.46,-16.50 -121.50,-11.27 -135.55,-6.05 -147.58,3.70 -159.61,13.45 -169.15,32.48 -178.68,51.52 -182.76,70.35 -186.85,89.19 -184.88,105.48 -182.92,121.77 -176.51,134.46 -170.10,147.16 -161.03,156.19 -151.97,165.23 -143.19,171.32 -134.41,177.40 -127.85,182.15 -121.28,186.89 -121.12,187.04 -120.96,187.18 -120.86,187.37 -120.76,187.55 -120.72,187.76 -120.68,187.97 -120.71,188.18 -120.74,188.39 -120.84,188.58 -120.94,188.77 -121.09,188.92 -121.24,189.07 -121.43,189.16 -121.62,189.25 -121.83,189.28 -122.04,189.31 -122.25,189.27 -122.46,189.22 -122.64,189.12 -122.83,189.01 -122.97,188.85 -123.11,188.69 -123.19,188.50 -123.27,188.30 -123.29,188.09 -123.30,187.88 -123.25,187.67 -123.20,187.47 -123.08,187.29 -122.96,187.11 -122.80,186.98 -122.63,186.85 -122.43,186.77 -122.23,186.70 -122.02,186.70 -121.81,186.70 -121.60,186.76 -121.40,186.82 -121.23,186.95 -121.06,187.07 -120.94,187.25 -120.81,187.42 -120.75,187.63 -120.69,187.83 -120.70,188.04 -120.71,188.25 -120.78,188.45 -120.86,188.65 -120.99,188.82 -121.13,188.98 -121.31,189.09 -121.49,189.21 -121.69,189.26 -121.90,189.30 -122.11,189.29 -122.32,189.27 -122.52,189.18 -122.71,189.09 -122.71,189.10 -122.71,189.10 -129.71,185.00 -136.70,180.91 -146.27,175.03 -155.84,169.16 -165.59,159.52 -175.34,149.89 -182.09,136.24 -188.83,122.58 -190.77,105.30 -192.70,88.01 -188.37,68.43 -184.03,48.85 -173.76,28.91 -163.49,8.96 -150.58,-1.29 -137.66,-11.54 -122.76,-16.87 -107.86,-22.20 -91.78,-23.05 -75.70,-23.90 -57.96,-21.26 -40.23,-18.62 -29.27,-15.20 -18.32,-11.78 -11.08,-8.53 -3.83,-5.28 -1.25,-3.83 1.32,-2.38 1.59,-2.19 1.85,-2.00 2.07,-1.74 2.28,-1.49 2.43,-1.20 2.57,-0.90 2.64,-0.58 2.71,-0.26 2.71,0.06 2.70,0.39 2.61,0.71 2.53,1.02 2.37,1.31 2.21,1.60 1.98,1.84 1.76,2.08 1.48,2.26 1.21,2.44 0.90,2.55 0.59,2.66 0.26,2.69 -0.06,2.73 -0.39,2.68 -0.71,2.63 -1.02,2.51 -1.32,2.38 -1.32,2.38 L -1.32,2.38 Z"></path></g><g transform="translate(202 291) rotate(0 208.5 10.5)" stroke="none"><path fill="#1e1e1e" d="M -2.67,-1.14 Q -2.67,-1.14 -1.76,-3.25 -0.86,-5.35 4.25,-9.31 9.36,-13.26 19.08,-17.74 28.80,-22.22 49.14,-27.88 69.48,-33.54 91.71,-36.84 113.95,-40.14 137.83,-41.53 161.71,-42.92 186.07,-41.50 210.43,-40.07 234.11,-35.71 257.80,-31.34 283.26,-22.26 308.72,-13.18 327.34,-4.41 345.97,4.36 359.72,12.73 373.48,21.11 382.86,28.47 392.25,35.84 399.38,41.83 406.50,47.82 410.23,51.42 413.96,55.02 414.12,58.87 414.28,62.72 414.29,62.93 414.30,63.14 414.24,63.35 414.18,63.55 414.06,63.73 413.95,63.90 413.78,64.03 413.61,64.16 413.40,64.22 413.20,64.29 412.99,64.29 412.78,64.29 412.58,64.22 412.38,64.15 412.21,64.02 412.04,63.89 411.92,63.72 411.80,63.54 411.74,63.34 411.69,63.13 411.70,62.92 411.71,62.71 411.79,62.51 411.87,62.31 412.01,62.15 412.15,61.99 412.33,61.88 412.51,61.77 412.72,61.73 412.93,61.68 413.14,61.71 413.35,61.73 413.54,61.82 413.74,61.91 413.89,62.06 414.04,62.20 414.14,62.39 414.24,62.58 414.27,62.79 414.31,63.00 414.27,63.21 414.24,63.42 414.14,63.61 414.04,63.79 413.88,63.94 413.73,64.08 413.53,64.17 413.34,64.26 413.13,64.28 412.92,64.31 412.71,64.26 412.50,64.21 412.32,64.10 412.14,63.99 412.00,63.83 411.87,63.67 411.79,63.47 411.71,63.27 411.71,63.27 411.71,63.27 410.57,61.10 409.43,58.92 405.98,55.73 402.54,52.54 395.49,46.60 388.45,40.66 379.37,33.49 370.29,26.32 356.83,18.07 343.38,9.83 325.03,1.15 306.69,-7.52 281.70,-16.50 256.71,-25.49 233.39,-29.82 210.07,-34.14 186.06,-35.57 162.05,-37.00 138.43,-35.64 114.81,-34.29 92.91,-31.12 71.02,-27.95 51.11,-22.45 31.21,-16.95 22.00,-12.75 12.79,-8.55 8.55,-5.62 4.31,-2.69 3.49,-0.77 2.67,1.14 2.50,1.45 2.32,1.75 2.08,2.00 1.83,2.26 1.54,2.44 1.24,2.63 0.90,2.74 0.57,2.85 0.22,2.88 -0.12,2.90 -0.46,2.85 -0.81,2.79 -1.13,2.65 -1.46,2.51 -1.74,2.30 -2.02,2.09 -2.24,1.82 -2.46,1.55 -2.61,1.23 -2.76,0.91 -2.83,0.57 -2.90,0.22 -2.88,-0.12 -2.87,-0.47 -2.77,-0.81 -2.67,-1.14 -2.67,-1.14 L -2.67,-1.14 Z"></path></g><g transform="translate(591 307) rotate(0 103 59.5)" stroke="none"><path fill="#1e1e1e" d="M -2.25,-1.77 Q -2.25,-1.77 0.87,-5.84 4.01,-9.91 11.70,-15.36 19.39,-20.81 30.82,-26.01 42.25,-31.22 60.57,-34.64 78.90,-38.05 94.96,-37.18 111.03,-36.30 125.10,-30.34 139.16,-24.39 151.35,-14.21 163.54,-4.03 174.90,12.85 186.26,29.74 192.85,44.18 199.45,58.63 202.32,71.64 205.19,84.64 203.78,96.07 202.37,107.49 196.93,117.03 191.49,126.57 179.93,135.13 168.38,143.70 157.55,148.37 146.72,153.03 135.89,155.30 125.06,157.57 117.18,158.92 109.30,160.27 109.09,160.29 108.88,160.30 108.67,160.25 108.47,160.20 108.29,160.08 108.11,159.97 107.98,159.80 107.85,159.63 107.78,159.43 107.70,159.23 107.70,159.02 107.70,158.81 107.76,158.61 107.82,158.40 107.95,158.23 108.07,158.06 108.25,157.94 108.42,157.81 108.62,157.75 108.83,157.69 109.04,157.70 109.25,157.71 109.45,157.78 109.65,157.86 109.81,157.99 109.98,158.13 110.09,158.31 110.21,158.49 110.26,158.69 110.30,158.90 110.29,159.11 110.27,159.32 110.18,159.52 110.10,159.71 109.95,159.87 109.81,160.02 109.62,160.13 109.44,160.23 109.23,160.27 109.02,160.31 108.81,160.28 108.60,160.25 108.41,160.15 108.22,160.06 108.07,159.90 107.92,159.75 107.83,159.56 107.74,159.37 107.71,159.16 107.68,158.95 107.72,158.74 107.77,158.53 107.87,158.35 107.98,158.16 108.14,158.02 108.30,157.88 108.49,157.80 108.69,157.72 108.69,157.72 108.69,157.72 116.32,155.33 123.95,152.94 134.10,150.16 144.25,147.37 154.38,142.85 164.51,138.33 175.20,130.69 185.89,123.04 190.87,114.74 195.84,106.43 197.28,96.17 198.73,85.90 196.14,73.58 193.55,61.26 187.30,47.22 181.05,33.19 170.30,16.89 159.55,0.59 148.13,-9.14 136.71,-18.88 123.64,-24.61 110.57,-30.34 95.25,-31.25 79.94,-32.17 62.30,-28.98 44.66,-25.79 33.72,-20.86 22.78,-15.92 15.71,-11.05 8.63,-6.18 5.44,-2.20 2.25,1.77 2.00,2.01 1.76,2.25 1.46,2.43 1.17,2.61 0.84,2.71 0.51,2.82 0.16,2.84 -0.17,2.86 -0.51,2.79 -0.85,2.73 -1.17,2.59 -1.48,2.45 -1.75,2.23 -2.02,2.02 -2.24,1.75 -2.45,1.47 -2.59,1.16 -2.73,0.84 -2.79,0.50 -2.86,0.16 -2.84,-0.17 -2.81,-0.52 -2.71,-0.85 -2.61,-1.18 -2.43,-1.47 -2.25,-1.77 -2.25,-1.77 L -2.25,-1.77 Z"></path></g><g transform="translate(91 482) rotate(0 352 127)" stroke="none"><path fill="#1e1e1e" d="M 2.02,0 Q 2.02,0 2.38,2.58 2.74,5.17 2.74,12.30 2.75,19.44 5.60,36.04 8.46,52.65 13.40,70.00 18.34,87.35 26.19,103.74 34.04,120.13 45.03,134.98 56.03,149.83 70.07,162.93 84.11,176.02 108.02,190.69 131.94,205.35 155.53,215.88 179.12,226.42 204.22,232.86 229.31,239.30 256.56,242.61 283.80,245.91 321.96,244.73 360.13,243.54 394.14,239.59 428.15,235.64 459.47,228.81 490.78,221.98 518.91,211.94 547.04,201.90 571.79,188.51 596.54,175.13 621.83,153.22 647.13,131.32 662.41,112.64 677.70,93.97 684.41,78.68 691.11,63.39 689.59,51.60 688.07,39.82 683.98,32.51 679.89,25.21 676.88,19.44 673.86,13.66 673.79,13.46 673.71,13.26 673.70,13.05 673.69,12.84 673.75,12.63 673.81,12.43 673.93,12.26 674.05,12.08 674.22,11.95 674.39,11.83 674.60,11.76 674.80,11.70 675.01,11.70 675.22,11.70 675.42,11.77 675.62,11.84 675.79,11.97 675.96,12.10 676.08,12.28 676.19,12.46 676.25,12.66 676.30,12.87 676.29,13.08 676.27,13.29 676.19,13.49 676.11,13.68 675.97,13.85 675.83,14.01 675.65,14.11 675.47,14.22 675.26,14.26 675.05,14.31 674.84,14.28 674.63,14.26 674.44,14.16 674.25,14.07 674.09,13.93 673.94,13.78 673.84,13.59 673.75,13.40 673.71,13.19 673.68,12.98 673.72,12.77 673.76,12.56 673.86,12.37 673.96,12.19 674.11,12.04 674.27,11.90 674.46,11.81 674.66,11.73 674.87,11.71 675.08,11.68 675.29,11.73 675.50,11.78 675.68,11.89 675.86,12.00 675.99,12.17 676.13,12.33 676.13,12.33 676.13,12.33 679.70,17.78 683.26,23.23 688.08,31.13 692.90,39.02 694.75,52.15 696.59,65.29 689.58,81.58 682.57,97.87 666.92,116.97 651.27,136.08 625.44,158.42 599.61,180.75 574.41,194.35 549.21,207.95 520.68,218.11 492.15,228.26 460.52,235.13 428.89,242.01 394.61,245.95 360.32,249.89 321.69,251.03 283.05,252.17 255.40,248.78 227.75,245.39 202.16,238.77 176.58,232.15 152.61,221.42 128.65,210.69 104.27,195.63 79.88,180.57 65.51,167.01 51.13,153.45 39.93,138.06 28.72,122.66 20.85,105.77 12.99,88.88 8.01,71.23 3.03,53.58 0.14,36.51 -2.75,19.45 -2.74,12.31 -2.74,5.17 -2.38,2.58 -2.02,0 -1.99,-0.24 -1.96,-0.48 -1.87,-0.71 -1.78,-0.93 -1.65,-1.13 -1.51,-1.33 -1.33,-1.50 -1.14,-1.66 -0.93,-1.77 -0.71,-1.88 -0.47,-1.94 -0.24,-2.00 0.00,-2.00 0.24,-2.00 0.48,-1.94 0.71,-1.88 0.93,-1.77 1.14,-1.66 1.33,-1.50 1.51,-1.33 1.65,-1.13 1.78,-0.93 1.87,-0.71 1.96,-0.48 1.99,-0.24 2.02,0.00 2.02,0.00 L 2.02,0 Z"></path></g><g transform="translate(287 431) rotate(0 -0.5 57)" stroke="none"><path fill="#1e1e1e" d="M -0.34,2.72 Q -0.34,2.72 -9.54,1.64 -18.75,0.57 -28.26,0.38 -37.77,0.20 -47.66,1.60 -57.55,3.01 -67.66,8.11 -77.77,13.21 -83.78,20.19 -89.78,27.16 -92.22,36.53 -94.66,45.89 -92.41,56.54 -90.16,67.19 -79.22,79.10 -68.27,91.02 -53.60,98.33 -38.92,105.64 -21.71,108.75 -4.51,111.86 12.89,110.35 30.31,108.84 45.59,104.55 60.87,100.26 71.52,91.61 82.17,82.95 85.65,74.12 89.13,65.29 86.73,55.75 84.33,46.21 77.02,36.64 69.70,27.07 54.57,18.58 39.43,10.09 24.04,6.48 8.64,2.88 -6.27,3.33 -21.20,3.79 -34.29,6.80 -47.38,9.80 -56.96,14.34 -66.54,18.88 -71.43,26.03 -76.32,33.18 -75.50,39.04 -74.69,44.91 -74.20,49.84 -73.70,54.77 -73.70,54.98 -73.70,55.19 -73.76,55.40 -73.83,55.60 -73.95,55.77 -74.08,55.94 -74.26,56.06 -74.43,56.18 -74.64,56.24 -74.84,56.30 -75.05,56.29 -75.26,56.28 -75.46,56.20 -75.66,56.13 -75.82,55.99 -75.99,55.86 -76.10,55.67 -76.21,55.49 -76.26,55.29 -76.31,55.08 -76.28,54.87 -76.26,54.66 -76.18,54.46 -76.09,54.27 -75.95,54.11 -75.80,53.96 -75.61,53.86 -75.43,53.75 -75.22,53.72 -75.01,53.68 -74.80,53.71 -74.59,53.75 -74.40,53.84 -74.21,53.94 -74.06,54.09 -73.92,54.25 -73.82,54.44 -73.73,54.63 -73.71,54.84 -73.68,55.05 -73.73,55.26 -73.77,55.47 -73.88,55.65 -73.99,55.83 -74.15,55.97 -74.31,56.11 -74.50,56.19 -74.70,56.27 -74.91,56.29 -75.12,56.30 -75.33,56.25 -75.53,56.19 -75.71,56.08 -75.89,55.96 -76.02,55.79 -76.15,55.62 -76.22,55.42 -76.29,55.22 -76.29,55.22 -76.29,55.22 -77.50,50.42 -78.70,45.61 -80.20,38.31 -81.69,31.00 -75.76,22.04 -69.83,13.09 -59.37,8.14 -48.92,3.19 -35.16,0.10 -21.40,-2.98 -5.62,-3.32 10.15,-3.66 26.41,0.30 42.68,4.28 58.74,13.63 74.80,22.99 82.72,33.76 90.64,44.54 92.96,55.80 95.28,67.06 90.92,77.42 86.57,87.78 74.72,97.21 62.88,106.65 46.89,111.10 30.90,115.56 12.61,117.03 -5.67,118.50 -23.78,115.09 -41.89,111.69 -57.53,103.66 -73.17,95.63 -84.85,82.29 -96.54,68.94 -98.83,56.69 -101.13,44.43 -98.01,33.73 -94.89,23.03 -87.83,15.25 -80.77,7.48 -69.61,2.23 -58.45,-3.00 -48.06,-4.31 -37.66,-5.61 -27.85,-5.39 -18.04,-5.17 -8.85,-3.94 0.34,-2.72 0.66,-2.64 0.98,-2.56 1.27,-2.40 1.56,-2.25 1.81,-2.03 2.06,-1.81 2.24,-1.54 2.43,-1.26 2.55,-0.95 2.66,-0.64 2.70,-0.31 2.74,0.00 2.70,0.33 2.66,0.66 2.54,0.97 2.42,1.28 2.23,1.55 2.04,1.82 1.80,2.04 1.55,2.26 1.25,2.41 0.96,2.57 0.64,2.64 0.32,2.72 -0.00,2.72 -0.34,2.72 -0.34,2.72 L -0.34,2.72 Z"></path></g><g transform="translate(563 410) rotate(0 -32.5 62)" stroke="none"><path fill="#1e1e1e" d="M 0.24,3.18 Q 0.24,3.18 -3.47,3.53 -7.18,3.88 -15.83,7.05 -24.47,10.21 -35.27,16.37 -46.07,22.52 -56.56,31.09 -67.06,39.67 -75.66,49.76 -84.26,59.85 -87.70,71.24 -91.15,82.62 -88.00,90.78 -84.86,98.93 -76.27,104.43 -67.67,109.94 -54.83,112.91 -42.00,115.88 -23.22,115.48 -4.45,115.07 9.38,112.09 23.23,109.11 31.50,104.17 39.76,99.22 42.38,92.12 45.01,85.01 42.08,75.70 39.16,66.39 27.42,55.52 15.68,44.65 1.53,38.91 -12.61,33.18 -27.30,31.58 -41.98,29.98 -55.54,31.25 -69.10,32.53 -80.15,35.78 -91.19,39.03 -98.96,44.25 -106.72,49.48 -112.97,53.27 -119.23,57.06 -119.42,57.16 -119.61,57.25 -119.82,57.28 -120.03,57.31 -120.24,57.27 -120.45,57.23 -120.63,57.12 -120.82,57.02 -120.96,56.86 -121.10,56.70 -121.18,56.51 -121.27,56.31 -121.29,56.10 -121.30,55.89 -121.25,55.68 -121.20,55.48 -121.09,55.30 -120.97,55.12 -120.81,54.99 -120.64,54.85 -120.44,54.78 -120.24,54.71 -120.03,54.70 -119.82,54.69 -119.62,54.76 -119.41,54.82 -119.24,54.94 -119.07,55.06 -118.94,55.24 -118.82,55.41 -118.76,55.61 -118.69,55.82 -118.70,56.03 -118.70,56.24 -118.78,56.44 -118.85,56.64 -118.98,56.81 -119.12,56.97 -119.30,57.09 -119.47,57.20 -119.68,57.25 -119.89,57.30 -120.10,57.29 -120.31,57.27 -120.51,57.19 -120.70,57.10 -120.86,56.96 -121.02,56.82 -121.12,56.63 -121.23,56.45 -121.27,56.24 -121.31,56.03 -121.28,55.82 -121.25,55.61 -121.16,55.42 -121.06,55.23 -120.91,55.08 -120.76,54.93 -120.76,54.93 -120.76,54.93 -115.19,50.19 -109.62,45.46 -101.40,39.15 -93.17,32.85 -81.46,29.26 -69.76,25.67 -55.50,24.38 -41.23,23.09 -25.63,24.92 -10.03,26.75 5.14,33.14 20.31,39.53 32.93,51.80 45.55,64.06 48.52,75.35 51.49,86.65 47.69,95.56 43.89,104.47 34.34,110.15 24.78,115.83 10.24,118.90 -4.30,121.98 -23.93,122.29 -43.55,122.61 -57.47,119.16 -71.40,115.71 -81.12,108.80 -90.84,101.90 -94.27,91.68 -97.70,81.46 -93.60,68.55 -89.50,55.65 -80.35,45.11 -71.21,34.58 -60.25,25.73 -49.28,16.89 -38.00,10.48 -26.72,4.06 -17.24,0.66 -7.76,-2.73 -4.00,-2.95 -0.24,-3.18 0.13,-3.16 0.52,-3.14 0.89,-3.03 1.26,-2.92 1.59,-2.73 1.92,-2.54 2.20,-2.27 2.47,-2.00 2.68,-1.68 2.88,-1.35 3.00,-0.99 3.12,-0.62 3.15,-0.24 3.18,0.14 3.12,0.51 3.06,0.89 2.90,1.25 2.75,1.60 2.52,1.91 2.29,2.21 1.99,2.46 1.69,2.70 1.34,2.86 0.99,3.02 0.62,3.10 0.24,3.18 0.24,3.18 L 0.24,3.18 Z"></path></g><g transform="translate(296 614) rotate(0 86.5 18)" stroke="none"><path fill="#1e1e1e" d="M 1.39,-2.55 Q 1.39,-2.55 4.60,-0.92 7.82,0.70 11.89,3.54 15.97,6.37 23.01,10.29 30.04,14.20 37.99,16.92 45.95,19.64 55.01,21.66 64.07,23.69 73.07,25.12 82.07,26.56 91.96,28.02 101.85,29.49 108.62,30.38 115.40,31.28 120.21,31.65 125.01,32.02 128.77,31.61 132.54,31.20 136.03,29.45 139.52,27.70 143.74,23.98 147.95,20.25 151.64,17.12 155.34,14.00 158.21,12.04 161.07,10.09 162.79,8.86 164.51,7.63 166.76,6.69 169.00,5.76 170.65,5.32 172.31,4.88 172.50,4.80 172.70,4.72 172.91,4.70 173.12,4.69 173.33,4.74 173.53,4.80 173.71,4.91 173.89,5.03 174.02,5.20 174.15,5.37 174.22,5.57 174.29,5.77 174.29,5.98 174.29,6.19 174.23,6.39 174.16,6.60 174.04,6.77 173.91,6.94 173.73,7.06 173.56,7.18 173.36,7.24 173.15,7.30 172.94,7.29 172.73,7.28 172.53,7.20 172.33,7.13 172.17,6.99 172.00,6.86 171.89,6.68 171.78,6.49 171.73,6.29 171.68,6.08 171.71,5.87 171.73,5.66 171.81,5.46 171.90,5.27 172.04,5.11 172.19,4.96 172.38,4.86 172.56,4.76 172.77,4.72 172.98,4.68 173.19,4.71 173.40,4.75 173.59,4.84 173.78,4.94 173.93,5.09 174.07,5.25 174.17,5.44 174.26,5.63 174.28,5.84 174.31,6.05 174.26,6.26 174.22,6.47 174.11,6.65 174.01,6.83 173.84,6.97 173.68,7.11 173.68,7.11 173.68,7.11 172.55,8.39 171.42,9.67 169.89,11.06 168.37,12.45 166.63,13.99 164.90,15.53 162.34,17.38 159.78,19.23 156.12,22.35 152.46,25.47 147.49,29.69 142.52,33.91 137.93,35.95 133.35,38.00 128.92,38.41 124.49,38.82 119.49,38.41 114.49,38.00 107.67,37.06 100.86,36.12 90.94,34.62 81.02,33.12 71.81,31.63 62.61,30.15 53.19,28.01 43.78,25.87 35.32,22.86 26.86,19.84 19.63,15.67 12.40,11.50 8.61,8.84 4.82,6.19 1.71,4.37 -1.39,2.55 -1.68,2.35 -1.96,2.15 -2.19,1.88 -2.42,1.61 -2.58,1.30 -2.74,0.98 -2.82,0.64 -2.89,0.30 -2.89,-0.04 -2.88,-0.39 -2.79,-0.73 -2.70,-1.07 -2.54,-1.38 -2.37,-1.69 -2.13,-1.95 -1.89,-2.21 -1.60,-2.40 -1.31,-2.60 -0.98,-2.72 -0.65,-2.84 -0.30,-2.87 0.04,-2.91 0.39,-2.86 0.74,-2.81 1.06,-2.68 1.39,-2.55 1.39,-2.55 L 1.39,-2.55 Z"></path></g><g transform="translate(447 240) rotate(0 26.5 -90.5)" stroke="none"><path fill="#1e1e1e" d="M -1.20,2.60 Q -1.20,2.60 -4.97,0.95 -8.74,-0.69 -13.31,-3.19 -17.88,-5.68 -22.58,-9.11 -27.27,-12.53 -32.07,-18.21 -36.86,-23.90 -43.29,-36.87 -49.72,-49.84 -56.12,-63.89 -62.53,-77.94 -69.52,-91.58 -76.51,-105.23 -83.96,-115.43 -91.41,-125.62 -99.80,-132.02 -108.19,-138.41 -113.17,-141.45 -118.16,-144.50 -120.05,-145.84 -121.93,-147.19 -122.25,-147.44 -122.56,-147.69 -122.80,-148.00 -123.05,-148.32 -123.21,-148.69 -123.37,-149.05 -123.44,-149.45 -123.51,-149.84 -123.48,-150.24 -123.46,-150.64 -123.34,-151.02 -123.21,-151.40 -123.00,-151.74 -122.80,-152.08 -122.51,-152.36 -122.23,-152.64 -121.88,-152.85 -121.54,-153.05 -121.16,-153.17 -120.77,-153.28 -120.37,-153.31 -119.97,-153.33 -119.58,-153.25 -119.19,-153.18 -118.82,-153.01 -118.46,-152.84 -111.53,-153.20 -104.59,-153.56 -95.23,-153.49 -85.86,-153.42 -73.04,-153.96 -60.21,-154.51 -42.71,-155.89 -25.21,-157.27 2.32,-160.15 29.87,-163.04 54.50,-166.00 79.14,-168.96 99.66,-171.65 120.19,-174.34 134.66,-176.35 149.13,-178.35 157.06,-179.20 164.99,-180.05 168.17,-180.65 171.35,-181.25 173.84,-181.68 176.32,-182.12 176.52,-182.20 176.72,-182.28 176.93,-182.29 177.14,-182.30 177.35,-182.24 177.55,-182.19 177.73,-182.07 177.90,-181.95 178.03,-181.78 178.16,-181.61 178.22,-181.41 178.29,-181.20 178.29,-180.99 178.29,-180.78 178.22,-180.58 178.15,-180.38 178.02,-180.21 177.90,-180.04 177.72,-179.92 177.54,-179.80 177.34,-179.75 177.13,-179.69 176.92,-179.70 176.71,-179.71 176.51,-179.79 176.31,-179.87 176.15,-180.01 175.99,-180.15 175.88,-180.33 175.77,-180.51 175.73,-180.72 175.68,-180.93 175.71,-181.14 175.73,-181.35 175.82,-181.54 175.91,-181.74 176.06,-181.89 176.20,-182.04 176.39,-182.14 176.58,-182.24 176.79,-182.27 177.00,-182.31 177.21,-182.27 177.42,-182.24 177.61,-182.14 177.79,-182.04 177.94,-181.88 178.08,-181.73 178.17,-181.54 178.26,-181.34 178.28,-181.13 178.31,-180.92 178.26,-180.71 178.21,-180.51 178.10,-180.32 177.99,-180.14 177.83,-180.00 177.67,-179.87 177.67,-179.87 177.67,-179.87 175.20,-177.35 172.74,-174.82 169.22,-174.12 165.71,-173.42 157.88,-172.56 150.05,-171.71 135.55,-169.70 121.06,-167.69 100.50,-164.99 79.94,-162.30 55.25,-159.36 30.56,-156.41 2.93,-153.53 -24.69,-150.64 -42.31,-149.26 -59.93,-147.87 -72.92,-147.33 -85.91,-146.78 -95.34,-146.85 -104.76,-146.93 -110.91,-147.14 -117.06,-147.34 -119.49,-147.27 -121.93,-147.19 -122.25,-147.44 -122.56,-147.69 -122.80,-148.00 -123.05,-148.32 -123.21,-148.69 -123.37,-149.05 -123.44,-149.44 -123.51,-149.84 -123.48,-150.24 -123.46,-150.64 -123.34,-151.02 -123.21,-151.40 -123.00,-151.74 -122.80,-152.08 -122.51,-152.36 -122.23,-152.64 -121.88,-152.85 -121.54,-153.05 -121.16,-153.17 -120.77,-153.28 -120.37,-153.31 -119.97,-153.33 -119.58,-153.25 -119.19,-153.18 -118.83,-153.01 -118.46,-152.84 -116.56,-151.51 -114.67,-150.18 -109.39,-146.93 -104.12,-143.67 -95.14,-136.60 -86.16,-129.53 -78.43,-118.87 -70.71,-108.21 -63.65,-94.43 -56.60,-80.64 -50.23,-66.67 -43.87,-52.71 -37.86,-40.35 -31.85,-27.99 -27.65,-22.78 -23.46,-17.57 -19.19,-14.31 -14.92,-11.04 -10.56,-8.62 -6.20,-6.20 -2.50,-4.40 1.20,-2.60 1.49,-2.42 1.79,-2.24 2.03,-1.99 2.27,-1.74 2.45,-1.45 2.62,-1.15 2.72,-0.82 2.82,-0.49 2.84,-0.14 2.86,0.20 2.79,0.54 2.73,0.87 2.58,1.19 2.44,1.50 2.22,1.77 2.00,2.04 1.73,2.25 1.46,2.46 1.14,2.60 0.82,2.74 0.48,2.80 0.14,2.86 -0.19,2.84 -0.54,2.81 -0.87,2.71 -1.20,2.60 -1.20,2.60 L -1.20,2.60 Z"></path></g><g transform="translate(741 18) rotate(0 -28.5 39)" stroke="none"><path fill="#1e1e1e" d="M -0.95,2.87 Q -0.95,2.87 -3.54,2.02 -6.13,1.16 -9.60,0.56 -13.07,-0.03 -19.32,-0.29 -25.58,-0.54 -32.94,0.48 -40.30,1.51 -48.41,4.22 -56.51,6.93 -65.31,13.95 -74.11,20.98 -79.12,28.50 -84.13,36.01 -85.09,43.33 -86.05,50.64 -80.49,58.38 -74.92,66.12 -66.12,70.75 -57.31,75.38 -46.46,76.51 -35.60,77.64 -23.49,75.06 -11.38,72.48 -0.03,67.76 11.31,63.04 17.91,56.55 24.51,50.06 23.88,39.68 23.24,29.29 17.38,21.54 11.52,13.79 1.68,8.88 -8.15,3.97 -22.44,1.56 -36.74,-0.85 -47.35,-1.06 -57.95,-1.28 -63.60,0.07 -69.24,1.44 -71.61,2.58 -73.97,3.71 -76.14,4.42 -78.32,5.12 -78.51,5.20 -78.71,5.28 -78.92,5.29 -79.14,5.30 -79.34,5.24 -79.54,5.19 -79.72,5.07 -79.90,4.95 -80.03,4.78 -80.15,4.61 -80.22,4.41 -80.29,4.21 -80.29,4.00 -80.29,3.78 -80.22,3.58 -80.16,3.38 -80.03,3.21 -79.90,3.04 -79.72,2.92 -79.55,2.80 -79.34,2.75 -79.14,2.69 -78.93,2.70 -78.71,2.71 -78.52,2.79 -78.32,2.87 -78.16,3.01 -77.99,3.14 -77.89,3.33 -77.78,3.51 -77.73,3.72 -77.68,3.92 -77.71,4.13 -77.73,4.34 -77.82,4.54 -77.91,4.73 -78.05,4.89 -78.20,5.04 -78.39,5.14 -78.57,5.24 -78.78,5.27 -78.99,5.31 -79.20,5.27 -79.41,5.24 -79.60,5.14 -79.79,5.04 -79.94,4.89 -80.08,4.73 -80.17,4.54 -80.26,4.35 -80.28,4.14 -80.31,3.93 -80.26,3.72 -80.22,3.51 -80.11,3.33 -80.00,3.15 -79.83,3.01 -79.67,2.87 -79.67,2.87 -79.67,2.87 -78.04,1.28 -76.40,-0.31 -73.62,-2.28 -70.83,-4.25 -64.36,-6.14 -57.88,-8.03 -46.74,-7.78 -35.59,-7.54 -20.35,-4.81 -5.12,-2.08 5.82,3.75 16.77,9.59 23.29,19.01 29.82,28.44 29.90,40.87 29.98,53.31 22.04,61.29 14.10,69.27 2.06,74.24 -9.97,79.20 -23.12,81.83 -36.28,84.45 -48.34,82.95 -60.41,81.44 -70.37,75.81 -80.33,70.18 -86.44,60.55 -92.55,50.91 -91.22,41.69 -89.89,32.48 -84.10,24.10 -78.30,15.72 -68.44,8.34 -58.59,0.96 -49.86,-1.79 -41.13,-4.56 -33.23,-5.59 -25.33,-6.62 -18.67,-6.32 -12.02,-6.03 -8.11,-5.32 -4.21,-4.61 -1.62,-3.74 0.95,-2.87 1.28,-2.72 1.61,-2.56 1.90,-2.33 2.18,-2.10 2.40,-1.80 2.62,-1.51 2.76,-1.18 2.91,-0.84 2.97,-0.48 3.03,-0.12 3.00,0.24 2.97,0.60 2.85,0.95 2.74,1.29 2.54,1.60 2.34,1.91 2.08,2.17 1.82,2.42 1.50,2.60 1.18,2.78 0.83,2.89 0.48,2.99 0.12,3.00 -0.24,3.02 -0.60,2.95 -0.95,2.87 -0.95,2.87 L -0.95,2.87 Z"></path></g></svg>