<svg version="1.1" xmlns="http://www.w3.org/2000/svg" viewBox="0 0 605 615" width="605" height="615">
  <g transform="translate(14 16) rotate(0 142 3)" stroke="none"><path fill="#1e1e1e" d="M 0,-2.61 Q 0,-2.61 3.73,-2.64 7.47,-2.67 16.05,-2.14 24.63,-1.61 37.98,-1.10 51.32,-0.60 68.50,-0.09 85.67,0.41 111.63,0.63 137.60,0.84 159.56,0.93 181.53,1.03 200.35,1.07 219.17,1.10 233.78,1.16 248.40,1.21 258.68,2.33 268.96,3.46 276.51,4.07 284.07,4.68 284.28,4.73 284.48,4.78 284.67,4.89 284.85,5.00 284.99,5.16 285.12,5.32 285.20,5.52 285.28,5.72 285.29,5.93 285.30,6.14 285.24,6.35 285.19,6.55 285.07,6.73 284.95,6.90 284.78,7.03 284.61,7.16 284.41,7.22 284.20,7.29 283.99,7.29 283.78,7.29 283.58,7.22 283.38,7.15 283.21,7.02 283.04,6.90 282.92,6.72 282.80,6.54 282.75,6.34 282.69,6.13 282.70,5.92 282.71,5.71 282.79,5.51 282.87,5.31 283.01,5.15 283.15,4.99 283.33,4.88 283.51,4.77 283.72,4.73 283.93,4.68 284.14,4.71 284.35,4.73 284.54,4.82 284.74,4.91 284.89,5.06 285.04,5.20 285.14,5.39 285.24,5.58 285.27,5.79 285.31,6.00 285.27,6.21 285.24,6.42 285.14,6.61 285.04,6.79 284.88,6.94 284.73,7.08 284.54,7.17 284.34,7.26 284.13,7.28 283.92,7.31 283.92,7.31 283.92,7.31 276.34,7.06 268.77,6.81 258.58,6.77 248.39,6.73 233.77,6.75 219.16,6.77 200.33,6.73 181.50,6.69 159.53,6.60 137.55,6.50 111.53,6.28 85.50,6.06 68.30,5.54 51.10,5.02 37.68,4.47 24.26,3.91 15.86,3.29 7.47,2.67 3.73,2.64 0,2.61 -0.31,2.57 -0.62,2.53 -0.91,2.42 -1.21,2.31 -1.47,2.13 -1.73,1.95 -1.94,1.71 -2.15,1.48 -2.29,1.20 -2.44,0.92 -2.51,0.62 -2.59,0.31 -2.59,-0.00 -2.59,-0.31 -2.51,-0.62 -2.44,-0.92 -2.29,-1.20 -2.15,-1.48 -1.94,-1.72 -1.73,-1.95 -1.47,-2.13 -1.21,-2.31 -0.91,-2.42 -0.62,-2.53 -0.31,-2.57 0.00,-2.61 0.00,-2.61 L 0,-2.61 Z"></path></g><g transform="translate(283 20) rotate(0 0.5 48.5)" stroke="none"><path fill="#1e1e1e" d="M 2.60,-0.15 Q 2.60,-0.15 2.94,4.73 3.28,9.61 3.41,18.65 3.55,27.69 3.90,35.20 4.25,42.71 4.46,56.60 4.67,70.49 4.72,78.14 4.78,85.78 3.69,88.55 2.60,91.32 1.41,92.88 0.23,94.43 0.13,94.62 0.03,94.80 -0.12,94.95 -0.27,95.09 -0.47,95.18 -0.66,95.27 -0.87,95.29 -1.08,95.31 -1.29,95.26 -1.50,95.21 -1.68,95.10 -1.86,94.98 -1.99,94.82 -2.13,94.66 -2.21,94.46 -2.28,94.26 -2.29,94.05 -2.30,93.83 -2.24,93.63 -2.18,93.43 -2.06,93.25 -1.94,93.08 -1.76,92.95 -1.59,92.83 -1.39,92.76 -1.19,92.70 -0.98,92.70 -0.76,92.70 -0.56,92.77 -0.36,92.84 -0.20,92.97 -0.03,93.11 0.08,93.28 0.19,93.46 0.25,93.67 0.30,93.87 0.29,94.08 0.27,94.30 0.19,94.49 0.11,94.69 -0.02,94.85 -0.16,95.01 -0.34,95.11 -0.53,95.22 -0.73,95.26 -0.94,95.31 -1.15,95.28 -1.36,95.26 -1.56,95.16 -1.75,95.07 -1.90,94.92 -2.05,94.77 -2.15,94.59 -2.25,94.40 -2.28,94.19 -2.31,93.98 -2.27,93.77 -2.23,93.56 -2.23,93.56 -2.23,93.56 -2.18,91.61 -2.12,89.66 -1.54,87.68 -0.96,85.71 -1.03,78.13 -1.09,70.55 -1.17,56.75 -1.25,42.95 -1.58,35.36 -1.91,27.76 -2.02,18.85 -2.13,9.93 -2.36,5.04 -2.60,0.15 -2.58,-0.16 -2.56,-0.47 -2.46,-0.77 -2.37,-1.07 -2.21,-1.34 -2.04,-1.61 -1.82,-1.83 -1.60,-2.05 -1.33,-2.21 -1.06,-2.37 -0.76,-2.47 -0.46,-2.56 -0.15,-2.58 0.16,-2.60 0.47,-2.54 0.77,-2.48 1.06,-2.35 1.35,-2.22 1.59,-2.03 1.84,-1.83 2.03,-1.59 2.23,-1.34 2.36,-1.05 2.48,-0.77 2.54,-0.46 2.60,-0.15 2.60,-0.15 L 2.60,-0.15 Z"></path></g><g transform="translate(10 10) rotate(0 6.5 52)" stroke="none"><path fill="#1e1e1e" d="M 2.72,-0.41 Q 2.72,-0.41 3.30,3.31 3.88,7.05 4.43,14.21 4.97,21.36 5.77,30.67 6.57,39.98 7.49,49.68 8.40,59.38 10.13,70.32 11.87,81.27 12.74,87.71 13.62,94.15 13.96,98.97 14.29,103.78 14.29,103.99 14.29,104.20 14.22,104.41 14.16,104.61 14.03,104.78 13.90,104.95 13.72,105.07 13.55,105.19 13.34,105.24 13.14,105.30 12.93,105.29 12.72,105.28 12.52,105.20 12.32,105.12 12.16,104.98 12.00,104.85 11.89,104.67 11.78,104.48 11.73,104.28 11.68,104.07 11.71,103.86 11.73,103.65 11.82,103.45 11.91,103.26 12.05,103.11 12.20,102.95 12.39,102.85 12.57,102.75 12.78,102.72 12.99,102.68 13.20,102.72 13.41,102.75 13.60,102.85 13.79,102.95 13.93,103.10 14.08,103.26 14.17,103.45 14.26,103.64 14.28,103.85 14.31,104.06 14.26,104.27 14.22,104.48 14.11,104.66 14.00,104.84 13.84,104.98 13.67,105.12 13.48,105.20 13.28,105.28 13.07,105.29 12.86,105.30 12.65,105.24 12.45,105.19 12.27,105.07 12.09,104.95 11.96,104.78 11.84,104.61 11.77,104.41 11.70,104.21 11.70,104.21 11.70,104.21 10.46,99.55 9.22,94.88 7.97,88.50 6.72,82.12 4.80,71.01 2.88,59.90 1.97,50.18 1.05,40.45 0.25,31.12 -0.54,21.78 -1.06,14.84 -1.58,7.89 -2.15,4.15 -2.72,0.41 -2.73,0.08 -2.74,-0.24 -2.67,-0.56 -2.60,-0.89 -2.45,-1.19 -2.31,-1.49 -2.10,-1.74 -1.88,-2.00 -1.62,-2.19 -1.35,-2.39 -1.04,-2.52 -0.74,-2.64 -0.41,-2.70 -0.08,-2.75 0.24,-2.72 0.57,-2.69 0.88,-2.58 1.20,-2.47 1.47,-2.29 1.75,-2.11 1.98,-1.87 2.21,-1.63 2.37,-1.34 2.54,-1.05 2.63,-0.73 2.72,-0.41 2.72,-0.41 L 2.72,-0.41 Z"></path></g><g transform="translate(25 124) rotate(0 41 -2.5)" stroke="none"><path fill="#1e1e1e" d="M -0.45,-2.72 Q -0.45,-2.72 2.98,-3.35 6.43,-3.98 12.67,-4.25 18.91,-4.51 29.58,-4.62 40.26,-4.73 49.58,-5.34 58.90,-5.94 65.52,-5.87 72.13,-5.80 77.01,-6.05 81.89,-6.30 82.10,-6.29 82.31,-6.27 82.50,-6.19 82.70,-6.10 82.86,-5.96 83.02,-5.82 83.12,-5.64 83.23,-5.45 83.27,-5.24 83.31,-5.03 83.28,-4.82 83.25,-4.61 83.16,-4.42 83.06,-4.23 82.91,-4.08 82.76,-3.93 82.57,-3.84 82.38,-3.74 82.17,-3.71 81.96,-3.68 81.75,-3.72 81.54,-3.76 81.36,-3.87 81.17,-3.97 81.03,-4.13 80.89,-4.29 80.81,-4.48 80.72,-4.68 80.70,-4.89 80.69,-5.10 80.74,-5.31 80.79,-5.51 80.90,-5.69 81.02,-5.87 81.18,-6.00 81.35,-6.14 81.55,-6.21 81.74,-6.28 81.96,-6.29 82.17,-6.30 82.37,-6.23 82.58,-6.17 82.75,-6.05 82.92,-5.93 83.05,-5.75 83.17,-5.58 83.23,-5.38 83.30,-5.17 83.29,-4.96 83.29,-4.75 83.21,-4.55 83.14,-4.35 83.01,-4.18 82.87,-4.02 82.70,-3.90 82.52,-3.79 82.31,-3.74 82.10,-3.69 82.10,-3.69 82.10,-3.69 77.25,-3.12 72.40,-2.56 65.84,-1.39 59.28,-0.22 49.80,0.41 40.31,1.04 29.73,1.14 19.14,1.23 13.25,1.46 7.36,1.68 3.91,2.20 0.45,2.72 0.12,2.73 -0.21,2.75 -0.53,2.68 -0.86,2.62 -1.16,2.48 -1.46,2.33 -1.72,2.13 -1.98,1.92 -2.18,1.65 -2.38,1.39 -2.51,1.08 -2.64,0.77 -2.70,0.45 -2.75,0.12 -2.73,-0.20 -2.70,-0.54 -2.60,-0.85 -2.49,-1.17 -2.32,-1.45 -2.14,-1.73 -1.90,-1.96 -1.66,-2.20 -1.37,-2.36 -1.09,-2.53 -0.77,-2.62 -0.45,-2.72 -0.45,-2.72 L -0.45,-2.72 Z"></path></g><g transform="translate(91 107) rotate(0 4 218.5)" stroke="none"><path fill="#1e1e1e" d="M 2.57,-0.46 Q 2.57,-0.46 3.15,2.69 3.74,5.85 5.15,21.40 6.57,36.94 7.79,59.65 9.01,82.36 9.53,110.72 10.05,139.09 10.28,168.96 10.50,198.83 10.62,227.63 10.74,256.43 10.81,287.93 10.88,319.43 10.95,342.30 11.01,365.18 11.03,381.80 11.04,398.42 11.01,409.51 10.98,420.60 10.15,428.80 9.31,436.99 9.27,437.20 9.24,437.41 9.14,437.60 9.04,437.79 8.89,437.94 8.73,438.08 8.54,438.17 8.35,438.26 8.14,438.28 7.92,438.31 7.72,438.26 7.51,438.22 7.33,438.11 7.14,438.00 7.01,437.83 6.87,437.67 6.79,437.47 6.71,437.28 6.70,437.07 6.69,436.85 6.75,436.65 6.80,436.44 6.92,436.27 7.04,436.09 7.21,435.96 7.38,435.83 7.58,435.77 7.78,435.70 7.99,435.70 8.21,435.70 8.41,435.77 8.61,435.83 8.78,435.96 8.95,436.09 9.07,436.27 9.19,436.44 9.24,436.65 9.30,436.85 9.29,437.07 9.28,437.28 9.20,437.47 9.12,437.67 8.98,437.83 8.85,438.00 8.66,438.11 8.48,438.22 8.27,438.26 8.07,438.31 7.85,438.28 7.64,438.26 7.45,438.17 7.26,438.08 7.10,437.94 6.95,437.79 6.85,437.60 6.75,437.41 6.72,437.20 6.68,436.99 6.68,437.00 6.68,437.00 5.84,428.80 5.00,420.60 4.96,409.51 4.93,398.43 4.93,381.80 4.93,365.18 4.96,342.31 4.99,319.44 4.99,287.94 4.99,256.44 4.93,227.66 4.86,198.87 4.67,169.03 4.47,139.18 4.00,110.91 3.52,82.64 2.41,60.03 1.29,37.42 -0.07,22.11 -1.44,6.79 -2.00,3.63 -2.57,0.46 -2.59,0.15 -2.61,-0.16 -2.55,-0.47 -2.49,-0.78 -2.36,-1.07 -2.23,-1.35 -2.04,-1.60 -1.84,-1.85 -1.60,-2.04 -1.35,-2.24 -1.06,-2.37 -0.77,-2.50 -0.46,-2.55 -0.15,-2.61 0.16,-2.59 0.47,-2.57 0.77,-2.48 1.07,-2.38 1.34,-2.22 1.61,-2.05 1.84,-1.83 2.06,-1.61 2.22,-1.34 2.38,-1.07 2.48,-0.76 2.57,-0.46 2.57,-0.46 L 2.57,-0.46 Z"></path></g><g transform="translate(197 111) rotate(0 8.5 247)" stroke="none"><path fill="#1e1e1e" d="M 2.43,0.81 Q 2.43,0.81 1.59,3.38 0.74,5.96 0.54,18.21 0.35,30.45 0.25,53.89 0.16,77.32 0.96,112.84 1.75,148.36 3.77,190.46 5.79,232.56 8.95,272.86 12.11,313.15 15.15,352.14 18.19,391.14 19.15,416.10 20.12,441.07 19.29,455.79 18.46,470.51 17.43,477.38 16.39,484.24 15.35,489.20 14.30,494.16 14.24,494.37 14.18,494.57 14.05,494.74 13.93,494.92 13.76,495.04 13.59,495.17 13.38,495.23 13.18,495.30 12.97,495.29 12.76,495.29 12.56,495.21 12.36,495.14 12.19,495.01 12.02,494.88 11.91,494.70 11.79,494.52 11.74,494.32 11.69,494.11 11.70,493.90 11.72,493.69 11.80,493.49 11.88,493.29 12.02,493.14 12.17,492.98 12.35,492.87 12.53,492.77 12.74,492.72 12.95,492.68 13.16,492.71 13.37,492.74 13.56,492.83 13.75,492.92 13.91,493.07 14.06,493.22 14.15,493.41 14.25,493.60 14.28,493.81 14.31,494.02 14.27,494.23 14.23,494.44 14.13,494.63 14.02,494.81 13.87,494.95 13.71,495.10 13.51,495.18 13.32,495.27 13.11,495.29 12.90,495.30 12.69,495.25 12.48,495.20 12.30,495.09 12.12,494.98 11.99,494.81 11.86,494.65 11.78,494.45 11.71,494.25 11.70,494.04 11.69,493.83 11.69,493.83 11.69,493.83 11.94,488.76 12.20,483.69 12.92,476.99 13.65,470.28 14.25,455.78 14.86,441.28 13.78,416.43 12.71,391.57 9.60,352.58 6.48,313.59 3.29,273.22 0.10,232.84 -2.00,190.67 -4.10,148.49 -4.90,112.89 -5.70,77.28 -5.48,53.79 -5.26,30.29 -4.73,17.33 -4.19,4.38 -3.31,1.78 -2.43,-0.81 -2.30,-1.09 -2.16,-1.37 -1.97,-1.61 -1.77,-1.84 -1.53,-2.03 -1.28,-2.22 -0.99,-2.34 -0.71,-2.46 -0.40,-2.51 -0.10,-2.56 0.20,-2.53 0.51,-2.51 0.80,-2.41 1.09,-2.31 1.36,-2.15 1.62,-1.98 1.83,-1.76 2.05,-1.54 2.20,-1.27 2.36,-1.00 2.44,-0.70 2.53,-0.41 2.54,-0.10 2.55,0.20 2.49,0.50 2.43,0.81 2.43,0.81 L 2.43,0.81 Z"></path></g><g transform="translate(199 201) rotate(0 44 -1.5)" stroke="none"><path fill="#1e1e1e" d="M -0.65,-2.62 Q -0.65,-2.62 2.78,-3.52 6.23,-4.42 11.67,-4.82 17.11,-5.23 24.85,-5.40 32.59,-5.57 41.91,-5.63 51.23,-5.70 61.83,-5.23 72.44,-4.76 80.23,-4.03 88.03,-3.31 88.24,-3.27 88.44,-3.23 88.63,-3.12 88.82,-3.02 88.96,-2.86 89.10,-2.71 89.18,-2.51 89.27,-2.32 89.29,-2.10 89.30,-1.89 89.25,-1.69 89.20,-1.48 89.09,-1.30 88.97,-1.12 88.81,-0.99 88.64,-0.85 88.44,-0.78 88.25,-0.71 88.03,-0.70 87.82,-0.69 87.62,-0.76 87.41,-0.82 87.24,-0.94 87.07,-1.06 86.94,-1.24 86.82,-1.41 86.76,-1.61 86.69,-1.81 86.70,-2.03 86.70,-2.24 86.78,-2.44 86.85,-2.64 86.98,-2.80 87.12,-2.97 87.29,-3.09 87.47,-3.20 87.68,-3.25 87.89,-3.30 88.10,-3.29 88.31,-3.27 88.50,-3.19 88.70,-3.10 88.86,-2.96 89.02,-2.82 89.12,-2.64 89.23,-2.45 89.27,-2.24 89.31,-2.03 89.28,-1.82 89.25,-1.61 89.16,-1.42 89.06,-1.23 88.91,-1.08 88.76,-0.93 88.57,-0.84 88.38,-0.74 88.17,-0.71 87.96,-0.68 87.96,-0.68 87.96,-0.68 80.14,-0.34 72.32,-0.00 61.79,-0.05 51.27,-0.09 41.99,-0.03 32.71,0.03 25.10,0.17 17.50,0.31 12.53,0.64 7.56,0.97 4.11,1.80 0.65,2.62 0.33,2.66 0.00,2.71 -0.31,2.67 -0.63,2.63 -0.94,2.51 -1.25,2.40 -1.52,2.21 -1.79,2.03 -2.00,1.79 -2.22,1.54 -2.37,1.25 -2.53,0.96 -2.61,0.65 -2.68,0.33 -2.69,0.00 -2.69,-0.31 -2.61,-0.63 -2.53,-0.95 -2.38,-1.24 -2.23,-1.53 -2.01,-1.77 -1.80,-2.02 -1.53,-2.20 -1.26,-2.39 -0.96,-2.51 -0.65,-2.62 -0.65,-2.62 L -0.65,-2.62 Z"></path></g><g transform="translate(302 209) rotate(0 -1 185.5)" stroke="none"><path fill="#1e1e1e" d="M 2.60,-0.10 Q 2.60,-0.10 2.89,7.08 3.17,14.27 3.62,27.11 4.06,39.94 4.28,60.38 4.50,80.81 4.87,107.30 5.24,133.79 5.39,162.60 5.55,191.41 5.04,218.92 4.54,246.43 3.47,274.52 2.41,302.62 1.38,320.61 0.34,338.60 -0.11,347.95 -0.58,357.30 -2.15,360.33 -3.73,363.35 -3.82,363.54 -3.91,363.74 -4.06,363.89 -4.21,364.04 -4.39,364.14 -4.58,364.24 -4.79,364.27 -5.00,364.31 -5.21,364.27 -5.42,364.24 -5.61,364.14 -5.79,364.04 -5.94,363.88 -6.09,363.73 -6.17,363.53 -6.26,363.34 -6.28,363.13 -6.31,362.92 -6.26,362.71 -6.21,362.50 -6.10,362.32 -5.99,362.14 -5.83,362.00 -5.67,361.87 -5.47,361.79 -5.27,361.71 -5.06,361.70 -4.85,361.69 -4.64,361.75 -4.44,361.81 -4.26,361.93 -4.09,362.05 -3.96,362.22 -3.83,362.39 -3.76,362.59 -3.70,362.79 -3.70,363.00 -3.70,363.21 -3.77,363.41 -3.84,363.62 -3.97,363.78 -4.10,363.95 -4.27,364.07 -4.45,364.19 -4.65,364.25 -4.86,364.30 -5.07,364.29 -5.28,364.28 -5.48,364.20 -5.68,364.12 -5.84,363.98 -6.00,363.84 -6.11,363.66 -6.22,363.48 -6.26,363.27 -6.31,363.06 -6.28,362.85 -6.26,362.64 -6.26,362.64 -6.26,362.64 -6.19,359.82 -6.11,357.01 -5.70,347.64 -5.29,338.28 -4.25,320.34 -3.22,302.40 -2.13,274.36 -1.03,246.33 -0.52,218.88 -0.00,191.44 -0.15,162.65 -0.31,133.86 -0.66,107.36 -1.02,80.86 -1.15,60.49 -1.28,40.11 -1.65,27.29 -2.02,14.47 -2.31,7.29 -2.60,0.10 -2.58,-0.20 -2.55,-0.52 -2.45,-0.82 -2.35,-1.11 -2.18,-1.38 -2.02,-1.65 -1.79,-1.86 -1.56,-2.08 -1.29,-2.24 -1.02,-2.40 -0.71,-2.48 -0.41,-2.57 -0.10,-2.58 0.21,-2.60 0.51,-2.53 0.82,-2.47 1.11,-2.34 1.39,-2.20 1.63,-2.00 1.88,-1.80 2.07,-1.55 2.26,-1.30 2.38,-1.01 2.50,-0.72 2.55,-0.41 2.60,-0.10 2.60,-0.10 L 2.60,-0.10 Z"></path></g><g transform="translate(306 208) rotate(0 41 4.5)" stroke="none"><path fill="#1e1e1e" d="M -0.36,-2.90 Q -0.36,-2.90 1.95,-3.16 4.27,-3.41 9.37,-2.66 14.47,-1.92 21.71,-0.45 28.96,1.00 37.71,2.48 46.46,3.95 56.68,5.18 66.89,6.41 74.50,7.55 82.11,8.69 82.32,8.74 82.52,8.79 82.70,8.91 82.88,9.02 83.01,9.19 83.14,9.36 83.21,9.56 83.29,9.76 83.29,9.97 83.29,10.18 83.23,10.38 83.17,10.59 83.04,10.76 82.92,10.93 82.74,11.05 82.57,11.18 82.37,11.24 82.16,11.30 81.95,11.29 81.74,11.28 81.54,11.21 81.34,11.13 81.18,11.00 81.01,10.86 80.90,10.68 80.78,10.51 80.74,10.30 80.69,10.09 80.70,9.88 80.72,9.67 80.81,9.47 80.89,9.28 81.04,9.12 81.18,8.97 81.37,8.86 81.55,8.76 81.76,8.72 81.97,8.68 82.18,8.71 82.39,8.74 82.58,8.84 82.77,8.93 82.92,9.09 83.07,9.24 83.16,9.43 83.25,9.62 83.28,9.83 83.31,10.04 83.27,10.25 83.22,10.46 83.12,10.64 83.01,10.83 82.85,10.97 82.69,11.11 82.50,11.19 82.30,11.27 82.09,11.29 81.88,11.30 81.88,11.30 81.88,11.30 74.19,11.09 66.49,10.87 56.00,10.26 45.51,9.65 36.66,8.15 27.81,6.66 20.69,5.19 13.58,3.73 9.25,2.99 4.92,2.26 2.64,2.58 0.36,2.90 0.01,2.90 -0.34,2.90 -0.68,2.82 -1.02,2.74 -1.34,2.57 -1.65,2.41 -1.92,2.18 -2.18,1.95 -2.38,1.66 -2.58,1.37 -2.71,1.04 -2.84,0.71 -2.88,0.36 -2.92,0.01 -2.88,-0.34 -2.84,-0.69 -2.72,-1.02 -2.59,-1.35 -2.39,-1.64 -2.19,-1.93 -1.93,-2.17 -1.67,-2.40 -1.36,-2.57 -1.04,-2.73 -0.70,-2.82 -0.36,-2.90 -0.36,-2.90 L -0.36,-2.90 Z"></path></g><g transform="translate(391 211) rotate(0 7.5 87)" stroke="none"><path fill="#1e1e1e" d="M 2.86,0 Q 2.86,0 2.87,6.32 2.88,12.64 3.46,21.57 4.05,30.49 5.19,42.90 6.33,55.32 7.68,70.10 9.02,84.87 10.99,103.50 12.97,122.12 14.10,135.25 15.23,148.38 15.39,155.74 15.55,163.09 15.93,168.49 16.30,173.89 16.29,174.10 16.27,174.31 16.19,174.51 16.10,174.70 15.96,174.86 15.82,175.02 15.63,175.12 15.45,175.23 15.24,175.27 15.03,175.31 14.82,175.28 14.61,175.25 14.42,175.16 14.23,175.06 14.08,174.91 13.93,174.76 13.83,174.57 13.74,174.38 13.71,174.17 13.68,173.96 13.72,173.75 13.76,173.54 13.87,173.36 13.97,173.17 14.13,173.03 14.29,172.89 14.48,172.81 14.68,172.72 14.89,172.70 15.10,172.69 15.31,172.74 15.51,172.79 15.69,172.90 15.87,173.02 16.00,173.18 16.14,173.35 16.21,173.55 16.28,173.75 16.29,173.96 16.30,174.17 16.23,174.37 16.17,174.58 16.05,174.75 15.93,174.92 15.75,175.05 15.58,175.17 15.38,175.23 15.17,175.30 14.96,175.29 14.75,175.29 14.55,175.21 14.35,175.14 14.18,175.01 14.02,174.87 13.90,174.69 13.79,174.52 13.74,174.31 13.69,174.10 13.69,174.10 13.69,174.10 13.17,168.72 12.65,163.34 11.59,156.11 10.54,148.89 8.82,135.82 7.10,122.75 5.06,104.08 3.03,85.42 1.71,70.63 0.39,55.85 -0.67,43.35 -1.75,30.86 -2.31,21.75 -2.88,12.65 -2.87,6.32 -2.86,0 -2.82,-0.34 -2.78,-0.68 -2.66,-1.00 -2.53,-1.33 -2.34,-1.61 -2.14,-1.90 -1.88,-2.13 -1.62,-2.35 -1.32,-2.51 -1.01,-2.68 -0.68,-2.76 -0.34,-2.84 0.00,-2.84 0.34,-2.84 0.68,-2.76 1.01,-2.68 1.32,-2.51 1.62,-2.35 1.88,-2.12 2.14,-1.90 2.34,-1.61 2.53,-1.33 2.66,-1.00 2.78,-0.68 2.82,-0.34 2.86,0.00 2.86,0.00 L 2.86,0 Z"></path></g><g transform="translate(401 374) rotate(0 39.5 1.5)" stroke="none"><path fill="#1e1e1e" d="M 0,-2.88 Q 0,-2.88 3.73,-2.89 7.47,-2.89 13.08,-2.89 18.70,-2.89 25.68,-2.89 32.67,-2.89 42.62,-2.26 52.57,-1.63 60.20,-0.72 67.84,0.18 73.46,0.93 79.09,1.68 79.29,1.73 79.50,1.78 79.68,1.89 79.86,2.01 80.00,2.17 80.13,2.34 80.21,2.53 80.28,2.73 80.29,2.94 80.30,3.16 80.24,3.36 80.18,3.56 80.06,3.74 79.93,3.91 79.76,4.04 79.59,4.16 79.39,4.23 79.19,4.29 78.98,4.29 78.76,4.29 78.56,4.22 78.36,4.15 78.19,4.01 78.03,3.88 77.91,3.71 77.79,3.53 77.74,3.32 77.69,3.12 77.70,2.90 77.72,2.69 77.80,2.50 77.88,2.30 78.02,2.14 78.16,1.98 78.34,1.87 78.53,1.77 78.74,1.73 78.94,1.68 79.16,1.71 79.37,1.74 79.56,1.83 79.75,1.92 79.90,2.07 80.05,2.22 80.15,2.41 80.25,2.60 80.28,2.81 80.31,3.02 80.27,3.22 80.23,3.43 80.13,3.62 80.03,3.81 79.87,3.95 79.71,4.09 79.52,4.18 79.33,4.27 79.12,4.29 78.90,4.31 78.90,4.31 78.90,4.31 73.23,4.27 67.55,4.24 59.90,4.09 52.24,3.93 42.46,3.41 32.67,2.89 25.68,2.89 18.70,2.89 13.08,2.89 7.47,2.89 3.73,2.89 0,2.88 -0.34,2.84 -0.69,2.80 -1.01,2.68 -1.34,2.55 -1.62,2.36 -1.91,2.16 -2.14,1.90 -2.37,1.64 -2.54,1.33 -2.70,1.02 -2.78,0.68 -2.86,0.34 -2.86,-0.00 -2.86,-0.34 -2.78,-0.68 -2.70,-1.02 -2.53,-1.33 -2.37,-1.64 -2.14,-1.90 -1.91,-2.16 -1.62,-2.36 -1.34,-2.55 -1.01,-2.68 -0.69,-2.80 -0.34,-2.84 0.00,-2.88 0.00,-2.88 L 0,-2.88 Z"></path></g><g transform="translate(474 387) rotate(0 3.5 42.5)" stroke="none"><path fill="#1e1e1e" d="M 3.03,-0.43 Q 3.03,-0.43 3.62,3.58 4.20,7.61 5.30,13.87 6.40,20.13 7.45,28.35 8.51,36.56 8.97,45.32 9.42,54.07 8.99,62.50 8.57,70.94 6.70,75.25 4.82,79.55 3.53,82.48 2.25,85.40 2.15,85.59 2.05,85.77 1.90,85.92 1.75,86.07 1.56,86.16 1.36,86.26 1.15,86.28 0.94,86.31 0.73,86.26 0.53,86.22 0.34,86.11 0.16,86.01 0.02,85.85 -0.11,85.69 -0.19,85.49 -0.27,85.30 -0.29,85.08 -0.30,84.87 -0.25,84.67 -0.19,84.46 -0.08,84.28 0.03,84.11 0.20,83.97 0.36,83.84 0.56,83.77 0.76,83.70 0.98,83.70 1.19,83.70 1.39,83.76 1.59,83.83 1.76,83.95 1.94,84.08 2.06,84.25 2.18,84.43 2.24,84.63 2.30,84.83 2.29,85.05 2.28,85.26 2.21,85.46 2.13,85.66 1.99,85.82 1.86,85.98 1.68,86.10 1.50,86.21 1.29,86.26 1.08,86.31 0.87,86.29 0.66,86.27 0.47,86.18 0.27,86.09 0.12,85.95 -0.03,85.80 -0.13,85.62 -0.23,85.43 -0.27,85.22 -0.31,85.01 -0.28,84.80 -0.25,84.59 -0.25,84.59 -0.25,84.59 0.40,81.47 1.05,78.34 1.81,74.47 2.56,70.60 2.91,62.49 3.26,54.39 2.82,45.87 2.39,37.35 1.35,29.27 0.32,21.20 -0.78,14.84 -1.90,8.48 -2.47,4.46 -3.03,0.43 -3.04,0.06 -3.05,-0.30 -2.97,-0.66 -2.89,-1.02 -2.72,-1.35 -2.56,-1.69 -2.32,-1.97 -2.08,-2.25 -1.78,-2.47 -1.48,-2.68 -1.14,-2.82 -0.79,-2.96 -0.43,-3.01 -0.06,-3.07 0.30,-3.03 0.67,-2.99 1.02,-2.87 1.36,-2.74 1.67,-2.54 1.98,-2.34 2.23,-2.06 2.49,-1.79 2.66,-1.47 2.84,-1.14 2.94,-0.79 3.04,-0.43 3.04,-0.43 L 3.03,-0.43 Z"></path></g><g transform="translate(354 480) rotate(0 51 1)" stroke="none"><path fill="#1e1e1e" d="M 0.34,-2.75 Q 0.34,-2.75 4.94,-2.20 9.55,-1.65 16.04,-1.13 22.53,-0.61 34.47,-0.15 46.40,0.31 57.67,-0.33 68.95,-0.98 78.34,-1.83 87.74,-2.69 94.79,-3.00 101.84,-3.30 102.05,-3.29 102.26,-3.28 102.46,-3.20 102.66,-3.13 102.82,-2.99 102.99,-2.86 103.10,-2.68 103.21,-2.49 103.26,-2.29 103.31,-2.08 103.28,-1.87 103.26,-1.66 103.18,-1.46 103.09,-1.27 102.95,-1.11 102.80,-0.96 102.61,-0.86 102.43,-0.76 102.22,-0.72 102.01,-0.68 101.80,-0.71 101.59,-0.75 101.40,-0.84 101.21,-0.94 101.06,-1.09 100.92,-1.25 100.82,-1.44 100.73,-1.63 100.71,-1.84 100.68,-2.05 100.73,-2.26 100.77,-2.47 100.88,-2.65 100.98,-2.83 101.15,-2.97 101.31,-3.11 101.50,-3.19 101.70,-3.27 101.91,-3.29 102.12,-3.30 102.33,-3.25 102.53,-3.19 102.71,-3.08 102.89,-2.96 103.02,-2.79 103.15,-2.62 103.22,-2.42 103.29,-2.22 103.29,-2.01 103.29,-1.80 103.23,-1.59 103.16,-1.39 103.04,-1.22 102.91,-1.05 102.73,-0.93 102.56,-0.81 102.36,-0.75 102.15,-0.69 102.15,-0.69 102.15,-0.69 95.23,0.68 88.31,2.05 78.79,3.47 69.28,4.88 57.72,5.52 46.15,6.17 34.11,5.60 22.08,5.04 15.46,4.49 8.84,3.95 4.25,3.35 -0.34,2.75 -0.66,2.67 -0.99,2.59 -1.28,2.43 -1.58,2.27 -1.83,2.05 -2.08,1.83 -2.27,1.55 -2.46,1.28 -2.58,0.96 -2.69,0.65 -2.73,0.32 -2.77,-0.00 -2.73,-0.34 -2.69,-0.67 -2.57,-0.98 -2.45,-1.29 -2.26,-1.57 -2.07,-1.84 -1.81,-2.06 -1.56,-2.29 -1.27,-2.44 -0.97,-2.59 -0.64,-2.67 -0.32,-2.75 0.00,-2.75 0.34,-2.75 0.34,-2.75 L 0.34,-2.75 Z"></path></g><g transform="translate(406 204) rotate(0 38 4)" stroke="none"><path fill="#1e1e1e" d="M -0.15,-2.98 Q -0.15,-2.98 5.30,-3.28 10.76,-3.58 18.37,-3.41 25.98,-3.25 37.38,-1.73 48.79,-0.21 56.79,1.87 64.80,3.95 70.54,5.83 76.28,7.71 76.48,7.79 76.68,7.87 76.84,8.01 77.00,8.15 77.11,8.33 77.22,8.52 77.26,8.72 77.31,8.93 77.28,9.14 77.26,9.35 77.17,9.55 77.08,9.74 76.93,9.89 76.78,10.04 76.60,10.14 76.41,10.24 76.20,10.28 75.99,10.31 75.78,10.27 75.57,10.24 75.38,10.14 75.19,10.04 75.05,9.88 74.90,9.73 74.82,9.53 74.73,9.34 74.71,9.13 74.68,8.92 74.73,8.71 74.78,8.50 74.89,8.32 75.00,8.14 75.16,8.00 75.32,7.87 75.52,7.79 75.72,7.71 75.93,7.70 76.14,7.69 76.35,7.75 76.55,7.81 76.73,7.93 76.90,8.05 77.03,8.22 77.16,8.39 77.23,8.59 77.29,8.79 77.29,9.00 77.29,9.21 77.22,9.42 77.15,9.62 77.02,9.78 76.89,9.95 76.72,10.07 76.54,10.19 76.33,10.25 76.13,10.30 75.92,10.29 75.71,10.28 75.71,10.28 75.71,10.28 69.71,9.51 63.72,8.74 55.85,7.25 47.98,5.75 36.91,4.26 25.84,2.76 18.46,2.59 11.08,2.43 5.61,2.70 0.15,2.98 -0.20,2.95 -0.56,2.93 -0.90,2.82 -1.24,2.71 -1.55,2.52 -1.86,2.33 -2.11,2.08 -2.36,1.82 -2.55,1.51 -2.73,1.20 -2.83,0.86 -2.94,0.51 -2.96,0.15 -2.98,-0.20 -2.91,-0.55 -2.84,-0.91 -2.69,-1.23 -2.54,-1.56 -2.32,-1.84 -2.09,-2.12 -1.81,-2.34 -1.52,-2.56 -1.19,-2.71 -0.86,-2.86 -0.51,-2.92 -0.15,-2.98 -0.15,-2.98 L -0.15,-2.98 Z"></path></g><g transform="translate(479 230) rotate(0 3 93)" stroke="none"><path fill="#1e1e1e" d="M 3.05,0.23 Q 3.05,0.23 2.77,3.97 2.48,7.70 2.93,19.18 3.37,30.65 4.44,46.20 5.50,61.74 6.83,79.86 8.17,97.98 9.02,118.38 9.87,138.78 9.37,151.58 8.86,164.39 7.69,170.63 6.52,176.87 6.47,177.22 6.41,177.57 6.27,177.90 6.13,178.22 5.92,178.51 5.71,178.79 5.43,179.01 5.16,179.24 4.84,179.39 4.52,179.54 4.17,179.61 3.82,179.69 3.47,179.67 3.12,179.66 2.78,179.56 2.44,179.46 2.13,179.28 1.82,179.11 1.57,178.86 1.31,178.62 1.12,178.32 0.93,178.02 0.82,177.68 0.71,177.35 0.68,176.99 0.65,176.64 -0.86,176.44 -2.39,176.25 -2.58,176.15 -2.77,176.06 -2.92,175.90 -3.07,175.75 -3.16,175.56 -3.25,175.37 -3.28,175.16 -3.31,174.95 -3.27,174.74 -3.22,174.53 -3.12,174.35 -3.01,174.16 -2.85,174.02 -2.69,173.88 -2.50,173.80 -2.30,173.72 -2.09,173.70 -1.88,173.69 -1.67,173.74 -1.47,173.79 -1.29,173.91 -1.11,174.02 -0.98,174.19 -0.85,174.36 -0.78,174.56 -0.70,174.76 -0.70,174.97 -0.70,175.18 -0.76,175.38 -0.82,175.59 -0.95,175.76 -1.07,175.93 -1.25,176.05 -1.42,176.18 -1.62,176.24 -1.83,176.30 -2.04,176.29 -2.25,176.28 -2.45,176.21 -2.65,176.13 -2.81,176.00 -2.98,175.86 -3.09,175.68 -3.21,175.50 -3.26,175.30 -3.30,175.09 -3.29,174.88 -3.27,174.67 -3.18,174.47 -3.10,174.28 -2.95,174.12 -2.81,173.97 -2.62,173.86 -2.44,173.76 -2.23,173.72 -2.02,173.68 -1.81,173.71 -1.60,173.74 -1.60,173.74 -1.60,173.74 2.46,175.31 6.52,176.87 6.47,177.22 6.41,177.57 6.27,177.90 6.13,178.22 5.92,178.51 5.71,178.79 5.43,179.01 5.16,179.24 4.84,179.39 4.52,179.54 4.17,179.61 3.82,179.69 3.47,179.67 3.12,179.66 2.78,179.56 2.44,179.46 2.13,179.28 1.82,179.11 1.57,178.86 1.31,178.62 1.12,178.32 0.93,178.02 0.82,177.68 0.71,177.35 0.68,176.99 0.65,176.64 1.63,170.39 2.62,164.13 3.12,151.58 3.62,139.04 2.78,118.73 1.95,98.43 0.66,80.29 -0.62,62.16 -1.66,46.52 -2.71,30.89 -3.17,19.06 -3.63,7.24 -3.34,3.50 -3.05,-0.23 -2.97,-0.59 -2.90,-0.95 -2.74,-1.29 -2.59,-1.62 -2.36,-1.91 -2.12,-2.19 -1.83,-2.42 -1.53,-2.64 -1.20,-2.79 -0.86,-2.93 -0.49,-2.99 -0.13,-3.05 0.23,-3.02 0.60,-3.00 0.95,-2.88 1.30,-2.76 1.61,-2.57 1.92,-2.37 2.18,-2.11 2.43,-1.84 2.62,-1.52 2.81,-1.20 2.91,-0.85 3.01,-0.50 3.03,-0.13 3.05,0.23 3.05,0.23 L 3.05,0.23 Z"></path></g><g transform="translate(400 135) rotate(0 -1.5 39.5)" stroke="none"><path fill="#1e1e1e" d="M 2.50,0.20 Q 2.50,0.20 2.13,7.40 1.77,14.60 1.24,23.95 0.72,33.30 0.50,42.41 0.27,51.52 0.18,58.56 0.08,65.60 0.31,69.35 0.53,73.10 -0.07,75.50 -0.69,77.89 -0.70,78.11 -0.72,78.32 -0.81,78.51 -0.89,78.71 -1.03,78.86 -1.18,79.02 -1.36,79.13 -1.55,79.23 -1.76,79.27 -1.96,79.31 -2.18,79.28 -2.39,79.25 -2.58,79.15 -2.77,79.06 -2.92,78.91 -3.06,78.76 -3.16,78.57 -3.25,78.38 -3.28,78.16 -3.31,77.95 -3.27,77.75 -3.23,77.54 -3.12,77.35 -3.02,77.17 -2.86,77.03 -2.70,76.89 -2.50,76.80 -2.31,76.72 -2.09,76.70 -1.88,76.69 -1.68,76.74 -1.47,76.79 -1.29,76.91 -1.11,77.02 -0.98,77.19 -0.85,77.35 -0.78,77.55 -0.70,77.75 -0.70,77.97 -0.69,78.18 -0.76,78.38 -0.82,78.58 -0.95,78.76 -1.07,78.93 -1.24,79.05 -1.42,79.17 -1.62,79.24 -1.82,79.30 -2.04,79.29 -2.25,79.28 -2.45,79.21 -2.65,79.14 -2.81,79.00 -2.98,78.87 -3.09,78.69 -3.20,78.51 -3.25,78.30 -3.30,78.10 -3.30,78.10 -3.30,78.10 -4.28,75.78 -5.26,73.47 -5.53,69.50 -5.80,65.52 -5.70,58.45 -5.60,51.38 -5.38,42.17 -5.15,32.96 -4.61,23.55 -4.07,14.14 -3.28,6.97 -2.50,-0.20 -2.44,-0.49 -2.38,-0.79 -2.25,-1.06 -2.12,-1.33 -1.93,-1.57 -1.73,-1.80 -1.49,-1.99 -1.25,-2.17 -0.97,-2.29 -0.69,-2.41 -0.40,-2.45 -0.10,-2.50 0.19,-2.48 0.50,-2.45 0.78,-2.36 1.07,-2.26 1.33,-2.10 1.58,-1.94 1.79,-1.72 2.00,-1.50 2.15,-1.24 2.30,-0.98 2.39,-0.69 2.47,-0.40 2.48,-0.10 2.50,0.20 2.50,0.20 L 2.50,0.20 Z"></path></g><g transform="translate(398 118) rotate(0 87.5 3.5)" stroke="none"><path fill="#1e1e1e" d="M 0,-2.93 Q 0,-2.93 3.73,-2.94 7.47,-2.94 14.23,-2.95 21.00,-2.95 30.77,-2.98 40.55,-3.01 56.78,-3.02 73.00,-3.03 87.47,-2.17 101.93,-1.31 114.71,-0.05 127.48,1.19 138.87,2.20 150.26,3.22 157.38,3.95 164.49,4.69 169.77,5.19 175.06,5.68 175.27,5.73 175.47,5.77 175.66,5.88 175.84,5.99 175.98,6.15 176.12,6.31 176.20,6.51 176.28,6.70 176.29,6.92 176.30,7.13 176.25,7.33 176.19,7.54 176.07,7.72 175.95,7.89 175.79,8.02 175.62,8.15 175.42,8.22 175.22,8.29 175.00,8.29 174.79,8.29 174.59,8.23 174.39,8.16 174.22,8.03 174.05,7.90 173.93,7.73 173.81,7.55 173.75,7.35 173.69,7.14 173.70,6.93 173.71,6.72 173.79,6.52 173.87,6.32 174.00,6.16 174.14,6.00 174.32,5.89 174.50,5.78 174.71,5.73 174.92,5.68 175.13,5.71 175.34,5.73 175.53,5.82 175.73,5.90 175.88,6.05 176.04,6.19 176.14,6.38 176.24,6.57 176.27,6.78 176.31,6.99 176.28,7.20 176.24,7.41 176.14,7.60 176.05,7.78 175.89,7.93 175.74,8.08 175.55,8.17 175.35,8.26 175.14,8.28 174.93,8.31 174.93,8.31 174.93,8.31 169.63,8.30 164.32,8.28 157.11,8.33 149.90,8.38 138.40,7.77 126.90,7.17 114.23,5.96 101.57,4.76 87.29,3.89 73.00,3.03 56.77,3.02 40.55,3.01 30.77,2.98 21.00,2.95 14.23,2.95 7.47,2.94 3.73,2.94 0,2.93 -0.35,2.89 -0.70,2.85 -1.03,2.72 -1.36,2.60 -1.65,2.40 -1.94,2.19 -2.18,1.93 -2.41,1.66 -2.58,1.35 -2.74,1.04 -2.83,0.69 -2.91,0.35 -2.91,-0.00 -2.91,-0.35 -2.83,-0.69 -2.74,-1.04 -2.58,-1.35 -2.41,-1.66 -2.18,-1.93 -1.94,-2.19 -1.65,-2.40 -1.36,-2.60 -1.03,-2.72 -0.70,-2.85 -0.35,-2.89 0.00,-2.93 0.00,-2.93 L 0,-2.93 Z"></path></g><g transform="translate(577 109) rotate(0 9 112)" stroke="none"><path fill="#1e1e1e" d="M 2.66,-0.59 Q 2.66,-0.59 3.25,1.99 3.85,4.57 4.78,12.13 5.71,19.70 6.71,40.77 7.70,61.85 8.38,84.30 9.07,106.75 10.79,127.12 12.51,147.49 14.10,163.35 15.69,179.21 17.16,189.93 18.62,200.65 18.61,207.39 18.61,214.13 18.46,219.03 18.31,223.92 18.28,224.13 18.26,224.34 18.17,224.54 18.08,224.73 17.94,224.88 17.79,225.04 17.60,225.14 17.42,225.24 17.21,225.27 17.00,225.31 16.79,225.27 16.58,225.24 16.39,225.14 16.20,225.04 16.06,224.89 15.91,224.73 15.82,224.54 15.73,224.35 15.71,224.14 15.68,223.93 15.73,223.72 15.77,223.51 15.88,223.33 15.99,223.15 16.15,223.01 16.32,222.87 16.51,222.79 16.71,222.71 16.92,222.70 17.14,222.69 17.34,222.75 17.54,222.80 17.72,222.92 17.90,223.04 18.03,223.21 18.15,223.38 18.22,223.58 18.29,223.78 18.29,223.99 18.29,224.21 18.22,224.41 18.16,224.61 18.03,224.78 17.90,224.95 17.72,225.07 17.55,225.19 17.34,225.24 17.14,225.30 16.93,225.29 16.71,225.28 16.52,225.20 16.32,225.12 16.16,224.98 16.00,224.85 15.89,224.66 15.78,224.48 15.73,224.28 15.68,224.07 15.68,224.07 15.68,224.07 14.99,219.22 14.30,214.37 13.55,207.93 12.81,201.48 11.20,190.65 9.58,179.82 7.98,163.92 6.37,148.01 4.64,127.47 2.91,106.93 2.24,84.52 1.56,62.12 0.71,41.23 -0.14,20.34 -0.84,13.06 -1.55,5.77 -2.10,3.18 -2.66,0.59 -2.69,0.26 -2.72,-0.06 -2.67,-0.38 -2.63,-0.71 -2.50,-1.01 -2.38,-1.32 -2.19,-1.58 -1.99,-1.85 -1.74,-2.06 -1.49,-2.27 -1.20,-2.42 -0.90,-2.56 -0.58,-2.64 -0.26,-2.71 0.06,-2.70 0.39,-2.69 0.70,-2.61 1.02,-2.52 1.31,-2.36 1.59,-2.20 1.84,-1.98 2.08,-1.75 2.26,-1.48 2.44,-1.21 2.55,-0.90 2.66,-0.59 2.66,-0.59 L 2.66,-0.59 Z"></path></g><g transform="translate(505 389) rotate(0 38.5 1)" stroke="none"><path fill="#1e1e1e" d="M -0.67,-2.71 Q -0.67,-2.71 2.79,-3.59 6.27,-4.48 11.09,-4.06 15.91,-3.64 22.37,-2.88 28.83,-2.13 37.58,-1.22 46.33,-0.32 55.17,0.59 64.02,1.52 70.56,2.60 77.09,3.69 77.30,3.74 77.51,3.79 77.69,3.90 77.87,4.01 78.00,4.18 78.13,4.34 78.21,4.54 78.28,4.74 78.29,4.95 78.30,5.16 78.24,5.37 78.17,5.57 78.05,5.75 77.93,5.92 77.76,6.04 77.59,6.17 77.38,6.23 77.18,6.30 76.97,6.29 76.75,6.29 76.55,6.21 76.36,6.14 76.19,6.01 76.02,5.88 75.91,5.70 75.79,5.52 75.74,5.31 75.69,5.11 75.70,4.90 75.72,4.69 75.80,4.49 75.88,4.29 76.03,4.13 76.17,3.98 76.35,3.87 76.54,3.76 76.74,3.72 76.95,3.68 77.16,3.71 77.37,3.74 77.56,3.83 77.76,3.92 77.91,4.07 78.06,4.22 78.15,4.41 78.25,4.60 78.28,4.81 78.31,5.02 78.27,5.23 78.23,5.44 78.13,5.63 78.02,5.81 77.87,5.95 77.71,6.10 77.51,6.18 77.32,6.27 77.11,6.29 76.90,6.30 76.90,6.30 76.90,6.30 70.27,6.39 63.64,6.48 54.68,6.06 45.71,5.63 36.91,4.72 28.11,3.80 21.68,2.99 15.24,2.17 11.38,1.60 7.52,1.03 4.10,1.87 0.67,2.71 0.34,2.75 0.00,2.79 -0.32,2.75 -0.66,2.71 -0.97,2.59 -1.29,2.48 -1.56,2.29 -1.84,2.09 -2.07,1.84 -2.29,1.59 -2.45,1.29 -2.61,1.00 -2.69,0.67 -2.77,0.34 -2.77,0.00 -2.77,-0.32 -2.69,-0.65 -2.61,-0.98 -2.46,-1.28 -2.30,-1.58 -2.08,-1.83 -1.86,-2.08 -1.58,-2.27 -1.30,-2.47 -0.99,-2.59 -0.67,-2.71 -0.67,-2.71 L -0.67,-2.71 Z"></path></g><g transform="translate(109 583) rotate(0 91.5 -4.5)" stroke="none"><path fill="#1e1e1e" d="M -0.37,-2.86 Q -0.37,-2.86 6.23,-3.76 12.84,-4.67 24.09,-5.33 35.34,-6.00 50.49,-6.27 65.64,-6.55 83.25,-6.96 100.87,-7.36 124.43,-8.44 147.98,-9.53 165.45,-9.92 182.92,-10.31 183.13,-10.28 183.34,-10.26 183.54,-10.17 183.73,-10.08 183.88,-9.94 184.04,-9.79 184.14,-9.60 184.24,-9.42 184.27,-9.21 184.31,-9.00 184.27,-8.79 184.24,-8.58 184.14,-8.39 184.04,-8.20 183.89,-8.06 183.73,-7.91 183.54,-7.82 183.35,-7.73 183.14,-7.71 182.93,-7.68 182.72,-7.73 182.51,-7.77 182.33,-7.88 182.15,-7.99 182.01,-8.15 181.87,-8.32 181.79,-8.51 181.71,-8.71 181.70,-8.92 181.69,-9.13 181.75,-9.34 181.80,-9.54 181.92,-9.72 182.04,-9.90 182.21,-10.03 182.38,-10.15 182.58,-10.22 182.78,-10.29 182.99,-10.29 183.21,-10.29 183.41,-10.22 183.61,-10.16 183.78,-10.03 183.95,-9.90 184.07,-9.72 184.19,-9.55 184.24,-9.34 184.30,-9.14 184.29,-8.93 184.28,-8.71 184.20,-8.52 184.12,-8.32 183.98,-8.16 183.85,-8.00 183.66,-7.89 183.48,-7.78 183.28,-7.73 183.07,-7.68 183.07,-7.68 183.07,-7.68 165.66,-6.12 148.26,-4.55 124.64,-2.99 101.01,-1.43 83.38,-1.02 65.75,-0.62 50.72,-0.34 35.69,-0.06 24.65,0.57 13.60,1.22 6.99,2.04 0.37,2.86 0.02,2.86 -0.32,2.87 -0.66,2.79 -1.00,2.71 -1.31,2.55 -1.62,2.39 -1.88,2.16 -2.14,1.93 -2.34,1.65 -2.54,1.36 -2.67,1.04 -2.79,0.71 -2.84,0.37 -2.88,0.02 -2.85,-0.32 -2.81,-0.66 -2.69,-0.99 -2.57,-1.32 -2.37,-1.60 -2.17,-1.89 -1.92,-2.13 -1.66,-2.36 -1.35,-2.52 -1.04,-2.69 -0.71,-2.77 -0.37,-2.86 -0.37,-2.86 L -0.37,-2.86 Z"></path></g><g transform="translate(111 202) rotate(0 37 -1.5)" stroke="none"><path fill="#1e1e1e" d="M -0.28,-2.16 Q -0.28,-2.16 3.99,-2.92 8.28,-3.68 14.49,-4.21 20.69,-4.75 28.55,-4.97 36.41,-5.19 44.96,-4.82 53.50,-4.45 59.39,-4.00 65.28,-3.54 69.65,-3.43 74.01,-3.31 74.22,-3.27 74.43,-3.23 74.62,-3.13 74.80,-3.03 74.95,-2.87 75.09,-2.72 75.18,-2.52 75.27,-2.33 75.29,-2.12 75.31,-1.91 75.26,-1.70 75.21,-1.49 75.10,-1.31 74.98,-1.13 74.82,-1.00 74.66,-0.86 74.46,-0.78 74.26,-0.71 74.05,-0.70 73.83,-0.69 73.63,-0.75 73.43,-0.81 73.25,-0.93 73.08,-1.05 72.95,-1.23 72.83,-1.40 72.76,-1.60 72.70,-1.80 72.70,-2.01 72.70,-2.23 72.77,-2.43 72.84,-2.63 72.97,-2.79 73.11,-2.96 73.28,-3.08 73.46,-3.19 73.67,-3.25 73.87,-3.30 74.08,-3.29 74.30,-3.27 74.49,-3.19 74.69,-3.11 74.85,-2.97 75.01,-2.83 75.11,-2.65 75.22,-2.46 75.26,-2.26 75.31,-2.05 75.28,-1.84 75.26,-1.63 75.16,-1.43 75.07,-1.24 74.92,-1.09 74.78,-0.94 74.59,-0.84 74.40,-0.74 74.19,-0.71 73.98,-0.68 73.98,-0.68 73.98,-0.68 69.61,-0.68 65.24,-0.69 59.32,-0.39 53.40,-0.10 44.98,-0.12 36.56,-0.14 28.84,0.09 21.13,0.32 15.04,0.85 8.96,1.38 4.62,1.77 0.28,2.16 0.02,2.16 -0.23,2.16 -0.49,2.10 -0.74,2.04 -0.98,1.92 -1.21,1.80 -1.41,1.63 -1.61,1.46 -1.76,1.25 -1.91,1.03 -2.01,0.79 -2.11,0.54 -2.14,0.28 -2.18,0.02 -2.15,-0.23 -2.12,-0.49 -2.03,-0.74 -1.94,-0.99 -1.79,-1.20 -1.64,-1.42 -1.45,-1.60 -1.25,-1.77 -1.02,-1.90 -0.79,-2.02 -0.54,-2.09 -0.28,-2.16 -0.28,-2.16 L -0.28,-2.16 Z"></path></g></svg>