<svg version="1.1" xmlns="http://www.w3.org/2000/svg" viewBox="0 0 717 447" width="717" height="447">
  <g transform="translate(84 32) rotate(0 274.5 191.5)" stroke="none"><path fill="#1e1e1e" d="M 0.87,3.92 Q 0.87,3.92 -1.61,4.95 -4.10,5.98 -4.69,6.04 -5.28,6.09 -5.87,6.01 -6.46,5.92 -7.02,5.70 -7.57,5.47 -8.05,5.12 -8.54,4.77 -8.92,4.32 -9.31,3.86 -9.57,3.33 -9.84,2.79 -9.97,2.21 -10.10,1.63 -10.08,1.03 -10.07,0.44 -9.91,-0.13 -9.76,-0.71 -9.47,-1.23 -9.18,-1.75 -8.77,-2.19 -8.37,-2.62 -7.87,-2.95 -7.37,-3.28 -6.81,-3.48 -6.24,-3.68 -3.40,-4.55 -0.56,-5.42 4.80,-6.75 10.16,-8.09 20.94,-9.61 31.73,-11.14 43.89,-11.81 56.06,-12.48 69.56,-12.78 83.06,-13.08 98.57,-13.23 114.08,-13.37 132.12,-13.72 150.17,-14.07 175.04,-15.09 199.91,-16.11 221.96,-17.40 244.00,-18.69 264.33,-19.81 284.65,-20.93 303.64,-21.99 322.62,-23.04 345.38,-24.06 368.14,-25.08 386.44,-25.81 404.74,-26.53 420.62,-26.85 436.50,-27.16 450.73,-27.29 464.95,-27.41 477.04,-27.47 489.12,-27.52 501.16,-27.56 513.20,-27.59 521.48,-27.63 529.75,-27.67 535.29,-27.69 540.82,-27.72 544.83,-27.43 548.83,-27.15 552.56,-26.46 556.28,-25.77 559.85,-24.51 563.42,-23.25 567.57,-20.79 571.73,-18.33 576.06,-14.48 580.39,-10.63 584.71,-5.00 589.02,0.63 592.92,7.49 596.83,14.36 601.13,24.65 605.44,34.93 608.73,44.85 612.02,54.76 614.87,65.06 617.72,75.37 620.13,89.77 622.55,104.16 624.13,116.30 625.72,128.43 626.69,139.42 627.65,150.41 628.09,161.21 628.52,172.01 628.72,181.78 628.91,191.54 629.00,200.29 629.08,209.05 629.14,219.38 629.19,229.72 629.22,238.14 629.25,246.55 629.26,254.15 629.28,261.76 628.70,271.22 628.13,280.68 627.59,288.66 627.06,296.64 626.26,303.91 625.46,311.17 624.85,317.33 624.23,323.49 623.37,329.15 622.51,334.82 621.25,340.27 619.98,345.73 618.28,351.82 616.57,357.91 615.29,362.46 614.00,367.01 612.84,370.51 611.68,374.02 610.95,376.51 610.21,378.99 609.16,381.37 608.10,383.75 605.97,386.94 603.83,390.12 599.34,392.76 594.84,395.39 589.06,396.83 583.28,398.28 578.10,399.42 572.91,400.55 567.19,401.63 561.47,402.70 553.22,403.20 544.96,403.70 537.79,403.89 530.62,404.08 523.38,404.44 516.13,404.81 508.33,404.97 500.52,405.14 492.43,405.49 484.34,405.84 475.32,405.99 466.31,406.15 454.84,405.63 443.37,405.12 433.85,404.32 424.34,403.52 415.13,402.61 405.91,401.69 394.39,401.03 382.86,400.37 372.17,399.80 361.48,399.23 351.84,398.99 342.21,398.75 333.41,398.37 324.62,397.98 316.60,396.93 308.58,395.89 301.13,394.57 293.68,393.25 284.43,392.15 275.18,391.05 266.66,390.30 258.15,389.54 249.48,389.23 240.82,388.91 232.35,389.06 223.88,389.20 212.49,389.56 201.10,389.91 190.81,390.35 180.53,390.80 170.79,391.57 161.05,392.34 151.46,393.23 141.86,394.13 132.41,395.35 122.97,396.58 111.56,398.54 100.14,400.49 90.67,402.19 81.19,403.89 72.57,405.47 63.94,407.06 56.18,408.32 48.41,409.58 39.35,410.14 30.30,410.70 23.26,410.33 16.23,409.97 10.31,407.52 4.38,405.08 -0.12,401.38 -4.64,397.68 -8.26,393.73 -11.88,389.77 -16.33,383.98 -20.77,378.18 -24.65,372.87 -28.53,367.56 -31.93,362.68 -35.33,357.80 -38.55,352.77 -41.77,347.75 -45.76,340.95 -49.75,334.14 -52.75,327.20 -55.75,320.26 -58.19,313.22 -60.62,306.18 -62.81,298.84 -64.99,291.49 -67.06,284.38 -69.12,277.27 -71.45,268.75 -73.78,260.22 -75.38,252.70 -76.98,245.18 -77.97,237.79 -78.97,230.40 -79.39,223.39 -79.81,216.39 -79.41,207.70 -79.01,199.01 -77.95,191.70 -76.89,184.40 -75.87,177.67 -74.85,170.95 -73.85,164.09 -72.85,157.23 -72.44,149.71 -72.04,142.19 -71.87,133.80 -71.69,125.41 -71.61,115.52 -71.54,105.63 -71.50,98.25 -71.47,90.87 -70.55,84.67 -69.64,78.47 -68.00,73.25 -66.36,68.02 -64.22,62.40 -62.09,56.78 -60.68,52.33 -59.28,47.89 -58.45,43.68 -57.62,39.47 -56.97,35.10 -56.32,30.74 -55.40,26.10 -54.49,21.47 -53.38,18.00 -52.28,14.53 -50.03,11.79 -47.79,9.04 -45.35,7.48 -42.91,5.92 -39.86,4.51 -36.81,3.09 -36.46,2.85 -36.11,2.61 -35.70,2.50 -35.29,2.38 -34.86,2.41 -34.44,2.43 -34.04,2.58 -33.65,2.74 -33.32,3.01 -33.00,3.29 -32.78,3.65 -32.56,4.02 -32.47,4.43 -32.37,4.84 -32.42,5.27 -32.46,5.69 -32.64,6.08 -32.82,6.46 -33.11,6.77 -33.40,7.08 -33.77,7.28 -34.15,7.48 -34.57,7.55 -34.99,7.62 -35.41,7.55 -35.83,7.49 -36.20,7.29 -36.58,7.09 -36.87,6.78 -37.16,6.48 -37.34,6.09 -37.52,5.71 -37.57,5.28 -37.62,4.86 -37.53,4.45 -37.44,4.03 -37.22,3.67 -37.00,3.30 -36.68,3.02 -36.36,2.75 -35.96,2.59 -35.57,2.43 -35.14,2.41 -34.72,2.38 -34.31,2.50 -33.90,2.61 -33.55,2.85 -33.19,3.08 -32.94,3.42 -32.68,3.76 -32.54,4.16 -32.40,4.56 -32.40,4.99 -32.40,5.41 -32.54,5.82 -32.67,6.22 -32.93,6.56 -33.18,6.90 -33.18,6.90 -33.18,6.90 -34.81,9.94 -36.43,12.98 -38.46,15.75 -40.49,18.53 -41.27,21.19 -42.05,23.85 -42.86,28.24 -43.67,32.62 -44.36,37.30 -45.06,41.98 -46.04,46.87 -47.03,51.76 -48.55,56.56 -50.07,61.36 -52.10,66.66 -54.13,71.96 -55.53,76.20 -56.94,80.44 -57.78,85.70 -58.62,90.95 -58.65,98.34 -58.68,105.73 -58.76,115.71 -58.84,125.69 -59.02,134.29 -59.21,142.89 -59.66,150.99 -60.12,159.09 -61.13,165.98 -62.14,172.88 -63.15,179.58 -64.16,186.28 -65.16,192.96 -66.17,199.64 -66.58,207.63 -66.98,215.63 -66.60,222.17 -66.22,228.71 -65.31,235.61 -64.40,242.51 -62.88,249.67 -61.37,256.83 -59.07,265.26 -56.77,273.68 -54.71,280.75 -52.65,287.82 -50.54,294.90 -48.43,301.98 -46.17,308.58 -43.90,315.19 -41.26,321.41 -38.63,327.63 -34.77,334.21 -30.91,340.80 -27.83,345.62 -24.75,350.43 -21.43,355.19 -18.12,359.95 -14.33,365.13 -10.54,370.32 -6.40,375.69 -2.27,381.06 0.75,384.44 3.78,387.82 6.81,390.56 9.83,393.30 13.53,395.18 17.23,397.06 23.37,397.39 29.52,397.72 37.92,397.22 46.33,396.72 53.96,395.48 61.59,394.24 70.25,392.66 78.90,391.08 88.43,389.39 97.96,387.69 109.63,385.71 121.30,383.73 130.98,382.47 140.66,381.21 150.36,380.31 160.06,379.40 170.02,378.65 179.98,377.90 190.34,377.47 200.70,377.04 212.18,376.69 223.66,376.34 232.47,376.19 241.29,376.04 250.29,376.38 259.29,376.71 268.00,377.49 276.70,378.28 286.32,379.43 295.93,380.58 303.10,381.87 310.28,383.15 317.74,384.16 325.19,385.16 333.86,385.56 342.53,385.96 352.35,386.21 362.16,386.46 372.88,387.04 383.60,387.62 395.39,388.31 407.18,388.99 416.29,389.90 425.41,390.81 434.68,391.59 443.95,392.38 455.02,392.89 466.09,393.40 474.94,393.25 483.79,393.10 492.03,392.75 500.26,392.39 507.88,392.24 515.50,392.09 522.89,391.72 530.28,391.35 537.26,391.16 544.24,390.97 551.69,390.57 559.14,390.18 564.67,389.15 570.20,388.13 575.24,387.03 580.28,385.93 585.04,384.82 589.79,383.71 592.54,382.40 595.30,381.09 596.67,378.23 598.03,375.37 598.83,372.69 599.62,370.01 600.70,366.78 601.78,363.55 603.07,359.02 604.35,354.48 605.98,348.66 607.62,342.84 608.79,337.87 609.97,332.90 610.79,327.55 611.61,322.20 612.25,315.98 612.90,309.76 613.70,302.78 614.50,295.80 615.03,287.86 615.56,279.91 616.13,270.84 616.70,261.76 616.70,254.17 616.71,246.57 616.71,238.16 616.71,229.76 616.70,219.45 616.69,209.15 616.63,200.46 616.57,191.76 616.42,182.12 616.27,172.48 615.89,161.98 615.51,151.47 614.57,140.74 613.63,130.00 612.08,118.08 610.53,106.16 608.26,92.37 606.00,78.59 603.25,68.57 600.51,58.56 597.39,49.07 594.27,39.59 590.27,29.94 586.27,20.30 582.81,14.09 579.34,7.88 575.78,3.04 572.23,-1.80 568.87,-5.01 565.51,-8.22 562.40,-10.19 559.28,-12.17 556.57,-13.22 553.86,-14.27 550.91,-14.98 547.96,-15.68 544.39,-15.97 540.82,-16.26 535.30,-16.28 529.77,-16.29 521.50,-16.31 513.22,-16.33 501.20,-16.32 489.18,-16.31 477.12,-16.25 465.06,-16.19 450.89,-16.06 436.72,-15.92 420.95,-15.62 405.19,-15.33 386.91,-14.61 368.64,-13.88 345.94,-12.86 323.24,-11.84 304.26,-10.79 285.27,-9.74 264.96,-8.61 244.66,-7.49 222.51,-6.20 200.36,-4.92 175.37,-3.93 150.37,-2.94 132.26,-2.62 114.15,-2.30 98.71,-2.24 83.26,-2.17 69.92,-1.97 56.59,-1.77 44.84,-1.26 33.10,-0.74 22.80,0.49 12.50,1.74 7.49,2.88 2.48,4.03 -0.80,5.00 -4.10,5.98 -4.69,6.04 -5.28,6.09 -5.87,6.01 -6.46,5.92 -7.02,5.70 -7.57,5.47 -8.05,5.12 -8.54,4.77 -8.92,4.32 -9.31,3.86 -9.57,3.33 -9.84,2.79 -9.97,2.21 -10.10,1.63 -10.08,1.03 -10.07,0.44 -9.91,-0.13 -9.76,-0.71 -9.47,-1.23 -9.18,-1.75 -8.77,-2.19 -8.37,-2.62 -7.87,-2.95 -7.37,-3.28 -6.81,-3.48 -6.24,-3.68 -3.56,-3.80 -0.87,-3.92 -0.38,-3.97 0.09,-4.01 0.57,-3.95 1.05,-3.88 1.50,-3.69 1.94,-3.51 2.34,-3.23 2.73,-2.94 3.04,-2.57 3.36,-2.20 3.57,-1.77 3.79,-1.33 3.89,-0.86 4.00,-0.39 3.99,0.09 3.97,0.57 3.85,1.04 3.72,1.51 3.49,1.93 3.25,2.35 2.92,2.71 2.59,3.07 2.19,3.33 1.78,3.60 1.32,3.76 0.87,3.92 0.87,3.92 L 0.87,3.92 Z"></path></g><g transform="translate(294 171) rotate(0 94 50)" stroke="none"><path fill="#1e1e1e" d="M 5.93,-0.91 Q 5.93,-0.91 7.00,6.57 8.07,14.06 9.25,24.85 10.42,35.65 10.91,45.51 11.40,55.37 11.63,64.75 11.87,74.12 11.71,82.53 11.54,90.93 11.20,97.71 10.86,104.48 10.72,109.81 10.58,115.14 15.31,114.28 20.03,113.42 25.75,110.54 31.47,107.66 37.99,104.40 44.52,101.14 52.07,97.94 59.63,94.75 67.21,91.94 74.78,89.12 84.68,85.90 94.58,82.67 103.35,79.88 112.13,77.08 120.46,74.45 128.79,71.82 136.29,69.30 143.79,66.77 152.10,63.72 160.40,60.67 165.57,57.83 170.74,54.99 174.16,52.54 177.58,50.10 178.68,47.83 179.77,45.56 180.30,43.33 180.84,41.10 178.84,38.65 176.85,36.20 173.66,33.53 170.46,30.86 165.79,28.73 161.13,26.60 154.27,24.25 147.41,21.90 136.52,18.91 125.62,15.93 115.99,13.19 106.36,10.45 97.54,7.52 88.72,4.58 80.52,1.27 72.32,-2.03 65.45,-4.83 58.57,-7.63 52.32,-9.92 46.07,-12.21 42.10,-13.46 38.13,-14.70 36.09,-15.34 34.04,-15.99 34.68,-19.22 35.32,-22.46 35.02,-22.57 34.73,-22.69 34.47,-22.88 34.22,-23.06 34.01,-23.30 33.81,-23.54 33.66,-23.83 33.52,-24.11 33.45,-24.42 33.38,-24.73 33.39,-25.04 33.39,-25.36 33.48,-25.67 33.56,-25.97 33.71,-26.25 33.86,-26.53 34.08,-26.76 34.29,-26.99 34.55,-27.17 34.82,-27.34 35.12,-27.45 35.42,-27.56 35.73,-27.59 36.05,-27.62 36.36,-27.58 36.67,-27.53 35.51,-27.29 34.36,-27.05 34.73,-27.26 35.10,-27.46 35.52,-27.54 35.93,-27.62 36.35,-27.56 36.77,-27.50 37.15,-27.31 37.53,-27.12 37.83,-26.82 38.13,-26.52 38.32,-26.14 38.51,-25.76 38.56,-25.34 38.62,-24.91 38.54,-24.50 38.46,-24.08 38.25,-23.71 38.04,-23.34 37.72,-23.06 37.40,-22.78 37.01,-22.61 36.62,-22.44 36.20,-22.41 35.77,-22.38 35.36,-22.48 34.95,-22.59 34.59,-22.82 34.23,-23.05 33.97,-23.38 33.70,-23.71 33.56,-24.11 33.41,-24.51 33.40,-24.93 33.39,-25.36 33.52,-25.76 33.65,-26.17 33.90,-26.51 34.14,-26.86 34.49,-27.11 34.84,-27.35 35.24,-27.48 35.65,-27.60 36.07,-27.59 36.50,-27.57 36.90,-27.42 37.30,-27.28 37.63,-27.01 37.96,-26.74 38.18,-26.38 38.41,-26.02 38.51,-25.61 38.61,-25.20 38.58,-24.78 38.54,-24.35 38.37,-23.96 38.20,-23.57 36.76,-23.01 35.32,-22.46 35.02,-22.57 34.73,-22.69 34.47,-22.88 34.22,-23.06 34.01,-23.30 33.81,-23.54 33.66,-23.83 33.52,-24.11 33.45,-24.42 33.38,-24.73 33.39,-25.04 33.39,-25.36 33.48,-25.67 33.56,-25.97 33.71,-26.25 33.86,-26.53 34.08,-26.76 34.29,-26.99 34.55,-27.17 34.82,-27.34 35.12,-27.45 35.41,-27.56 35.73,-27.59 36.04,-27.62 36.36,-27.58 36.67,-27.53 39.39,-27.51 42.10,-27.49 46.41,-26.17 50.73,-24.84 57.20,-22.44 63.67,-20.04 70.50,-17.21 77.33,-14.37 85.13,-11.20 92.93,-8.02 101.48,-5.17 110.02,-2.31 119.60,0.45 129.17,3.22 140.47,6.43 151.77,9.65 159.25,12.41 166.73,15.16 172.79,18.30 178.85,21.43 183.31,25.73 187.77,30.02 190.26,35.85 192.76,41.68 191.67,46.75 190.58,51.81 187.87,55.89 185.15,59.97 180.96,62.98 176.76,65.99 170.77,69.23 164.78,72.48 156.31,75.62 147.84,78.77 140.22,81.35 132.60,83.92 124.29,86.54 115.98,89.17 107.24,91.95 98.51,94.74 88.85,97.88 79.20,101.03 71.88,103.74 64.57,106.44 57.39,109.47 50.21,112.50 43.70,115.77 37.19,119.04 31.17,122.06 25.16,125.07 18.76,127.49 12.36,129.91 8.40,129.07 4.43,128.22 1.92,125.42 -0.58,122.62 -1.35,118.72 -2.11,114.82 -1.93,109.29 -1.75,103.77 -1.34,97.20 -0.93,90.62 -0.69,82.50 -0.44,74.38 -0.59,65.16 -0.73,55.94 -1.15,46.39 -1.56,36.85 -2.52,26.34 -3.47,15.83 -4.70,8.37 -5.93,0.91 -5.95,0.18 -5.98,-0.53 -5.83,-1.24 -5.67,-1.94 -5.36,-2.60 -5.04,-3.25 -4.58,-3.80 -4.12,-4.36 -3.54,-4.79 -2.95,-5.22 -2.28,-5.50 -1.62,-5.78 -0.90,-5.89 -0.19,-6.00 0.53,-5.93 1.25,-5.87 1.93,-5.63 2.62,-5.40 3.22,-5.01 3.83,-4.61 4.33,-4.09 4.83,-3.56 5.18,-2.93 5.54,-2.30 5.73,-1.60 5.93,-0.91 5.93,-0.91 L 5.93,-0.91 Z"></path></g></svg>