<svg version="1.1" xmlns="http://www.w3.org/2000/svg" viewBox="0 0 756 563" width="756" height="563">
  <g transform="translate(10 254) rotate(0 24 93.5)" stroke="none"><path fill="#1e1e1e" d="M 2.49,-0.12 Q 2.49,-0.12 2.85,5.61 3.21,11.36 5.40,21.94 7.59,32.51 11.66,47.34 15.74,62.17 20.34,78.57 24.95,94.97 29.78,112.58 34.61,130.20 37.51,142.34 40.41,154.47 42.40,162.48 44.39,170.49 45.67,175.03 46.95,179.57 47.74,181.41 48.53,183.25 48.85,184.84 49.18,186.44 49.24,186.64 49.30,186.84 49.29,187.06 49.28,187.27 49.20,187.47 49.12,187.66 48.99,187.83 48.85,187.99 48.67,188.10 48.49,188.21 48.28,188.26 48.07,188.31 47.86,188.28 47.65,188.26 47.46,188.17 47.27,188.09 47.11,187.94 46.95,187.80 46.85,187.61 46.75,187.42 46.72,187.21 46.68,187.00 46.71,186.79 46.75,186.58 46.85,186.40 46.94,186.21 47.10,186.06 47.25,185.91 47.44,185.82 47.64,185.73 47.85,185.71 48.06,185.68 48.27,185.73 48.47,185.77 48.66,185.88 48.84,185.99 48.98,186.15 49.12,186.31 49.20,186.51 49.28,186.70 49.29,186.92 49.30,187.13 49.25,187.33 49.19,187.54 49.07,187.72 48.95,187.89 48.79,188.02 48.62,188.15 48.42,188.22 48.22,188.29 48.00,188.29 47.79,188.29 47.59,188.23 47.39,188.16 47.22,188.03 47.05,187.90 46.93,187.73 46.81,187.55 46.81,187.55 46.81,187.55 45.79,186.29 44.77,185.02 43.73,182.98 42.70,180.95 41.04,176.38 39.38,171.81 37.17,163.80 34.96,155.79 32.03,143.75 29.10,131.72 24.26,114.11 19.43,96.51 14.82,80.09 10.22,63.67 6.16,48.64 2.09,33.60 0.01,22.62 -2.06,11.63 -2.27,5.88 -2.49,0.12 -2.46,-0.17 -2.44,-0.47 -2.35,-0.76 -2.26,-1.04 -2.10,-1.30 -1.94,-1.55 -1.73,-1.76 -1.51,-1.97 -1.25,-2.13 -0.99,-2.28 -0.71,-2.37 -0.42,-2.45 -0.12,-2.47 0.17,-2.48 0.47,-2.43 0.76,-2.37 1.03,-2.24 1.31,-2.12 1.54,-1.93 1.78,-1.74 1.96,-1.50 2.14,-1.26 2.26,-0.99 2.38,-0.71 2.43,-0.42 2.49,-0.12 2.49,-0.12 L 2.49,-0.12 Z"></path></g><g transform="translate(69 227) rotate(0 -8.5 99.5)" stroke="none"><path fill="#1e1e1e" d="M 2.40,0.90 Q 2.40,0.90 1.58,3.21 0.76,5.52 -1.54,20.33 -3.85,35.14 -6.30,55.58 -8.74,76.02 -10.36,97.89 -11.97,119.77 -12.66,137.65 -13.35,155.54 -10.72,167.77 -8.09,180.00 -6.40,189.35 -4.71,198.70 -4.70,198.91 -4.69,199.13 -4.74,199.33 -4.80,199.54 -4.92,199.71 -5.03,199.89 -5.20,200.02 -5.37,200.15 -5.57,200.22 -5.77,200.29 -5.98,200.29 -6.20,200.29 -6.40,200.23 -6.60,200.16 -6.77,200.03 -6.94,199.91 -7.06,199.73 -7.18,199.56 -7.24,199.35 -7.30,199.15 -7.29,198.94 -7.28,198.72 -7.20,198.53 -7.13,198.33 -6.99,198.16 -6.85,198.00 -6.67,197.89 -6.49,197.78 -6.28,197.73 -6.08,197.68 -5.87,197.71 -5.65,197.73 -5.46,197.81 -5.27,197.90 -5.11,198.05 -4.96,198.19 -4.86,198.38 -4.75,198.56 -4.72,198.77 -4.68,198.98 -4.71,199.19 -4.75,199.40 -4.84,199.59 -4.94,199.78 -5.10,199.93 -5.25,200.08 -5.44,200.17 -5.63,200.26 -5.84,200.28 -6.05,200.31 -6.26,200.26 -6.47,200.22 -6.65,200.11 -6.84,200.00 -6.98,199.84 -7.11,199.68 -7.19,199.48 -7.28,199.29 -7.28,199.29 -7.28,199.29 -9.83,190.14 -12.39,180.99 -15.50,168.19 -18.61,155.39 -17.93,137.38 -17.24,119.38 -15.62,97.38 -14.01,75.39 -11.55,54.85 -9.10,34.31 -6.66,18.99 -4.21,3.67 -3.31,1.38 -2.40,-0.90 -2.26,-1.17 -2.12,-1.45 -1.91,-1.68 -1.71,-1.91 -1.45,-2.09 -1.20,-2.27 -0.91,-2.38 -0.62,-2.49 -0.31,-2.53 -0.00,-2.57 0.29,-2.53 0.60,-2.49 0.89,-2.39 1.18,-2.28 1.44,-2.10 1.69,-1.93 1.90,-1.70 2.11,-1.46 2.25,-1.19 2.40,-0.92 2.47,-0.62 2.55,-0.31 2.55,-0.00 2.55,0.30 2.48,0.60 2.40,0.90 2.40,0.90 L 2.40,0.90 Z"></path></g><g transform="translate(91 172) rotate(0 -6 65.5)" stroke="none"><path fill="#1e1e1e" d="M 2.37,0.64 Q 2.37,0.64 -0.43,11.29 -3.24,21.94 -5.00,35.21 -6.76,48.48 -7.52,62.14 -8.27,75.80 -8.01,87.58 -7.76,99.37 -6.60,107.72 -5.45,116.07 -5.18,120.31 -4.92,124.55 -4.31,127.65 -3.71,130.74 -3.70,130.95 -3.69,131.17 -3.75,131.37 -3.82,131.57 -3.94,131.75 -4.06,131.92 -4.23,132.04 -4.41,132.17 -4.61,132.23 -4.81,132.30 -5.02,132.29 -5.24,132.29 -5.44,132.21 -5.64,132.14 -5.80,132.01 -5.97,131.88 -6.08,131.70 -6.20,131.52 -6.25,131.31 -6.30,131.11 -6.29,130.89 -6.27,130.68 -6.19,130.49 -6.10,130.29 -5.96,130.13 -5.82,129.97 -5.64,129.87 -5.45,129.76 -5.24,129.72 -5.04,129.68 -4.83,129.71 -4.61,129.74 -4.42,129.83 -4.23,129.93 -4.08,130.07 -3.93,130.22 -3.84,130.41 -3.74,130.60 -3.71,130.82 -3.68,131.03 -3.72,131.23 -3.76,131.44 -3.86,131.63 -3.97,131.81 -4.13,131.96 -4.28,132.10 -4.48,132.18 -4.67,132.27 -4.88,132.29 -5.10,132.30 -5.30,132.25 -5.51,132.20 -5.69,132.09 -5.87,131.98 -6.00,131.81 -6.14,131.65 -6.21,131.45 -6.28,131.25 -6.28,131.25 -6.28,131.25 -6.89,128.15 -7.50,125.06 -8.88,120.92 -10.26,116.78 -11.61,108.13 -12.97,99.48 -13.22,87.50 -13.46,75.51 -12.69,61.65 -11.91,47.79 -10.08,34.19 -8.25,20.60 -5.31,9.97 -2.37,-0.64 -2.26,-0.91 -2.15,-1.19 -1.98,-1.43 -1.80,-1.67 -1.58,-1.86 -1.35,-2.05 -1.08,-2.19 -0.82,-2.32 -0.53,-2.38 -0.24,-2.45 0.05,-2.44 0.35,-2.44 0.63,-2.36 0.92,-2.28 1.18,-2.14 1.44,-1.99 1.66,-1.79 1.88,-1.59 2.04,-1.34 2.20,-1.09 2.30,-0.81 2.40,-0.53 2.43,-0.24 2.46,0.05 2.42,0.34 2.37,0.64 2.37,0.64 L 2.37,0.64 Z"></path></g><g transform="translate(180 159) rotate(0 2 59)" stroke="none"><path fill="#1e1e1e" d="M 2.30,0.98 Q 2.30,0.98 0.61,5.01 -1.08,9.03 -2.01,17.02 -2.94,25.00 -3.36,37.05 -3.78,49.10 -2.53,61.87 -1.29,74.63 1.45,85.10 4.20,95.58 6.66,101.73 9.12,107.88 10.66,112.68 12.21,117.48 12.25,117.69 12.30,117.90 12.29,118.11 12.27,118.32 12.18,118.52 12.10,118.71 11.95,118.87 11.81,119.02 11.62,119.13 11.44,119.23 11.23,119.27 11.02,119.31 10.81,119.28 10.60,119.25 10.41,119.15 10.22,119.06 10.07,118.90 9.92,118.75 9.83,118.56 9.74,118.37 9.71,118.16 9.68,117.95 9.72,117.74 9.77,117.53 9.87,117.35 9.98,117.16 10.14,117.02 10.30,116.88 10.49,116.80 10.69,116.72 10.90,116.70 11.11,116.69 11.32,116.74 11.52,116.79 11.70,116.91 11.88,117.02 12.01,117.19 12.14,117.36 12.21,117.56 12.29,117.76 12.29,117.97 12.29,118.18 12.23,118.38 12.17,118.59 12.04,118.76 11.92,118.93 11.74,119.05 11.57,119.18 11.37,119.24 11.16,119.30 10.95,119.29 10.74,119.28 10.54,119.21 10.34,119.13 10.18,119.00 10.01,118.86 9.90,118.69 9.78,118.51 9.78,118.51 9.78,118.51 7.42,114.05 5.06,109.60 2.24,103.23 -0.57,96.86 -3.49,86.00 -6.41,75.13 -7.67,62.03 -8.93,48.93 -8.48,36.65 -8.04,24.38 -6.93,15.72 -5.81,7.06 -4.06,3.03 -2.30,-0.98 -2.15,-1.25 -2.00,-1.51 -1.79,-1.73 -1.58,-1.94 -1.32,-2.11 -1.07,-2.27 -0.78,-2.36 -0.49,-2.46 -0.19,-2.48 0.10,-2.51 0.40,-2.46 0.70,-2.41 0.98,-2.29 1.26,-2.17 1.50,-1.99 1.74,-1.80 1.93,-1.57 2.12,-1.33 2.25,-1.06 2.38,-0.79 2.44,-0.49 2.50,-0.19 2.49,0.10 2.47,0.40 2.39,0.69 2.30,0.99 2.30,0.98 L 2.30,0.98 Z"></path></g><g transform="translate(251 169) rotate(0 10 71.5)" stroke="none"><path fill="#1e1e1e" d="M 2.23,-0.17 Q 2.23,-0.17 2.95,6.99 3.67,14.17 4.51,26.15 5.35,38.13 6.85,57.00 8.35,75.87 10.42,91.01 12.48,106.15 15.16,116.53 17.84,126.90 19.55,134.77 21.26,142.65 21.28,142.86 21.31,143.07 21.26,143.28 21.21,143.48 21.10,143.67 20.99,143.85 20.83,143.98 20.67,144.12 20.47,144.20 20.28,144.28 20.06,144.29 19.85,144.30 19.65,144.24 19.44,144.19 19.27,144.07 19.09,143.95 18.96,143.78 18.83,143.61 18.77,143.41 18.70,143.21 18.70,142.99 18.70,142.78 18.77,142.58 18.84,142.38 18.96,142.21 19.09,142.04 19.27,141.92 19.45,141.80 19.65,141.75 19.86,141.69 20.07,141.70 20.28,141.71 20.48,141.79 20.67,141.87 20.84,142.01 21.00,142.15 21.11,142.33 21.22,142.51 21.26,142.72 21.31,142.93 21.28,143.14 21.26,143.35 21.17,143.54 21.08,143.73 20.93,143.89 20.79,144.04 20.60,144.14 20.41,144.24 20.20,144.27 19.99,144.31 19.78,144.27 19.57,144.24 19.39,144.14 19.20,144.04 19.05,143.88 18.91,143.73 18.82,143.54 18.73,143.34 18.73,143.34 18.73,143.34 16.16,135.71 13.59,128.07 10.48,117.46 7.37,106.86 5.29,91.57 3.21,76.28 1.71,57.38 0.22,38.48 -0.57,26.53 -1.37,14.57 -1.80,7.37 -2.23,0.17 -2.22,-0.09 -2.21,-0.36 -2.13,-0.62 -2.06,-0.88 -1.92,-1.11 -1.79,-1.34 -1.60,-1.54 -1.41,-1.73 -1.18,-1.88 -0.96,-2.02 -0.70,-2.11 -0.44,-2.19 -0.17,-2.22 0.09,-2.24 0.35,-2.19 0.62,-2.15 0.87,-2.04 1.12,-1.94 1.33,-1.77 1.55,-1.61 1.72,-1.40 1.89,-1.19 2.01,-0.95 2.12,-0.70 2.18,-0.44 2.23,-0.17 2.23,-0.17 L 2.23,-0.17 Z"></path></g><g transform="translate(351 184) rotate(0 8.5 65.5)" stroke="none"><path fill="#1e1e1e" d="M 2.33,-0.64 Q 2.33,-0.64 3.86,4.50 5.39,9.65 6.94,20.64 8.49,31.63 9.70,45.50 10.91,59.36 11.96,73.00 13.01,86.64 14.20,97.57 15.39,108.50 16.33,114.85 17.28,121.21 17.78,125.99 18.29,130.76 18.29,130.98 18.29,131.19 18.23,131.39 18.16,131.59 18.04,131.77 17.91,131.94 17.74,132.06 17.56,132.18 17.36,132.24 17.15,132.30 16.94,132.29 16.73,132.28 16.53,132.21 16.33,132.13 16.17,131.99 16.01,131.86 15.89,131.68 15.78,131.50 15.73,131.29 15.68,131.08 15.70,130.87 15.72,130.66 15.81,130.47 15.90,130.27 16.04,130.12 16.19,129.96 16.37,129.86 16.56,129.76 16.77,129.72 16.98,129.68 17.19,129.71 17.40,129.74 17.59,129.84 17.78,129.94 17.92,130.09 18.07,130.24 18.16,130.43 18.26,130.63 18.28,130.84 18.31,131.05 18.26,131.26 18.22,131.46 18.11,131.65 18.01,131.83 17.85,131.97 17.69,132.11 17.49,132.19 17.29,132.27 17.08,132.29 16.87,132.30 16.67,132.25 16.46,132.19 16.28,132.08 16.10,131.96 15.97,131.79 15.84,131.63 15.77,131.43 15.70,131.22 15.70,131.23 15.70,131.23 14.53,126.56 13.35,121.90 12.02,115.49 10.69,109.07 9.23,98.06 7.77,87.06 6.65,73.44 5.53,59.83 4.34,46.09 3.14,32.36 1.75,21.70 0.35,11.04 -0.99,5.84 -2.33,0.64 -2.38,0.36 -2.42,0.07 -2.39,-0.22 -2.37,-0.51 -2.27,-0.78 -2.18,-1.06 -2.02,-1.30 -1.86,-1.55 -1.64,-1.75 -1.43,-1.95 -1.18,-2.09 -0.92,-2.24 -0.64,-2.32 -0.36,-2.39 -0.07,-2.40 0.22,-2.41 0.50,-2.35 0.79,-2.29 1.05,-2.16 1.31,-2.03 1.54,-1.84 1.76,-1.66 1.94,-1.42 2.11,-1.19 2.22,-0.91 2.33,-0.64 2.33,-0.64 L 2.33,-0.64 Z"></path></g><g transform="translate(460 190) rotate(0 5 51.5)" stroke="none"><path fill="#1e1e1e" d="M 2.08,-0.24 Q 2.08,-0.24 3.19,7.20 4.29,14.65 5.80,25.56 7.31,36.47 8.81,48.03 10.31,59.59 10.89,70.05 11.47,80.51 11.35,87.01 11.23,93.51 10.77,98.25 10.31,103.00 10.27,103.21 10.24,103.42 10.14,103.60 10.04,103.79 9.88,103.94 9.73,104.08 9.54,104.17 9.34,104.26 9.13,104.28 8.92,104.31 8.71,104.26 8.51,104.21 8.32,104.10 8.14,103.99 8.01,103.83 7.87,103.67 7.79,103.47 7.71,103.27 7.70,103.06 7.69,102.85 7.75,102.65 7.80,102.44 7.92,102.27 8.04,102.09 8.21,101.96 8.38,101.83 8.58,101.77 8.79,101.70 9.00,101.70 9.21,101.70 9.41,101.77 9.61,101.84 9.78,101.97 9.95,102.09 10.07,102.27 10.19,102.45 10.24,102.65 10.30,102.86 10.29,103.07 10.28,103.28 10.20,103.48 10.12,103.68 9.98,103.84 9.84,104.00 9.66,104.11 9.48,104.22 9.27,104.26 9.06,104.31 8.85,104.28 8.64,104.26 8.45,104.17 8.26,104.08 8.10,103.93 7.95,103.79 7.85,103.60 7.75,103.41 7.72,103.20 7.68,102.99 7.68,102.99 7.68,102.99 7.24,98.25 6.81,93.50 6.72,87.16 6.63,80.81 5.93,70.53 5.22,60.25 3.71,48.72 2.19,37.18 0.67,26.21 -0.84,15.24 -1.46,7.74 -2.08,0.24 -2.08,-0.01 -2.08,-0.26 -2.02,-0.51 -1.95,-0.75 -1.83,-0.97 -1.72,-1.20 -1.55,-1.39 -1.38,-1.57 -1.17,-1.72 -0.96,-1.86 -0.72,-1.95 -0.49,-2.04 -0.23,-2.07 0.01,-2.09 0.26,-2.06 0.51,-2.03 0.75,-1.94 0.98,-1.85 1.19,-1.70 1.40,-1.56 1.56,-1.37 1.73,-1.18 1.85,-0.95 1.96,-0.73 2.02,-0.48 2.08,-0.24 2.08,-0.24 L 2.08,-0.24 Z"></path></g><g transform="translate(531 229) rotate(0 -15 136.5)" stroke="none"><path fill="#1e1e1e" d="M 2.52,0 Q 2.52,0 2.53,4.31 2.53,8.62 2.53,21.38 2.54,34.14 1.96,55.40 1.39,76.67 -0.29,102.42 -1.97,128.17 -5.26,157.27 -8.55,186.37 -11.67,206.24 -14.80,226.11 -17.29,238.89 -19.78,251.67 -22.17,258.08 -24.56,264.48 -26.66,268.96 -28.76,273.43 -28.86,273.62 -28.96,273.80 -29.12,273.95 -29.27,274.09 -29.47,274.18 -29.66,274.26 -29.87,274.29 -30.08,274.31 -30.29,274.26 -30.50,274.21 -30.68,274.10 -30.86,273.98 -30.99,273.82 -31.13,273.66 -31.21,273.46 -31.28,273.26 -31.29,273.05 -31.30,272.84 -31.24,272.63 -31.18,272.43 -31.06,272.25 -30.94,272.08 -30.77,271.95 -30.60,271.83 -30.39,271.76 -30.19,271.70 -29.98,271.70 -29.77,271.70 -29.57,271.77 -29.36,271.84 -29.20,271.97 -29.03,272.10 -28.91,272.28 -28.80,272.46 -28.74,272.66 -28.69,272.87 -28.70,273.08 -28.72,273.29 -28.80,273.49 -28.88,273.69 -29.02,273.85 -29.16,274.01 -29.34,274.11 -29.52,274.22 -29.73,274.26 -29.94,274.31 -30.15,274.28 -30.36,274.26 -30.55,274.16 -30.75,274.07 -30.90,273.92 -31.05,273.78 -31.15,273.59 -31.24,273.40 -31.28,273.19 -31.31,272.98 -31.27,272.77 -31.23,272.56 -31.23,272.56 -31.23,272.56 -30.07,267.76 -28.91,262.96 -26.90,256.81 -24.88,250.67 -22.41,237.98 -19.94,225.30 -16.81,205.54 -13.68,185.78 -10.37,156.81 -7.05,127.84 -5.37,102.19 -3.69,76.54 -3.11,55.34 -2.54,34.14 -2.53,21.38 -2.53,8.62 -2.53,4.31 -2.52,0 -2.49,-0.30 -2.45,-0.60 -2.34,-0.89 -2.23,-1.17 -2.06,-1.42 -1.89,-1.67 -1.66,-1.87 -1.43,-2.08 -1.16,-2.22 -0.89,-2.36 -0.60,-2.43 -0.30,-2.51 0.00,-2.51 0.30,-2.51 0.60,-2.43 0.89,-2.36 1.16,-2.22 1.43,-2.08 1.66,-1.87 1.89,-1.67 2.06,-1.42 2.23,-1.17 2.34,-0.88 2.45,-0.60 2.49,-0.30 2.52,0.00 2.52,0.00 L 2.52,0 Z"></path></g><g transform="translate(484 361) rotate(0 15 69.5)" stroke="none"><path fill="#1e1e1e" d="M 2.62,0 Q 2.62,0 2.65,4.02 2.69,8.04 4.41,23.99 6.13,39.93 7.74,55.39 9.34,70.86 11.75,86.27 14.17,101.68 16.04,111.38 17.92,121.07 19.24,125.92 20.57,130.77 21.10,131.53 21.64,132.29 21.68,132.60 21.73,132.91 21.70,133.22 21.67,133.53 21.57,133.83 21.46,134.12 21.29,134.39 21.12,134.65 20.89,134.86 20.66,135.08 20.39,135.23 20.12,135.38 19.81,135.47 19.51,135.55 19.20,135.56 18.89,135.57 18.58,135.50 18.27,135.43 17.99,135.29 17.71,135.16 17.47,134.95 17.23,134.75 17.05,134.50 16.86,134.25 16.74,133.96 16.62,133.67 16.84,128.66 17.06,123.65 17.77,109.06 18.48,94.46 20.25,78.98 22.02,63.50 23.73,51.76 25.43,40.02 27.06,31.42 28.69,22.82 28.76,22.61 28.82,22.41 28.94,22.24 29.07,22.07 29.24,21.94 29.41,21.82 29.61,21.76 29.82,21.69 30.03,21.70 30.24,21.71 30.44,21.78 30.64,21.85 30.81,21.98 30.97,22.12 31.09,22.30 31.20,22.48 31.25,22.68 31.30,22.89 31.29,23.10 31.27,23.31 31.19,23.51 31.10,23.70 30.96,23.86 30.82,24.02 30.63,24.12 30.45,24.23 30.24,24.27 30.03,24.31 29.82,24.28 29.61,24.25 29.42,24.16 29.23,24.06 29.08,23.91 28.93,23.76 28.83,23.57 28.74,23.38 28.71,23.17 28.68,22.96 28.72,22.75 28.76,22.54 28.87,22.36 28.97,22.17 29.13,22.03 29.29,21.89 29.48,21.80 29.68,21.72 29.89,21.70 30.10,21.69 30.31,21.74 30.51,21.79 30.69,21.90 30.87,22.02 31.01,22.18 31.14,22.35 31.21,22.55 31.28,22.75 31.29,22.96 31.30,23.17 31.30,23.17 31.30,23.17 30.57,31.90 29.84,40.62 28.35,52.33 26.86,64.04 25.18,79.37 23.50,94.70 22.85,109.31 22.19,123.93 21.92,128.11 21.64,132.29 21.68,132.60 21.73,132.91 21.70,133.22 21.67,133.53 21.57,133.83 21.46,134.12 21.29,134.39 21.12,134.65 20.89,134.86 20.66,135.08 20.39,135.23 20.12,135.38 19.82,135.47 19.51,135.55 19.20,135.56 18.89,135.57 18.58,135.50 18.27,135.43 17.99,135.29 17.71,135.16 17.47,134.95 17.23,134.75 17.05,134.50 16.86,134.25 16.74,133.96 16.62,133.67 15.99,133.05 15.36,132.43 13.93,127.27 12.51,122.12 10.61,112.32 8.72,102.53 6.32,86.97 3.93,71.42 2.35,55.96 0.76,40.50 -0.96,24.28 -2.69,8.05 -2.65,4.02 -2.62,0 -2.58,-0.31 -2.54,-0.62 -2.43,-0.92 -2.32,-1.21 -2.14,-1.48 -1.96,-1.74 -1.72,-1.95 -1.49,-2.16 -1.21,-2.30 -0.93,-2.45 -0.62,-2.53 -0.31,-2.60 0.00,-2.60 0.31,-2.60 0.62,-2.53 0.93,-2.45 1.21,-2.30 1.49,-2.16 1.72,-1.95 1.96,-1.74 2.14,-1.48 2.32,-1.21 2.43,-0.92 2.54,-0.62 2.58,-0.31 2.62,0.00 2.62,0.00 L 2.62,0 Z"></path></g><g transform="translate(116 341) rotate(0 5.5 14)" stroke="none"><path fill="#1e1e1e" d="M 2.51,1.07 Q 2.51,1.07 1.81,3.11 1.11,5.14 1.16,8.91 1.22,12.68 2.03,17.99 2.85,23.30 4.03,27.80 5.21,32.29 6.75,35.09 8.28,37.89 9.28,39.23 10.28,40.56 10.41,40.91 10.55,41.26 10.59,41.64 10.64,42.01 10.60,42.38 10.56,42.76 10.42,43.11 10.29,43.46 10.08,43.77 9.87,44.08 9.59,44.33 9.31,44.58 8.98,44.76 8.64,44.94 8.28,45.03 7.92,45.12 7.54,45.12 7.16,45.12 6.80,45.04 6.43,44.95 6.10,44.78 5.77,44.60 5.48,44.36 5.20,44.11 4.98,43.80 4.77,43.49 5.44,40.66 6.11,37.83 6.26,34.31 6.42,30.79 5.69,26.24 4.97,21.69 3.54,15.72 2.10,9.75 1.19,6.29 0.28,2.84 0.24,2.46 0.20,2.08 0.24,1.71 0.29,1.33 0.43,0.98 0.57,0.63 0.78,0.32 1.00,0.00 1.29,-0.23 1.57,-0.48 1.91,-0.66 2.24,-0.83 2.61,-0.92 2.98,-1.01 3.36,-1.01 3.74,-1.00 4.11,-0.91 4.47,-0.82 4.81,-0.64 5.14,-0.46 5.42,-0.21 5.70,0.04 5.92,0.35 6.13,0.66 6.26,1.02 6.40,1.37 5.81,3.09 5.23,4.81 5.03,9.54 4.83,14.26 5.21,18.89 5.60,23.51 6.54,26.65 7.47,29.79 8.64,30.95 9.82,32.11 9.09,32.92 8.37,33.72 9.61,30.61 10.85,27.49 11.36,23.41 11.88,19.33 10.74,14.48 9.59,9.63 8.01,5.26 6.44,0.89 5.47,-1.15 4.51,-3.21 3.27,-2.78 2.02,-2.35 1.13,0.47 0.24,3.29 -0.29,7.73 -0.82,12.17 -0.28,16.03 0.25,19.89 2.36,22.41 4.47,24.93 5.98,25.44 7.49,25.94 8.62,24.58 9.75,23.22 10.46,20.06 11.18,16.91 10.19,10.72 9.19,4.53 7.44,-0.32 5.70,-5.18 3.84,-7.44 1.99,-9.70 1.44,-8.10 0.89,-6.51 0.77,-0.83 0.64,4.84 1.36,9.77 2.08,14.71 3.66,17.58 5.23,20.45 6.40,21.61 7.56,22.78 7.57,20.11 7.57,17.44 7.34,14.11 7.11,10.78 6.56,8.62 6.01,6.45 2.75,3.83 -0.49,1.21 -0.67,1.10 -0.85,0.99 -0.99,0.83 -1.13,0.66 -1.20,0.47 -1.28,0.27 -1.29,0.06 -1.30,-0.15 -1.24,-0.35 -1.18,-0.55 -1.06,-0.73 -0.94,-0.90 -0.77,-1.03 -0.60,-1.16 -0.40,-1.23 -0.20,-1.29 0.00,-1.29 0.22,-1.29 0.42,-1.22 0.62,-1.15 0.79,-1.02 0.95,-0.89 1.07,-0.71 1.19,-0.54 1.25,-0.33 1.30,-0.13 1.29,0.07 1.28,0.29 1.20,0.48 1.12,0.68 0.98,0.84 0.84,1.00 0.66,1.11 0.47,1.22 0.26,1.26 0.06,1.31 -0.14,1.28 -0.36,1.26 -0.55,1.17 -0.74,1.08 -0.89,0.93 -1.05,0.78 -1.14,0.59 -1.24,0.41 -1.28,0.20 -1.31,-0.00 -1.27,-0.21 -1.24,-0.42 -1.14,-0.61 -1.03,-0.80 -0.88,-0.94 -0.72,-1.09 -0.53,-1.18 -0.34,-1.26 -0.13,-1.28 0.08,-1.31 0.28,-1.26 0.49,-1.21 0.49,-1.21 0.49,-1.21 4.64,-0.25 8.78,0.69 10.36,2.77 11.94,4.85 12.71,7.63 13.48,10.41 13.66,14.66 13.83,18.91 12.49,22.84 11.15,26.77 7.99,27.44 4.83,28.10 2.20,25.82 -0.41,23.53 -2.34,19.63 -4.28,15.73 -5.04,10.15 -5.81,4.57 -5.36,-2.32 -4.92,-9.22 -3.27,-12.02 -1.63,-14.81 2.46,-14.44 6.56,-14.06 9.15,-10.75 11.73,-7.44 13.66,-1.91 15.59,3.62 16.48,11.07 17.38,18.52 15.77,23.10 14.17,27.68 11.18,29.65 8.20,31.61 4.10,30.46 -0.00,29.30 -2.98,25.23 -5.96,21.15 -6.58,16.26 -7.20,11.36 -6.39,6.02 -5.59,0.68 -3.34,-3.26 -1.09,-7.21 2.35,-7.84 5.80,-8.47 9.11,-4.90 12.41,-1.33 14.13,3.46 15.84,8.27 17.02,14.18 18.21,20.09 17.43,25.10 16.66,30.11 14.87,33.50 13.08,36.88 9.28,36.75 5.49,36.61 3.49,34.21 1.49,31.81 0.37,27.92 -0.73,24.04 -1.11,18.89 -1.49,13.75 -0.60,8.29 0.28,2.84 0.24,2.46 0.20,2.08 0.24,1.71 0.29,1.33 0.43,0.98 0.57,0.63 0.78,0.32 1.00,0.01 1.28,-0.23 1.57,-0.48 1.91,-0.66 2.24,-0.83 2.61,-0.92 2.98,-1.01 3.36,-1.01 3.74,-1.00 4.10,-0.91 4.47,-0.82 4.81,-0.64 5.14,-0.46 5.42,-0.21 5.70,0.04 5.92,0.35 6.13,0.66 6.26,1.02 6.39,1.37 7.30,4.83 8.21,8.29 9.70,14.52 11.19,20.76 11.93,25.99 12.68,31.22 11.48,35.89 10.28,40.56 10.41,40.91 10.55,41.26 10.59,41.64 10.64,42.01 10.60,42.38 10.56,42.76 10.42,43.11 10.29,43.46 10.08,43.77 9.87,44.08 9.59,44.33 9.31,44.58 8.98,44.76 8.65,44.94 8.28,45.03 7.92,45.12 7.54,45.12 7.16,45.12 6.80,45.04 6.43,44.95 6.10,44.78 5.77,44.60 5.48,44.36 5.20,44.11 4.98,43.80 4.77,43.49 3.78,42.16 2.78,40.83 0.98,37.37 -0.80,33.90 -2.05,29.06 -3.30,24.23 -4.14,18.40 -4.98,12.58 -4.77,7.74 -4.56,2.90 -3.53,0.91 -2.51,-1.07 -2.34,-1.36 -2.18,-1.64 -1.95,-1.88 -1.72,-2.11 -1.44,-2.29 -1.16,-2.47 -0.85,-2.57 -0.54,-2.67 -0.21,-2.70 0.11,-2.72 0.44,-2.67 0.76,-2.62 1.06,-2.49 1.37,-2.36 1.63,-2.16 1.89,-1.96 2.10,-1.71 2.31,-1.45 2.45,-1.15 2.59,-0.85 2.65,-0.53 2.72,-0.21 2.70,0.11 2.69,0.44 2.60,0.76 2.51,1.07 2.51,1.07 L 2.51,1.07 Z"></path></g><g transform="translate(299 340) rotate(0 1.5 18)" stroke="none"><path fill="#1e1e1e" d="M 2.31,1.32 Q 2.31,1.32 1.32,3.37 0.33,5.41 0.04,9.19 -0.23,12.97 0.16,18.26 0.55,23.56 1.54,27.98 2.53,32.40 4.25,35.41 5.96,38.42 7.34,39.88 8.72,41.34 8.86,41.69 9.00,42.05 9.05,42.42 9.10,42.79 9.06,43.17 9.02,43.54 8.89,43.90 8.77,44.25 8.56,44.57 8.35,44.88 8.07,45.14 7.79,45.39 7.46,45.57 7.13,45.75 6.76,45.85 6.40,45.95 6.02,45.95 5.65,45.96 5.28,45.87 4.91,45.79 4.57,45.62 4.24,45.45 3.95,45.21 3.66,44.96 3.44,44.65 3.22,44.35 4.49,41.32 5.76,38.30 5.95,35.22 6.14,32.15 5.77,27.42 5.39,22.69 4.12,17.04 2.85,11.39 1.64,8.74 0.42,6.08 -0.85,5.24 -2.13,4.40 -2.24,4.04 -2.36,3.67 -2.39,3.29 -2.41,2.91 -2.35,2.54 -2.28,2.16 -2.13,1.81 -1.97,1.47 -1.74,1.16 -1.51,0.86 -1.21,0.62 -0.91,0.39 -0.57,0.23 -0.22,0.07 0.14,0.00 0.52,-0.07 0.90,-0.05 1.28,-0.03 1.64,0.07 2.01,0.18 2.33,0.38 2.66,0.57 2.93,0.84 3.21,1.11 3.41,1.43 3.61,1.75 2.55,5.57 1.50,9.39 0.87,15.25 0.24,21.11 -0.06,26.25 -0.36,31.40 0.27,34.56 0.91,37.72 2.02,34.29 3.12,30.87 3.30,25.57 3.47,20.26 2.17,14.81 0.86,9.37 -0.76,4.51 -2.40,-0.33 -4.33,-2.27 -6.25,-4.20 -6.33,-4.58 -6.41,-4.96 -6.39,-5.34 -6.38,-5.73 -6.27,-6.10 -6.17,-6.47 -5.98,-6.81 -5.79,-7.15 -5.52,-7.42 -5.25,-7.70 -4.93,-7.91 -4.60,-8.12 -4.24,-8.24 -3.87,-8.37 -3.48,-8.40 -3.10,-8.43 -2.72,-8.37 -2.34,-8.31 -1.98,-8.16 -1.62,-8.01 -1.31,-7.78 -1.00,-7.55 -0.76,-7.25 -0.51,-6.96 -0.35,-6.61 -0.18,-6.26 -1.35,-2.96 -2.53,0.32 -2.83,4.11 -3.13,7.90 -2.48,11.92 -1.83,15.93 -0.28,19.12 1.25,22.31 2.62,24.68 3.99,27.06 5.01,29.12 6.03,31.18 6.13,31.37 6.23,31.56 6.27,31.77 6.31,31.97 6.28,32.18 6.25,32.39 6.15,32.58 6.05,32.77 5.90,32.92 5.75,33.07 5.56,33.16 5.37,33.25 5.16,33.28 4.94,33.31 4.74,33.26 4.53,33.22 4.34,33.12 4.16,33.01 4.02,32.85 3.88,32.69 3.80,32.49 3.72,32.30 3.70,32.09 3.69,31.87 3.74,31.67 3.79,31.46 3.91,31.28 4.03,31.11 4.19,30.98 4.36,30.84 4.56,30.77 4.76,30.70 4.97,30.70 5.19,30.70 5.39,30.76 5.59,30.83 5.76,30.95 5.93,31.08 6.06,31.25 6.18,31.43 6.24,31.63 6.30,31.83 6.29,32.05 6.28,32.26 6.21,32.46 6.13,32.65 6.00,32.82 5.86,32.98 5.68,33.10 5.50,33.21 5.29,33.26 5.09,33.31 4.87,33.29 4.66,33.27 4.47,33.18 4.27,33.09 4.12,32.95 3.96,32.81 3.96,32.81 3.96,32.81 2.20,31.33 0.43,29.85 -1.95,27.43 -4.34,25.02 -6.24,20.99 -8.13,16.96 -8.81,12.12 -9.49,7.28 -8.87,2.40 -8.25,-2.47 -7.25,-3.34 -6.25,-4.20 -6.33,-4.58 -6.41,-4.96 -6.39,-5.34 -6.38,-5.73 -6.27,-6.10 -6.17,-6.47 -5.98,-6.81 -5.79,-7.14 -5.52,-7.42 -5.25,-7.70 -4.93,-7.91 -4.60,-8.12 -4.24,-8.24 -3.87,-8.37 -3.48,-8.40 -3.10,-8.43 -2.72,-8.37 -2.34,-8.31 -1.98,-8.16 -1.62,-8.01 -1.31,-7.78 -1.00,-7.55 -0.76,-7.25 -0.51,-6.96 -0.35,-6.61 -0.18,-6.26 1.65,-4.45 3.49,-2.65 5.29,2.64 7.10,7.93 8.48,14.20 9.86,20.46 9.58,26.47 9.30,32.48 7.52,37.61 5.74,42.74 3.09,43.54 0.44,44.35 -2.31,41.89 -5.07,39.42 -5.88,35.25 -6.69,31.07 -6.37,25.72 -6.04,20.36 -5.18,13.69 -4.32,7.02 -3.22,5.71 -2.13,4.40 -2.24,4.04 -2.36,3.67 -2.39,3.29 -2.41,2.91 -2.35,2.54 -2.28,2.16 -2.13,1.81 -1.97,1.47 -1.74,1.16 -1.51,0.86 -1.21,0.62 -0.91,0.39 -0.57,0.23 -0.22,0.07 0.14,0.00 0.52,-0.07 0.90,-0.05 1.28,-0.03 1.64,0.07 2.01,0.18 2.33,0.38 2.66,0.57 2.93,0.84 3.21,1.10 3.41,1.43 3.61,1.75 4.68,2.37 5.76,3.00 7.38,6.49 9.00,9.99 10.34,16.11 11.68,22.22 12.04,27.58 12.40,32.94 11.60,37.38 10.81,41.82 9.76,41.58 8.72,41.34 8.86,41.69 9.00,42.04 9.05,42.42 9.10,42.79 9.06,43.17 9.02,43.54 8.89,43.90 8.77,44.25 8.56,44.57 8.35,44.88 8.07,45.14 7.79,45.39 7.46,45.57 7.13,45.75 6.76,45.85 6.40,45.95 6.02,45.95 5.65,45.96 5.28,45.87 4.91,45.79 4.57,45.62 4.24,45.45 3.95,45.21 3.66,44.96 3.44,44.65 3.22,44.35 1.86,42.90 0.50,41.46 -1.52,37.63 -3.54,33.80 -4.59,28.89 -5.64,23.97 -5.98,18.13 -6.32,12.29 -5.62,7.46 -4.93,2.63 -3.62,0.65 -2.31,-1.32 -2.12,-1.58 -1.93,-1.84 -1.68,-2.04 -1.43,-2.25 -1.14,-2.39 -0.85,-2.52 -0.54,-2.59 -0.22,-2.66 0.09,-2.64 0.41,-2.63 0.72,-2.54 1.03,-2.46 1.31,-2.30 1.59,-2.14 1.82,-1.92 2.06,-1.69 2.23,-1.42 2.40,-1.15 2.51,-0.85 2.61,-0.54 2.64,-0.22 2.66,0.09 2.61,0.41 2.56,0.73 2.44,1.02 2.31,1.32 2.31,1.32 L 2.31,1.32 Z"></path></g><g transform="translate(192 451) rotate(0 19 14)" stroke="none"><path fill="#1e1e1e" d="M 1.97,-1.79 Q 1.97,-1.79 5.00,1.22 8.02,4.25 10.99,7.62 13.97,10.99 16.63,13.81 19.29,16.63 21.13,19.14 22.98,21.66 23.77,22.62 24.55,23.58 23.82,22.52 23.08,21.46 24.24,18.66 25.39,15.85 26.56,13.39 27.72,10.92 30.19,9.26 32.67,7.59 35.04,7.21 37.41,6.82 37.61,6.76 37.82,6.69 38.03,6.70 38.24,6.71 38.44,6.78 38.64,6.85 38.81,6.98 38.97,7.12 39.09,7.30 39.20,7.48 39.25,7.68 39.30,7.89 39.29,8.10 39.27,8.31 39.19,8.51 39.10,8.70 38.96,8.86 38.82,9.02 38.63,9.12 38.45,9.23 38.24,9.27 38.03,9.31 37.82,9.28 37.61,9.25 37.42,9.16 37.23,9.06 37.08,8.91 36.93,8.76 36.83,8.57 36.74,8.38 36.71,8.17 36.68,7.96 36.72,7.75 36.76,7.54 36.87,7.36 36.97,7.17 37.13,7.03 37.29,6.89 37.48,6.80 37.68,6.72 37.89,6.70 38.10,6.69 38.31,6.74 38.51,6.79 38.69,6.90 38.87,7.02 39.00,7.18 39.14,7.35 39.21,7.55 39.28,7.75 39.29,7.96 39.30,8.17 39.23,8.38 39.17,8.58 39.05,8.75 38.92,8.92 38.75,9.05 38.58,9.17 38.58,9.17 38.58,9.17 37.16,10.67 35.74,12.16 34.44,13.04 33.14,13.93 32.19,16.10 31.24,18.27 30.12,20.97 29.00,23.66 27.81,25.78 26.62,27.90 24.10,28.24 21.58,28.59 19.75,26.96 17.93,25.34 16.34,23.11 14.75,20.89 12.03,17.99 9.31,15.08 6.39,11.73 3.47,8.39 0.74,5.09 -1.97,1.79 -2.16,1.53 -2.35,1.27 -2.46,0.97 -2.58,0.67 -2.63,0.35 -2.67,0.03 -2.63,-0.28 -2.60,-0.60 -2.49,-0.90 -2.38,-1.21 -2.20,-1.47 -2.02,-1.74 -1.78,-1.96 -1.54,-2.18 -1.26,-2.33 -0.98,-2.48 -0.66,-2.56 -0.35,-2.65 -0.03,-2.65 0.28,-2.65 0.60,-2.58 0.91,-2.51 1.20,-2.36 1.49,-2.21 1.73,-2.00 1.97,-1.79 1.97,-1.79 L 1.97,-1.79 Z"></path></g><g transform="translate(72 415) rotate(0 24 48)" stroke="none"><path fill="#1e1e1e" d="M 2.53,-0.28 Q 2.53,-0.28 2.84,2.30 3.15,4.88 4.98,12.43 6.81,19.98 9.63,29.22 12.45,38.45 15.93,48.38 19.41,58.32 23.41,66.44 27.42,74.56 31.30,79.86 35.17,85.17 38.92,87.80 42.66,90.44 45.67,92.66 48.68,94.88 48.84,95.01 49.00,95.15 49.11,95.34 49.22,95.52 49.26,95.73 49.31,95.94 49.28,96.15 49.26,96.36 49.17,96.55 49.08,96.74 48.93,96.89 48.78,97.05 48.59,97.15 48.40,97.24 48.19,97.28 47.98,97.31 47.77,97.27 47.57,97.24 47.38,97.13 47.19,97.03 47.05,96.88 46.90,96.72 46.81,96.53 46.73,96.34 46.71,96.12 46.68,95.91 46.73,95.71 46.78,95.50 46.89,95.32 47.00,95.14 47.16,95.00 47.33,94.86 47.53,94.79 47.72,94.71 47.94,94.70 48.15,94.69 48.35,94.75 48.56,94.81 48.73,94.93 48.91,95.05 49.03,95.22 49.16,95.39 49.23,95.59 49.29,95.79 49.29,96.01 49.29,96.22 49.22,96.42 49.15,96.62 49.02,96.79 48.89,96.96 48.71,97.07 48.54,97.19 48.33,97.25 48.13,97.30 47.91,97.29 47.70,97.28 47.50,97.19 47.31,97.11 47.31,97.11 47.31,97.11 43.96,95.44 40.62,93.76 35.76,91.12 30.90,88.48 26.72,82.72 22.54,76.97 18.40,68.55 14.27,60.12 10.77,50.06 7.27,40.00 4.49,30.60 1.72,21.20 -0.14,13.33 -2.00,5.46 -2.27,2.87 -2.53,0.28 -2.52,-0.02 -2.52,-0.33 -2.44,-0.63 -2.37,-0.92 -2.22,-1.19 -2.08,-1.46 -1.87,-1.69 -1.66,-1.92 -1.41,-2.09 -1.16,-2.26 -0.87,-2.37 -0.58,-2.47 -0.27,-2.51 0.02,-2.54 0.33,-2.50 0.63,-2.46 0.92,-2.35 1.20,-2.24 1.45,-2.06 1.70,-1.88 1.90,-1.65 2.11,-1.42 2.25,-1.15 2.39,-0.87 2.46,-0.57 2.53,-0.28 2.53,-0.28 L 2.53,-0.28 Z"></path></g><g transform="translate(110 509) rotate(0 161.5 21)" stroke="none"><path fill="#1e1e1e" d="M 1.32,-1.17 Q 1.32,-1.17 3.85,1.20 6.37,3.58 10.12,6.52 13.87,9.45 17.44,11.84 21.01,14.23 34.67,19.11 48.34,23.99 63.31,27.53 78.27,31.06 103.49,33.37 128.71,35.67 153.47,35.82 178.23,35.96 202.76,33.73 227.28,31.50 249.81,28.87 272.33,26.25 286.82,24.70 301.32,23.14 312.08,22.42 322.84,21.69 323.05,21.70 323.27,21.71 323.46,21.79 323.66,21.86 323.82,22.00 323.99,22.14 324.10,22.32 324.21,22.50 324.26,22.70 324.31,22.91 324.28,23.12 324.26,23.33 324.18,23.53 324.09,23.72 323.94,23.88 323.80,24.03 323.61,24.13 323.43,24.24 323.22,24.27 323.01,24.31 322.80,24.28 322.59,24.24 322.40,24.15 322.21,24.05 322.06,23.89 321.91,23.74 321.82,23.55 321.73,23.36 321.71,23.15 321.68,22.94 321.73,22.73 321.77,22.52 321.88,22.34 321.99,22.15 322.15,22.01 322.31,21.88 322.50,21.80 322.70,21.72 322.91,21.70 323.13,21.69 323.33,21.74 323.54,21.80 323.71,21.92 323.89,22.03 324.02,22.20 324.15,22.37 324.22,22.57 324.29,22.77 324.29,22.98 324.29,23.20 324.23,23.40 324.16,23.60 324.03,23.77 323.91,23.94 323.73,24.06 323.56,24.18 323.35,24.24 323.15,24.30 323.15,24.30 323.15,24.30 312.51,26.10 301.88,27.91 287.43,29.78 272.97,31.65 250.38,34.37 227.79,37.10 202.99,39.34 178.20,41.58 153.19,41.41 128.19,41.25 102.61,38.77 77.03,36.30 61.78,32.65 46.52,28.99 32.35,23.72 18.19,18.45 14.46,15.89 10.73,13.34 6.78,10.05 2.82,6.76 0.74,3.96 -1.32,1.17 -1.44,1.00 -1.56,0.82 -1.64,0.62 -1.71,0.42 -1.74,0.21 -1.77,0.00 -1.74,-0.20 -1.72,-0.42 -1.64,-0.62 -1.57,-0.82 -1.44,-0.99 -1.32,-1.17 -1.16,-1.31 -1.00,-1.45 -0.82,-1.55 -0.63,-1.65 -0.42,-1.70 -0.21,-1.75 -0.00,-1.75 0.21,-1.75 0.41,-1.70 0.62,-1.65 0.81,-1.55 1.00,-1.46 1.16,-1.31 1.32,-1.17 1.32,-1.17 L 1.32,-1.17 Z"></path></g><g transform="translate(21 123) rotate(0 33.5 -40.5)" stroke="none"><path fill="#1e1e1e" d="M -2.52,0.12 Q -2.52,0.12 -2.82,-5.95 -3.11,-12.02 -0.28,-20.22 2.54,-28.41 7.86,-37.38 13.17,-46.35 22.47,-55.77 31.76,-65.19 39.57,-70.40 47.38,-75.61 52.89,-77.74 58.40,-79.88 61.34,-80.64 64.28,-81.39 66.43,-81.82 68.59,-82.24 68.80,-82.28 69.01,-82.31 69.22,-82.27 69.43,-82.24 69.61,-82.13 69.80,-82.03 69.95,-81.88 70.09,-81.72 70.18,-81.53 70.26,-81.33 70.28,-81.12 70.31,-80.91 70.26,-80.70 70.21,-80.50 70.10,-80.32 69.99,-80.13 69.82,-80.00 69.66,-79.86 69.46,-79.79 69.26,-79.71 69.05,-79.70 68.84,-79.69 68.64,-79.75 68.43,-79.81 68.26,-79.93 68.08,-80.05 67.96,-80.22 67.83,-80.39 67.76,-80.59 67.70,-80.80 67.70,-81.01 67.70,-81.22 67.77,-81.42 67.84,-81.62 67.97,-81.79 68.10,-81.96 68.28,-82.08 68.46,-82.19 68.66,-82.25 68.87,-82.30 69.08,-82.29 69.29,-82.27 69.49,-82.19 69.68,-82.11 69.84,-81.97 70.00,-81.83 70.11,-81.65 70.22,-81.47 70.26,-81.26 70.31,-81.05 70.28,-80.84 70.26,-80.63 70.17,-80.44 70.07,-80.25 69.93,-80.09 69.78,-79.94 69.59,-79.84 69.40,-79.75 69.40,-79.75 69.40,-79.75 67.41,-78.82 65.42,-77.90 62.75,-76.83 60.08,-75.76 55.10,-73.60 50.12,-71.44 42.71,-66.55 35.30,-61.65 26.38,-52.71 17.46,-43.76 12.38,-35.23 7.31,-26.69 4.63,-19.41 1.96,-12.12 2.24,-6.12 2.52,-0.12 2.50,0.18 2.48,0.48 2.38,0.77 2.29,1.06 2.13,1.32 1.97,1.58 1.75,1.79 1.53,2.01 1.27,2.16 1.00,2.31 0.71,2.40 0.42,2.49 0.11,2.50 -0.18,2.52 -0.48,2.46 -0.78,2.40 -1.05,2.27 -1.33,2.14 -1.57,1.95 -1.81,1.76 -1.99,1.52 -2.18,1.28 -2.30,1.00 -2.42,0.72 -2.47,0.42 -2.52,0.12 -2.52,0.12 L -2.52,0.12 Z"></path></g><g transform="translate(276 15) rotate(0 140.5 7)" stroke="none"><path fill="#1e1e1e" d="M -0.37,-2.10 Q -0.37,-2.10 4.49,-3.08 9.36,-4.06 19.58,-5.02 29.80,-5.97 50.60,-6.09 71.39,-6.21 92.05,-5.10 112.70,-4.00 133.01,-1.83 153.33,0.34 172.89,3.00 192.45,5.66 212.52,8.28 232.59,10.90 246.56,12.79 260.52,14.68 270.84,16.18 281.15,17.69 281.35,17.75 281.56,17.81 281.73,17.93 281.91,18.05 282.03,18.22 282.16,18.39 282.23,18.59 282.29,18.80 282.29,19.01 282.29,19.22 282.22,19.42 282.15,19.62 282.02,19.79 281.89,19.96 281.71,20.08 281.53,20.19 281.33,20.25 281.12,20.30 280.91,20.29 280.70,20.27 280.50,20.19 280.31,20.11 280.15,19.97 279.99,19.83 279.88,19.65 279.77,19.47 279.73,19.26 279.68,19.05 279.71,18.84 279.73,18.63 279.82,18.44 279.92,18.25 280.06,18.09 280.21,17.94 280.40,17.84 280.59,17.75 280.80,17.71 281.01,17.68 281.22,17.72 281.43,17.75 281.61,17.86 281.80,17.96 281.95,18.11 282.09,18.27 282.18,18.46 282.26,18.66 282.28,18.87 282.31,19.08 282.26,19.29 282.21,19.49 282.10,19.67 281.99,19.86 281.82,19.99 281.66,20.13 281.46,20.20 281.26,20.28 281.05,20.29 280.84,20.30 280.84,20.30 280.84,20.30 270.46,19.34 260.08,18.39 246.04,16.95 232.01,15.50 211.90,12.99 191.80,10.47 172.30,7.82 152.80,5.17 132.62,2.95 112.44,0.74 91.93,-0.35 71.42,-1.45 50.83,-1.34 30.24,-1.23 20.21,-0.30 10.18,0.61 5.27,1.35 0.37,2.10 0.11,2.11 -0.14,2.12 -0.39,2.08 -0.64,2.03 -0.88,1.92 -1.11,1.81 -1.31,1.65 -1.51,1.49 -1.67,1.29 -1.83,1.09 -1.93,0.85 -2.04,0.62 -2.08,0.36 -2.13,0.11 -2.11,-0.14 -2.09,-0.39 -2.01,-0.64 -1.93,-0.88 -1.80,-1.10 -1.67,-1.32 -1.48,-1.50 -1.30,-1.68 -1.08,-1.81 -0.86,-1.95 -0.61,-2.02 -0.37,-2.10 -0.37,-2.10 L -0.37,-2.10 Z"></path></g><g transform="translate(538 385) rotate(0 37 30.5)" stroke="none"><path fill="#1e1e1e" d="M -2.47,-0.95 Q -2.47,-0.95 -0.91,-4.88 0.63,-8.81 5.78,-11.81 10.93,-14.81 18.60,-15.70 26.27,-16.59 34.78,-13.66 43.29,-10.73 50.84,-3.78 58.39,3.16 63.67,12.08 68.95,21.00 70.38,32.12 71.80,43.23 68.79,51.22 65.78,59.21 60.21,64.85 54.63,70.49 46.38,73.30 38.13,76.12 32.78,75.27 27.42,74.42 25.71,71.82 24.00,69.21 23.45,67.46 22.89,65.71 22.81,65.51 22.72,65.32 22.70,65.11 22.69,64.90 22.74,64.69 22.79,64.48 22.90,64.30 23.01,64.12 23.18,63.99 23.34,63.86 23.54,63.78 23.74,63.71 23.95,63.70 24.16,63.69 24.37,63.75 24.57,63.81 24.74,63.94 24.92,64.06 25.04,64.23 25.17,64.40 25.23,64.61 25.30,64.81 25.29,65.02 25.29,65.23 25.21,65.43 25.14,65.63 25.01,65.80 24.88,65.97 24.70,66.08 24.52,66.20 24.32,66.25 24.11,66.30 23.90,66.29 23.69,66.27 23.49,66.19 23.29,66.11 23.14,65.97 22.98,65.82 22.87,65.64 22.77,65.46 22.72,65.25 22.68,65.04 22.71,64.83 22.74,64.62 22.83,64.43 22.92,64.24 23.07,64.08 23.22,63.93 23.41,63.84 23.60,63.74 23.81,63.71 24.02,63.68 24.23,63.72 24.44,63.76 24.63,63.86 24.81,63.97 24.95,64.12 25.10,64.28 25.10,64.28 25.10,64.28 26.47,65.50 27.84,66.72 28.74,68.14 29.64,69.56 33.13,70.06 36.62,70.56 43.77,68.43 50.92,66.31 55.86,61.67 60.80,57.03 63.61,50.30 66.41,43.57 65.29,33.59 64.16,23.60 59.38,15.36 54.59,7.11 47.93,0.72 41.28,-5.66 33.94,-8.41 26.60,-11.17 19.97,-10.55 13.35,-9.93 9.23,-8.03 5.11,-6.13 3.79,-2.59 2.47,0.95 2.32,1.23 2.17,1.51 1.96,1.75 1.74,1.99 1.48,2.17 1.22,2.35 0.92,2.46 0.62,2.57 0.30,2.61 -0.01,2.64 -0.32,2.60 -0.64,2.56 -0.94,2.45 -1.24,2.34 -1.50,2.15 -1.76,1.97 -1.97,1.73 -2.18,1.49 -2.33,1.21 -2.48,0.92 -2.55,0.61 -2.63,0.30 -2.63,-0.01 -2.62,-0.33 -2.55,-0.64 -2.47,-0.95 -2.47,-0.95 L -2.47,-0.95 Z"></path></g><g transform="translate(683 112) rotate(0 31.5 174)" stroke="none"><path fill="#1e1e1e" d="M 1.90,-0.74 Q 1.90,-0.74 6.56,11.02 11.22,22.78 16.14,40.53 21.05,58.29 26.59,80.77 32.13,103.24 37.93,127.16 43.74,151.08 49.98,178.21 56.23,205.35 58.91,226.77 61.60,248.20 60.43,265.55 59.26,282.89 55.85,296.14 52.43,309.39 48.35,318.84 44.26,328.30 40.74,334.37 37.22,340.44 34.18,344.54 31.13,348.65 31.00,348.82 30.86,348.98 30.68,349.09 30.50,349.21 30.30,349.26 30.09,349.30 29.88,349.29 29.67,349.27 29.47,349.18 29.28,349.10 29.12,348.95 28.96,348.81 28.86,348.62 28.76,348.44 28.72,348.23 28.68,348.02 28.71,347.81 28.74,347.60 28.84,347.41 28.94,347.22 29.09,347.07 29.24,346.92 29.43,346.83 29.62,346.74 29.83,346.71 30.04,346.68 30.25,346.72 30.46,346.77 30.64,346.87 30.83,346.98 30.97,347.14 31.11,347.30 31.19,347.49 31.27,347.69 31.29,347.90 31.30,348.11 31.25,348.32 31.20,348.52 31.08,348.70 30.96,348.88 30.80,349.01 30.63,349.14 30.43,349.22 30.23,349.29 30.02,349.29 29.81,349.29 29.60,349.23 29.40,349.17 29.23,349.04 29.06,348.92 28.94,348.74 28.81,348.57 28.75,348.36 28.69,348.16 28.70,347.95 28.71,347.74 28.78,347.54 28.86,347.34 28.86,347.34 28.86,347.34 30.89,342.65 32.92,337.96 36.27,332.12 39.63,326.28 43.58,317.20 47.54,308.11 50.88,295.32 54.22,282.53 55.41,265.67 56.60,248.80 54.02,227.62 51.44,206.44 45.29,179.32 39.14,152.19 33.37,128.27 27.59,104.36 22.13,81.92 16.66,59.49 11.91,41.93 7.17,24.36 2.63,12.55 -1.90,0.74 -1.96,0.50 -2.02,0.26 -2.02,0.01 -2.03,-0.22 -1.97,-0.46 -1.91,-0.70 -1.80,-0.92 -1.69,-1.14 -1.53,-1.33 -1.37,-1.51 -1.16,-1.65 -0.96,-1.80 -0.73,-1.89 -0.50,-1.98 -0.26,-2.01 -0.01,-2.04 0.22,-2.01 0.47,-1.98 0.70,-1.90 0.93,-1.81 1.13,-1.68 1.34,-1.54 1.50,-1.36 1.67,-1.17 1.78,-0.96 1.90,-0.74 1.90,-0.74 L 1.90,-0.74 Z"></path></g><g transform="translate(684 458) rotate(0 -33.5 36.5)" stroke="none"><path fill="#1e1e1e" d="M 1.83,1.42 Q 1.83,1.42 -2.10,6.66 -6.04,11.90 -10.90,18.40 -15.75,24.90 -21.28,32.01 -26.80,39.12 -33.24,45.71 -39.69,52.31 -46.46,58.56 -53.23,64.80 -56.76,67.70 -60.29,70.60 -62.73,71.80 -65.17,73.01 -65.35,73.12 -65.54,73.23 -65.74,73.27 -65.95,73.31 -66.16,73.28 -66.37,73.25 -66.56,73.16 -66.76,73.07 -66.91,72.92 -67.06,72.77 -67.15,72.58 -67.25,72.39 -67.28,72.18 -67.31,71.97 -67.27,71.76 -67.23,71.55 -67.13,71.36 -67.02,71.18 -66.87,71.04 -66.71,70.89 -66.51,70.81 -66.32,70.72 -66.11,70.70 -65.90,70.69 -65.69,70.74 -65.48,70.79 -65.30,70.90 -65.12,71.01 -64.99,71.18 -64.86,71.34 -64.78,71.54 -64.71,71.74 -64.70,71.95 -64.69,72.17 -64.75,72.37 -64.82,72.57 -64.94,72.75 -65.06,72.92 -65.23,73.04 -65.41,73.17 -65.61,73.23 -65.81,73.30 -66.02,73.29 -66.24,73.29 -66.44,73.21 -66.64,73.14 -66.80,73.01 -66.97,72.88 -67.08,72.70 -67.20,72.52 -67.25,72.31 -67.30,72.11 -67.29,71.90 -67.27,71.68 -67.19,71.49 -67.11,71.29 -66.96,71.13 -66.82,70.98 -66.82,70.98 -66.82,70.98 -65.18,68.87 -63.54,66.76 -60.20,63.81 -56.85,60.87 -50.16,54.73 -43.47,48.58 -37.17,42.26 -30.87,35.94 -25.35,28.89 -19.83,21.84 -14.94,15.32 -10.05,8.79 -5.94,3.68 -1.83,-1.42 -1.63,-1.62 -1.43,-1.82 -1.19,-1.96 -0.95,-2.11 -0.69,-2.19 -0.42,-2.28 -0.14,-2.29 0.13,-2.31 0.40,-2.26 0.68,-2.21 0.93,-2.10 1.19,-1.98 1.41,-1.81 1.63,-1.64 1.80,-1.42 1.98,-1.20 2.09,-0.95 2.21,-0.69 2.26,-0.42 2.31,-0.14 2.29,0.13 2.28,0.41 2.20,0.67 2.11,0.94 1.97,1.18 1.83,1.42 1.83,1.42 L 1.83,1.42 Z"></path></g><g transform="translate(612 516) rotate(0 9 -19.5)" stroke="none"><path fill="#1e1e1e" d="M -1.77,-0.54 Q -1.77,-0.54 -0.86,-4.36 0.04,-8.17 2.04,-11.99 4.03,-15.80 6.91,-20.29 9.78,-24.78 11.50,-28.26 13.22,-31.74 13.99,-33.93 14.77,-36.13 15.76,-37.76 16.74,-39.39 16.84,-39.58 16.93,-39.77 17.09,-39.92 17.24,-40.07 17.43,-40.16 17.62,-40.25 17.83,-40.28 18.04,-40.31 18.25,-40.27 18.46,-40.22 18.64,-40.12 18.83,-40.01 18.97,-39.85 19.11,-39.69 19.19,-39.50 19.27,-39.30 19.29,-39.09 19.30,-38.88 19.25,-38.67 19.20,-38.47 19.08,-38.29 18.97,-38.11 18.80,-37.98 18.63,-37.85 18.43,-37.77 18.23,-37.70 18.02,-37.70 17.81,-37.70 17.60,-37.76 17.40,-37.82 17.23,-37.95 17.06,-38.07 16.94,-38.25 16.81,-38.42 16.75,-38.62 16.69,-38.83 16.70,-39.04 16.71,-39.25 16.78,-39.45 16.86,-39.65 16.99,-39.82 17.13,-39.98 17.31,-40.09 17.49,-40.21 17.69,-40.26 17.90,-40.30 18.11,-40.29 18.32,-40.27 18.52,-40.18 18.71,-40.10 18.87,-39.95 19.03,-39.81 19.13,-39.62 19.23,-39.44 19.27,-39.23 19.31,-39.02 19.28,-38.81 19.25,-38.60 19.25,-38.60 19.25,-38.60 19.11,-36.70 18.98,-34.79 18.25,-32.21 17.52,-29.62 15.68,-25.90 13.84,-22.18 11.05,-17.86 8.26,-13.54 6.40,-10.15 4.55,-6.77 3.16,-3.11 1.77,0.54 1.68,0.74 1.58,0.95 1.45,1.12 1.31,1.30 1.13,1.44 0.96,1.58 0.76,1.67 0.55,1.76 0.33,1.80 0.11,1.84 -0.10,1.83 -0.32,1.82 -0.54,1.75 -0.75,1.69 -0.94,1.57 -1.13,1.46 -1.29,1.30 -1.45,1.14 -1.57,0.95 -1.68,0.76 -1.75,0.55 -1.82,0.34 -1.83,0.11 -1.85,-0.10 -1.81,-0.32 -1.77,-0.54 -1.77,-0.54 L -1.77,-0.54 Z"></path></g><g transform="translate(618 483) rotate(0 -50 35)" stroke="none"><path fill="#1e1e1e" d="M 1.79,1.13 Q 1.79,1.13 -0.19,4.32 -2.17,7.50 -6.50,13.00 -10.83,18.50 -15.85,24.02 -20.87,29.55 -26.48,35.08 -32.09,40.61 -38.63,45.10 -45.18,49.59 -53.46,53.87 -61.75,58.15 -68.45,61.09 -75.15,64.04 -80.36,65.89 -85.57,67.73 -89.16,69.07 -92.76,70.41 -94.55,70.93 -96.34,71.46 -96.63,71.77 -96.93,72.08 -97.24,72.14 -97.54,72.20 -97.85,72.18 -98.16,72.16 -98.45,72.07 -98.75,71.98 -99.01,71.82 -99.28,71.66 -99.50,71.44 -99.72,71.22 -99.88,70.96 -100.04,70.69 -100.13,70.40 -100.22,70.10 -100.24,69.79 -100.26,69.49 -100.21,69.18 -100.15,68.88 -100.02,68.59 -99.90,68.31 -99.71,68.07 -99.52,67.82 -99.27,67.63 -99.03,67.44 -98.75,67.31 -98.47,67.19 -95.71,65.84 -92.95,64.50 -90.95,63.49 -88.95,62.48 -86.38,61.18 -83.81,59.88 -81.89,58.82 -79.98,57.75 -77.86,56.83 -75.74,55.91 -75.55,55.82 -75.35,55.73 -75.14,55.71 -74.93,55.68 -74.72,55.73 -74.52,55.77 -74.33,55.88 -74.15,55.99 -74.01,56.15 -73.87,56.31 -73.79,56.51 -73.71,56.70 -73.70,56.92 -73.69,57.13 -73.74,57.33 -73.80,57.54 -73.92,57.72 -74.04,57.89 -74.20,58.02 -74.37,58.15 -74.57,58.22 -74.77,58.29 -74.99,58.29 -75.20,58.29 -75.40,58.23 -75.60,58.16 -75.77,58.03 -75.94,57.90 -76.06,57.73 -76.18,57.55 -76.24,57.35 -76.30,57.14 -76.29,56.93 -76.28,56.72 -76.20,56.52 -76.12,56.32 -75.99,56.16 -75.85,56.00 -75.67,55.89 -75.49,55.78 -75.28,55.73 -75.07,55.68 -74.86,55.71 -74.65,55.73 -74.46,55.82 -74.26,55.90 -74.11,56.05 -73.95,56.19 -73.85,56.38 -73.75,56.57 -73.72,56.78 -73.68,56.99 -73.71,57.20 -73.75,57.41 -73.85,57.60 -73.94,57.78 -74.10,57.93 -74.25,58.08 -74.25,58.08 -74.25,58.08 -76.01,59.82 -77.77,61.57 -79.75,62.76 -81.74,63.95 -84.28,65.25 -86.81,66.55 -88.72,67.59 -90.63,68.63 -92.59,69.81 -94.55,70.98 -95.74,71.53 -96.93,72.08 -97.24,72.14 -97.54,72.20 -97.85,72.18 -98.16,72.16 -98.45,72.07 -98.75,71.98 -99.01,71.82 -99.28,71.66 -99.50,71.44 -99.72,71.22 -99.88,70.96 -100.04,70.69 -100.13,70.40 -100.22,70.10 -100.24,69.79 -100.26,69.49 -100.21,69.18 -100.15,68.88 -100.02,68.59 -99.90,68.31 -99.71,68.07 -99.52,67.82 -99.27,67.63 -99.03,67.44 -98.75,67.31 -98.47,67.19 -98.36,67.01 -98.26,66.84 -96.40,66.22 -94.55,65.61 -90.91,64.25 -87.28,62.90 -82.25,61.12 -77.21,59.34 -70.63,56.47 -64.06,53.59 -55.98,49.58 -47.91,45.56 -41.67,41.38 -35.43,37.19 -29.90,31.77 -24.36,26.35 -19.39,20.98 -14.43,15.62 -10.15,10.38 -5.87,5.14 -3.83,2.00 -1.79,-1.13 -1.62,-1.33 -1.46,-1.53 -1.26,-1.68 -1.05,-1.84 -0.82,-1.94 -0.58,-2.04 -0.33,-2.08 -0.07,-2.12 0.17,-2.10 0.43,-2.07 0.67,-1.99 0.91,-1.91 1.13,-1.77 1.34,-1.64 1.52,-1.45 1.70,-1.27 1.82,-1.04 1.95,-0.82 2.02,-0.58 2.09,-0.33 2.10,-0.07 2.11,0.17 2.06,0.42 2.01,0.67 1.90,0.90 1.79,1.14 1.79,1.13 L 1.79,1.13 Z"></path></g><g transform="translate(539 539) rotate(0 1 -3.5)" stroke="none"><path fill="#1e1e1e" d="M -1.72,-0.74 Q -1.72,-0.74 -0.88,-2.75 -0.03,-4.77 0.08,-4.97 0.19,-5.17 0.35,-5.34 0.51,-5.50 0.71,-5.63 0.90,-5.75 1.12,-5.82 1.34,-5.90 1.57,-5.91 1.80,-5.93 2.03,-5.89 2.26,-5.86 2.47,-5.77 2.68,-5.67 2.86,-5.54 3.05,-5.40 3.19,-5.22 3.34,-5.04 3.44,-4.83 3.54,-4.62 3.58,-4.40 3.63,-4.17 3.62,-3.94 3.61,-3.71 3.54,-3.49 3.48,-3.27 2.34,-1.37 1.20,0.51 1.09,0.69 0.97,0.87 0.81,1.00 0.64,1.14 0.44,1.21 0.24,1.28 0.03,1.29 -0.17,1.30 -0.37,1.23 -0.58,1.17 -0.75,1.05 -0.92,0.92 -1.05,0.75 -1.17,0.58 -1.23,0.38 -1.30,0.17 -1.29,-0.03 -1.29,-0.24 -1.21,-0.44 -1.14,-0.64 -1.01,-0.81 -0.87,-0.97 -0.69,-1.09 -0.52,-1.20 -0.31,-1.25 -0.10,-1.30 0.10,-1.29 0.31,-1.27 0.51,-1.19 0.70,-1.10 0.86,-0.96 1.02,-0.82 1.12,-0.63 1.23,-0.45 1.27,-0.24 1.31,-0.03 1.28,0.17 1.25,0.38 1.16,0.57 1.06,0.76 0.91,0.91 0.76,1.06 0.57,1.16 0.38,1.25 0.17,1.28 -0.03,1.31 -0.24,1.27 -0.45,1.23 -0.63,1.12 -0.82,1.02 -0.96,0.86 -1.10,0.70 -1.18,0.51 -1.27,0.31 -1.29,0.10 -1.30,-0.10 -1.25,-0.31 -1.20,-0.51 -1.20,-0.51 -1.20,-0.51 -0.62,-2.64 -0.03,-4.77 0.08,-4.97 0.19,-5.17 0.35,-5.34 0.51,-5.50 0.71,-5.63 0.90,-5.75 1.12,-5.82 1.34,-5.90 1.57,-5.91 1.80,-5.93 2.03,-5.89 2.26,-5.86 2.47,-5.77 2.68,-5.67 2.86,-5.54 3.05,-5.40 3.19,-5.22 3.34,-5.04 3.44,-4.83 3.54,-4.62 3.58,-4.40 3.63,-4.17 3.62,-3.94 3.61,-3.71 3.54,-3.49 3.48,-3.27 2.60,-1.26 1.72,0.74 1.61,0.93 1.50,1.13 1.34,1.29 1.18,1.46 0.99,1.58 0.80,1.70 0.58,1.77 0.37,1.84 0.14,1.86 -0.07,1.87 -0.30,1.84 -0.52,1.80 -0.73,1.71 -0.94,1.62 -1.12,1.49 -1.30,1.35 -1.44,1.17 -1.59,1.00 -1.68,0.79 -1.78,0.59 -1.83,0.36 -1.87,0.14 -1.86,-0.07 -1.85,-0.30 -1.79,-0.52 -1.72,-0.74 -1.72,-0.74 L -1.72,-0.74 Z"></path></g><g transform="translate(118 327) rotate(0 -10 -0.5)" stroke="none"><path fill="#1e1e1e" d="M 0.18,2.17 Q 0.18,2.17 -3.24,2.70 -6.67,3.23 -9.58,3.62 -12.49,4.01 -14.88,3.19 -17.26,2.36 -19.04,0.19 -20.83,-1.98 -20.97,-2.14 -21.11,-2.30 -21.19,-2.50 -21.27,-2.69 -21.29,-2.90 -21.30,-3.12 -21.25,-3.32 -21.20,-3.53 -21.08,-3.70 -20.96,-3.88 -20.80,-4.01 -20.63,-4.15 -20.43,-4.22 -20.23,-4.29 -20.02,-4.29 -19.80,-4.29 -19.60,-4.23 -19.40,-4.17 -19.23,-4.04 -19.06,-3.91 -18.93,-3.74 -18.81,-3.57 -18.75,-3.36 -18.69,-3.16 -18.70,-2.95 -18.71,-2.73 -18.78,-2.54 -18.86,-2.34 -18.99,-2.17 -19.13,-2.01 -19.31,-1.90 -19.49,-1.78 -19.70,-1.73 -19.90,-1.68 -20.11,-1.70 -20.33,-1.72 -20.52,-1.81 -20.71,-1.90 -20.87,-2.04 -21.03,-2.18 -21.13,-2.37 -21.23,-2.56 -21.27,-2.76 -21.31,-2.97 -21.28,-3.18 -21.25,-3.39 -21.15,-3.58 -21.05,-3.77 -20.90,-3.92 -20.75,-4.07 -20.56,-4.16 -20.37,-4.25 -20.16,-4.28 -19.95,-4.31 -19.74,-4.27 -19.53,-4.22 -19.34,-4.12 -19.16,-4.01 -19.16,-4.01 -19.16,-4.01 -17.27,-3.17 -15.38,-2.33 -14.15,-1.77 -12.91,-1.22 -10.01,-1.65 -7.12,-2.08 -3.65,-2.12 -0.18,-2.17 0.08,-2.16 0.34,-2.15 0.59,-2.08 0.84,-2.00 1.07,-1.87 1.30,-1.74 1.49,-1.56 1.68,-1.38 1.82,-1.16 1.96,-0.93 2.05,-0.69 2.13,-0.44 2.15,-0.17 2.17,0.08 2.13,0.34 2.09,0.60 1.99,0.84 1.89,1.08 1.73,1.29 1.57,1.50 1.37,1.67 1.16,1.83 0.93,1.95 0.69,2.06 0.43,2.11 0.18,2.17 0.18,2.17 L 0.18,2.17 Z"></path></g><g transform="translate(298 334) rotate(0 -9 -4)" stroke="none"><path fill="#1e1e1e" d="M 0,1.71 Q 0,1.71 -3.16,2.24 -6.33,2.77 -9.54,2.08 -12.74,1.39 -14.96,-1.05 -17.18,-3.50 -18.08,-5.31 -18.97,-7.12 -19.09,-7.30 -19.20,-7.48 -19.25,-7.69 -19.30,-7.89 -19.29,-8.10 -19.27,-8.32 -19.18,-8.51 -19.10,-8.71 -18.96,-8.86 -18.81,-9.02 -18.63,-9.12 -18.44,-9.23 -18.24,-9.27 -18.03,-9.31 -17.82,-9.28 -17.61,-9.25 -17.42,-9.15 -17.23,-9.06 -17.08,-8.91 -16.93,-8.76 -16.83,-8.57 -16.74,-8.38 -16.71,-8.17 -16.68,-7.96 -16.72,-7.75 -16.76,-7.54 -16.87,-7.35 -16.97,-7.17 -17.13,-7.03 -17.29,-6.89 -17.49,-6.80 -17.68,-6.72 -17.89,-6.70 -18.11,-6.69 -18.31,-6.74 -18.52,-6.79 -18.70,-6.91 -18.87,-7.02 -19.01,-7.19 -19.14,-7.35 -19.21,-7.55 -19.29,-7.75 -19.29,-7.96 -19.30,-8.18 -19.23,-8.38 -19.17,-8.58 -19.05,-8.75 -18.92,-8.93 -18.75,-9.05 -18.58,-9.17 -18.37,-9.24 -18.17,-9.30 -17.96,-9.29 -17.74,-9.28 -17.54,-9.21 -17.35,-9.14 -17.18,-9.00 -17.01,-8.87 -17.01,-8.87 -17.02,-8.87 -15.32,-7.77 -13.62,-6.67 -12.32,-5.18 -11.02,-3.69 -8.67,-3.23 -6.31,-2.77 -3.15,-2.24 0,-1.71 0.20,-1.69 0.41,-1.66 0.60,-1.59 0.79,-1.51 0.96,-1.40 1.13,-1.28 1.27,-1.12 1.41,-0.97 1.50,-0.79 1.60,-0.60 1.65,-0.40 1.70,-0.20 1.70,0.00 1.70,0.20 1.65,0.40 1.60,0.60 1.50,0.79 1.41,0.97 1.27,1.12 1.13,1.28 0.96,1.40 0.79,1.51 0.60,1.59 0.41,1.66 0.20,1.69 -0.00,1.71 -0.00,1.71 L 0,1.71 Z"></path></g><g transform="translate(305 349) rotate(0 -4.5 8)" stroke="none"><path fill="#1e1e1e" d="M 1.14,0.76 Q 1.14,0.76 -0.39,3.47 -1.94,6.17 -3.54,8.44 -5.14,10.71 -7.08,11.08 -9.02,11.45 -10.48,10.24 -11.93,9.04 -12.78,7.15 -13.63,5.27 -14.20,3.72 -14.77,2.17 -15.77,1.08 -16.76,-0.00 -16.90,-0.32 -17.03,-0.64 -17.08,-0.99 -17.13,-1.33 -17.10,-1.68 -17.07,-2.03 -16.95,-2.35 -16.84,-2.68 -16.65,-2.98 -16.46,-3.27 -16.20,-3.51 -15.95,-3.74 -15.65,-3.91 -15.34,-4.08 -15.01,-4.18 -14.67,-4.27 -14.32,-4.28 -13.97,-4.29 -13.63,-4.21 -13.29,-4.14 -12.98,-3.99 -12.67,-3.83 -12.40,-3.61 -12.13,-3.39 -11.93,-3.10 -11.72,-2.82 -12.07,0.10 -12.42,3.03 -12.58,5.56 -12.73,8.08 -12.62,10.29 -12.51,12.50 -10.73,14.06 -8.96,15.61 -7.62,16.28 -6.27,16.95 -5.40,14.43 -4.53,11.91 -4.66,9.25 -4.79,6.60 -6.17,3.51 -7.54,0.42 -8.89,-1.69 -10.23,-3.82 -11.35,-3.25 -12.46,-2.67 -13.36,-0.08 -14.26,2.51 -14.72,5.53 -15.19,8.54 -15.14,11.34 -15.10,14.15 -14.21,15.62 -13.33,17.09 -11.44,17.77 -9.55,18.46 -8.12,18.33 -6.69,18.20 -5.92,17.34 -5.16,16.47 -4.63,15.07 -4.10,13.66 -4.12,10.82 -4.14,7.97 -4.91,5.21 -5.68,2.44 -6.81,-0.12 -7.95,-2.69 -8.50,-4.20 -9.06,-5.71 -8.93,-4.45 -8.81,-3.19 -9.67,1.16 -10.53,5.53 -10.65,9.88 -10.77,14.23 -10.02,17.54 -9.26,20.85 -8.10,22.72 -6.94,24.59 -5.35,25.17 -3.76,25.75 -2.42,24.66 -1.08,23.57 -0.34,21.30 0.40,19.02 0.83,15.90 1.25,12.78 0.62,9.14 -0.00,5.50 -2.20,0.06 -4.40,-5.38 -6.18,-9.15 -7.95,-12.93 -7.82,-14.03 -7.68,-15.13 -8.69,-14.32 -9.70,-13.51 -10.47,-8.85 -11.25,-4.19 -11.74,1.59 -12.24,7.39 -12.17,12.65 -12.10,17.92 -11.00,21.82 -9.90,25.73 -8.01,27.86 -6.12,30.00 -5.09,30.53 -4.06,31.05 -3.20,30.14 -2.33,29.23 -1.49,27.01 -0.65,24.80 0.07,21.10 0.81,17.40 0.28,11.49 -0.23,5.58 -1.28,0.19 -2.33,-5.19 -3.83,-8.67 -5.33,-12.15 -6.54,-12.46 -7.75,-12.76 -9.37,-8.41 -10.99,-4.06 -11.82,1.11 -12.65,6.29 -12.46,11.20 -12.27,16.11 -10.88,19.55 -9.50,22.98 -6.94,25.29 -4.38,27.59 -2.42,28.20 -0.47,28.82 0.59,28.20 1.66,27.58 2.47,25.81 3.28,24.04 3.42,20.20 3.55,16.37 2.84,12.23 2.13,8.09 1.00,4.37 -0.12,0.65 -1.32,-1.55 -2.53,-3.75 -3.59,-3.46 -4.64,-3.17 -6.02,0.96 -7.40,5.11 -8.12,9.67 -8.83,14.23 -8.37,17.76 -7.90,21.29 -5.44,23.77 -2.98,26.25 -0.63,27.24 1.70,28.23 2.98,28.11 4.26,27.98 4.84,26.47 5.42,24.96 4.95,22.53 4.49,20.10 2.81,16.97 1.13,13.85 -2.16,11.30 -5.46,8.76 -7.43,7.68 -9.40,6.60 -10.62,10.27 -11.84,13.94 -11.68,16.87 -11.53,19.79 -10.92,21.42 -10.31,23.04 -10.06,24.74 -9.81,26.43 -9.75,26.63 -9.69,26.84 -9.70,27.05 -9.71,27.26 -9.79,27.46 -9.86,27.66 -10.00,27.82 -10.13,27.99 -10.31,28.10 -10.50,28.21 -10.70,28.26 -10.91,28.31 -11.12,28.28 -11.33,28.26 -11.53,28.18 -11.72,28.09 -11.88,27.95 -12.03,27.80 -12.13,27.61 -12.23,27.43 -12.27,27.22 -12.31,27.01 -12.28,26.80 -12.24,26.59 -12.15,26.40 -12.05,26.21 -11.90,26.06 -11.74,25.92 -11.55,25.82 -11.36,25.73 -11.15,25.71 -10.94,25.68 -10.73,25.73 -10.52,25.77 -10.34,25.88 -10.16,25.98 -10.02,26.15 -9.88,26.31 -9.80,26.50 -9.72,26.70 -9.70,26.91 -9.69,27.12 -9.74,27.33 -9.80,27.53 -9.91,27.71 -10.03,27.89 -10.20,28.02 -10.37,28.15 -10.57,28.22 -10.77,28.29 -10.98,28.29 -11.19,28.29 -11.40,28.23 -11.60,28.16 -11.77,28.04 -11.94,27.91 -12.06,27.73 -12.18,27.56 -12.18,27.56 -12.18,27.56 -13.34,26.30 -14.49,25.03 -15.79,22.66 -17.08,20.29 -17.35,16.50 -17.63,12.72 -16.27,8.25 -14.92,3.78 -11.75,2.46 -8.58,1.15 -5.14,2.62 -1.70,4.09 2.32,7.53 6.35,10.97 8.38,15.17 10.42,19.38 10.57,23.36 10.72,27.35 8.69,30.11 6.66,32.87 3.16,33.32 -0.33,33.77 -3.82,32.06 -7.31,30.35 -10.47,26.48 -13.62,22.61 -14.20,17.96 -14.77,13.32 -13.87,8.11 -12.97,2.90 -10.56,-2.41 -8.14,-7.72 -5.56,-8.82 -2.99,-9.93 -0.21,-8.35 2.55,-6.77 4.07,-3.92 5.58,-1.07 6.80,3.02 8.01,7.13 8.76,11.94 9.50,16.76 8.99,21.81 8.49,26.86 6.45,29.76 4.41,32.66 1.46,33.56 -1.47,34.47 -4.89,33.25 -8.32,32.04 -11.64,28.69 -14.96,25.34 -16.60,20.88 -18.24,16.42 -18.41,10.87 -18.57,5.32 -17.52,-0.57 -16.48,-6.47 -13.69,-11.96 -10.90,-17.45 -8.28,-18.28 -5.66,-19.12 -2.78,-16.86 0.08,-14.60 1.80,-10.48 3.52,-6.36 4.62,-0.62 5.72,5.10 6.19,11.83 6.67,18.56 5.71,22.95 4.75,27.34 2.95,30.64 1.15,33.93 -1.48,35.17 -4.13,36.40 -7.29,35.21 -10.45,34.01 -13.01,30.75 -15.57,27.50 -16.82,22.77 -18.08,18.04 -18.14,12.45 -18.20,6.87 -17.64,0.66 -17.08,-5.54 -15.38,-11.52 -13.68,-17.50 -11.57,-18.74 -9.45,-19.98 -6.04,-17.78 -2.62,-15.58 -0.73,-11.58 1.15,-7.58 3.51,-1.51 5.88,4.55 6.52,9.07 7.16,13.59 6.52,17.49 5.88,21.38 4.12,24.80 2.36,28.22 -0.84,29.71 -4.05,31.19 -7.75,29.70 -11.45,28.22 -13.27,25.22 -15.08,22.22 -15.92,18.15 -16.76,14.08 -16.58,9.18 -16.39,4.28 -15.18,-0.94 -13.97,-6.17 -12.56,-8.12 -11.16,-10.07 -7.86,-9.57 -4.56,-9.08 -3.51,-7.07 -2.47,-5.07 -1.18,-2.06 0.09,0.94 0.96,4.52 1.82,8.10 1.58,12.08 1.34,16.05 0.01,18.52 -1.31,20.99 -3.58,22.47 -5.86,23.95 -8.86,23.93 -11.86,23.92 -14.99,22.16 -18.12,20.40 -19.57,17.47 -21.03,14.54 -21.08,11.05 -21.12,7.56 -20.45,3.88 -19.79,0.20 -18.02,-3.47 -16.25,-7.14 -13.80,-8.54 -11.36,-9.93 -8.35,-8.53 -5.34,-7.13 -3.70,-4.50 -2.06,-1.86 -0.46,2.19 1.12,6.25 1.22,9.59 1.31,12.92 0.68,15.78 0.04,18.64 -1.62,20.40 -3.30,22.15 -6.10,22.17 -8.90,22.20 -11.06,20.94 -13.23,19.68 -15.65,16.70 -18.07,13.72 -18.35,10.68 -18.62,7.64 -17.69,3.82 -16.76,-0.00 -16.90,-0.32 -17.03,-0.64 -17.08,-0.99 -17.13,-1.33 -17.10,-1.68 -17.07,-2.03 -16.95,-2.35 -16.84,-2.68 -16.65,-2.98 -16.46,-3.27 -16.20,-3.51 -15.95,-3.74 -15.65,-3.91 -15.34,-4.08 -15.01,-4.18 -14.67,-4.27 -14.32,-4.28 -13.97,-4.29 -13.63,-4.21 -13.29,-4.14 -12.98,-3.99 -12.67,-3.83 -12.40,-3.61 -12.13,-3.39 -11.93,-3.11 -11.72,-2.82 -11.29,-2.44 -10.85,-2.05 -10.22,-0.88 -9.59,0.28 -9.07,1.75 -8.55,3.22 -7.76,5.35 -6.98,7.48 -5.97,5.82 -4.95,4.17 -3.05,1.70 -1.14,-0.76 -1.04,-0.89 -0.93,-1.01 -0.79,-1.11 -0.66,-1.21 -0.50,-1.27 -0.35,-1.33 -0.18,-1.35 -0.02,-1.37 0.14,-1.36 0.30,-1.34 0.46,-1.28 0.62,-1.23 0.76,-1.13 0.89,-1.04 1.01,-0.92 1.12,-0.80 1.20,-0.65 1.28,-0.51 1.32,-0.34 1.36,-0.18 1.36,-0.02 1.37,0.14 1.33,0.30 1.29,0.46 1.22,0.61 1.14,0.76 1.14,0.76 L 1.14,0.76 Z"></path></g><g transform="translate(118 338) rotate(0 -0.5 16.5)" stroke="none"><path fill="#1e1e1e" d="M 0.65,1.96 Q 0.65,1.96 -0.70,2.64 -2.07,3.31 -3.08,6.22 -4.09,9.13 -4.92,13.45 -5.75,17.77 -6.14,22.34 -6.53,26.91 -4.56,30.85 -2.59,34.80 -0.39,36.49 1.79,38.18 4.12,37.57 6.45,36.97 8.27,34.90 10.08,32.83 10.82,28.98 11.57,25.13 10.58,21.52 9.60,17.91 7.86,14.41 6.12,10.91 4.08,8.43 2.03,5.94 1.16,4.78 0.29,3.62 -1.30,4.97 -2.89,6.31 -3.99,8.70 -5.08,11.10 -5.90,14.58 -6.71,18.07 -7.09,21.15 -7.47,24.22 -6.35,26.65 -5.23,29.07 -4.26,29.79 -3.30,30.51 -1.72,30.03 -0.15,29.55 1.64,28.01 3.45,26.47 4.08,24.82 4.72,23.16 4.48,19.98 4.23,16.81 2.85,13.65 1.46,10.50 -0.24,7.39 -1.94,4.27 -3.57,2.65 -5.20,1.04 -6.37,0.45 -7.54,-0.13 -9.07,1.33 -10.61,2.80 -11.47,5.26 -12.33,7.72 -12.79,10.57 -13.26,13.41 -12.25,15.71 -11.24,18.00 -8.75,19.29 -6.26,20.57 -3.42,20.36 -0.58,20.15 1.73,18.59 4.04,17.04 5.47,15.27 6.90,13.49 7.13,11.33 7.36,9.16 5.38,5.49 3.39,1.82 1.00,-0.86 -1.38,-3.55 -3.33,-4.86 -5.27,-6.18 -6.93,-4.03 -8.60,-1.88 -9.22,1.76 -9.84,5.42 -9.59,9.38 -9.34,13.34 -7.94,16.40 -6.54,19.46 -4.65,21.31 -2.76,23.17 0.03,23.28 2.84,23.40 5.01,22.35 7.18,21.30 8.13,19.35 9.09,17.39 9.00,15.03 8.92,12.66 6.80,8.81 4.68,4.97 2.67,2.10 0.67,-0.77 0.48,-1.99 0.30,-3.22 -0.72,-2.27 -1.76,-1.32 -2.55,1.39 -3.34,4.12 -3.79,9.18 -4.23,14.24 -3.89,17.98 -3.55,21.72 -2.56,24.01 -1.56,26.30 0.06,27.26 1.69,28.22 3.15,29.53 4.61,30.84 4.78,30.97 4.95,31.10 5.07,31.27 5.19,31.45 5.25,31.65 5.30,31.86 5.29,32.07 5.28,32.28 5.20,32.48 5.12,32.68 4.98,32.84 4.84,33.00 4.66,33.11 4.48,33.22 4.27,33.26 4.06,33.31 3.85,33.28 3.64,33.26 3.45,33.17 3.25,33.08 3.10,32.93 2.95,32.79 2.85,32.60 2.75,32.41 2.72,32.20 2.68,31.99 2.72,31.78 2.75,31.57 2.85,31.38 2.95,31.20 3.11,31.05 3.26,30.91 3.46,30.82 3.65,30.73 3.86,30.71 4.07,30.68 4.28,30.73 4.49,30.78 4.67,30.89 4.85,31.00 4.99,31.16 5.12,31.32 5.20,31.52 5.28,31.72 5.29,31.93 5.30,32.14 5.24,32.35 5.18,32.55 5.06,32.73 4.94,32.90 4.78,33.03 4.61,33.16 4.40,33.22 4.20,33.29 3.99,33.29 3.78,33.29 3.58,33.22 3.38,33.15 3.38,33.15 3.38,33.15 1.47,32.66 -0.42,32.17 -3.34,30.70 -6.27,29.22 -7.87,25.78 -9.46,22.34 -9.82,18.01 -10.17,13.67 -9.55,7.86 -8.93,2.05 -7.20,-1.86 -5.47,-5.77 -3.28,-6.93 -1.09,-8.08 2.23,-6.14 5.57,-4.20 7.79,-0.96 10.01,2.26 12.42,7.37 14.83,12.48 14.58,16.30 14.33,20.12 12.18,23.25 10.04,26.39 6.28,27.84 2.52,29.30 -1.87,28.54 -6.26,27.78 -9.12,24.87 -11.98,21.96 -13.65,17.87 -15.32,13.78 -15.53,9.04 -15.74,4.30 -14.72,-0.33 -13.70,-4.98 -11.20,-8.25 -8.70,-11.52 -5.37,-11.34 -2.03,-11.16 0.53,-9.33 3.11,-7.50 5.94,-4.14 8.77,-0.78 10.97,4.36 13.17,9.52 12.41,13.23 11.65,16.95 9.40,19.53 7.15,22.12 3.52,24.06 -0.11,26.00 -4.50,25.90 -8.89,25.79 -12.60,23.27 -16.30,20.75 -17.70,16.80 -19.09,12.86 -18.45,9.12 -17.81,5.39 -16.06,1.84 -14.31,-1.70 -11.05,-3.55 -7.80,-5.39 -4.48,-4.31 -1.15,-3.23 1.03,-0.92 3.22,1.39 5.08,4.81 6.94,8.24 8.54,12.36 10.13,16.48 10.15,20.94 10.16,25.40 8.69,28.19 7.22,30.99 4.08,33.15 0.93,35.31 -2.37,35.42 -5.68,35.53 -8.09,33.57 -10.50,31.61 -11.91,27.74 -13.32,23.87 -12.89,20.26 -12.46,16.64 -11.37,12.49 -10.28,8.34 -8.25,4.96 -6.21,1.57 -3.15,0.13 -0.09,-1.30 3.22,0.46 6.53,2.23 8.94,5.28 11.35,8.33 13.32,12.44 15.29,16.55 16.26,21.38 17.24,26.20 15.83,31.38 14.42,36.56 11.17,39.49 7.93,42.43 3.75,42.78 -0.41,43.13 -4.05,40.30 -7.68,37.47 -9.97,32.13 -12.25,26.79 -11.82,21.69 -11.39,16.59 -10.29,11.69 -9.18,6.79 -7.00,2.88 -4.82,-1.01 -2.74,-1.49 -0.65,-1.96 -0.41,-2.01 -0.16,-2.06 0.08,-2.05 0.33,-2.04 0.57,-1.97 0.81,-1.90 1.03,-1.78 1.24,-1.65 1.42,-1.48 1.60,-1.31 1.74,-1.10 1.87,-0.88 1.95,-0.65 2.03,-0.41 2.05,-0.16 2.07,0.08 2.03,0.33 1.99,0.57 1.89,0.80 1.79,1.03 1.64,1.23 1.49,1.43 1.30,1.59 1.10,1.75 0.88,1.86 0.65,1.96 0.65,1.96 L 0.65,1.96 Z"></path></g><g transform="translate(293 345) rotate(0 4 7)" stroke="none"><path fill="#1e1e1e" d="M 0.52,2.11 Q 0.52,2.11 -0.01,2.24 -0.55,2.37 -0.79,4.58 -1.03,6.78 -1.30,10.53 -1.56,14.28 -1.70,17.06 -1.84,19.83 -0.59,23.33 0.65,26.82 1.42,27.86 2.20,28.91 3.69,27.92 5.18,26.92 7.03,23.55 8.88,20.17 9.74,16.90 10.60,13.64 10.42,10.52 10.23,7.40 9.36,4.19 8.49,0.98 7.23,-1.49 5.98,-3.96 3.96,-4.69 1.95,-5.41 0.13,-4.27 -1.69,-3.12 -3.46,-0.72 -5.23,1.68 -6.23,5.24 -7.22,8.81 -6.85,13.12 -6.48,17.43 -4.89,19.98 -3.30,22.53 -0.89,23.67 1.51,24.80 4.00,24.27 6.48,23.73 8.66,21.84 10.84,19.95 12.54,16.37 14.23,12.78 14.39,9.29 14.56,5.79 13.58,1.92 12.59,-1.93 10.83,-5.77 9.07,-9.61 7.01,-11.73 4.95,-13.85 3.57,-11.23 2.18,-8.61 1.31,-3.83 0.44,0.94 0.03,6.08 -0.36,11.21 1.36,15.75 3.09,20.29 4.86,22.21 6.64,24.13 7.99,24.31 9.35,24.49 10.64,23.28 11.94,22.07 13.42,18.98 14.91,15.89 16.34,13.20 17.77,10.52 17.88,10.33 17.99,10.15 18.15,10.01 18.31,9.87 18.51,9.79 18.71,9.71 18.92,9.70 19.13,9.69 19.33,9.74 19.54,9.80 19.72,9.92 19.89,10.04 20.02,10.21 20.15,10.37 20.22,10.57 20.29,10.78 20.29,10.99 20.29,11.20 20.23,11.40 20.16,11.60 20.03,11.77 19.90,11.94 19.73,12.06 19.55,12.18 19.35,12.24 19.14,12.30 18.93,12.29 18.72,12.28 18.52,12.20 18.32,12.12 18.16,11.99 18.00,11.85 17.89,11.67 17.78,11.49 17.73,11.28 17.68,11.07 17.71,10.86 17.73,10.65 17.82,10.46 17.90,10.26 18.05,10.11 18.19,9.95 18.38,9.85 18.57,9.75 18.78,9.72 18.99,9.68 19.20,9.71 19.41,9.75 19.60,9.85 19.78,9.95 19.93,10.10 20.08,10.25 20.17,10.44 20.26,10.64 20.28,10.85 20.31,11.06 20.26,11.27 20.22,11.47 20.22,11.47 20.22,11.47 19.44,14.42 18.67,17.36 17.16,21.89 15.66,26.42 12.64,28.26 9.61,30.09 6.21,29.31 2.80,28.53 0.14,25.50 -2.50,22.47 -4.43,16.71 -6.37,10.95 -5.92,5.37 -5.48,-0.19 -4.34,-5.73 -3.20,-11.26 -1.00,-14.89 1.19,-18.52 4.84,-18.46 8.49,-18.40 11.47,-15.29 14.45,-12.17 16.43,-7.75 18.41,-3.33 19.47,1.41 20.52,6.15 20.08,10.74 19.63,15.32 17.17,19.94 14.72,24.55 11.20,27.06 7.67,29.58 3.51,29.93 -0.65,30.28 -4.43,28.10 -8.20,25.91 -10.34,22.01 -12.47,18.10 -12.75,12.63 -13.03,7.16 -11.50,2.58 -9.98,-1.98 -7.16,-5.19 -4.34,-8.40 -0.78,-9.64 2.78,-10.89 6.67,-9.11 10.57,-7.34 12.40,-3.94 14.23,-0.55 15.20,3.29 16.17,7.14 16.26,11.15 16.35,15.16 15.16,19.21 13.97,23.26 10.99,27.62 8.02,31.98 4.91,32.96 1.81,33.94 -1.45,31.51 -4.72,29.08 -6.23,24.39 -7.73,19.70 -7.59,16.75 -7.45,13.80 -7.06,9.50 -6.66,5.20 -5.35,1.98 -4.04,-1.22 -2.28,-1.66 -0.52,-2.11 -0.26,-2.14 -0.00,-2.17 0.25,-2.14 0.51,-2.11 0.75,-2.02 1.00,-1.93 1.22,-1.78 1.43,-1.63 1.61,-1.43 1.78,-1.24 1.91,-1.01 2.03,-0.77 2.09,-0.52 2.16,-0.26 2.16,-0.00 2.16,0.25 2.10,0.51 2.03,0.76 1.91,0.99 1.79,1.23 1.62,1.42 1.44,1.62 1.23,1.77 1.01,1.92 0.77,2.01 0.52,2.11 0.52,2.11 L 0.52,2.11 Z"></path></g></svg>