<svg version="1.1" xmlns="http://www.w3.org/2000/svg" viewBox="0 0 537 521" width="537" height="521">
  <g transform="translate(101 17) rotate(0 167.5 243.5)" stroke="none"><path fill="#1e1e1e" d="M -0.99,-2.32 Q -0.99,-2.32 1.02,-3.20 3.03,-4.08 10.24,-5.17 17.44,-6.26 25.91,-6.97 34.37,-7.68 44.29,-8.27 54.21,-8.86 65.94,-9.12 77.67,-9.37 93.87,-9.47 110.07,-9.57 123.90,-9.05 137.74,-8.52 150.53,-7.72 163.31,-6.92 175.97,-5.71 188.62,-4.51 200.58,-3.43 212.55,-2.35 227.38,-1.32 242.22,-0.30 254.56,0.42 266.90,1.14 278.21,2.02 289.53,2.91 299.52,3.86 309.52,4.82 320.11,6.09 330.71,7.35 338.63,8.18 346.55,9.00 353.36,9.63 360.17,10.27 366.51,10.83 372.85,11.39 378.79,12.21 384.72,13.03 390.61,14.86 396.50,16.70 400.38,19.05 404.26,21.40 406.97,24.65 409.68,27.89 411.72,31.99 413.76,36.09 416.02,41.53 418.29,46.98 420.13,52.21 421.98,57.44 423.65,63.76 425.33,70.09 426.35,78.38 427.38,86.67 427.80,96.84 428.23,107.01 427.84,121.73 427.44,136.45 426.98,148.72 426.53,160.99 426.06,171.96 425.59,182.92 425.11,193.05 424.64,203.18 423.88,215.27 423.11,227.35 421.91,237.45 420.72,247.54 419.04,256.22 417.37,264.89 415.51,272.90 413.65,280.92 412.01,288.03 410.37,295.15 408.83,304.41 407.29,313.67 406.05,321.65 404.82,329.63 404.01,336.71 403.20,343.79 402.86,350.18 402.52,356.57 402.38,363.02 402.23,369.47 402.17,374.51 402.11,379.55 402.08,383.42 402.06,387.29 402.04,390.65 402.03,394.02 401.74,397.59 401.44,401.16 400.42,405.71 399.40,410.25 398.07,414.00 396.74,417.74 395.27,420.84 393.81,423.93 392.67,426.81 391.54,429.70 390.13,432.53 388.71,435.36 386.98,438.81 385.26,442.25 383.63,445.21 382.01,448.16 380.41,450.64 378.81,453.12 377.10,454.95 375.39,456.77 372.07,458.59 368.75,460.41 365.65,461.70 362.55,462.98 358.96,464.38 355.36,465.78 351.22,467.24 347.07,468.71 342.41,470.20 337.74,471.69 330.45,473.22 323.17,474.76 316.29,475.70 309.41,476.64 301.87,477.33 294.32,478.01 286.63,479.16 278.94,480.30 268.79,482.21 258.64,484.13 249.41,485.81 240.18,487.49 231.66,489.07 223.14,490.64 214.58,491.90 206.01,493.16 197.14,493.99 188.27,494.81 177.00,495.43 165.74,496.05 156.33,496.31 146.92,496.58 138.61,496.69 130.29,496.80 122.73,496.85 115.17,496.90 106.35,496.05 97.53,495.20 90.12,494.56 82.71,493.92 76.32,493.06 69.94,492.20 64.12,491.55 58.31,490.90 52.88,490.04 47.45,489.18 40.95,488.55 34.45,487.91 29.05,487.35 23.65,486.78 18.68,485.96 13.71,485.13 9.10,483.57 4.50,482.02 0.06,480.52 -4.37,479.02 -10.30,476.95 -16.24,474.87 -21.33,473.13 -26.42,471.39 -31.24,469.47 -36.06,467.55 -40.63,465.90 -45.19,464.25 -49.98,462.69 -54.77,461.14 -58.19,460.21 -61.62,459.27 -64.24,458.58 -66.86,457.89 -68.68,457.63 -70.50,457.36 -71.85,457.25 -73.19,457.13 -74.75,456.41 -76.32,455.68 -77.27,454.09 -78.22,452.49 -78.46,449.95 -78.71,447.40 -78.78,443.81 -78.85,440.23 -78.88,435.56 -78.91,430.89 -79.49,421.81 -80.08,412.73 -80.90,403.12 -81.72,393.50 -82.36,383.62 -83.00,373.75 -84.13,362.71 -85.26,351.68 -86.03,342.34 -86.80,333.00 -87.13,324.67 -87.46,316.34 -87.60,307.61 -87.74,298.89 -88.09,290.34 -88.44,281.80 -88.87,273.86 -89.30,265.92 -90.06,257.12 -90.81,248.32 -91.70,240.88 -92.60,233.43 -92.99,226.12 -93.38,218.80 -92.09,208.01 -90.81,197.22 -88.81,188.00 -86.80,178.79 -84.80,170.86 -82.80,162.93 -81.09,155.58 -79.39,148.24 -78.69,141.54 -78.00,134.84 -77.40,128.49 -76.81,122.14 -75.98,113.67 -75.15,105.21 -73.92,97.50 -72.69,89.80 -71.30,83.04 -69.91,76.29 -68.44,70.78 -66.98,65.26 -65.49,60.05 -64.01,54.84 -62.14,50.96 -60.27,47.08 -58.28,43.95 -56.29,40.82 -53.64,37.67 -50.98,34.52 -48.02,31.93 -45.06,29.35 -41.12,26.77 -37.19,24.18 -34.46,22.29 -31.74,20.41 -29.45,18.75 -27.15,17.09 -24.90,14.81 -22.66,12.53 -20.54,10.12 -18.42,7.71 -16.23,5.69 -14.05,3.67 -11.84,2.14 -9.64,0.62 -7.04,-0.40 -4.44,-1.43 -1.56,-2.15 1.31,-2.86 5.58,-3.18 9.84,-3.50 13.62,-3.62 17.40,-3.74 20.73,-3.79 24.06,-3.84 27.78,-3.85 31.50,-3.86 33.78,-3.97 36.06,-4.08 37.79,-4.15 39.51,-4.21 39.72,-4.26 39.92,-4.31 40.13,-4.28 40.35,-4.26 40.54,-4.17 40.73,-4.08 40.89,-3.94 41.04,-3.79 41.14,-3.60 41.24,-3.42 41.27,-3.21 41.31,-3.00 41.27,-2.79 41.24,-2.58 41.14,-2.39 41.04,-2.20 40.89,-2.05 40.73,-1.91 40.54,-1.82 40.35,-1.73 40.14,-1.71 39.92,-1.68 39.72,-1.73 39.51,-1.77 39.33,-1.88 39.15,-1.99 39.01,-2.16 38.87,-2.32 38.79,-2.51 38.71,-2.71 38.70,-2.92 38.69,-3.14 38.75,-3.34 38.80,-3.55 38.92,-3.72 39.04,-3.90 39.21,-4.03 39.38,-4.16 39.58,-4.22 39.78,-4.29 39.99,-4.29 40.21,-4.29 40.41,-4.22 40.61,-4.16 40.78,-4.03 40.95,-3.90 41.07,-3.72 41.19,-3.55 41.24,-3.34 41.30,-3.14 41.29,-2.93 41.28,-2.71 41.20,-2.52 41.12,-2.32 40.98,-2.16 40.85,-1.99 40.66,-1.88 40.48,-1.78 40.48,-1.78 40.48,-1.78 38.60,-0.40 36.72,0.96 34.13,1.44 31.54,1.92 27.84,1.95 24.15,1.99 20.87,2.04 17.59,2.09 13.92,2.21 10.25,2.33 6.47,2.57 2.69,2.82 0.16,3.42 -2.36,4.03 -4.36,4.75 -6.36,5.48 -8.22,6.73 -10.08,7.98 -12.05,9.79 -14.02,11.59 -16.26,14.13 -18.50,16.67 -21.10,19.26 -23.70,21.85 -26.05,23.54 -28.39,25.23 -31.19,27.17 -33.98,29.10 -37.60,31.45 -41.22,33.80 -43.86,36.06 -46.50,38.32 -48.92,41.16 -51.34,43.99 -53.16,46.83 -54.98,49.67 -56.67,53.07 -58.35,56.47 -59.82,61.63 -61.29,66.78 -62.73,72.13 -64.16,77.48 -65.52,84.10 -66.89,90.72 -68.09,98.25 -69.29,105.78 -70.12,114.24 -70.95,122.69 -71.54,129.07 -72.14,135.46 -72.90,142.51 -73.65,149.56 -75.37,156.97 -77.08,164.37 -79.06,172.21 -81.04,180.05 -83.00,188.99 -84.95,197.93 -86.22,208.22 -87.49,218.51 -87.11,225.62 -86.74,232.73 -85.84,240.27 -84.93,247.82 -84.17,256.71 -83.40,265.60 -82.97,273.58 -82.53,281.56 -82.18,290.18 -81.83,298.79 -81.70,307.45 -81.56,316.10 -81.24,324.31 -80.91,332.52 -80.15,341.80 -79.38,351.08 -78.24,362.22 -77.11,373.36 -76.47,383.18 -75.83,393.00 -75.00,402.68 -74.18,412.35 -73.58,421.60 -72.99,430.85 -72.96,435.48 -72.93,440.11 -72.87,443.54 -72.81,446.96 -72.71,449.10 -72.61,451.23 -71.12,451.36 -69.63,451.50 -67.49,451.82 -65.35,452.15 -62.70,452.85 -60.05,453.54 -56.49,454.52 -52.93,455.49 -48.05,457.08 -43.17,458.67 -38.52,460.35 -33.87,462.03 -29.18,463.90 -24.49,465.76 -19.38,467.51 -14.27,469.25 -8.37,471.33 -2.47,473.40 1.97,474.90 6.42,476.40 10.56,477.83 14.70,479.27 19.49,480.07 24.27,480.87 29.65,481.43 35.03,482.00 41.71,482.66 48.38,483.32 53.67,484.16 58.97,485.00 64.85,485.65 70.73,486.30 76.98,487.14 83.23,487.98 90.66,488.63 98.10,489.28 106.62,490.11 115.14,490.94 122.67,490.90 130.21,490.85 138.48,490.73 146.75,490.61 156.08,490.34 165.40,490.06 176.55,489.41 187.71,488.76 196.42,487.96 205.13,487.15 213.59,485.92 222.04,484.68 230.56,483.11 239.09,481.53 248.30,479.85 257.52,478.17 267.78,476.23 278.05,474.29 285.91,473.13 293.77,471.97 301.18,471.30 308.60,470.63 315.26,469.73 321.93,468.82 328.91,467.37 335.90,465.92 340.47,464.46 345.05,462.99 349.11,461.56 353.17,460.12 356.70,458.75 360.24,457.38 363.09,456.20 365.95,455.03 368.52,453.78 371.09,452.52 372.41,451.17 373.74,449.82 375.22,447.53 376.70,445.24 378.27,442.39 379.84,439.54 381.57,436.09 383.31,432.64 384.61,430.06 385.92,427.48 387.13,424.40 388.34,421.33 389.69,418.51 391.04,415.70 392.28,412.30 393.51,408.91 394.46,404.77 395.42,400.64 395.70,397.32 395.99,394.00 396.00,390.62 396.01,387.25 396.04,383.36 396.07,379.48 396.13,374.40 396.19,369.33 396.34,362.79 396.49,356.25 396.84,349.68 397.19,343.10 398.02,335.90 398.84,328.71 400.08,320.69 401.33,312.67 402.92,303.23 404.50,293.79 406.17,286.68 407.83,279.56 409.67,271.66 411.52,263.76 413.16,255.30 414.81,246.84 416.00,236.90 417.20,226.97 418.00,214.93 418.80,202.89 419.32,192.78 419.83,182.67 420.32,171.72 420.81,160.78 421.27,148.54 421.73,136.30 422.13,121.77 422.53,107.25 422.12,97.30 421.71,87.36 420.77,79.44 419.83,71.52 418.25,65.41 416.66,59.30 414.88,54.22 413.10,49.14 410.90,43.84 408.70,38.55 407.00,34.97 405.29,31.39 403.26,28.74 401.23,26.10 398.00,24.06 394.78,22.02 389.36,20.29 383.94,18.56 378.15,17.76 372.36,16.95 366.00,16.39 359.65,15.83 352.81,15.19 345.97,14.55 338.01,13.72 330.05,12.89 319.52,11.63 308.99,10.36 299.04,9.41 289.09,8.47 277.83,7.58 266.57,6.70 254.20,5.97 241.83,5.23 226.94,4.18 212.05,3.14 200.07,2.04 188.10,0.95 175.53,-0.24 162.97,-1.44 150.25,-2.24 137.53,-3.04 123.81,-3.57 110.10,-4.11 93.94,-4.00 77.79,-3.89 66.16,-3.65 54.53,-3.41 44.67,-2.84 34.81,-2.28 26.49,-1.61 18.17,-0.94 11.59,-0.15 5.01,0.63 3.00,1.48 0.99,2.32 0.70,2.41 0.41,2.49 0.10,2.51 -0.19,2.52 -0.49,2.46 -0.79,2.40 -1.07,2.27 -1.34,2.14 -1.58,1.95 -1.82,1.75 -2.00,1.51 -2.18,1.27 -2.31,0.98 -2.43,0.70 -2.47,0.40 -2.52,0.10 -2.50,-0.19 -2.48,-0.50 -2.38,-0.79 -2.28,-1.08 -2.12,-1.33 -1.96,-1.59 -1.74,-1.80 -1.52,-2.02 -1.26,-2.17 -0.99,-2.32 -0.99,-2.32 L -0.99,-2.32 Z"></path></g><g transform="translate(243 151) rotate(0 25 105.5)" stroke="none"><path fill="#1e1e1e" d="M -0.20,2.23 Q -0.20,2.23 -3.36,1.95 -6.52,1.67 -10.11,1.60 -13.69,1.54 -17.70,1.80 -21.71,2.06 -26.83,4.17 -31.94,6.28 -36.98,9.12 -42.02,11.96 -46.89,16.21 -51.77,20.46 -57.26,26.79 -62.75,33.12 -68.49,41.77 -74.23,50.42 -79.17,61.18 -84.12,71.94 -87.51,88.68 -90.91,105.43 -90.65,120.37 -90.39,135.32 -85.53,148.20 -80.68,161.09 -67.66,174.07 -54.63,187.05 -40.87,196.02 -27.11,205.00 -13.08,210.49 0.93,215.97 15.39,218.86 29.84,221.75 43.02,222.12 56.20,222.50 67.55,219.84 78.90,217.19 90.59,208.78 102.28,200.38 110.92,189.79 119.55,179.20 125.75,166.53 131.95,153.86 136.00,138.85 140.05,123.84 140.35,103.33 140.65,82.83 136.36,66.27 132.07,49.72 123.55,36.82 115.03,23.92 102.70,14.78 90.37,5.65 75.50,-0.62 60.64,-6.89 49.56,-11.83 38.49,-16.78 38.31,-16.89 38.13,-17.01 38.00,-17.17 37.86,-17.33 37.78,-17.53 37.71,-17.73 37.70,-17.94 37.69,-18.15 37.75,-18.36 37.81,-18.56 37.93,-18.74 38.05,-18.91 38.22,-19.04 38.40,-19.16 38.60,-19.23 38.80,-19.29 39.01,-19.29 39.23,-19.29 39.43,-19.22 39.63,-19.15 39.79,-19.02 39.96,-18.88 40.08,-18.71 40.19,-18.53 40.25,-18.32 40.30,-18.12 40.29,-17.91 40.27,-17.70 40.19,-17.50 40.11,-17.30 39.97,-17.14 39.83,-16.98 39.65,-16.88 39.46,-16.77 39.26,-16.73 39.05,-16.68 38.84,-16.71 38.63,-16.73 38.43,-16.83 38.24,-16.92 38.09,-17.07 37.94,-17.21 37.84,-17.40 37.74,-17.59 37.71,-17.80 37.68,-18.01 37.72,-18.22 37.76,-18.43 37.86,-18.62 37.96,-18.80 38.12,-18.95 38.27,-19.09 38.47,-19.18 38.66,-19.27 38.87,-19.29 39.08,-19.31 39.29,-19.26 39.50,-19.21 39.50,-19.21 39.50,-19.21 50.82,-14.88 62.15,-10.54 77.58,-4.26 93.02,2.02 105.99,11.60 118.97,21.18 128.04,34.74 137.11,48.29 141.75,65.58 146.38,82.86 146.03,104.09 145.68,125.32 141.44,140.87 137.19,156.42 130.64,169.65 124.08,182.88 114.89,193.99 105.70,205.11 93.03,213.96 80.36,222.80 68.22,225.56 56.07,228.32 42.39,227.90 28.70,227.47 13.76,224.44 -1.18,221.40 -15.73,215.64 -30.27,209.88 -44.51,200.52 -58.75,191.16 -72.38,177.23 -86.01,163.30 -91.10,149.40 -96.19,135.51 -96.33,119.90 -96.47,104.29 -92.68,87.02 -88.89,69.76 -83.70,58.68 -78.51,47.59 -72.58,38.67 -66.64,29.75 -60.91,23.14 -55.17,16.53 -49.87,11.98 -44.57,7.43 -39.18,4.45 -33.80,1.47 -27.93,-0.64 -22.05,-2.75 -17.79,-2.96 -13.53,-3.18 -9.82,-3.00 -6.12,-2.82 -2.95,-2.53 0.20,-2.23 0.46,-2.18 0.73,-2.12 0.97,-2.00 1.22,-1.88 1.42,-1.71 1.63,-1.54 1.79,-1.32 1.95,-1.10 2.06,-0.85 2.16,-0.60 2.20,-0.33 2.24,-0.06 2.22,0.20 2.19,0.47 2.10,0.72 2.02,0.98 1.87,1.21 1.72,1.43 1.52,1.62 1.33,1.81 1.09,1.94 0.85,2.07 0.59,2.14 0.33,2.22 0.06,2.22 -0.20,2.23 -0.20,2.23 L -0.20,2.23 Z"></path></g><g transform="translate(428 99) rotate(0 -5 8.5)" stroke="none"><path fill="#1e1e1e" d="M -0.71,2.37 Q -0.71,2.37 -3.61,1.59 -6.50,0.81 -8.94,0.55 -11.38,0.29 -14.02,1.02 -16.65,1.75 -18.30,2.94 -19.95,4.13 -20.42,5.25 -20.88,6.36 -19.87,7.81 -18.85,9.25 -16.47,11.20 -14.08,13.14 -10.39,14.80 -6.70,16.47 -1.78,17.75 3.13,19.04 6.31,19.61 9.50,20.17 9.04,17.16 8.59,14.15 6.66,11.62 4.72,9.09 2.18,6.23 -0.35,3.38 -2.53,1.35 -4.70,-0.66 -5.83,-1.67 -6.96,-2.69 -7.88,-2.32 -8.80,-1.96 -8.91,-2.07 -9.02,-2.18 -9.11,-2.31 -9.19,-2.45 -9.24,-2.60 -9.29,-2.75 -9.30,-2.91 -9.31,-3.07 -9.28,-3.22 -9.25,-3.38 -9.19,-3.52 -9.12,-3.67 -9.03,-3.79 -8.93,-3.92 -8.81,-4.02 -8.68,-4.11 -8.54,-4.18 -8.39,-4.25 -8.24,-4.28 -8.08,-4.31 -7.92,-4.30 -7.77,-4.29 -7.62,-4.24 -7.46,-4.20 -7.33,-4.12 -7.19,-4.03 -7.12,-3.06 -7.04,-2.09 -7.21,-1.97 -7.38,-1.84 -7.58,-1.77 -7.78,-1.70 -7.99,-1.70 -8.20,-1.70 -8.41,-1.77 -8.61,-1.83 -8.78,-1.96 -8.95,-2.09 -9.07,-2.27 -9.19,-2.44 -9.24,-2.65 -9.30,-2.85 -9.29,-3.06 -9.28,-3.27 -9.20,-3.47 -9.12,-3.67 -8.98,-3.83 -8.85,-3.99 -8.67,-4.10 -8.48,-4.21 -8.28,-4.26 -8.07,-4.31 -7.86,-4.28 -7.65,-4.26 -7.45,-4.17 -7.26,-4.08 -7.11,-3.94 -6.95,-3.79 -6.85,-3.60 -6.75,-3.42 -6.72,-3.21 -6.68,-3.00 -6.72,-2.79 -6.75,-2.58 -6.85,-2.39 -6.95,-2.20 -7.10,-2.06 -7.26,-1.91 -7.45,-1.82 -7.64,-1.73 -7.85,-1.71 -8.06,-1.68 -8.27,-1.73 -8.48,-1.77 -8.66,-1.88 -8.84,-1.99 -8.98,-2.15 -9.12,-2.32 -9.20,-2.51 -9.28,-2.71 -9.29,-2.92 -9.30,-3.13 -9.24,-3.34 -9.19,-3.54 -8.99,-2.75 -8.80,-1.96 -8.91,-2.07 -9.02,-2.18 -9.11,-2.31 -9.19,-2.45 -9.24,-2.60 -9.29,-2.75 -9.30,-2.91 -9.31,-3.07 -9.28,-3.22 -9.25,-3.38 -9.19,-3.52 -9.12,-3.67 -9.03,-3.79 -8.93,-3.92 -8.81,-4.02 -8.68,-4.11 -8.54,-4.18 -8.39,-4.25 -8.24,-4.28 -8.08,-4.31 -7.92,-4.30 -7.77,-4.29 -7.62,-4.24 -7.46,-4.20 -7.33,-4.12 -7.19,-4.03 -5.84,-5.91 -4.48,-7.79 -2.53,-6.42 -0.59,-5.05 1.77,-2.83 4.14,-0.61 6.86,2.45 9.58,5.53 11.91,8.83 14.25,12.13 15.26,15.66 16.26,19.18 15.35,21.64 14.43,24.09 11.51,25.09 8.60,26.09 5.09,25.48 1.58,24.87 -3.82,23.40 -9.24,21.93 -13.63,19.82 -18.02,17.70 -21.11,14.80 -24.21,11.91 -25.28,8.73 -26.35,5.56 -24.94,2.56 -23.54,-0.42 -20.79,-2.13 -18.05,-3.84 -14.40,-4.52 -10.75,-5.21 -7.87,-4.73 -4.99,-4.26 -2.13,-3.32 0.71,-2.37 0.98,-2.25 1.26,-2.13 1.50,-1.95 1.73,-1.77 1.92,-1.54 2.11,-1.30 2.23,-1.03 2.36,-0.76 2.42,-0.47 2.47,-0.17 2.46,0.12 2.44,0.42 2.36,0.70 2.27,0.99 2.12,1.25 1.97,1.51 1.76,1.72 1.55,1.93 1.29,2.09 1.04,2.25 0.75,2.34 0.47,2.43 0.17,2.46 -0.12,2.48 -0.41,2.43 -0.71,2.37 -0.71,2.37 L -0.71,2.37 Z"></path></g></svg>