<svg version="1.1" xmlns="http://www.w3.org/2000/svg" viewBox="0 0 862 743" width="862" height="743">
  <g transform="translate(355 45) rotate(0 76 326.5)" stroke="none"><path fill="#1e1e1e" d="M -0.30,2.93 Q -0.30,2.93 -5.76,2.36 -11.22,1.80 -31.11,3.28 -50.99,4.76 -72.05,8.54 -93.11,12.31 -121.14,22.49 -149.17,32.68 -173.91,46.15 -198.65,59.63 -221.08,77.64 -243.51,95.64 -263.28,118.40 -283.05,141.15 -298.21,169.31 -313.38,197.47 -321.49,230.73 -329.61,263.99 -326.75,311.46 -323.88,358.93 -313.25,398.81 -302.62,438.70 -286.68,472.47 -270.74,506.24 -243.42,540.51 -216.10,574.79 -188.26,597.88 -160.41,620.97 -130.94,636.44 -101.46,651.91 -70.14,661.03 -38.82,670.15 -6.08,674.31 26.64,678.48 59.13,678.24 91.61,678.01 131.62,669.33 171.64,660.65 205.50,647.53 239.37,634.41 270.02,616.55 300.67,598.69 328.89,577.66 357.10,556.63 386.53,527.67 415.95,498.70 435.54,472.16 455.13,445.61 466.22,418.22 477.31,390.83 480.86,360.76 484.41,330.70 480.51,298.00 476.60,265.30 461.80,226.02 447.00,186.75 428.14,156.68 409.29,126.62 387.59,103.34 365.89,80.06 341.85,61.62 317.81,43.19 283.92,26.54 250.02,9.88 219.31,-0.63 188.60,-11.15 160.72,-17.08 132.84,-23.00 109.00,-25.59 85.17,-28.18 67.13,-27.72 49.08,-27.25 38.32,-25.48 27.55,-23.71 19.39,-22.71 11.23,-21.70 11.02,-21.70 10.81,-21.70 10.60,-21.76 10.40,-21.82 10.23,-21.95 10.06,-22.07 9.94,-22.25 9.81,-22.42 9.75,-22.62 9.69,-22.83 9.70,-23.04 9.71,-23.25 9.78,-23.45 9.86,-23.65 9.99,-23.82 10.13,-23.98 10.31,-24.09 10.49,-24.21 10.69,-24.26 10.90,-24.30 11.11,-24.29 11.32,-24.27 11.52,-24.18 11.71,-24.10 11.87,-23.95 12.03,-23.81 12.13,-23.62 12.23,-23.44 12.27,-23.23 12.31,-23.02 12.28,-22.81 12.25,-22.60 12.15,-22.41 12.06,-22.22 11.90,-22.07 11.75,-21.92 11.56,-21.83 11.37,-21.74 11.16,-21.71 10.95,-21.68 10.74,-21.72 10.53,-21.77 10.35,-21.87 10.16,-21.98 10.02,-22.14 9.88,-22.30 9.80,-22.49 9.72,-22.69 9.70,-22.90 9.69,-23.11 9.74,-23.32 9.79,-23.52 9.91,-23.70 10.02,-23.88 10.19,-24.01 10.36,-24.14 10.56,-24.22 10.76,-24.29 10.76,-24.29 10.76,-24.29 18.74,-26.24 26.73,-28.20 37.80,-30.43 48.88,-32.66 67.34,-33.50 85.81,-34.34 110.00,-31.88 134.19,-29.41 162.48,-23.45 190.77,-17.49 221.87,-6.81 252.98,3.87 287.42,20.87 321.86,37.88 346.30,56.71 370.74,75.53 392.78,99.34 414.81,123.14 433.91,153.80 453.01,184.46 467.99,224.48 482.96,264.50 486.89,297.96 490.81,331.42 487.08,362.32 483.35,393.22 471.89,421.34 460.43,449.46 440.49,476.41 420.55,503.36 390.79,532.62 361.03,561.89 332.52,583.16 304.01,604.43 272.89,622.51 241.77,640.59 207.41,653.85 173.05,667.12 132.37,675.88 91.68,684.63 58.75,684.84 25.81,685.05 -7.42,680.78 -40.66,676.51 -72.59,667.14 -104.52,657.77 -134.56,641.91 -164.60,626.05 -192.92,602.48 -221.24,578.91 -248.96,543.99 -276.67,509.08 -292.81,474.74 -308.95,440.40 -319.69,399.87 -330.42,359.33 -333.18,310.93 -335.94,262.52 -327.52,228.48 -319.09,194.44 -303.47,165.73 -287.84,137.02 -267.63,113.90 -247.42,90.77 -224.49,72.54 -201.56,54.30 -176.39,40.67 -151.22,27.05 -122.69,16.76 -94.17,6.47 -72.80,2.66 -51.43,-1.14 -31.03,-2.62 -10.62,-4.10 -5.15,-3.51 0.30,-2.93 0.65,-2.85 1.00,-2.77 1.32,-2.61 1.63,-2.45 1.90,-2.22 2.17,-1.99 2.38,-1.70 2.59,-1.41 2.72,-1.08 2.85,-0.75 2.90,-0.39 2.95,-0.04 2.91,0.30 2.87,0.66 2.75,0.99 2.63,1.33 2.43,1.62 2.24,1.92 1.97,2.16 1.71,2.40 1.40,2.57 1.09,2.74 0.74,2.83 0.40,2.92 0.04,2.93 -0.30,2.93 -0.30,2.93 L -0.30,2.93 Z"></path></g><g transform="translate(214 307) rotate(0 -22.5 66.5)" stroke="none"><path fill="#1e1e1e" d="M 0,2.87 Q 0,2.87 -2.58,2.87 -5.17,2.88 -12.59,2.89 -20.02,2.89 -29.61,4.05 -39.20,5.21 -49.38,8.52 -59.56,11.83 -70.17,19.44 -80.77,27.04 -86.46,36.20 -92.15,45.36 -93.09,56.21 -94.02,67.07 -89.78,77.84 -85.53,88.60 -72.05,99.51 -58.56,110.41 -43.62,115.90 -28.68,121.38 -13.75,121.72 1.17,122.05 14.11,118.01 27.04,113.97 35.29,107.54 43.53,101.11 45.46,90.13 47.39,79.15 43.32,68.56 39.24,57.97 30.60,48.76 21.96,39.54 11.11,33.72 0.25,27.89 -13.74,26.60 -27.75,25.31 -38.14,26.94 -48.54,28.56 -55.15,31.26 -61.76,33.95 -64.63,35.52 -67.51,37.08 -69.90,38.09 -72.29,39.10 -72.49,39.19 -72.68,39.27 -72.89,39.29 -73.11,39.30 -73.31,39.25 -73.52,39.20 -73.70,39.08 -73.88,38.97 -74.01,38.80 -74.14,38.64 -74.21,38.44 -74.29,38.24 -74.29,38.03 -74.30,37.81 -74.23,37.61 -74.17,37.41 -74.04,37.23 -73.92,37.06 -73.75,36.94 -73.57,36.82 -73.37,36.75 -73.17,36.69 -72.96,36.70 -72.74,36.71 -72.54,36.78 -72.34,36.85 -72.18,36.99 -72.01,37.12 -71.90,37.30 -71.79,37.48 -71.74,37.69 -71.69,37.89 -71.70,38.11 -71.72,38.32 -71.81,38.51 -71.89,38.71 -72.03,38.86 -72.18,39.02 -72.36,39.13 -72.55,39.23 -72.76,39.27 -72.96,39.31 -73.17,39.28 -73.39,39.25 -73.58,39.15 -73.77,39.06 -73.91,38.91 -74.06,38.76 -74.16,38.57 -74.25,38.38 -74.28,38.16 -74.31,37.95 -74.27,37.75 -74.23,37.54 -74.12,37.35 -74.02,37.17 -73.86,37.03 -73.70,36.89 -73.70,36.89 -73.70,36.89 -71.76,35.15 -69.83,33.42 -66.85,31.28 -63.87,29.13 -56.71,25.80 -49.54,22.46 -38.35,20.73 -27.16,18.99 -12.03,20.63 3.10,22.26 14.82,28.72 26.53,35.18 35.82,45.40 45.10,55.62 49.39,67.76 53.68,79.89 50.93,92.63 48.18,105.36 38.65,112.79 29.12,120.22 15.11,124.44 1.10,128.65 -14.88,128.12 -30.88,127.59 -46.76,121.57 -62.65,115.55 -77.04,103.43 -91.43,91.31 -95.97,79.02 -100.51,66.73 -99.10,54.46 -97.69,42.19 -91.10,32.11 -84.51,22.02 -72.98,14.12 -61.45,6.21 -50.68,2.80 -39.91,-0.61 -29.97,-1.75 -20.02,-2.89 -12.60,-2.89 -5.17,-2.88 -2.58,-2.87 0,-2.87 0.34,-2.83 0.68,-2.78 1.01,-2.66 1.33,-2.54 1.61,-2.34 1.90,-2.15 2.13,-1.89 2.36,-1.63 2.52,-1.32 2.68,-1.01 2.76,-0.68 2.85,-0.34 2.85,0.00 2.85,0.34 2.76,0.68 2.68,1.01 2.52,1.32 2.36,1.63 2.13,1.89 1.90,2.15 1.61,2.34 1.33,2.54 1.01,2.66 0.68,2.78 0.34,2.83 -0.00,2.87 -0.00,2.87 L 0,2.87 Z"></path></g><g transform="translate(430 300) rotate(0 -85 46.5)" stroke="none"><path fill="#1e1e1e" d="M -1.31,2.89 Q -1.31,2.89 -7.62,0.01 -13.93,-2.86 -26.60,-5.13 -39.28,-7.39 -53.50,-7.80 -67.72,-8.20 -82.24,-6.37 -96.77,-4.53 -110.00,-0.88 -123.23,2.76 -132.65,6.75 -142.07,10.73 -144.70,12.66 -147.32,14.59 -142.33,18.75 -137.34,22.91 -125.59,27.39 -113.84,31.87 -97.80,37.32 -81.75,42.77 -61.88,50.91 -42.01,59.04 -29.19,65.46 -16.36,71.88 -10.37,78.57 -4.39,85.26 -6.49,90.61 -8.60,95.96 -16.96,99.94 -25.32,103.91 -43.15,105.79 -60.98,107.66 -78.58,107.85 -96.17,108.04 -112.11,106.37 -128.05,104.70 -140.18,101.59 -152.31,98.48 -158.14,93.67 -163.97,88.87 -167.87,85.46 -171.78,82.05 -171.92,81.90 -172.07,81.75 -172.16,81.56 -172.26,81.36 -172.28,81.15 -172.31,80.94 -172.26,80.73 -172.22,80.53 -172.11,80.34 -172.01,80.16 -171.85,80.02 -171.69,79.88 -171.49,79.80 -171.29,79.72 -171.08,79.70 -170.87,79.69 -170.67,79.74 -170.46,79.80 -170.28,79.91 -170.10,80.03 -169.97,80.20 -169.84,80.36 -169.77,80.56 -169.70,80.76 -169.70,80.98 -169.70,81.19 -169.76,81.39 -169.83,81.59 -169.95,81.77 -170.08,81.94 -170.25,82.06 -170.43,82.18 -170.63,82.24 -170.84,82.30 -171.05,82.29 -171.26,82.28 -171.46,82.21 -171.66,82.13 -171.82,81.99 -171.98,81.86 -172.10,81.68 -172.21,81.50 -172.26,81.29 -172.31,81.08 -172.29,80.87 -172.27,80.66 -172.18,80.47 -172.09,80.27 -171.95,80.12 -171.80,79.96 -171.62,79.86 -171.43,79.76 -171.22,79.72 -171.01,79.68 -170.80,79.71 -170.59,79.74 -170.40,79.84 -170.21,79.94 -170.21,79.94 -170.21,79.94 -165.81,82.67 -161.40,85.40 -155.99,88.90 -150.59,92.40 -138.97,95.30 -127.36,98.20 -111.79,99.85 -96.23,101.49 -78.92,101.37 -61.61,101.25 -44.67,99.69 -27.74,98.12 -20.58,95.36 -13.43,92.61 -11.51,88.88 -9.59,85.16 -14.41,81.31 -19.24,77.47 -31.86,71.27 -44.48,65.07 -64.18,57.06 -83.88,49.04 -100.06,43.54 -116.25,38.05 -128.92,33.00 -141.59,27.96 -146.71,23.26 -151.82,18.55 -148.46,11.78 -145.10,5.02 -135.03,0.73 -124.95,-3.55 -111.26,-7.21 -97.56,-10.87 -82.55,-12.69 -67.54,-14.51 -52.85,-14.05 -38.16,-13.59 -24.76,-11.11 -11.36,-8.63 -5.02,-5.76 1.31,-2.89 1.64,-2.69 1.97,-2.49 2.24,-2.22 2.51,-1.95 2.70,-1.62 2.90,-1.29 3.01,-0.92 3.13,-0.56 3.15,-0.17 3.17,0.20 3.10,0.58 3.03,0.95 2.87,1.30 2.71,1.65 2.47,1.95 2.24,2.25 1.93,2.49 1.63,2.72 1.28,2.88 0.93,3.04 0.55,3.10 0.18,3.17 -0.20,3.15 -0.58,3.12 -0.95,3.01 -1.31,2.89 -1.31,2.89 L -1.31,2.89 Z"></path></g><g transform="translate(457 309) rotate(0 47 50)" stroke="none"><path fill="#1e1e1e" d="M 2.46,1.84 Q 2.46,1.84 0.77,4.10 -0.90,6.36 -2.23,13.11 -3.56,19.86 -3.83,29.01 -4.10,38.16 -1.70,48.03 0.68,57.90 6.06,66.35 11.43,74.80 22.21,81.28 32.99,87.76 43.52,89.65 54.04,91.54 63.52,89.03 73.00,86.51 79.88,81.15 86.76,75.80 90.34,68.61 93.92,61.41 92.40,49.68 90.88,37.95 87.27,28.99 83.67,20.04 79.45,14.69 75.23,9.34 72.29,7.06 69.34,4.78 67.28,2.42 65.22,0.06 65.07,-0.08 64.92,-0.23 64.83,-0.42 64.74,-0.62 64.71,-0.83 64.68,-1.04 64.72,-1.25 64.76,-1.45 64.87,-1.64 64.98,-1.82 65.13,-1.96 65.29,-2.10 65.49,-2.19 65.68,-2.27 65.90,-2.29 66.11,-2.30 66.31,-2.25 66.52,-2.20 66.70,-2.08 66.88,-1.97 67.01,-1.80 67.14,-1.64 67.21,-1.44 67.29,-1.24 67.29,-1.02 67.30,-0.81 67.23,-0.61 67.17,-0.41 67.04,-0.23 66.92,-0.06 66.75,0.05 66.57,0.17 66.37,0.24 66.17,0.30 65.95,0.29 65.74,0.28 65.54,0.21 65.34,0.14 65.18,0.00 65.01,-0.12 64.90,-0.30 64.79,-0.48 64.74,-0.69 64.69,-0.89 64.70,-1.11 64.72,-1.32 64.81,-1.51 64.89,-1.71 65.03,-1.87 65.18,-2.02 65.36,-2.13 65.55,-2.23 65.76,-2.27 65.97,-2.31 66.18,-2.28 66.39,-2.25 66.58,-2.15 66.77,-2.06 66.77,-2.06 66.77,-2.06 69.65,-0.84 72.53,0.38 76.27,2.94 80.00,5.51 84.74,11.57 89.48,17.62 93.43,27.38 97.37,37.14 98.74,50.51 100.10,63.87 95.59,72.44 91.07,81.00 82.96,87.02 74.86,93.03 63.95,95.63 53.04,98.23 41.31,95.91 29.58,93.59 17.75,86.10 5.92,78.61 0.03,69.08 -5.84,59.55 -8.29,48.75 -10.73,37.95 -10.22,28.24 -9.71,18.54 -7.85,10.69 -5.99,2.83 -4.22,0.49 -2.46,-1.84 -2.20,-2.11 -1.95,-2.38 -1.63,-2.58 -1.32,-2.78 -0.97,-2.90 -0.61,-3.01 -0.24,-3.04 0.12,-3.07 0.48,-3.01 0.85,-2.96 1.19,-2.81 1.53,-2.67 1.83,-2.44 2.13,-2.22 2.36,-1.93 2.60,-1.64 2.76,-1.31 2.92,-0.97 2.99,-0.61 3.07,-0.25 3.05,0.12 3.04,0.49 2.93,0.84 2.83,1.20 2.65,1.52 2.46,1.84 2.46,1.84 L 2.46,1.84 Z"></path></g><g transform="translate(639 201) rotate(0 -2.5 84)" stroke="none"><path fill="#1e1e1e" d="M 1.96,1.71 Q 1.96,1.71 0.18,4.02 -1.58,6.32 -2.42,15.52 -3.25,24.73 -3.07,37.94 -2.89,51.16 -1.95,66.83 -1.00,82.51 -0.05,97.53 0.90,112.56 1.85,124.96 2.80,137.37 3.40,146.09 4.00,154.81 4.15,161.33 4.30,167.85 4.29,168.06 4.28,168.27 4.20,168.47 4.12,168.67 3.99,168.83 3.85,168.99 3.67,169.10 3.49,169.21 3.28,169.26 3.07,169.31 2.86,169.28 2.65,169.26 2.46,169.17 2.26,169.09 2.11,168.94 1.95,168.79 1.85,168.61 1.75,168.42 1.72,168.21 1.68,168.00 1.72,167.79 1.75,167.58 1.85,167.39 1.95,167.21 2.10,167.06 2.25,166.91 2.45,166.82 2.64,166.73 2.85,166.71 3.06,166.68 3.27,166.73 3.48,166.77 3.66,166.88 3.84,166.99 3.98,167.15 4.12,167.31 4.20,167.51 4.28,167.71 4.29,167.92 4.30,168.13 4.25,168.34 4.19,168.54 4.07,168.72 3.95,168.89 3.78,169.02 3.62,169.15 3.41,169.22 3.21,169.29 3.00,169.29 2.79,169.29 2.59,169.23 2.39,169.16 2.22,169.03 2.05,168.90 1.93,168.73 1.81,168.55 1.75,168.35 1.69,168.14 1.69,168.14 1.69,168.14 0.37,161.76 -0.93,155.37 -2.32,146.62 -3.70,137.88 -4.72,125.43 -5.73,112.98 -6.69,97.94 -7.65,82.89 -8.51,67.05 -9.36,51.20 -9.36,37.61 -9.36,24.02 -7.91,13.45 -6.46,2.87 -4.21,0.57 -1.96,-1.71 -1.72,-1.92 -1.49,-2.13 -1.21,-2.28 -0.93,-2.43 -0.63,-2.50 -0.33,-2.58 -0.01,-2.58 0.29,-2.58 0.60,-2.51 0.90,-2.44 1.18,-2.29 1.46,-2.15 1.70,-1.94 1.94,-1.74 2.12,-1.48 2.30,-1.22 2.41,-0.93 2.52,-0.63 2.56,-0.32 2.60,-0.01 2.57,0.29 2.53,0.60 2.42,0.90 2.31,1.19 2.13,1.45 1.96,1.71 1.96,1.71 L 1.96,1.71 Z"></path></g><g transform="translate(649 437) rotate(0 7 -10)" stroke="none"><path fill="#1e1e1e" d="M 0.55,-2.95 Q 0.55,-2.95 5.08,-2.05 9.62,-1.14 15.60,-2.76 21.58,-4.39 25.42,-6.34 29.26,-8.29 30.60,-9.77 31.94,-11.25 30.02,-13.49 28.09,-15.74 23.79,-16.84 19.49,-17.94 11.32,-16.98 3.15,-16.02 -3.13,-14.26 -9.42,-12.50 -12.59,-10.91 -15.75,-9.33 -14.36,-7.90 -12.98,-6.48 -11.57,-4.75 -10.17,-3.02 -10.03,-2.86 -9.89,-2.70 -9.80,-2.50 -9.72,-2.31 -9.70,-2.09 -9.69,-1.88 -9.74,-1.68 -9.79,-1.47 -9.91,-1.29 -10.02,-1.11 -10.19,-0.98 -10.35,-0.85 -10.55,-0.78 -10.75,-0.70 -10.97,-0.70 -11.18,-0.69 -11.38,-0.76 -11.58,-0.82 -11.76,-0.95 -11.93,-1.07 -12.05,-1.24 -12.17,-1.42 -12.24,-1.62 -12.30,-1.82 -12.29,-2.04 -12.28,-2.25 -12.21,-2.45 -12.14,-2.65 -12.00,-2.81 -11.87,-2.98 -11.69,-3.09 -11.51,-3.20 -11.30,-3.25 -11.10,-3.30 -10.88,-3.29 -10.67,-3.27 -10.48,-3.18 -10.28,-3.10 -10.13,-2.96 -9.97,-2.81 -9.86,-2.63 -9.76,-2.44 -9.72,-2.23 -9.68,-2.02 -9.71,-1.81 -9.74,-1.60 -9.84,-1.41 -9.93,-1.22 -10.08,-1.07 -10.23,-0.92 -10.42,-0.83 -10.62,-0.74 -10.83,-0.71 -11.04,-0.68 -11.25,-0.72 -11.45,-0.76 -11.64,-0.87 -11.82,-0.98 -11.82,-0.98 -11.82,-0.97 -13.81,-1.99 -15.79,-3.01 -18.49,-5.04 -21.19,-7.07 -20.31,-10.68 -19.43,-14.29 -15.28,-16.50 -11.13,-18.72 -4.27,-20.50 2.57,-22.28 11.81,-22.87 21.05,-23.47 26.60,-21.48 32.14,-19.48 34.44,-15.79 36.74,-12.11 34.49,-7.75 32.25,-3.38 27.64,-1.06 23.03,1.26 15.90,2.92 8.77,4.59 4.11,3.77 -0.55,2.95 -0.90,2.84 -1.24,2.74 -1.55,2.55 -1.86,2.36 -2.12,2.10 -2.37,1.84 -2.56,1.53 -2.75,1.22 -2.85,0.87 -2.96,0.53 -2.98,0.16 -3.00,-0.19 -2.93,-0.55 -2.87,-0.90 -2.72,-1.23 -2.57,-1.56 -2.34,-1.85 -2.12,-2.13 -1.83,-2.36 -1.54,-2.58 -1.21,-2.73 -0.88,-2.87 -0.52,-2.94 -0.16,-3.00 0.19,-2.98 0.55,-2.95 0.55,-2.95 L 0.55,-2.95 Z"></path></g></svg>