<svg version="1.1" xmlns="http://www.w3.org/2000/svg" viewBox="0 0 1142 669" width="1142" height="669">
  <g transform="translate(107 15) rotate(0 376.5 8.5)" stroke="none"><path fill="#1e1e1e" d="M -0.41,-2.49 Q -0.41,-2.49 4.75,-3.37 9.92,-4.26 27.50,-5.25 45.08,-6.24 73.24,-6.65 101.40,-7.05 138.97,-6.65 176.54,-6.24 221.83,-5.30 267.13,-4.36 332.69,-1.75 398.25,0.86 454.30,4.02 510.35,7.19 557.17,9.98 603.98,12.78 639.09,14.68 674.20,16.57 696.86,17.74 719.51,18.91 736.28,19.80 753.04,20.68 753.25,20.72 753.46,20.76 753.64,20.87 753.82,20.98 753.96,21.14 754.11,21.29 754.19,21.49 754.27,21.69 754.29,21.90 754.30,22.11 754.25,22.32 754.20,22.52 754.08,22.70 753.97,22.88 753.80,23.01 753.63,23.14 753.43,23.21 753.23,23.29 753.02,23.29 752.81,23.30 752.61,23.23 752.40,23.17 752.23,23.04 752.06,22.92 751.94,22.74 751.81,22.57 751.75,22.37 751.69,22.16 751.70,21.95 751.71,21.74 751.78,21.54 751.86,21.34 751.99,21.18 752.12,21.01 752.30,20.90 752.48,20.79 752.69,20.74 752.90,20.69 753.11,20.70 753.32,20.72 753.51,20.81 753.71,20.89 753.87,21.04 754.02,21.18 754.13,21.36 754.23,21.55 754.27,21.76 754.31,21.97 754.28,22.18 754.25,22.39 754.15,22.58 754.06,22.77 753.91,22.92 753.75,23.07 753.56,23.16 753.37,23.25 753.16,23.28 752.95,23.31 752.95,23.31 752.95,23.31 736.17,23.09 719.38,22.86 696.65,22.54 673.92,22.21 638.77,20.59 603.61,18.97 556.81,16.19 510.00,13.41 454.00,10.22 397.99,7.03 332.50,4.17 267.00,1.30 221.74,0.17 176.48,-0.94 138.98,-1.35 101.48,-1.76 73.42,-1.36 45.36,-0.96 28.06,-0.07 10.77,0.81 5.59,1.65 0.41,2.49 0.11,2.50 -0.19,2.51 -0.49,2.45 -0.79,2.39 -1.06,2.26 -1.34,2.13 -1.57,1.94 -1.81,1.75 -1.99,1.51 -2.18,1.27 -2.30,0.99 -2.42,0.71 -2.47,0.41 -2.52,0.11 -2.49,-0.19 -2.47,-0.49 -2.38,-0.78 -2.28,-1.07 -2.12,-1.33 -1.96,-1.58 -1.74,-1.80 -1.52,-2.01 -1.26,-2.16 -0.99,-2.31 -0.70,-2.40 -0.41,-2.49 -0.41,-2.49 L -0.41,-2.49 Z"></path></g><g transform="translate(173 25) rotate(0 -10.5 298.5)" stroke="none"><path fill="#1e1e1e" d="M 2.44,0.32 Q 2.44,0.32 1.38,8.96 0.32,17.60 -2.39,43.37 -5.12,69.15 -9.43,133.82 -13.74,198.50 -14.72,261.30 -15.71,324.10 -14.12,376.63 -12.53,429.16 -11.57,467.91 -10.60,506.66 -10.18,532.62 -9.76,558.58 -7.96,568.46 -6.17,578.35 -6.20,578.66 -6.23,578.98 -6.34,579.28 -6.45,579.58 -6.62,579.84 -6.80,580.11 -7.04,580.32 -7.27,580.54 -7.55,580.69 -7.83,580.84 -8.14,580.92 -8.44,581.00 -8.76,581.01 -9.08,581.01 -9.39,580.94 -9.70,580.87 -9.98,580.73 -10.27,580.58 -10.51,580.38 -10.75,580.17 -10.93,579.91 -11.12,579.65 -11.24,579.36 -11.35,579.06 -11.40,578.75 -11.44,578.43 -7.82,573.66 -4.21,568.90 -1.63,566.05 0.94,563.21 1.10,563.06 1.25,562.91 1.44,562.82 1.64,562.73 1.85,562.71 2.06,562.68 2.27,562.73 2.47,562.77 2.66,562.88 2.84,562.99 2.98,563.15 3.12,563.31 3.20,563.51 3.28,563.71 3.29,563.92 3.30,564.13 3.25,564.33 3.19,564.54 3.07,564.72 2.95,564.89 2.79,565.02 2.62,565.15 2.42,565.22 2.22,565.29 2.00,565.29 1.79,565.29 1.59,565.23 1.39,565.16 1.22,565.03 1.05,564.90 0.93,564.73 0.81,564.55 0.75,564.35 0.69,564.14 0.70,563.93 0.71,563.72 0.79,563.52 0.87,563.32 1.00,563.16 1.14,563.00 1.32,562.89 1.50,562.78 1.71,562.73 1.92,562.68 2.13,562.71 2.34,562.73 2.53,562.82 2.73,562.90 2.88,563.05 3.04,563.19 3.14,563.38 3.24,563.57 3.27,563.78 3.31,563.99 3.28,564.20 3.24,564.41 3.14,564.60 3.05,564.78 3.05,564.78 3.05,564.78 1.03,568.06 -0.97,571.33 -3.57,574.84 -6.17,578.35 -6.20,578.66 -6.23,578.98 -6.34,579.28 -6.45,579.58 -6.62,579.84 -6.80,580.11 -7.04,580.32 -7.27,580.54 -7.55,580.69 -7.83,580.84 -8.14,580.92 -8.44,581.00 -8.76,581.01 -9.08,581.01 -9.39,580.94 -9.70,580.87 -9.98,580.73 -10.27,580.58 -10.51,580.38 -10.75,580.17 -10.93,579.91 -11.12,579.65 -11.24,579.36 -11.35,579.06 -11.40,578.75 -11.44,578.43 -13.44,568.56 -15.44,558.68 -15.84,532.74 -16.24,506.80 -17.21,468.06 -18.17,429.33 -19.77,376.67 -21.37,324.01 -20.38,261.06 -19.40,198.12 -15.01,133.34 -10.62,68.55 -7.77,42.72 -4.92,16.89 -3.68,8.28 -2.44,-0.32 -2.36,-0.61 -2.29,-0.90 -2.15,-1.16 -2.01,-1.42 -1.81,-1.64 -1.61,-1.86 -1.36,-2.03 -1.11,-2.19 -0.84,-2.29 -0.56,-2.40 -0.26,-2.43 0.02,-2.46 0.32,-2.42 0.61,-2.38 0.89,-2.27 1.17,-2.16 1.41,-1.99 1.65,-1.82 1.85,-1.60 2.04,-1.37 2.18,-1.11 2.31,-0.84 2.38,-0.55 2.45,-0.26 2.44,0.02 2.44,0.32 2.44,0.32 L 2.44,0.32 Z"></path></g><g transform="translate(326 25) rotate(0 -19 289)" stroke="none"><path fill="#1e1e1e" d="M 2.71,0.40 Q 2.71,0.40 1.87,6.16 1.03,11.91 -5.02,47.74 -11.08,83.57 -17.06,136.37 -23.04,189.18 -26.48,248.08 -29.91,306.98 -31.40,358.16 -32.88,409.35 -33.51,452.09 -34.14,494.83 -34.14,518.72 -34.13,542.62 -32.63,552.54 -31.13,562.47 -30.22,564.21 -29.31,565.95 -28.60,567.62 -27.89,569.28 -27.81,569.47 -27.72,569.67 -27.70,569.88 -27.69,570.09 -27.74,570.30 -27.78,570.51 -27.90,570.69 -28.01,570.87 -28.18,571.00 -28.34,571.13 -28.54,571.21 -28.74,571.28 -28.95,571.29 -29.16,571.30 -29.37,571.24 -29.57,571.18 -29.74,571.05 -29.92,570.93 -30.04,570.76 -30.17,570.59 -30.23,570.38 -30.30,570.18 -30.29,569.97 -30.29,569.76 -30.21,569.56 -30.14,569.36 -30.01,569.19 -29.88,569.02 -29.70,568.91 -29.52,568.79 -29.32,568.74 -29.11,568.69 -28.90,568.70 -28.69,568.72 -28.49,568.80 -28.30,568.88 -28.14,569.02 -27.98,569.17 -27.87,569.35 -27.77,569.53 -27.72,569.74 -27.68,569.95 -27.71,570.16 -27.74,570.37 -27.83,570.56 -27.92,570.75 -28.07,570.91 -28.22,571.06 -28.41,571.15 -28.60,571.25 -28.81,571.28 -29.02,571.31 -29.23,571.27 -29.44,571.23 -29.63,571.13 -29.81,571.02 -29.95,570.87 -30.10,570.71 -30.10,570.71 -30.10,570.71 -31.33,569.39 -32.56,568.06 -34.27,565.76 -35.99,563.46 -37.96,553.05 -39.93,542.64 -39.97,518.69 -40.01,494.74 -39.40,451.96 -38.79,409.18 -37.36,357.90 -35.93,306.63 -32.50,247.56 -29.06,188.49 -22.94,135.54 -16.83,82.59 -10.65,46.84 -4.48,11.08 -3.60,5.33 -2.71,-0.40 -2.62,-0.72 -2.53,-1.04 -2.37,-1.33 -2.21,-1.62 -1.98,-1.86 -1.76,-2.10 -1.48,-2.28 -1.20,-2.46 -0.89,-2.57 -0.58,-2.68 -0.25,-2.71 0.07,-2.74 0.40,-2.69 0.73,-2.64 1.03,-2.52 1.34,-2.39 1.61,-2.19 1.87,-2.00 2.09,-1.74 2.30,-1.49 2.44,-1.19 2.59,-0.90 2.66,-0.57 2.73,-0.25 2.72,0.07 2.71,0.40 2.71,0.40 L 2.71,0.40 Z"></path></g><g transform="translate(560 51) rotate(0 -31.5 304)" stroke="none"><path fill="#1e1e1e" d="M 2.60,1.17 Q 2.60,1.17 0.03,6.92 -2.53,12.68 -10.13,36.55 -17.72,60.43 -27.26,103.57 -36.80,146.70 -43.44,202.03 -50.09,257.35 -52.62,312.73 -55.16,368.11 -53.94,422.64 -52.72,477.16 -51.63,510.72 -50.54,544.27 -50.09,562.57 -49.65,580.88 -49.29,587.22 -48.93,593.56 -48.96,593.89 -48.99,594.22 -49.11,594.54 -49.22,594.86 -49.40,595.14 -49.58,595.42 -49.83,595.65 -50.07,595.88 -50.37,596.04 -50.66,596.20 -50.98,596.29 -51.31,596.38 -51.64,596.39 -51.98,596.40 -52.30,596.33 -52.63,596.25 -52.93,596.10 -53.23,595.96 -53.49,595.74 -53.75,595.52 -53.94,595.25 -54.14,594.98 -54.27,594.67 -54.40,594.36 -54.44,594.03 -54.49,593.70 -53.82,587.63 -53.16,581.56 -49.98,552.04 -46.81,522.51 -44.55,500.69 -42.30,478.87 -42.25,478.67 -42.19,478.46 -42.08,478.28 -41.96,478.11 -41.79,477.97 -41.63,477.84 -41.43,477.77 -41.23,477.70 -41.01,477.70 -40.80,477.70 -40.60,477.76 -40.40,477.83 -40.23,477.95 -40.05,478.08 -39.93,478.25 -39.81,478.43 -39.75,478.63 -39.69,478.83 -39.70,479.05 -39.71,479.26 -39.78,479.46 -39.86,479.66 -40.00,479.82 -40.13,479.98 -40.31,480.10 -40.49,480.21 -40.70,480.26 -40.91,480.31 -41.12,480.29 -41.33,480.27 -41.52,480.18 -41.72,480.09 -41.87,479.95 -42.03,479.80 -42.13,479.62 -42.23,479.43 -42.27,479.22 -42.31,479.01 -42.28,478.80 -42.25,478.59 -42.15,478.40 -42.05,478.21 -41.90,478.07 -41.75,477.92 -41.56,477.83 -41.36,477.73 -41.15,477.71 -40.94,477.68 -40.73,477.73 -40.53,477.77 -40.34,477.88 -40.16,477.98 -40.02,478.14 -39.88,478.30 -39.80,478.50 -39.72,478.70 -39.70,478.91 -39.69,479.12 -39.69,479.12 -39.69,479.12 -41.57,500.97 -43.45,522.83 -45.87,552.40 -48.29,581.97 -48.61,587.76 -48.93,593.56 -48.96,593.89 -48.99,594.22 -49.11,594.54 -49.22,594.86 -49.40,595.14 -49.58,595.42 -49.83,595.65 -50.07,595.88 -50.37,596.04 -50.66,596.20 -50.98,596.29 -51.31,596.38 -51.64,596.39 -51.98,596.40 -52.30,596.33 -52.63,596.25 -52.93,596.11 -53.23,595.96 -53.49,595.74 -53.75,595.52 -53.94,595.25 -54.14,594.98 -54.27,594.67 -54.40,594.36 -54.44,594.03 -54.49,593.70 -55.10,587.37 -55.71,581.03 -56.20,562.75 -56.68,544.47 -57.77,510.89 -58.87,477.30 -60.08,422.56 -61.30,367.83 -58.74,312.22 -56.19,256.62 -49.50,201.00 -42.80,145.37 -33.13,101.98 -23.47,58.59 -15.64,34.45 -7.81,10.31 -5.20,4.57 -2.60,-1.17 -2.42,-1.46 -2.24,-1.76 -2.00,-2.00 -1.76,-2.24 -1.46,-2.42 -1.17,-2.60 -0.84,-2.70 -0.51,-2.81 -0.17,-2.83 0.17,-2.85 0.51,-2.79 0.85,-2.72 1.16,-2.58 1.47,-2.44 1.74,-2.23 2.02,-2.02 2.23,-1.74 2.44,-1.47 2.58,-1.16 2.72,-0.85 2.79,-0.51 2.85,-0.17 2.83,0.17 2.81,0.51 2.70,0.84 2.60,1.17 2.60,1.17 L 2.60,1.17 Z"></path></g><g transform="translate(653 68) rotate(0 14 277)" stroke="none"><path fill="#1e1e1e" d="M 1.37,-2.19 Q 1.37,-2.19 3.98,-0.32 6.59,1.55 7.69,23.48 8.80,45.40 6.88,83.33 4.97,121.27 3.57,173.52 2.18,225.78 3.01,280.14 3.84,334.49 7.92,384.84 11.99,435.18 15.45,465.19 18.91,495.20 21.76,511.92 24.62,528.63 26.87,534.42 29.11,540.22 30.65,544.84 32.19,549.46 32.25,549.67 32.30,549.87 32.29,550.08 32.27,550.29 32.19,550.49 32.11,550.69 31.97,550.85 31.83,551.01 31.65,551.11 31.46,551.22 31.26,551.26 31.05,551.31 30.84,551.28 30.63,551.26 30.43,551.16 30.24,551.07 30.09,550.92 29.94,550.78 29.84,550.59 29.74,550.40 29.71,550.19 29.68,549.98 29.72,549.77 29.76,549.56 29.86,549.37 29.96,549.19 30.12,549.04 30.27,548.90 30.47,548.81 30.66,548.72 30.87,548.70 31.08,548.68 31.29,548.73 31.50,548.78 31.68,548.89 31.86,549.01 31.99,549.17 32.13,549.33 32.21,549.53 32.28,549.73 32.29,549.94 32.30,550.15 32.24,550.36 32.18,550.56 32.06,550.74 31.94,550.91 31.77,551.04 31.59,551.16 31.39,551.23 31.19,551.29 30.98,551.29 30.76,551.29 30.56,551.22 30.36,551.15 30.20,551.02 30.03,550.88 29.91,550.71 29.80,550.53 29.80,550.53 29.80,550.53 27.39,546.30 24.97,542.06 21.87,535.87 18.77,529.69 15.81,512.80 12.84,495.90 9.37,465.79 5.90,435.67 1.80,385.13 -2.30,334.59 -3.13,280.10 -3.96,225.61 -2.50,173.28 -1.03,120.95 1.05,83.26 3.15,45.58 2.88,24.88 2.60,4.19 0.61,3.19 -1.37,2.19 -1.61,2.00 -1.86,1.80 -2.05,1.55 -2.23,1.30 -2.36,1.02 -2.48,0.73 -2.53,0.42 -2.59,0.11 -2.56,-0.19 -2.54,-0.50 -2.44,-0.80 -2.34,-1.09 -2.18,-1.36 -2.01,-1.63 -1.79,-1.84 -1.56,-2.06 -1.29,-2.22 -1.02,-2.38 -0.72,-2.46 -0.42,-2.55 -0.11,-2.57 0.19,-2.58 0.50,-2.52 0.80,-2.46 1.09,-2.33 1.37,-2.19 1.37,-2.19 L 1.37,-2.19 Z"></path></g><g transform="translate(818 77) rotate(0 -20.5 242)" stroke="none"><path fill="#1e1e1e" d="M 3.06,-0.14 Q 3.06,-0.14 3.36,5.89 3.67,11.92 3.52,34.41 3.37,56.90 1.02,96.69 -1.32,136.48 -3.76,184.68 -6.20,232.88 -7.53,277.78 -8.86,322.67 -8.85,362.13 -8.84,401.59 -10.05,424.24 -11.25,446.89 -16.18,458.08 -21.11,469.26 -27.11,473.32 -33.12,477.37 -37.17,480.21 -41.21,483.05 -41.40,483.15 -41.59,483.24 -41.80,483.28 -42.01,483.31 -42.22,483.27 -42.43,483.23 -42.62,483.13 -42.80,483.03 -42.95,482.88 -43.09,482.72 -43.18,482.53 -43.26,482.33 -43.28,482.12 -43.31,481.91 -43.26,481.70 -43.21,481.49 -43.10,481.31 -42.99,481.13 -42.82,481.00 -42.66,480.86 -42.46,480.79 -42.26,480.71 -42.05,480.70 -41.84,480.69 -41.63,480.75 -41.43,480.81 -41.26,480.93 -41.08,481.05 -40.95,481.22 -40.83,481.39 -40.76,481.60 -40.70,481.80 -40.70,482.01 -40.70,482.22 -40.77,482.42 -40.84,482.62 -40.97,482.79 -41.10,482.96 -41.28,483.08 -41.46,483.19 -41.66,483.25 -41.87,483.30 -42.08,483.29 -42.29,483.27 -42.49,483.19 -42.69,483.11 -42.85,482.97 -43.01,482.83 -43.11,482.65 -43.22,482.47 -43.26,482.26 -43.31,482.05 -43.28,481.84 -43.26,481.63 -43.16,481.44 -43.07,481.25 -42.93,481.09 -42.78,480.94 -42.78,480.94 -42.78,480.94 -38.89,477.89 -35.00,474.84 -30.27,470.92 -25.54,467.01 -21.45,456.73 -17.35,446.46 -16.27,424.03 -15.18,401.59 -15.19,362.04 -15.20,322.49 -13.88,277.52 -12.56,232.56 -10.11,184.33 -7.66,136.11 -5.27,96.48 -2.88,56.85 -2.70,34.54 -2.52,12.22 -2.79,6.18 -3.06,0.14 -3.03,-0.22 -3.00,-0.59 -2.89,-0.94 -2.77,-1.29 -2.58,-1.60 -2.38,-1.92 -2.12,-2.17 -1.85,-2.43 -1.54,-2.62 -1.22,-2.81 -0.86,-2.91 -0.51,-3.02 -0.14,-3.03 0.22,-3.05 0.58,-2.98 0.94,-2.91 1.28,-2.75 1.61,-2.60 1.90,-2.37 2.19,-2.13 2.41,-1.84 2.64,-1.55 2.79,-1.21 2.93,-0.87 3.00,-0.50 3.06,-0.14 3.06,-0.14 L 3.06,-0.14 Z"></path></g><g transform="translate(58 115) rotate(0 428.5 16)" stroke="none"><path fill="#1e1e1e" d="M -0.32,-2.75 Q -0.32,-2.75 9.45,-3.91 19.23,-5.06 37.70,-4.09 56.17,-3.13 83.54,-0.41 110.90,2.30 147.48,4.89 184.06,7.47 246.99,8.72 309.93,9.97 371.48,10.83 433.03,11.68 493.12,12.34 553.20,12.99 607.80,14.39 662.40,15.79 706.91,18.11 751.42,20.43 781.87,22.87 812.31,25.32 821.25,28.35 830.19,31.37 836.75,33.05 843.31,34.72 843.50,34.80 843.70,34.89 843.86,35.03 844.02,35.17 844.12,35.35 844.23,35.54 844.27,35.75 844.31,35.96 844.28,36.17 844.25,36.38 844.16,36.57 844.06,36.76 843.91,36.91 843.76,37.06 843.57,37.15 843.38,37.25 843.17,37.28 842.96,37.31 842.75,37.27 842.55,37.23 842.36,37.13 842.18,37.02 842.03,36.86 841.89,36.71 841.81,36.51 841.72,36.32 841.70,36.10 841.69,35.89 841.74,35.69 841.79,35.48 841.90,35.30 842.01,35.12 842.18,34.99 842.35,34.85 842.54,34.78 842.74,34.71 842.96,34.70 843.17,34.69 843.37,34.75 843.58,34.82 843.75,34.94 843.92,35.06 844.05,35.24 844.17,35.41 844.23,35.61 844.30,35.81 844.29,36.03 844.29,36.24 844.21,36.44 844.14,36.64 844.01,36.80 843.87,36.97 843.70,37.08 843.52,37.20 843.31,37.25 843.11,37.30 842.89,37.29 842.68,37.27 842.68,37.27 842.68,37.27 836.09,35.72 829.50,34.16 820.65,32.83 811.80,31.49 781.45,29.08 751.09,26.67 706.67,24.32 662.24,21.97 607.69,20.51 553.13,19.05 493.04,18.38 432.95,17.72 371.37,16.82 309.80,15.92 246.74,14.40 183.68,12.88 147.02,10.29 110.37,7.69 83.13,5.01 55.89,2.32 37.88,1.39 19.86,0.46 10.09,1.61 0.32,2.75 -0.01,2.75 -0.34,2.75 -0.66,2.67 -0.99,2.59 -1.28,2.43 -1.58,2.27 -1.83,2.05 -2.08,1.83 -2.27,1.55 -2.46,1.28 -2.58,0.96 -2.69,0.65 -2.73,0.32 -2.77,-0.01 -2.73,-0.34 -2.69,-0.67 -2.57,-0.98 -2.45,-1.29 -2.26,-1.57 -2.07,-1.84 -1.81,-2.06 -1.56,-2.29 -1.27,-2.44 -0.97,-2.59 -0.64,-2.67 -0.32,-2.75 -0.32,-2.75 L -0.32,-2.75 Z"></path></g><g transform="translate(16 172) rotate(0 440 43.5)" stroke="none"><path fill="#1e1e1e" d="M 0,-3.37 Q 0,-3.37 7.18,-3.37 14.37,-3.37 37.59,-2.77 60.81,-2.16 99.48,0.39 138.15,2.95 208.93,9.50 279.72,16.05 350.62,22.83 421.52,29.60 492.49,36.77 563.45,43.94 628.13,51.31 692.81,58.69 742.14,65.16 791.46,71.63 816.98,75.66 842.49,79.69 861.33,82.69 880.18,85.69 880.38,85.76 880.58,85.82 880.75,85.94 880.93,86.07 881.05,86.24 881.17,86.41 881.23,86.62 881.30,86.82 881.29,87.03 881.28,87.25 881.21,87.44 881.14,87.64 881.00,87.81 880.87,87.97 880.69,88.09 880.51,88.20 880.30,88.25 880.10,88.30 879.89,88.29 879.68,88.27 879.48,88.18 879.29,88.10 879.13,87.96 878.97,87.82 878.87,87.63 878.76,87.45 878.72,87.24 878.68,87.03 878.71,86.82 878.74,86.61 878.84,86.42 878.93,86.23 879.08,86.08 879.23,85.93 879.42,85.83 879.61,85.74 879.82,85.71 880.03,85.68 880.24,85.72 880.45,85.76 880.64,85.87 880.82,85.97 880.96,86.13 881.10,86.29 881.19,86.49 881.27,86.68 881.29,86.89 881.30,87.10 881.25,87.31 881.20,87.52 881.09,87.70 880.97,87.87 880.80,88.01 880.64,88.14 880.44,88.21 880.24,88.29 880.03,88.29 879.81,88.30 879.81,88.30 879.81,88.30 860.87,86.07 841.92,83.84 816.30,80.79 790.68,77.74 741.36,71.62 692.03,65.50 627.40,58.12 562.76,50.75 491.82,43.51 420.88,36.26 350.00,29.43 279.12,22.60 208.42,16.06 137.72,9.52 99.18,6.99 60.65,4.46 37.51,3.92 14.37,3.37 7.18,3.37 0,3.37 -0.40,3.32 -0.80,3.28 -1.18,3.13 -1.57,2.99 -1.90,2.76 -2.24,2.52 -2.51,2.22 -2.78,1.91 -2.96,1.55 -3.15,1.19 -3.25,0.80 -3.35,0.40 -3.35,-0.00 -3.35,-0.40 -3.25,-0.80 -3.15,-1.19 -2.96,-1.55 -2.78,-1.91 -2.51,-2.22 -2.24,-2.52 -1.90,-2.76 -1.56,-2.99 -1.18,-3.13 -0.80,-3.28 -0.40,-3.32 0.00,-3.37 0.00,-3.37 L 0,-3.37 Z"></path></g><g transform="translate(188 285) rotate(0 472 25)" stroke="none"><path fill="#1e1e1e" d="M 0,-3.45 Q 0,-3.45 5.46,-3.45 10.92,-3.45 35.53,-5.46 60.13,-7.47 126.75,-11.49 193.36,-15.50 266.84,-18.36 340.31,-21.21 416.15,-20.98 492.00,-20.76 580.14,-11.74 668.29,-2.72 731.12,9.19 793.95,21.11 835.07,32.98 876.19,44.85 895.93,52.08 915.67,59.30 930.05,65.03 944.43,70.76 944.62,70.86 944.80,70.96 944.95,71.12 945.09,71.27 945.18,71.47 945.27,71.66 945.29,71.87 945.31,72.09 945.26,72.29 945.21,72.50 945.10,72.68 944.98,72.86 944.82,72.99 944.66,73.13 944.46,73.21 944.26,73.28 944.05,73.29 943.83,73.30 943.63,73.24 943.43,73.18 943.25,73.06 943.08,72.94 942.95,72.76 942.83,72.59 942.76,72.39 942.70,72.19 942.70,71.98 942.70,71.76 942.77,71.56 942.84,71.36 942.97,71.20 943.11,71.03 943.28,70.91 943.46,70.80 943.67,70.74 943.87,70.69 944.08,70.70 944.30,70.72 944.49,70.80 944.69,70.88 944.85,71.02 945.01,71.16 945.12,71.34 945.22,71.53 945.26,71.74 945.31,71.94 945.28,72.15 945.26,72.36 945.16,72.56 945.07,72.75 944.92,72.90 944.77,73.05 944.59,73.15 944.40,73.25 944.19,73.28 943.98,73.31 943.77,73.27 943.56,73.23 943.56,73.23 943.56,73.23 928.77,68.66 913.98,64.08 894.26,57.37 874.53,50.66 833.61,39.21 792.69,27.76 730.14,15.92 667.59,4.08 579.78,-4.90 491.97,-13.89 416.27,-14.11 340.57,-14.33 267.18,-11.47 193.78,-8.61 127.24,-4.59 60.69,-0.57 35.81,1.44 10.92,3.45 5.46,3.45 0,3.45 -0.41,3.40 -0.82,3.35 -1.21,3.20 -1.60,3.06 -1.94,2.82 -2.29,2.58 -2.56,2.27 -2.84,1.96 -3.03,1.59 -3.23,1.22 -3.33,0.82 -3.43,0.41 -3.43,-0.00 -3.43,-0.41 -3.33,-0.82 -3.23,-1.22 -3.03,-1.59 -2.84,-1.96 -2.56,-2.27 -2.29,-2.58 -1.94,-2.82 -1.60,-3.06 -1.21,-3.20 -0.82,-3.35 -0.41,-3.40 0.00,-3.45 0.00,-3.45 L 0,-3.45 Z"></path></g><g transform="translate(10 378) rotate(0 473 6.5)" stroke="none"><path fill="#1e1e1e" d="M -0.19,-3.44 Q -0.19,-3.44 14.75,-4.27 29.70,-5.10 61.96,-6.30 94.23,-7.50 160.28,-8.61 226.34,-9.71 293.53,-9.65 360.72,-9.58 429.54,-8.41 498.36,-7.23 566.11,-6.44 633.87,-5.64 708.43,-2.39 782.99,0.86 829.96,6.09 876.92,11.32 911.52,15.50 946.13,19.69 946.33,19.74 946.54,19.80 946.72,19.92 946.89,20.04 947.02,20.20 947.15,20.37 947.22,20.57 947.29,20.77 947.29,20.99 947.29,21.20 947.23,21.40 947.16,21.60 947.03,21.77 946.90,21.94 946.73,22.06 946.55,22.18 946.35,22.24 946.14,22.30 945.93,22.29 945.72,22.28 945.52,22.20 945.32,22.12 945.16,21.99 945.00,21.85 944.89,21.67 944.78,21.49 944.73,21.28 944.68,21.07 944.71,20.86 944.73,20.65 944.82,20.46 944.90,20.26 945.05,20.11 945.19,19.95 945.38,19.85 945.57,19.75 945.78,19.72 945.99,19.68 946.20,19.71 946.41,19.75 946.60,19.85 946.78,19.94 946.93,20.10 947.08,20.25 947.17,20.44 947.26,20.64 947.28,20.85 947.31,21.06 947.26,21.27 947.22,21.47 947.11,21.66 947.00,21.84 946.84,21.98 946.68,22.12 946.48,22.20 946.28,22.28 946.07,22.29 945.86,22.30 945.86,22.30 945.86,22.30 911.13,19.37 876.39,16.44 829.55,12.03 782.70,7.63 708.24,4.46 633.78,1.29 566.01,0.49 498.24,-0.29 429.48,-1.51 360.71,-2.73 293.58,-2.88 226.45,-3.03 160.47,-1.94 94.48,-0.86 62.28,0.39 30.09,1.65 15.14,2.54 0.19,3.44 -0.21,3.41 -0.63,3.38 -1.02,3.26 -1.42,3.13 -1.77,2.92 -2.13,2.70 -2.42,2.41 -2.71,2.11 -2.93,1.76 -3.14,1.40 -3.26,1.00 -3.39,0.61 -3.41,0.19 -3.43,-0.21 -3.36,-0.62 -3.28,-1.03 -3.11,-1.41 -2.94,-1.79 -2.68,-2.11 -2.42,-2.44 -2.10,-2.69 -1.77,-2.95 -1.39,-3.12 -1.01,-3.29 -0.60,-3.36 -0.19,-3.44 -0.19,-3.44 L -0.19,-3.44 Z"></path></g><g transform="translate(105 497) rotate(0 409 11)" stroke="none"><path fill="#1e1e1e" d="M -0.18,-3.02 Q -0.18,-3.02 4.40,-3.36 9.00,-3.69 17.78,-4.67 26.56,-5.66 51.31,-8.38 76.06,-11.10 129.80,-13.70 183.54,-16.31 238.92,-15.72 294.30,-15.12 350.67,-11.49 407.03,-7.85 462.62,-2.85 518.20,2.14 582.05,7.73 645.90,13.31 690.87,18.16 735.85,23.00 759.60,26.95 783.36,30.89 800.78,34.30 818.20,37.70 818.40,37.76 818.60,37.83 818.77,37.96 818.94,38.09 819.06,38.26 819.18,38.44 819.24,38.64 819.30,38.84 819.29,39.06 819.28,39.27 819.20,39.47 819.13,39.66 818.99,39.83 818.85,39.99 818.67,40.10 818.49,40.21 818.28,40.26 818.08,40.31 817.86,40.28 817.65,40.26 817.46,40.18 817.27,40.09 817.11,39.94 816.96,39.80 816.85,39.61 816.75,39.42 816.72,39.21 816.68,39.00 816.71,38.79 816.75,38.58 816.85,38.40 816.94,38.21 817.10,38.06 817.25,37.91 817.44,37.82 817.63,37.73 817.85,37.71 818.06,37.68 818.26,37.73 818.47,37.77 818.66,37.88 818.84,37.99 818.98,38.15 819.12,38.31 819.20,38.51 819.28,38.70 819.29,38.92 819.30,39.13 819.25,39.33 819.19,39.54 819.07,39.71 818.95,39.89 818.79,40.02 818.62,40.15 818.42,40.22 818.22,40.29 818.00,40.29 817.79,40.29 817.79,40.29 817.79,40.29 800.16,38.21 782.54,36.12 758.87,32.65 735.21,29.17 690.25,24.66 645.30,20.16 581.44,14.57 517.58,8.98 462.09,3.93 406.59,-1.12 350.41,-4.92 294.23,-8.71 239.04,-9.36 183.85,-10.01 130.30,-7.43 76.75,-4.85 52.00,-2.14 27.25,0.57 18.32,1.55 9.39,2.54 4.79,2.78 0.18,3.02 -0.17,3.00 -0.54,2.98 -0.88,2.87 -1.23,2.76 -1.55,2.57 -1.86,2.38 -2.12,2.13 -2.38,1.87 -2.57,1.56 -2.76,1.24 -2.86,0.90 -2.97,0.55 -3.00,0.18 -3.02,-0.17 -2.95,-0.53 -2.89,-0.89 -2.74,-1.22 -2.59,-1.56 -2.37,-1.85 -2.14,-2.13 -1.85,-2.36 -1.57,-2.58 -1.23,-2.74 -0.90,-2.89 -0.54,-2.95 -0.18,-3.02 -0.18,-3.02 L -0.18,-3.02 Z"></path></g><g transform="translate(102 546) rotate(0 485.5 8)" stroke="none"><path fill="#1e1e1e" d="M 0,-2.65 Q 0,-2.65 4.88,-2.69 9.77,-2.73 26.49,-3.07 43.20,-3.40 70.38,-5.02 97.56,-6.64 134.42,-9.06 171.29,-11.47 216.30,-13.95 261.31,-16.43 311.81,-17.77 362.32,-19.11 431.85,-17.68 501.38,-16.25 561.44,-12.47 621.50,-8.69 674.65,-3.63 727.80,1.42 772.81,6.49 817.82,11.56 858.48,16.91 899.14,22.27 919.85,25.24 940.57,28.21 955.87,30.45 971.16,32.69 971.37,32.75 971.57,32.82 971.75,32.94 971.92,33.06 972.04,33.23 972.17,33.40 972.23,33.61 972.30,33.81 972.29,34.02 972.29,34.24 972.21,34.43 972.14,34.63 972.01,34.80 971.88,34.97 971.70,35.08 971.52,35.20 971.31,35.25 971.11,35.30 970.90,35.29 970.69,35.27 970.49,35.19 970.29,35.11 970.13,34.96 969.98,34.82 969.87,34.64 969.76,34.45 969.72,34.25 969.68,34.04 969.71,33.83 969.74,33.62 969.83,33.43 969.92,33.23 970.07,33.08 970.22,32.93 970.41,32.84 970.60,32.74 970.81,32.71 971.02,32.68 971.23,32.72 971.44,32.76 971.63,32.86 971.81,32.97 971.95,33.12 972.10,33.28 972.18,33.48 972.27,33.67 972.29,33.88 972.30,34.09 972.25,34.30 972.20,34.51 972.09,34.69 971.98,34.87 971.81,35.00 971.65,35.13 971.45,35.21 971.25,35.28 971.04,35.29 970.82,35.30 970.83,35.30 970.83,35.30 955.46,33.54 940.10,31.78 919.34,29.35 898.57,26.91 857.86,22.24 817.15,17.58 772.18,12.60 727.21,7.62 674.16,2.57 621.11,-2.47 561.18,-6.24 501.25,-10.02 431.87,-11.48 362.48,-12.95 312.06,-11.63 261.64,-10.31 216.66,-7.89 171.68,-5.46 134.79,-3.10 97.90,-0.74 70.60,0.75 43.30,2.25 26.53,2.49 9.77,2.73 4.88,2.69 0,2.65 -0.31,2.61 -0.63,2.57 -0.93,2.46 -1.23,2.35 -1.49,2.16 -1.76,1.98 -1.97,1.74 -2.18,1.50 -2.33,1.22 -2.48,0.94 -2.55,0.63 -2.63,0.31 -2.63,-0.00 -2.63,-0.32 -2.55,-0.63 -2.48,-0.94 -2.33,-1.22 -2.18,-1.50 -1.97,-1.74 -1.76,-1.98 -1.49,-2.16 -1.23,-2.35 -0.93,-2.46 -0.63,-2.57 -0.31,-2.61 0.00,-2.65 0.00,-2.65 L 0,-2.65 Z"></path></g></svg>