<svg version="1.1" xmlns="http://www.w3.org/2000/svg" viewBox="0 0 937 778" width="937" height="778">
  <g transform="translate(394 63) rotate(0 74.5 326)" stroke="none"><path fill="#1e1e1e" d="M 0,2.66 Q 0,2.66 -5.74,2.68 -11.49,2.71 -25.99,3.01 -40.48,3.31 -59.17,5.47 -77.86,7.62 -104.67,13.74 -131.48,19.85 -154.84,28.15 -178.21,36.45 -199.22,47.68 -220.22,58.91 -239.08,73.64 -257.93,88.38 -279.01,114.59 -300.10,140.80 -316.20,169.38 -332.31,197.95 -344.30,228.96 -356.28,259.97 -363.35,292.55 -370.42,325.14 -372.56,357.54 -374.70,389.94 -367.85,428.45 -361.01,466.96 -349.27,497.57 -337.52,528.17 -321.43,552.49 -305.34,576.81 -285.16,595.90 -264.97,615.00 -233.03,632.76 -201.09,650.52 -170.63,662.09 -140.17,673.66 -109.78,681.14 -79.40,688.61 -49.06,692.35 -18.72,696.09 11.57,695.95 41.86,695.81 81.81,687.46 121.76,679.10 157.14,668.38 192.51,657.66 224.74,645.37 256.97,633.07 285.80,618.69 314.63,604.31 346.82,580.50 379.02,556.70 404.14,532.56 429.26,508.43 449.35,483.33 469.44,458.23 484.53,433.59 499.62,408.94 508.24,385.21 516.85,361.47 517.32,332.22 517.79,302.97 511.74,277.21 505.70,251.45 494.58,225.96 483.46,200.47 469.00,175.60 454.54,150.74 432.38,123.36 410.23,95.99 389.68,76.08 369.13,56.18 349.03,41.48 328.92,26.78 308.97,15.40 289.01,4.02 268.81,-5.41 248.60,-14.84 223.53,-23.62 198.46,-32.40 178.13,-37.80 157.79,-43.20 142.74,-47.46 127.68,-51.72 127.48,-51.80 127.29,-51.89 127.13,-52.03 126.97,-52.17 126.87,-52.36 126.76,-52.54 126.72,-52.75 126.68,-52.96 126.71,-53.17 126.74,-53.38 126.83,-53.57 126.93,-53.76 127.08,-53.91 127.23,-54.06 127.42,-54.16 127.61,-54.25 127.82,-54.28 128.03,-54.31 128.24,-54.27 128.45,-54.23 128.63,-54.12 128.82,-54.02 128.96,-53.86 129.10,-53.70 129.19,-53.51 129.27,-53.31 129.29,-53.10 129.30,-52.89 129.25,-52.68 129.20,-52.48 129.09,-52.30 128.97,-52.12 128.81,-51.98 128.64,-51.85 128.44,-51.78 128.24,-51.71 128.03,-51.70 127.82,-51.69 127.61,-51.76 127.41,-51.82 127.24,-51.94 127.07,-52.07 126.94,-52.24 126.82,-52.41 126.76,-52.61 126.69,-52.82 126.70,-53.03 126.71,-53.24 126.78,-53.44 126.85,-53.64 126.99,-53.81 127.12,-53.97 127.30,-54.09 127.48,-54.20 127.68,-54.25 127.89,-54.30 128.10,-54.29 128.31,-54.27 128.31,-54.27 128.31,-54.27 143.61,-50.98 158.91,-47.70 179.65,-42.89 200.39,-38.07 225.96,-29.59 251.52,-21.11 272.00,-11.58 292.48,-2.05 312.77,9.53 333.05,21.13 353.53,36.14 374.00,51.15 394.82,71.39 415.63,91.62 438.04,119.46 460.44,147.30 475.06,172.53 489.68,197.75 500.98,223.83 512.28,249.90 518.41,276.48 524.54,303.05 523.88,333.36 523.22,363.66 514.31,388.05 505.39,412.44 490.06,437.45 474.72,462.45 454.34,487.88 433.96,513.32 408.51,537.73 383.05,562.14 350.36,586.26 317.67,610.37 288.53,624.88 259.38,639.38 226.93,651.75 194.47,664.12 158.80,674.90 123.14,685.69 82.53,694.10 41.92,702.52 11.19,702.62 -19.53,702.71 -50.26,698.88 -80.98,695.05 -111.74,687.42 -142.50,679.80 -173.37,668.00 -204.25,656.21 -236.81,637.95 -269.37,619.69 -290.01,600.02 -310.65,580.35 -327.03,555.41 -343.41,530.46 -355.30,499.27 -367.20,468.07 -374.03,428.82 -380.86,389.57 -378.65,356.71 -376.43,323.84 -369.21,290.80 -361.99,257.77 -349.80,226.36 -337.62,194.96 -321.22,165.99 -304.82,137.01 -283.24,110.33 -261.65,83.66 -242.35,68.66 -223.04,53.66 -201.61,42.28 -180.19,30.90 -156.47,22.53 -132.76,14.16 -105.63,8.11 -78.49,2.05 -59.54,-0.05 -40.59,-2.16 -26.04,-2.43 -11.50,-2.71 -5.75,-2.68 0,-2.66 0.31,-2.62 0.63,-2.58 0.93,-2.47 1.23,-2.35 1.50,-2.17 1.76,-1.99 1.97,-1.75 2.19,-1.51 2.33,-1.22 2.48,-0.94 2.56,-0.63 2.64,-0.32 2.64,0.00 2.64,0.32 2.56,0.63 2.48,0.94 2.33,1.22 2.19,1.51 1.97,1.75 1.76,1.99 1.50,2.17 1.23,2.35 0.93,2.47 0.63,2.58 0.31,2.62 -0.00,2.66 -0.00,2.66 L 0,2.66 Z"></path></g><g transform="translate(291 526) rotate(0 119 29)" stroke="none"><path fill="#1e1e1e" d="M -2.76,0.55 Q -2.76,0.55 -3.33,-2.71 -3.90,-5.97 0.08,-11.74 4.07,-17.50 10.59,-22.21 17.12,-26.92 26.43,-30.41 35.73,-33.90 52.52,-35.98 69.30,-38.07 85.89,-38.93 102.48,-39.79 120.32,-38.42 138.16,-37.05 156.32,-31.81 174.48,-26.57 190.45,-17.32 206.43,-8.07 218.53,3.19 230.64,14.47 238.55,29.02 246.45,43.58 249.84,54.50 253.23,65.41 253.28,73.27 253.33,81.12 251.85,86.18 250.36,91.23 246.60,93.18 242.83,95.12 238.28,93.03 233.74,90.95 228.72,86.40 223.70,81.86 217.41,76.30 211.12,70.75 203.60,64.69 196.09,58.63 184.90,50.63 173.70,42.63 163.58,36.70 153.46,30.77 143.55,26.59 133.64,22.40 123.54,19.80 113.44,17.20 99.88,16.39 86.32,15.59 74.38,16.95 62.44,18.31 51.65,20.58 40.86,22.86 31.48,25.81 22.10,28.76 14.46,31.99 6.82,35.22 0.89,39.06 -5.03,42.91 -7.51,45.06 -9.99,47.21 -7.80,49.04 -5.61,50.87 -1.16,50.86 3.28,50.86 7.11,51.27 10.95,51.68 11.16,51.71 11.37,51.74 11.56,51.83 11.75,51.92 11.90,52.07 12.05,52.22 12.15,52.41 12.25,52.60 12.28,52.81 12.31,53.02 12.27,53.23 12.23,53.44 12.13,53.62 12.03,53.81 11.87,53.95 11.71,54.09 11.52,54.18 11.32,54.27 11.11,54.29 10.90,54.30 10.69,54.26 10.49,54.21 10.31,54.09 10.13,53.98 9.99,53.82 9.86,53.65 9.78,53.45 9.71,53.26 9.70,53.04 9.69,52.83 9.75,52.63 9.81,52.42 9.93,52.25 10.06,52.08 10.23,51.95 10.40,51.82 10.60,51.76 10.80,51.70 11.02,51.70 11.23,51.70 11.43,51.77 11.63,51.85 11.80,51.98 11.96,52.11 12.08,52.29 12.20,52.46 12.25,52.67 12.30,52.88 12.29,53.09 12.27,53.30 12.19,53.50 12.11,53.69 11.97,53.85 11.83,54.01 11.64,54.12 11.46,54.22 11.25,54.27 11.04,54.31 11.04,54.31 11.04,54.31 7.25,55.00 3.46,55.70 -2.41,56.08 -8.28,56.46 -11.59,54.16 -14.90,51.87 -15.14,48.12 -15.37,44.38 -12.02,40.84 -8.67,37.30 -2.23,33.18 4.21,29.06 12.15,25.72 20.09,22.38 29.79,19.35 39.48,16.32 50.59,13.99 61.69,11.65 74.20,10.29 86.71,8.92 100.90,9.82 115.10,10.72 125.67,13.48 136.23,16.24 146.54,20.62 156.84,24.99 167.22,31.09 177.60,37.18 188.94,45.30 200.29,53.42 207.92,59.57 215.55,65.73 221.89,71.32 228.23,76.91 232.65,81.02 237.06,85.12 239.83,87.15 242.59,89.18 243.85,88.62 245.10,88.07 245.97,84.54 246.84,81.01 247.02,74.08 247.19,67.16 244.11,56.81 241.03,46.47 233.72,32.65 226.41,18.84 214.87,8.00 203.34,-2.83 188.04,-11.78 172.74,-20.74 155.20,-25.86 137.67,-30.98 120.22,-32.35 102.78,-33.71 86.40,-32.88 70.03,-32.06 53.89,-30.18 37.76,-28.30 29.14,-25.17 20.52,-22.04 14.63,-17.93 8.75,-13.83 5.17,-9.67 1.60,-5.52 2.18,-3.03 2.76,-0.55 2.79,-0.21 2.82,0.12 2.76,0.46 2.70,0.79 2.57,1.10 2.43,1.42 2.23,1.69 2.02,1.96 1.76,2.17 1.49,2.39 1.19,2.53 0.88,2.68 0.54,2.74 0.21,2.81 -0.12,2.79 -0.46,2.78 -0.79,2.68 -1.11,2.59 -1.41,2.42 -1.70,2.24 -1.94,2.01 -2.19,1.77 -2.37,1.48 -2.55,1.19 -2.66,0.87 -2.76,0.55 -2.76,0.55 L -2.76,0.55 Z"></path></g><g transform="translate(197 391) rotate(0 230 10.5)" stroke="none"><path fill="#1e1e1e" d="M 2.90,0.36 Q 2.90,0.36 2.33,4.95 1.77,9.55 2.39,19.29 3.02,29.02 4.42,38.62 5.82,48.21 7.83,55.91 9.84,63.61 12.04,67.85 14.25,72.10 17.17,72.79 20.10,73.49 23.83,70.63 27.56,67.77 33.28,62.10 39.00,56.43 47.34,49.00 55.68,41.58 66.55,34.01 77.42,26.44 95.83,19.90 114.25,13.37 132.50,9.75 150.74,6.14 170.10,4.89 189.47,3.64 210.75,4.85 232.02,6.06 261.66,12.93 291.30,19.80 316.89,28.79 342.47,37.78 363.79,47.97 385.10,58.16 402.00,68.58 418.90,79.00 431.58,88.05 444.25,97.10 453.91,103.75 463.57,110.40 468.80,112.79 474.04,115.18 477.20,113.75 480.36,112.33 483.48,107.32 486.61,102.32 490.31,89.50 494.01,76.68 495.93,62.94 497.85,49.21 497.80,34.88 497.76,20.56 494.36,7.29 490.95,-5.96 484.22,-17.67 477.48,-29.38 463.11,-40.71 448.75,-52.04 432.42,-60.31 416.08,-68.59 397.20,-74.37 378.32,-80.16 357.11,-84.63 335.89,-89.11 306.30,-91.86 276.71,-94.61 249.54,-94.63 222.38,-94.65 196.36,-90.65 170.34,-86.64 145.03,-78.95 119.72,-71.26 96.10,-61.13 72.48,-50.99 48.45,-37.26 24.42,-23.53 8.41,-13.95 -7.59,-4.36 -17.07,1.04 -26.56,6.45 -31.23,8.93 -35.91,11.41 -39.62,12.77 -43.34,14.13 -43.54,14.21 -43.74,14.28 -43.95,14.29 -44.16,14.30 -44.37,14.24 -44.57,14.18 -44.74,14.05 -44.92,13.93 -45.04,13.76 -45.17,13.59 -45.23,13.39 -45.29,13.18 -45.29,12.97 -45.29,12.76 -45.22,12.56 -45.14,12.36 -45.01,12.19 -44.88,12.02 -44.70,11.91 -44.52,11.79 -44.32,11.74 -44.11,11.69 -43.90,11.70 -43.69,11.72 -43.49,11.80 -43.30,11.88 -43.14,12.02 -42.98,12.16 -42.87,12.35 -42.77,12.53 -42.72,12.74 -42.68,12.95 -42.71,13.16 -42.74,13.37 -42.83,13.56 -42.92,13.75 -43.07,13.90 -43.22,14.06 -43.41,14.15 -43.60,14.25 -43.81,14.28 -44.02,14.31 -44.23,14.27 -44.44,14.23 -44.62,14.13 -44.81,14.03 -44.95,13.87 -45.10,13.71 -45.18,13.52 -45.27,13.32 -45.29,13.11 -45.30,12.90 -45.26,12.69 -45.21,12.49 -45.09,12.31 -44.98,12.13 -44.81,11.99 -44.65,11.86 -44.65,11.86 -44.65,11.86 -41.61,9.32 -38.57,6.79 -34.10,4.00 -29.63,1.21 -20.31,-4.41 -10.99,-10.04 5.06,-19.68 21.12,-29.31 45.48,-43.22 69.85,-57.12 93.82,-67.37 117.78,-77.62 143.56,-85.42 169.33,-93.21 195.85,-97.22 222.38,-101.24 249.85,-101.20 277.32,-101.15 307.28,-98.34 337.24,-95.52 358.74,-90.97 380.24,-86.41 399.63,-80.41 419.02,-74.41 435.91,-65.78 452.80,-57.15 467.91,-44.95 483.02,-32.74 490.15,-20.18 497.28,-7.63 500.80,6.43 504.33,20.50 504.35,35.30 504.37,50.11 502.39,64.33 500.41,78.55 496.28,92.28 492.15,106.01 487.68,112.05 483.20,118.10 477.96,119.67 472.72,121.24 466.29,118.52 459.86,115.79 450.20,109.04 440.54,102.30 428.05,93.36 415.56,84.42 398.95,74.15 382.35,63.89 361.36,53.83 340.36,43.77 315.11,34.87 289.85,25.98 260.75,19.17 231.64,12.37 210.76,11.16 189.87,9.96 170.91,11.15 151.95,12.35 134.14,15.84 116.33,19.33 98.62,25.45 80.91,31.57 70.36,38.90 59.81,46.22 51.58,53.55 43.35,60.87 37.15,66.91 30.94,72.95 25.53,76.00 20.13,79.05 15.11,77.40 10.08,75.76 7.11,70.44 4.13,65.13 2.06,57.09 -0.00,49.06 -1.42,39.22 -2.85,29.39 -3.46,19.11 -4.07,8.84 -3.48,4.24 -2.90,-0.36 -2.81,-0.70 -2.73,-1.04 -2.56,-1.35 -2.40,-1.67 -2.16,-1.93 -1.93,-2.19 -1.64,-2.39 -1.35,-2.59 -1.02,-2.72 -0.69,-2.84 -0.33,-2.88 0.01,-2.92 0.36,-2.88 0.71,-2.83 1.04,-2.71 1.36,-2.58 1.65,-2.38 1.94,-2.18 2.18,-1.91 2.41,-1.65 2.57,-1.34 2.74,-1.02 2.82,-0.68 2.90,-0.34 2.90,0.01 2.90,0.36 2.90,0.36 L 2.90,0.36 Z"></path></g><g transform="translate(206 216) rotate(0 290 17)" stroke="none"><path fill="#1e1e1e" d="M 1.67,0.13 Q 1.67,0.13 1.91,3.63 2.15,7.12 1.74,12.04 1.33,16.96 1.17,22.32 1.01,27.69 4.23,33.06 7.45,38.44 12.43,41.39 17.40,44.34 25.50,45.31 33.60,46.28 44.09,45.01 54.59,43.75 71.33,39.20 88.08,34.65 105.56,29.00 123.05,23.35 142.56,16.64 162.07,9.92 183.38,3.58 204.68,-2.76 227.71,-6.67 250.73,-10.57 279.81,-8.22 308.90,-5.87 332.92,1.23 356.95,8.35 377.39,19.23 397.83,30.12 416.85,42.22 435.87,54.33 458.90,69.81 481.93,85.29 499.76,97.31 517.59,109.33 531.16,117.86 544.73,126.39 554.75,131.99 564.77,137.60 571.47,140.49 578.18,143.39 582.15,144.12 586.12,144.86 590.74,140.01 595.35,135.17 599.06,126.61 602.77,118.04 604.97,104.83 607.17,91.62 605.01,70.17 602.86,48.72 595.99,29.76 589.13,10.79 578.02,-5.39 566.92,-21.58 551.72,-35.52 536.52,-49.45 517.84,-61.05 499.16,-72.64 478.13,-81.55 457.10,-90.45 425.94,-97.07 394.79,-103.69 364.42,-105.65 334.04,-107.61 302.29,-105.29 270.54,-102.98 227.56,-93.98 184.57,-84.97 148.45,-75.98 112.32,-66.98 83.22,-58.28 54.11,-49.59 33.15,-42.23 12.18,-34.88 -0.75,-29.18 -13.70,-23.48 -23.57,-19.64 -33.44,-15.80 -33.64,-15.75 -33.85,-15.69 -34.06,-15.70 -34.27,-15.71 -34.47,-15.79 -34.67,-15.87 -34.83,-16.01 -34.99,-16.14 -35.10,-16.32 -35.21,-16.51 -35.26,-16.71 -35.31,-16.92 -35.28,-17.13 -35.26,-17.34 -35.17,-17.54 -35.08,-17.73 -34.94,-17.88 -34.79,-18.04 -34.60,-18.14 -34.42,-18.24 -34.21,-18.27 -34.00,-18.31 -33.79,-18.27 -33.58,-18.24 -33.39,-18.14 -33.20,-18.04 -33.06,-17.89 -32.91,-17.73 -32.82,-17.54 -32.73,-17.35 -32.71,-17.14 -32.68,-16.93 -32.73,-16.72 -32.77,-16.51 -32.88,-16.33 -32.99,-16.15 -33.15,-16.01 -33.32,-15.87 -33.51,-15.79 -33.71,-15.71 -33.92,-15.70 -34.13,-15.69 -34.34,-15.75 -34.54,-15.80 -34.72,-15.92 -34.90,-16.04 -35.02,-16.21 -35.15,-16.38 -35.22,-16.58 -35.29,-16.78 -35.29,-16.99 -35.29,-17.20 -35.22,-17.41 -35.16,-17.61 -35.03,-17.78 -34.90,-17.95 -34.72,-18.07 -34.55,-18.19 -34.55,-18.19 -34.55,-18.19 -25.26,-23.28 -15.97,-28.37 -3.00,-34.74 9.97,-41.12 31.06,-48.65 52.15,-56.17 81.40,-64.92 110.66,-73.66 146.91,-82.69 183.16,-91.73 226.60,-100.79 270.03,-109.86 302.26,-112.18 334.48,-114.49 365.35,-112.47 396.22,-110.44 428.00,-103.63 459.77,-96.81 481.28,-87.64 502.78,-78.47 521.95,-66.47 541.11,-54.47 556.79,-39.94 572.48,-25.42 583.97,-8.47 595.45,8.46 602.52,28.23 609.58,48.01 611.78,70.36 613.99,92.71 611.57,106.78 609.15,120.84 604.69,130.47 600.24,140.10 593.75,145.60 587.27,151.09 581.37,150.45 575.48,149.80 568.42,146.74 561.37,143.68 551.20,137.98 541.02,132.28 527.37,123.67 513.72,115.07 495.91,103.02 478.11,90.96 455.17,75.50 432.23,60.03 413.44,48.05 394.65,36.06 374.83,25.42 355.01,14.78 331.66,7.78 308.31,0.79 280.04,-1.65 251.77,-4.09 229.14,-0.34 206.51,3.40 185.33,9.67 164.14,15.94 144.57,22.67 125.00,29.40 107.36,35.09 89.72,40.78 72.50,45.32 55.29,49.86 44.06,51.04 32.83,52.22 23.64,50.83 14.44,49.44 8.50,45.49 2.56,41.54 -0.97,34.73 -4.50,27.92 -4.31,22.21 -4.12,16.50 -3.71,11.58 -3.30,6.67 -2.48,3.26 -1.67,-0.13 -1.63,-0.33 -1.59,-0.53 -1.50,-0.71 -1.41,-0.90 -1.28,-1.05 -1.16,-1.21 -0.99,-1.33 -0.83,-1.45 -0.64,-1.53 -0.46,-1.61 -0.26,-1.64 -0.06,-1.67 0.13,-1.66 0.34,-1.64 0.53,-1.57 0.72,-1.51 0.89,-1.40 1.06,-1.29 1.20,-1.15 1.34,-1.00 1.44,-0.82 1.54,-0.65 1.60,-0.45 1.65,-0.26 1.66,-0.06 1.67,0.13 1.67,0.13 L 1.67,0.13 Z"></path></g></svg>