<svg version="1.1" xmlns="http://www.w3.org/2000/svg" viewBox="0 0 425 448" width="425" height="448">
  <g transform="translate(85 24) rotate(0 127.5 200)" stroke="none"><path fill="#1e1e1e" d="M -0.94,-2.26 Q -0.94,-2.26 2.48,-3.75 5.91,-5.24 11.55,-6.83 17.18,-8.41 22.80,-9.37 28.42,-10.33 34.63,-10.74 40.84,-11.16 48.02,-11.62 55.21,-12.08 64.60,-12.58 73.99,-13.08 87.74,-13.88 101.49,-14.67 113.71,-15.00 125.92,-15.34 137.70,-15.77 149.47,-16.19 160.83,-16.38 172.19,-16.56 185.65,-16.64 199.11,-16.71 209.75,-16.46 220.39,-16.20 229.19,-16.09 237.99,-15.99 245.76,-15.94 253.52,-15.89 259.70,-15.88 265.87,-15.86 271.66,-15.85 277.44,-15.84 281.05,-15.84 284.66,-15.84 287.63,-15.84 290.60,-15.83 293.30,-15.83 296.00,-15.83 300.03,-15.83 304.05,-15.83 307.48,-15.83 310.92,-15.83 313.53,-15.83 316.14,-15.83 318.32,-15.52 320.49,-15.22 321.56,-15.11 322.64,-14.99 324.49,-14.49 326.35,-13.99 328.24,-13.15 330.12,-12.31 330.78,-10.69 331.45,-9.07 331.83,-7.19 332.22,-5.31 332.41,-1.72 332.61,1.87 332.68,8.24 332.75,14.62 332.49,21.40 332.23,28.18 331.54,35.71 330.85,43.24 329.99,51.03 329.12,58.83 328.18,68.72 327.25,78.61 326.86,86.50 326.46,94.39 326.30,101.47 326.13,108.54 326.06,114.71 325.99,120.88 325.96,126.67 325.93,132.45 325.92,139.22 325.90,145.99 325.90,150.88 325.89,155.77 325.89,160.15 325.89,164.52 325.30,170.27 324.72,176.01 323.89,181.07 323.06,186.12 322.13,190.86 321.20,195.61 320.83,199.48 320.45,203.35 320.29,206.43 320.13,209.50 320.06,211.67 319.99,213.84 319.96,215.05 319.93,216.26 319.90,217.72 319.87,219.18 318.89,221.69 317.92,224.21 315.96,227.02 313.99,229.83 311.09,233.05 308.18,236.26 304.61,239.66 301.04,243.05 296.90,246.53 292.76,250.00 287.22,254.10 281.69,258.19 277.11,261.89 272.54,265.59 268.58,268.89 264.62,272.19 261.29,275.53 257.97,278.86 254.22,282.62 250.46,286.37 246.82,289.73 243.17,293.09 239.55,295.99 235.94,298.90 232.38,301.58 228.83,304.25 225.64,306.79 222.45,309.33 219.04,311.89 215.63,314.44 213.46,316.55 211.29,318.67 209.17,320.75 207.05,322.84 204.93,324.66 202.80,326.48 199.92,328.95 197.03,331.41 194.62,333.35 192.22,335.29 190.30,336.71 188.39,338.14 187.09,339.24 185.80,340.35 184.79,341.56 183.79,342.76 182.40,344.25 181.00,345.73 180.32,346.97 179.64,348.20 178.90,349.24 178.16,350.28 177.26,350.99 176.36,351.70 174.48,352.59 172.60,353.47 169.83,353.29 167.06,353.10 164.46,352.38 161.86,351.65 158.81,350.76 155.77,349.87 151.94,348.90 148.12,347.94 142.87,347.26 137.63,346.58 133.32,346.00 129.01,345.42 125.82,345.20 122.62,344.98 120.24,344.60 117.86,344.23 116.15,344.08 114.44,343.93 112.91,343.87 111.38,343.80 110.74,344.65 110.10,345.50 109.27,346.97 108.45,348.44 107.58,350.10 106.72,351.75 105.40,353.74 104.09,355.73 102.11,358.57 100.13,361.40 97.81,364.38 95.49,367.36 92.36,370.21 89.22,373.06 85.54,375.73 81.86,378.39 77.73,381.23 73.60,384.07 67.68,387.09 61.75,390.10 57.00,392.50 52.24,394.89 48.24,397.04 44.24,399.19 39.95,401.54 35.66,403.90 30.99,406.61 26.31,409.32 22.48,411.11 18.65,412.91 16.16,413.96 13.67,415.02 11.76,415.43 9.85,415.84 8.39,415.09 6.92,414.33 6.27,412.38 5.62,410.43 5.50,408.26 5.38,406.09 5.34,402.31 5.29,398.53 5.27,394.35 5.25,390.17 4.96,385.61 4.67,381.04 4.26,376.22 3.85,371.40 3.39,367.07 2.93,362.73 2.44,357.70 1.96,352.68 1.75,349.05 1.54,345.43 1.45,342.73 1.36,340.02 1.63,338.07 1.89,336.12 2.42,335.11 2.94,334.10 0.91,334.51 -1.11,334.92 -3.37,334.88 -5.64,334.84 -8.61,334.82 -11.59,334.80 -15.34,335.08 -19.09,335.36 -23.79,336.04 -28.50,336.72 -35.45,337.60 -42.41,338.47 -47.58,339.41 -52.75,340.36 -57.01,341.07 -61.27,341.77 -64.31,342.09 -67.35,342.41 -69.52,342.57 -71.69,342.72 -72.02,342.77 -72.34,342.82 -72.69,342.80 -73.04,342.78 -73.38,342.68 -73.71,342.57 -74.01,342.39 -74.31,342.21 -74.56,341.96 -74.81,341.71 -74.99,341.41 -75.17,341.11 -75.28,340.77 -75.38,340.44 -75.40,340.09 -75.42,339.74 -75.36,339.39 -75.29,339.05 -75.15,338.73 -75.00,338.41 -74.79,338.13 -74.57,337.85 -74.29,337.64 -74.02,337.42 -73.70,337.28 -73.38,337.13 -73.03,337.07 -72.69,337.01 -73.02,335.97 -73.35,334.92 -72.97,332.30 -72.58,329.68 -72.12,325.67 -71.66,321.66 -71.48,316.31 -71.29,310.96 -71.21,304.08 -71.13,297.19 -71.09,288.51 -71.05,279.83 -71.04,267.23 -71.03,254.63 -71.02,243.52 -71.01,232.41 -70.43,222.43 -69.85,212.45 -68.74,202.98 -67.62,193.51 -66.58,182.94 -65.53,172.37 -64.80,164.14 -64.08,155.91 -63.48,148.68 -62.88,141.45 -62.63,134.99 -62.38,128.53 -61.98,122.55 -61.58,116.57 -60.83,109.39 -60.09,102.21 -59.18,96.79 -58.28,91.37 -57.92,86.93 -57.55,82.49 -57.10,79.04 -56.64,75.59 -56.46,73.09 -56.28,70.60 -56.20,69.23 -56.12,67.87 -56.09,66.75 -56.06,65.63 -56.00,63.70 -55.94,61.77 -57.11,61.17 -58.28,60.56 -59.39,59.58 -60.50,58.60 -61.78,57.91 -63.05,57.23 -64.21,57.14 -65.36,57.05 -66.33,57.33 -67.31,57.60 -67.67,57.55 -68.03,57.50 -68.37,57.36 -68.71,57.23 -69.00,57.02 -69.30,56.80 -69.54,56.53 -69.77,56.25 -69.94,55.92 -70.10,55.60 -70.18,55.24 -70.26,54.89 -70.25,54.52 -70.25,54.16 -70.15,53.80 -70.06,53.45 -69.88,53.13 -69.71,52.81 -69.46,52.54 -69.21,52.28 -68.91,52.07 -68.61,51.87 -68.26,51.75 -67.92,51.63 -67.56,51.59 -67.20,51.55 -64.13,50.35 -61.06,49.14 -57.59,46.71 -54.13,44.27 -47.03,39.97 -39.94,35.67 -33.26,31.31 -26.59,26.95 -20.56,23.06 -14.53,19.18 -9.61,16.34 -4.69,13.51 -1.53,11.49 1.62,9.48 3.38,8.55 5.15,7.62 6.36,7.30 7.57,6.97 11.04,6.37 14.51,5.77 14.72,5.73 14.93,5.68 15.14,5.71 15.35,5.73 15.54,5.82 15.74,5.91 15.89,6.06 16.04,6.20 16.14,6.39 16.24,6.58 16.27,6.79 16.31,7.00 16.27,7.21 16.24,7.42 16.14,7.61 16.04,7.79 15.88,7.94 15.73,8.08 15.53,8.17 15.34,8.26 15.13,8.28 14.92,8.31 14.71,8.26 14.50,8.21 14.32,8.10 14.14,7.99 14.00,7.83 13.87,7.67 13.79,7.47 13.71,7.27 13.70,7.06 13.69,6.85 13.75,6.64 13.81,6.44 13.93,6.26 14.05,6.09 14.21,5.96 14.38,5.83 14.59,5.77 14.79,5.70 15.00,5.70 15.21,5.70 15.41,5.77 15.61,5.84 15.78,5.97 15.95,6.10 16.07,6.27 16.19,6.45 16.25,6.65 16.30,6.86 16.29,7.07 16.28,7.28 16.20,7.48 16.12,7.68 15.98,7.84 15.84,8.00 15.66,8.11 15.48,8.22 15.48,8.22 15.48,8.22 11.71,10.58 7.95,12.95 6.41,13.76 4.87,14.58 1.60,16.67 -1.66,18.76 -6.46,21.52 -11.25,24.28 -17.26,28.15 -23.27,32.03 -30.03,36.45 -36.80,40.86 -43.73,45.05 -50.67,49.24 -54.52,51.89 -58.36,54.54 -61.24,55.92 -64.12,57.29 -65.72,57.45 -67.31,57.60 -67.67,57.55 -68.03,57.50 -68.37,57.36 -68.71,57.23 -69.00,57.02 -69.30,56.80 -69.53,56.53 -69.77,56.25 -69.94,55.92 -70.10,55.60 -70.18,55.24 -70.26,54.89 -70.25,54.52 -70.25,54.16 -70.15,53.80 -70.06,53.45 -69.88,53.13 -69.71,52.81 -69.46,52.54 -69.22,52.28 -68.91,52.07 -68.61,51.87 -68.26,51.75 -67.92,51.63 -67.56,51.59 -67.20,51.55 -66.80,51.30 -66.40,51.04 -65.16,51.05 -63.91,51.06 -62.37,51.33 -60.82,51.60 -59.83,52.03 -58.84,52.46 -57.66,53.27 -56.48,54.07 -55.57,54.90 -54.65,55.72 -52.84,57.35 -51.04,58.99 -50.55,60.12 -50.07,61.26 -50.04,62.44 -50.01,63.62 -50.02,64.71 -50.04,65.80 -50.07,67.01 -50.11,68.22 -50.19,69.63 -50.28,71.04 -50.48,73.71 -50.68,76.38 -51.12,79.69 -51.56,82.99 -51.95,87.68 -52.35,92.37 -53.22,97.60 -54.10,102.84 -54.84,109.90 -55.58,116.97 -55.97,122.87 -56.37,128.76 -56.62,135.35 -56.88,141.95 -57.48,149.20 -58.08,156.45 -58.81,164.70 -59.55,172.96 -60.60,183.59 -61.65,194.21 -62.75,203.51 -63.85,212.80 -64.42,222.61 -65.00,232.42 -65.00,243.53 -65.01,254.63 -65.03,267.25 -65.04,279.86 -65.08,288.56 -65.11,297.26 -65.20,304.22 -65.28,311.18 -65.49,316.76 -65.70,322.34 -66.18,326.46 -66.65,330.57 -67.38,334.44 -68.11,338.30 -69.11,340.17 -70.11,342.03 -71.23,342.43 -72.34,342.82 -72.69,342.80 -73.04,342.78 -73.38,342.68 -73.71,342.57 -74.01,342.39 -74.31,342.21 -74.56,341.96 -74.81,341.71 -74.99,341.41 -75.17,341.11 -75.28,340.77 -75.38,340.44 -75.40,340.09 -75.42,339.74 -75.36,339.39 -75.29,339.05 -75.15,338.73 -75.00,338.41 -74.79,338.13 -74.57,337.85 -74.29,337.64 -74.02,337.42 -73.70,337.28 -73.38,337.13 -73.03,337.07 -72.69,337.01 -72.36,336.96 -72.04,336.90 -69.98,336.81 -67.91,336.71 -65.05,336.44 -62.18,336.18 -57.96,335.51 -53.74,334.84 -48.42,333.89 -43.10,332.95 -36.20,332.08 -29.29,331.22 -24.39,330.51 -19.49,329.81 -15.52,329.52 -11.56,329.24 -8.55,329.26 -5.54,329.28 -3.19,329.32 -0.84,329.36 1.53,329.53 3.91,329.69 5.24,330.33 6.56,330.97 7.22,332.36 7.88,333.74 7.62,335.33 7.36,336.93 7.12,338.39 6.89,339.85 6.97,342.48 7.06,345.11 7.26,348.63 7.46,352.14 7.95,357.15 8.43,362.15 8.90,366.54 9.36,370.93 9.78,375.81 10.19,380.69 10.49,385.42 10.79,390.15 10.81,394.31 10.83,398.47 10.87,402.14 10.91,405.81 11.23,407.88 11.55,409.94 13.95,408.95 16.35,407.95 19.96,406.28 23.58,404.61 28.31,401.86 33.04,399.12 37.36,396.76 41.67,394.40 45.73,392.21 49.80,390.03 54.54,387.64 59.29,385.25 64.91,382.41 70.52,379.58 74.60,376.78 78.67,373.98 82.13,371.50 85.58,369.01 88.40,366.51 91.21,364.00 93.44,361.14 95.67,358.28 97.62,355.51 99.57,352.73 100.74,350.97 101.91,349.22 102.82,347.48 103.74,345.73 104.40,344.63 105.05,343.52 105.61,342.21 106.17,340.91 107.63,339.99 109.09,339.07 110.27,338.73 111.45,338.40 113.19,338.47 114.93,338.55 116.86,338.74 118.78,338.92 120.90,339.33 123.02,339.74 126.36,340.01 129.70,340.28 133.99,340.86 138.29,341.45 143.82,342.14 149.35,342.84 153.30,343.76 157.24,344.69 160.29,345.53 163.34,346.37 165.62,347.01 167.90,347.65 169.70,348.14 171.49,348.63 172.40,347.89 173.31,347.14 174.10,346.28 174.90,345.43 175.95,343.71 176.99,342.00 178.31,340.61 179.62,339.21 180.94,337.70 182.25,336.19 183.69,334.97 185.14,333.75 186.97,332.40 188.80,331.04 191.14,329.16 193.49,327.27 196.38,324.80 199.26,322.33 201.25,320.64 203.23,318.96 205.36,316.85 207.50,314.75 209.93,312.41 212.36,310.08 215.71,307.58 219.06,305.08 222.31,302.50 225.56,299.91 229.05,297.29 232.53,294.67 236.01,291.88 239.49,289.09 243.05,285.81 246.62,282.52 250.37,278.77 254.12,275.02 257.63,271.51 261.13,268.01 265.13,264.69 269.12,261.37 273.79,257.60 278.46,253.84 283.86,249.84 289.26,245.85 293.25,242.47 297.24,239.08 300.63,235.81 304.03,232.54 306.68,229.55 309.33,226.55 310.98,224.22 312.63,221.89 313.38,220.42 314.14,218.95 314.14,217.53 314.15,216.12 314.18,214.89 314.21,213.65 314.28,211.43 314.36,209.20 314.53,205.99 314.70,202.79 315.11,198.64 315.52,194.49 316.44,189.84 317.36,185.18 318.16,180.30 318.97,175.42 319.54,169.97 320.11,164.52 320.11,160.14 320.11,155.76 320.12,150.87 320.12,145.98 320.14,139.20 320.15,132.42 320.18,126.62 320.22,120.82 320.29,114.61 320.36,108.41 320.54,101.25 320.71,94.10 321.12,86.08 321.53,78.07 322.48,68.13 323.43,58.20 324.30,50.46 325.16,42.72 325.84,35.34 326.52,27.96 326.78,21.32 327.04,14.68 326.97,8.41 326.91,2.14 326.78,-1.02 326.65,-4.18 326.09,-6.31 325.53,-8.43 323.78,-8.90 322.03,-9.36 320.85,-9.49 319.67,-9.62 317.90,-9.89 316.13,-10.16 313.53,-10.16 310.92,-10.16 307.48,-10.16 304.05,-10.16 300.03,-10.16 296.00,-10.16 293.30,-10.16 290.60,-10.16 287.63,-10.16 284.66,-10.16 281.05,-10.17 277.43,-10.17 271.64,-10.18 265.85,-10.19 259.67,-10.21 253.49,-10.23 245.71,-10.28 237.93,-10.32 229.09,-10.43 220.26,-10.54 209.70,-10.79 199.14,-11.05 185.71,-10.97 172.29,-10.89 160.98,-10.71 149.68,-10.53 137.88,-10.10 126.08,-9.67 113.95,-9.35 101.81,-9.02 88.05,-8.25 74.28,-7.49 64.91,-7.03 55.55,-6.57 48.37,-6.13 41.19,-5.69 35.25,-5.32 29.32,-4.96 23.94,-4.09 18.57,-3.22 13.23,-1.86 7.88,-0.50 4.41,0.88 0.94,2.26 0.66,2.34 0.37,2.43 0.07,2.43 -0.21,2.44 -0.50,2.38 -0.79,2.32 -1.06,2.19 -1.33,2.06 -1.55,1.87 -1.78,1.68 -1.96,1.45 -2.13,1.21 -2.25,0.93 -2.36,0.66 -2.41,0.37 -2.45,0.07 -2.43,-0.21 -2.40,-0.51 -2.30,-0.79 -2.21,-1.07 -2.05,-1.32 -1.89,-1.57 -1.67,-1.77 -1.46,-1.97 -1.20,-2.12 -0.94,-2.26 -0.94,-2.26 L -0.94,-2.26 Z"></path></g><g transform="translate(118 44) rotate(0 134.5 152.5)" stroke="none"><path fill="#1e1e1e" d="M 2.43,0.32 Q 2.43,0.32 1.92,4.64 1.42,8.96 1.52,17.23 1.63,25.50 1.69,38.87 1.75,52.24 1.20,69.18 0.65,86.12 -0.13,107.97 -0.93,129.81 -1.25,146.55 -1.57,163.28 -1.99,176.17 -2.40,189.07 -2.86,198.87 -3.32,208.68 -3.50,215.40 -3.68,222.11 -4.05,226.23 -4.42,230.34 -4.90,232.50 -5.38,234.65 -5.28,235.53 -5.18,236.40 -5.30,236.75 -5.43,237.09 -5.63,237.40 -5.83,237.70 -6.10,237.95 -6.36,238.20 -6.68,238.37 -7.00,238.55 -7.36,238.65 -7.71,238.74 -8.07,238.75 -8.44,238.76 -8.80,238.68 -9.15,238.60 -9.48,238.43 -9.81,238.27 -10.09,238.04 -10.36,237.80 -10.58,237.50 -10.79,237.21 -10.93,236.87 -11.07,236.53 -11.12,236.17 -11.17,235.81 -11.13,235.44 -11.10,235.08 -9.07,233.72 -7.03,232.37 -5.38,231.75 -3.73,231.13 -0.87,230.24 1.98,229.36 7.07,228.38 12.15,227.40 17.49,226.70 22.83,226.00 27.97,225.41 33.10,224.83 37.86,224.30 42.62,223.77 47.44,222.98 52.26,222.18 55.76,221.56 59.26,220.94 61.13,220.44 62.99,219.95 64.84,220.63 66.68,221.32 67.56,222.96 68.44,224.59 68.64,226.80 68.85,229.01 68.91,232.19 68.97,235.37 69.00,239.57 69.02,243.78 69.03,251.03 69.04,258.28 68.76,265.17 68.47,272.05 67.77,278.50 67.07,284.95 66.49,290.23 65.92,295.52 65.10,300.99 64.28,306.47 63.94,309.29 63.61,312.12 63.37,313.79 63.14,315.46 63.17,315.33 63.20,315.20 63.11,315.57 63.03,315.94 62.86,316.27 62.70,316.61 62.45,316.90 62.21,317.19 61.91,317.41 61.60,317.63 61.25,317.77 60.90,317.91 60.53,317.96 60.16,318.02 59.78,317.98 59.41,317.94 59.06,317.82 58.70,317.69 58.39,317.49 58.07,317.28 57.82,317.00 57.56,316.73 57.38,316.40 57.20,316.07 57.10,315.71 57.00,315.34 56.99,314.97 56.98,314.59 58.54,311.20 60.10,307.81 62.52,304.13 64.95,300.45 67.99,296.31 71.03,292.17 74.31,287.58 77.59,282.99 82.74,276.11 87.90,269.24 92.99,262.84 98.07,256.45 102.82,250.58 107.57,244.71 111.95,239.86 116.33,235.02 119.67,231.76 123.02,228.51 125.37,226.50 127.72,224.49 130.25,223.42 132.78,222.35 135.44,221.91 138.09,221.48 141.25,221.32 144.40,221.15 147.78,220.54 151.17,219.92 156.83,219.34 162.49,218.77 166.83,218.25 171.17,217.73 174.25,217.50 177.32,217.27 179.50,217.17 181.68,217.08 182.53,216.31 183.38,215.54 184.49,213.80 185.60,212.06 187.88,208.90 190.16,205.74 192.85,202.11 195.54,198.48 198.67,194.09 201.81,189.70 206.48,185.03 211.15,180.37 218.74,175.14 226.33,169.90 232.47,166.52 238.62,163.15 243.63,161.09 248.65,159.04 252.58,157.86 256.51,156.68 258.96,155.92 261.42,155.16 262.57,154.62 263.72,154.08 262.86,150.90 262.01,147.72 261.38,143.54 260.74,139.36 260.48,133.19 260.21,127.01 260.39,118.32 260.57,109.63 262.09,96.34 263.62,83.06 265.42,72.22 267.23,61.38 268.86,52.47 270.49,43.56 271.45,36.13 272.42,28.69 273.12,22.37 273.82,16.04 274.10,9.99 274.39,3.93 274.52,0.19 274.65,-3.54 274.70,-5.70 274.75,-7.86 272.30,-7.88 269.85,-7.91 265.98,-7.60 262.11,-7.28 256.39,-6.86 250.67,-6.44 243.70,-5.69 236.72,-4.94 225.35,-4.06 213.98,-3.17 202.27,-2.22 190.57,-1.27 178.11,-0.29 165.65,0.68 152.66,2.24 139.67,3.80 126.93,5.33 114.20,6.86 99.36,9.22 84.52,11.59 73.35,13.75 62.18,15.90 53.65,17.40 45.11,18.90 38.64,20.10 32.17,21.30 26.76,22.09 21.36,22.88 18.58,23.35 15.81,23.82 13.54,23.55 11.28,23.28 11.07,23.29 10.85,23.30 10.65,23.24 10.44,23.19 10.27,23.07 10.09,22.95 9.96,22.78 9.83,22.61 9.77,22.41 9.70,22.21 9.70,22.00 9.70,21.78 9.77,21.58 9.83,21.38 9.96,21.21 10.09,21.04 10.27,20.92 10.44,20.80 10.65,20.75 10.85,20.69 11.06,20.70 11.28,20.71 11.47,20.79 11.67,20.87 11.83,21.01 12.00,21.14 12.11,21.33 12.21,21.51 12.26,21.72 12.31,21.92 12.28,22.13 12.26,22.35 12.17,22.54 12.08,22.73 11.94,22.89 11.79,23.04 11.60,23.14 11.41,23.24 11.21,23.27 11.00,23.31 10.79,23.27 10.58,23.24 10.39,23.14 10.20,23.04 10.05,22.89 9.91,22.73 9.82,22.54 9.73,22.35 9.71,22.14 9.68,21.92 9.73,21.72 9.77,21.51 9.88,21.33 9.99,21.14 10.16,21.01 10.32,20.87 10.52,20.79 10.71,20.71 10.71,20.71 10.71,20.71 12.65,19.51 14.60,18.32 17.52,17.53 20.44,16.74 25.72,15.92 31.01,15.11 37.52,13.89 44.02,12.68 52.50,11.19 60.98,9.70 72.26,7.54 83.53,5.38 98.49,3.00 113.45,0.61 126.18,-0.91 138.92,-2.44 152.04,-4.01 165.16,-5.58 177.60,-6.57 190.05,-7.55 201.77,-8.51 213.49,-9.47 224.76,-10.37 236.04,-11.28 243.12,-12.04 250.20,-12.80 255.90,-13.22 261.60,-13.64 265.66,-13.96 269.71,-14.28 273.68,-14.16 277.64,-14.03 279.00,-12.78 280.37,-11.53 280.72,-9.61 281.08,-7.70 281.02,-5.51 280.97,-3.32 280.84,0.45 280.71,4.24 280.40,10.49 280.10,16.74 279.39,23.12 278.68,29.51 277.69,37.10 276.70,44.70 275.08,53.56 273.46,62.42 271.68,73.10 269.89,83.78 268.39,96.77 266.89,109.76 266.71,118.26 266.53,126.75 266.77,132.59 267.00,138.44 267.56,142.25 268.11,146.06 268.76,148.48 269.41,150.91 269.83,151.93 270.25,152.94 270.23,154.30 270.21,155.66 269.34,157.01 268.47,158.36 267.39,159.04 266.32,159.73 264.79,160.41 263.26,161.09 260.77,161.87 258.28,162.64 254.64,163.72 250.99,164.80 246.30,166.70 241.61,168.60 235.73,171.82 229.85,175.04 222.69,179.93 215.53,184.81 211.20,189.07 206.87,193.33 203.71,197.76 200.55,202.19 197.88,205.79 195.22,209.39 193.03,212.41 190.84,215.44 189.55,217.43 188.26,219.41 186.81,220.85 185.36,222.28 183.67,222.74 181.98,223.19 179.88,223.29 177.78,223.38 174.84,223.60 171.90,223.81 167.50,224.34 163.11,224.87 157.68,225.41 152.25,225.96 148.48,226.62 144.71,227.28 141.85,227.41 139.00,227.54 136.99,227.81 134.98,228.07 133.29,228.64 131.61,229.21 129.46,231.05 127.30,232.90 124.11,236.02 120.91,239.14 116.66,243.88 112.41,248.62 107.69,254.48 102.96,260.34 97.94,266.67 92.91,272.99 87.80,279.81 82.68,286.63 79.38,291.25 76.09,295.88 73.13,299.90 70.17,303.91 67.94,307.26 65.72,310.60 64.46,312.90 63.20,315.20 63.11,315.57 63.03,315.94 62.86,316.27 62.70,316.61 62.45,316.90 62.21,317.19 61.91,317.41 61.60,317.63 61.25,317.77 60.90,317.91 60.53,317.96 60.16,318.02 59.78,317.98 59.41,317.94 59.06,317.82 58.70,317.69 58.39,317.49 58.07,317.28 57.82,317.00 57.56,316.73 57.38,316.40 57.20,316.07 57.10,315.71 57.00,315.34 56.99,314.97 56.98,314.59 57.13,314.33 57.29,314.07 57.35,312.72 57.42,311.37 57.78,308.45 58.14,305.53 58.97,300.19 59.79,294.84 60.38,289.56 60.98,284.28 61.66,278.04 62.35,271.79 62.64,265.04 62.92,258.29 62.91,251.06 62.90,243.82 62.87,239.65 62.85,235.48 62.79,232.47 62.74,229.46 63.23,227.57 63.73,225.68 62.03,226.29 60.33,226.91 56.79,227.54 53.25,228.18 48.27,228.99 43.30,229.80 38.54,230.34 33.79,230.87 28.70,231.45 23.62,232.03 18.46,232.70 13.29,233.37 8.53,234.27 3.77,235.17 1.06,236.00 -1.65,236.83 -3.41,236.62 -5.18,236.40 -5.30,236.75 -5.43,237.09 -5.63,237.40 -5.83,237.70 -6.10,237.95 -6.36,238.20 -6.68,238.37 -7.00,238.55 -7.36,238.65 -7.71,238.74 -8.07,238.75 -8.44,238.76 -8.80,238.68 -9.15,238.60 -9.48,238.43 -9.81,238.27 -10.09,238.04 -10.36,237.80 -10.58,237.50 -10.79,237.21 -10.93,236.87 -11.07,236.53 -11.12,236.17 -11.17,235.81 -11.13,235.44 -11.10,235.08 -11.20,234.26 -11.30,233.44 -10.88,231.61 -10.47,229.77 -10.09,225.85 -9.72,221.93 -9.50,215.16 -9.27,208.39 -8.79,198.63 -8.30,188.87 -7.85,176.01 -7.39,163.16 -7.02,146.38 -6.65,129.60 -5.81,107.76 -4.97,85.93 -4.39,69.09 -3.80,52.24 -3.78,38.88 -3.76,25.52 -3.74,16.90 -3.72,8.28 -3.07,3.98 -2.43,-0.32 -2.35,-0.61 -2.28,-0.89 -2.14,-1.15 -2.00,-1.41 -1.80,-1.63 -1.60,-1.85 -1.35,-2.01 -1.11,-2.18 -0.83,-2.28 -0.55,-2.38 -0.26,-2.42 0.02,-2.45 0.32,-2.41 0.61,-2.37 0.89,-2.26 1.16,-2.15 1.40,-1.98 1.64,-1.81 1.84,-1.59 2.03,-1.36 2.16,-1.10 2.30,-0.84 2.37,-0.55 2.43,-0.26 2.43,0.02 2.43,0.32 2.43,0.32 L 2.43,0.32 Z"></path></g><g transform="translate(233 97) rotate(0 -18.5 45.5)" stroke="none"><path fill="#1e1e1e" d="M 0,2.49 Q 0,2.49 -2.3,2.58 -4.6,2.67 -7.01,2.68 -9.43,2.70 -11.89,2.74 -14.35,2.77 -17.12,2.81 -19.90,2.85 -21.65,2.85 -23.40,2.86 -27.02,2.86 -30.64,2.87 -33.04,2.87 -35.45,2.88 -36.82,2.80 -38.19,2.72 -37.94,1.28 -37.69,-0.14 -36.36,1.31 -35.03,2.76 -33.87,5.25 -32.71,7.75 -31.91,13.63 -31.10,19.51 -30.80,25.40 -30.50,31.29 -30.37,37.25 -30.24,43.20 -30.17,50.04 -30.10,56.88 -30.36,62.17 -30.61,67.46 -30.71,71.65 -30.82,75.83 -31.15,79.18 -31.49,82.53 -31.93,84.90 -32.37,87.26 -32.54,88.70 -32.70,90.13 -33.73,89.80 -34.77,89.47 -32.37,89.29 -29.98,89.11 -26.96,88.78 -23.93,88.45 -20.63,88.02 -17.32,87.60 -13.78,87.40 -10.23,87.21 -7.29,87.13 -4.35,87.05 -2.04,87.31 0.27,87.58 1.45,87.68 2.63,87.79 2.98,87.88 3.34,87.97 3.67,88.14 4.00,88.31 4.27,88.56 4.55,88.80 4.76,89.11 4.97,89.41 5.10,89.76 5.23,90.10 5.28,90.47 5.32,90.84 5.28,91.20 5.23,91.57 5.10,91.92 4.97,92.26 4.76,92.57 4.55,92.87 4.27,93.12 4.00,93.36 3.67,93.53 3.34,93.70 2.98,93.79 2.62,93.88 2.25,93.88 1.88,93.88 2.18,90.86 2.48,87.83 2.85,87.92 3.21,88.01 3.54,88.19 3.88,88.36 4.16,88.61 4.44,88.86 4.65,89.17 4.87,89.48 5.00,89.83 5.13,90.18 5.18,90.55 5.22,90.93 5.18,91.30 5.13,91.67 5.00,92.03 4.87,92.38 4.65,92.69 4.44,93.00 4.16,93.25 3.88,93.49 3.54,93.67 3.21,93.84 2.85,93.93 2.48,94.02 2.10,94.02 1.73,94.02 0.13,92.18 -1.46,90.34 -1.96,87.70 -2.47,85.05 -2.67,80.96 -2.87,76.88 -3.24,71.53 -3.60,66.17 -3.76,59.79 -3.91,53.41 -4.26,45.29 -4.62,37.17 -5.05,31.17 -5.49,25.17 -5.95,20.93 -6.42,16.69 -6.90,13.49 -7.38,10.28 -7.86,7.84 -8.33,5.40 -9.85,3.91 -11.37,2.42 -11.52,2.07 -11.66,1.72 -11.72,1.35 -11.78,0.97 -11.75,0.60 -11.72,0.22 -11.60,-0.13 -11.48,-0.49 -11.28,-0.80 -11.08,-1.12 -10.80,-1.39 -10.53,-1.65 -10.20,-1.83 -9.88,-2.02 -9.51,-2.13 -9.15,-2.23 -8.77,-2.25 -8.39,-2.26 -8.02,-2.19 -7.65,-2.11 -7.31,-1.95 -6.97,-1.78 -6.68,-1.54 -6.39,-1.30 -6.16,-1.00 -5.93,-0.70 -6.62,-1.54 -7.31,-2.38 -3.57,-1.84 0.15,-1.30 0.36,-1.24 0.56,-1.18 0.73,-1.06 0.91,-0.94 1.04,-0.77 1.16,-0.60 1.23,-0.40 1.29,-0.19 1.29,0.01 1.29,0.22 1.22,0.42 1.15,0.62 1.02,0.79 0.89,0.96 0.71,1.08 0.53,1.19 0.33,1.25 0.12,1.30 -0.08,1.29 -0.29,1.27 -0.49,1.19 -0.68,1.11 -0.84,0.97 -1.01,0.83 -1.11,0.65 -1.22,0.47 -1.26,0.26 -1.31,0.05 -1.28,-0.15 -1.26,-0.36 -1.17,-0.55 -1.07,-0.74 -0.93,-0.90 -0.78,-1.05 -0.59,-1.15 -0.40,-1.24 -0.19,-1.28 0.01,-1.31 0.22,-1.27 0.43,-1.23 0.61,-1.13 0.80,-1.03 0.95,-0.88 1.09,-0.72 1.18,-0.53 1.26,-0.33 1.28,-0.12 1.31,0.08 1.26,0.29 1.21,0.49 1.10,0.68 0.99,0.86 0.82,0.99 0.66,1.13 0.46,1.20 0.26,1.28 0.05,1.29 -0.15,1.30 -0.15,1.30 -0.15,1.30 -2.97,1.05 -5.79,0.81 -8.58,1.61 -11.37,2.42 -11.52,2.07 -11.66,1.72 -11.72,1.35 -11.78,0.97 -11.75,0.60 -11.72,0.22 -11.60,-0.13 -11.48,-0.49 -11.28,-0.80 -11.08,-1.12 -10.80,-1.38 -10.53,-1.65 -10.20,-1.83 -9.88,-2.02 -9.51,-2.13 -9.15,-2.23 -8.77,-2.25 -8.39,-2.26 -8.02,-2.19 -7.65,-2.11 -7.31,-1.95 -6.97,-1.78 -6.68,-1.54 -6.39,-1.30 -6.16,-1.00 -5.93,-0.70 -5.08,-0.18 -4.22,0.32 -3.21,2.21 -2.20,4.09 -1.68,6.72 -1.16,9.35 -0.67,12.68 -0.17,16.00 0.30,20.36 0.78,24.71 1.22,30.81 1.66,36.90 2.02,45.08 2.37,53.25 2.52,59.50 2.67,65.75 3.04,71.17 3.41,76.59 3.56,80.27 3.72,83.95 3.10,85.89 2.48,87.83 2.85,87.92 3.21,88.01 3.54,88.19 3.88,88.36 4.16,88.61 4.44,88.86 4.65,89.17 4.87,89.48 5.00,89.83 5.13,90.18 5.18,90.55 5.22,90.93 5.18,91.30 5.13,91.67 5.00,92.03 4.87,92.38 4.65,92.69 4.44,93.00 4.16,93.24 3.88,93.49 3.54,93.67 3.21,93.84 2.85,93.93 2.48,94.02 2.11,94.02 1.73,94.02 2.18,90.91 2.62,87.79 2.98,87.88 3.34,87.97 3.67,88.14 4.00,88.31 4.27,88.56 4.55,88.80 4.76,89.11 4.97,89.41 5.10,89.76 5.23,90.10 5.28,90.47 5.32,90.84 5.28,91.20 5.23,91.57 5.10,91.92 4.97,92.26 4.76,92.57 4.55,92.87 4.27,93.12 4.00,93.36 3.67,93.53 3.34,93.70 2.98,93.79 2.62,93.88 2.25,93.88 1.88,93.88 0.71,93.77 -0.46,93.66 -2.33,93.42 -4.20,93.17 -7.05,93.25 -9.90,93.32 -13.22,93.49 -16.54,93.67 -19.91,94.10 -23.27,94.54 -26.49,94.88 -29.70,95.23 -33.00,95.18 -36.29,95.13 -37.22,94.44 -38.14,93.75 -38.45,91.55 -38.75,89.35 -38.55,87.73 -38.35,86.12 -37.93,84.01 -37.51,81.90 -37.18,78.79 -36.84,75.67 -36.72,71.41 -36.59,67.16 -36.32,62.04 -36.04,56.93 -36.08,50.12 -36.12,43.32 -36.23,37.45 -36.35,31.59 -36.62,25.90 -36.90,20.22 -37.45,15.10 -38.01,9.98 -38.70,8.24 -39.38,6.50 -40.29,5.47 -41.19,4.43 -41.74,3.44 -42.30,2.44 -40.69,-0.13 -39.08,-2.72 -37.26,-2.80 -35.45,-2.88 -33.04,-2.87 -30.64,-2.87 -27.02,-2.86 -23.40,-2.86 -21.65,-2.85 -19.90,-2.85 -17.12,-2.81 -14.35,-2.77 -11.89,-2.74 -9.43,-2.70 -7.01,-2.68 -4.6,-2.67 -2.3,-2.58 0,-2.49 0.29,-2.45 0.59,-2.41 0.87,-2.31 1.15,-2.20 1.40,-2.03 1.65,-1.86 1.85,-1.63 2.04,-1.41 2.18,-1.14 2.32,-0.88 2.40,-0.59 2.47,-0.30 2.47,0.00 2.47,0.30 2.40,0.59 2.32,0.88 2.18,1.14 2.04,1.41 1.85,1.63 1.65,1.86 1.40,2.03 1.15,2.20 0.87,2.31 0.59,2.41 0.29,2.45 -0.00,2.49 -0.00,2.49 L 0,2.49 Z"></path></g><g transform="translate(293 97) rotate(0 15.5 46)" stroke="none"><path fill="#1e1e1e" d="M 2.64,-0.46 Q 2.64,-0.46 3.61,4.40 4.59,9.27 4.99,16.11 5.40,22.96 5.57,33.05 5.74,43.13 5.82,51.71 5.91,60.30 5.95,67.40 6.00,74.50 6.02,80.10 6.03,85.71 5.75,89.36 5.47,93.02 5.35,95.06 5.24,97.10 5.16,98.35 5.08,99.59 2.74,98.87 0.40,98.14 1.47,97.33 2.54,96.53 5.24,95.24 7.93,93.95 10.61,92.36 13.28,90.77 17.58,89.09 21.88,87.42 24.97,86.69 28.06,85.96 30.20,85.92 32.34,85.89 32.06,87.05 31.78,88.20 31.49,85.39 31.20,82.58 30.82,79.36 30.44,76.15 30.56,69.96 30.67,63.76 31.60,56.74 32.53,49.71 34.10,42.64 35.66,35.57 36.89,29.76 38.12,23.96 38.91,18.97 39.71,13.99 39.76,11.26 39.81,8.52 39.10,7.28 38.39,6.03 37.59,4.91 36.80,3.79 35.26,2.68 33.72,1.57 32.23,0.99 30.74,0.40 28.67,0.03 26.61,-0.33 24.24,-0.79 21.88,-1.25 18.65,-1.72 15.42,-2.18 11.19,-2.67 6.96,-3.15 2.56,-3.65 -1.83,-4.14 -5.20,-4.65 -8.57,-5.16 -10.88,-6.43 -13.19,-7.70 -13.39,-7.76 -13.60,-7.83 -13.77,-7.95 -13.94,-8.08 -14.06,-8.25 -14.18,-8.43 -14.24,-8.63 -14.30,-8.84 -14.29,-9.05 -14.28,-9.26 -14.21,-9.46 -14.13,-9.66 -13.99,-9.82 -13.86,-9.98 -13.68,-10.10 -13.50,-10.21 -13.29,-10.26 -13.08,-10.31 -12.87,-10.29 -12.66,-10.26 -12.47,-10.18 -12.27,-10.09 -12.12,-9.95 -11.96,-9.80 -11.86,-9.62 -11.76,-9.43 -11.72,-9.22 -11.68,-9.01 -11.71,-8.80 -11.75,-8.59 -11.84,-8.40 -11.94,-8.21 -12.09,-8.07 -12.24,-7.92 -12.44,-7.83 -12.63,-7.73 -12.84,-7.71 -13.05,-7.68 -13.26,-7.73 -13.47,-7.77 -13.65,-7.88 -13.83,-7.98 -13.97,-8.14 -14.11,-8.30 -14.19,-8.50 -14.27,-8.70 -14.29,-8.91 -14.30,-9.12 -14.25,-9.33 -14.19,-9.53 -14.08,-9.71 -13.96,-9.89 -13.79,-10.02 -13.62,-10.15 -13.42,-10.22 -13.22,-10.29 -13.01,-10.29 -12.80,-10.29 -12.80,-10.29 -12.80,-10.29 -10.22,-10.83 -7.64,-11.36 -4.38,-10.87 -1.13,-10.38 3.27,-9.88 7.68,-9.38 12.00,-8.89 16.32,-8.39 19.69,-7.89 23.06,-7.40 25.40,-6.95 27.73,-6.50 29.97,-6.10 32.20,-5.69 33.59,-5.29 34.98,-4.89 36.09,-4.26 37.19,-3.63 38.35,-2.84 39.51,-2.05 40.73,-0.91 41.94,0.23 43.01,1.84 44.08,3.44 45.05,5.91 46.01,8.38 45.95,11.67 45.89,14.97 45.06,20.11 44.24,25.25 43.01,31.09 41.78,36.93 40.26,43.74 38.75,50.54 37.85,57.22 36.95,63.90 36.81,69.66 36.67,75.42 37.06,78.69 37.44,81.96 37.65,84.53 37.86,87.10 37.48,88.44 37.10,89.78 34.71,90.94 32.33,92.09 30.88,92.05 29.42,92.00 26.76,92.60 24.10,93.20 20.26,94.66 16.43,96.12 13.50,97.84 10.58,99.56 8.22,100.66 5.85,101.75 4.49,102.49 3.12,103.23 1.09,101.08 -0.93,98.94 -0.90,97.85 -0.88,96.75 -0.76,94.64 -0.63,92.53 -0.35,89.12 -0.07,85.72 -0.08,80.12 -0.08,74.52 -0.09,67.43 -0.10,60.34 -0.15,51.78 -0.20,43.22 -0.34,33.25 -0.48,23.29 -0.81,16.78 -1.14,10.27 -1.89,5.37 -2.64,0.46 -2.65,0.14 -2.67,-0.17 -2.61,-0.49 -2.55,-0.81 -2.42,-1.10 -2.28,-1.40 -2.08,-1.65 -1.88,-1.90 -1.62,-2.10 -1.37,-2.30 -1.07,-2.43 -0.78,-2.56 -0.46,-2.62 -0.14,-2.67 0.17,-2.65 0.50,-2.63 0.80,-2.53 1.11,-2.43 1.39,-2.27 1.66,-2.10 1.89,-1.87 2.12,-1.64 2.28,-1.36 2.45,-1.08 2.54,-0.77 2.64,-0.46 2.64,-0.46 L 2.64,-0.46 Z"></path></g></svg>