<svg version="1.1" xmlns="http://www.w3.org/2000/svg" viewBox="0 0 792 716" width="792" height="716">
  <g transform="translate(547 63) rotate(0 -123.5 99.5)" stroke="none"><path fill="#1e1e1e" d="M -1.48,2.07 Q -1.48,2.07 -5.51,-0.77 -9.55,-3.62 -19.34,-7.56 -29.13,-11.51 -41.01,-14.59 -52.90,-17.67 -66.77,-19.51 -80.64,-21.34 -95.37,-21.80 -110.09,-22.26 -128.71,-18.45 -147.33,-14.63 -161.89,-7.39 -176.45,-0.15 -187.84,12.14 -199.23,24.45 -208.62,41.86 -218.01,59.28 -224.58,79.49 -231.14,99.70 -234.79,122.54 -238.43,145.38 -238.55,160.40 -238.66,175.43 -236.46,185.01 -234.26,194.59 -231.14,200.46 -228.02,206.33 -225.52,210.67 -223.01,215.01 -222.56,218.27 -222.10,221.53 -224.51,224.14 -226.92,226.75 -227.07,226.91 -227.22,227.06 -227.41,227.15 -227.60,227.25 -227.81,227.28 -228.02,227.31 -228.23,227.27 -228.44,227.23 -228.63,227.13 -228.81,227.02 -228.95,226.87 -229.10,226.71 -229.18,226.51 -229.27,226.32 -229.29,226.11 -229.30,225.90 -229.25,225.69 -229.20,225.48 -229.09,225.30 -228.98,225.12 -228.81,224.99 -228.65,224.86 -228.45,224.78 -228.25,224.71 -228.04,224.70 -227.83,224.69 -227.62,224.75 -227.42,224.81 -227.25,224.94 -227.07,225.06 -226.95,225.23 -226.82,225.40 -226.76,225.61 -226.69,225.81 -226.70,226.02 -226.70,226.23 -226.78,226.43 -226.85,226.63 -226.98,226.80 -227.11,226.97 -227.29,227.08 -227.47,227.20 -227.67,227.25 -227.88,227.30 -228.09,227.29 -228.30,227.27 -228.50,227.19 -228.70,227.11 -228.85,226.97 -229.01,226.82 -229.12,226.64 -229.22,226.46 -229.27,226.25 -229.31,226.04 -229.28,225.83 -229.25,225.62 -229.16,225.43 -229.07,225.24 -229.07,225.24 -229.07,225.24 -228.22,223.25 -227.37,221.27 -227.92,219.66 -228.46,218.05 -231.02,213.64 -233.58,209.23 -236.97,202.62 -240.36,196.02 -242.64,185.72 -244.93,175.41 -244.77,159.90 -244.62,144.39 -240.86,121.08 -237.10,97.77 -230.31,77.04 -223.52,56.31 -213.66,38.27 -203.81,20.23 -191.55,7.31 -179.30,-5.61 -163.94,-13.10 -148.57,-20.59 -129.25,-24.37 -109.92,-28.16 -94.90,-27.55 -79.88,-26.95 -65.70,-24.94 -51.52,-22.92 -39.33,-19.65 -27.15,-16.37 -16.85,-12.12 -6.54,-7.87 -2.53,-4.97 1.48,-2.07 1.71,-1.87 1.93,-1.66 2.10,-1.40 2.27,-1.15 2.38,-0.86 2.48,-0.57 2.52,-0.26 2.55,0.04 2.51,0.34 2.46,0.65 2.35,0.93 2.24,1.22 2.06,1.47 1.88,1.72 1.65,1.92 1.41,2.12 1.14,2.26 0.86,2.40 0.56,2.47 0.26,2.53 -0.04,2.53 -0.34,2.52 -0.64,2.45 -0.94,2.37 -1.21,2.22 -1.48,2.07 -1.48,2.07 L -1.48,2.07 Z"></path></g><g transform="translate(339 247) rotate(0 4.5 174)" stroke="none"><path fill="#1e1e1e" d="M 0.33,2.86 Q 0.33,2.86 -4.54,3.47 -9.42,4.09 -17.09,4.34 -24.75,4.59 -31.72,4.70 -38.69,4.80 -60.57,1.72 -82.45,-1.36 -102.71,-6.15 -122.97,-10.94 -143.19,-18.18 -163.41,-25.43 -187.11,-38.66 -210.81,-51.89 -228.89,-62.95 -246.97,-74.02 -260.11,-82.15 -273.25,-90.29 -281.67,-95.15 -290.09,-100.02 -295.00,-102.32 -299.91,-104.63 -302.15,-105.59 -304.39,-106.55 -305.54,-106.43 -306.68,-106.30 -307.01,-106.49 -307.34,-106.67 -307.62,-106.93 -307.90,-107.20 -308.10,-107.51 -308.31,-107.83 -308.43,-108.19 -308.56,-108.55 -308.59,-108.93 -308.62,-109.31 -308.57,-109.69 -308.51,-110.06 -308.36,-110.41 -308.22,-110.76 -307.99,-111.07 -307.77,-111.38 -307.47,-111.62 -307.18,-111.86 -306.84,-112.03 -306.50,-112.19 -306.13,-112.27 -305.75,-112.35 -305.37,-112.34 -304.99,-112.33 -304.63,-112.23 -304.26,-112.12 -302.91,-109.26 -301.57,-106.39 -300.08,-103.69 -298.60,-100.99 -295.04,-94.23 -291.47,-87.46 -286.83,-79.47 -282.18,-71.48 -275.37,-61.55 -268.55,-51.61 -259.10,-39.98 -249.64,-28.34 -237.91,-15.97 -226.17,-3.59 -208.33,11.64 -190.49,26.89 -174.03,39.10 -157.57,51.31 -143.12,61.09 -128.67,70.87 -116.52,78.46 -104.36,86.05 -92.92,92.41 -81.47,98.76 -74.61,102.33 -67.75,105.89 -64.24,107.41 -60.73,108.94 -60.41,109.15 -60.10,109.37 -59.84,109.65 -59.59,109.93 -59.41,110.27 -59.23,110.61 -59.14,110.98 -59.04,111.35 -59.04,111.73 -59.04,112.11 -59.13,112.48 -59.22,112.85 -59.40,113.19 -59.57,113.53 -59.82,113.82 -60.07,114.10 -60.39,114.32 -60.70,114.54 -61.06,114.68 -61.41,114.81 -61.79,114.86 -62.17,114.91 -62.55,114.86 -62.93,114.82 -63.28,114.69 -63.64,114.55 -66.61,115.71 -69.58,116.88 -73.63,117.28 -77.68,117.68 -82.57,118.14 -87.47,118.60 -95.98,118.81 -104.50,119.02 -113.84,119.10 -123.19,119.19 -135.00,118.65 -146.82,118.11 -160.48,117.01 -174.14,115.91 -188.86,114.59 -203.57,113.26 -222.86,113.58 -242.16,113.89 -257.19,115.46 -272.22,117.03 -283.46,118.83 -294.70,120.64 -302.07,121.98 -309.45,123.32 -314.72,123.91 -320.00,124.50 -322.50,124.75 -325.00,124.99 -325.77,125.09 -326.53,125.18 -326.94,125.17 -327.34,125.16 -327.73,125.05 -328.12,124.95 -328.48,124.75 -328.83,124.56 -329.13,124.28 -329.42,124.01 -329.64,123.67 -329.86,123.33 -330.00,122.95 -330.13,122.57 -330.17,122.17 -330.21,121.76 -330.15,121.36 -330.10,120.96 -329.94,120.59 -329.79,120.22 -329.56,119.89 -329.32,119.56 -329.01,119.30 -328.70,119.04 -328.34,118.86 -327.98,118.68 -327.58,118.59 -327.19,118.51 -325.58,118.95 -323.96,119.40 -321.97,120.08 -319.97,120.77 -314.71,122.82 -309.46,124.87 -302.24,126.83 -295.03,128.79 -284.74,131.36 -274.44,133.93 -261.66,137.63 -248.87,141.33 -231.32,147.23 -213.77,153.13 -198.83,158.51 -183.89,163.89 -170.12,168.46 -156.35,173.03 -143.65,176.69 -130.94,180.34 -119.24,183.33 -107.54,186.31 -94.39,188.12 -81.24,189.93 -71.36,190.70 -61.48,191.48 -54.77,191.52 -48.07,191.56 -44.41,191.30 -40.75,191.04 -40.04,191.20 -39.33,191.35 -38.92,191.37 -38.51,191.39 -38.12,191.51 -37.73,191.63 -37.37,191.84 -37.02,192.05 -36.73,192.33 -36.44,192.62 -36.22,192.97 -36.01,193.31 -35.88,193.70 -35.75,194.09 -35.73,194.50 -35.70,194.91 -35.77,195.31 -35.84,195.71 -36.00,196.09 -36.16,196.46 -36.41,196.79 -36.66,197.11 -36.98,197.37 -37.30,197.62 -37.67,197.79 -38.04,197.97 -38.44,198.04 -38.84,198.12 -40.19,199.56 -41.53,201.00 -47.49,205.01 -53.45,209.01 -61.63,214.96 -69.82,220.90 -79.84,229.40 -89.85,237.90 -105.66,251.04 -121.47,264.19 -135.69,275.54 -149.90,286.90 -161.40,296.03 -172.89,305.16 -180.96,311.35 -189.03,317.55 -193.84,320.98 -198.65,324.41 -199.36,325.99 -200.08,327.58 -200.44,327.78 -200.80,327.97 -201.20,328.08 -201.59,328.19 -202.00,328.19 -202.42,328.20 -202.82,328.11 -203.22,328.02 -203.59,327.83 -203.96,327.65 -204.27,327.38 -204.58,327.12 -204.82,326.78 -205.06,326.45 -205.22,326.06 -205.37,325.68 -205.43,325.27 -205.48,324.87 -205.44,324.46 -205.40,324.05 -205.26,323.66 -205.12,323.27 -204.89,322.93 -204.67,322.59 -204.36,322.31 -204.06,322.03 -200.72,321.76 -197.38,321.50 -193.39,320.42 -189.40,319.35 -180.19,316.04 -170.99,312.73 -160.95,309.29 -150.91,305.84 -140.35,302.09 -129.78,298.34 -119.45,295.27 -109.11,292.21 -97.95,290.29 -86.78,288.38 -78.84,287.57 -70.89,286.76 -65.57,287.39 -60.25,288.01 -57.24,290.81 -54.24,293.61 -54.22,298.83 -54.19,304.05 -60.55,315.45 -66.92,326.84 -75.04,339.52 -83.17,352.20 -92.99,365.69 -102.80,379.19 -112.76,391.29 -122.72,403.39 -133.91,415.21 -145.09,427.02 -153.03,434.65 -160.97,442.28 -166.03,447.21 -171.10,452.15 -174.18,454.88 -177.26,457.61 -178.55,458.44 -179.85,459.28 -180.18,459.51 -180.52,459.75 -180.90,459.89 -181.29,460.04 -181.69,460.08 -182.10,460.13 -182.50,460.08 -182.91,460.04 -183.29,459.89 -183.68,459.75 -184.01,459.51 -184.35,459.28 -184.62,458.97 -184.89,458.67 -185.08,458.31 -185.27,457.94 -185.37,457.55 -185.47,457.15 -185.47,456.74 -185.47,456.33 -185.37,455.93 -185.27,455.54 -185.08,455.17 -184.89,454.81 -184.62,454.50 -184.35,454.20 -183.16,453.49 -181.97,452.78 -180.19,451.73 -178.41,450.67 -176.05,449.56 -173.69,448.44 -170.24,447.35 -166.79,446.26 -164.23,445.53 -161.66,444.80 -159.75,444.22 -157.84,443.63 -155.91,443.33 -153.99,443.02 -151.67,442.90 -149.35,442.78 -146.69,442.19 -144.02,441.60 -137.69,439.92 -131.35,438.24 -123.76,436.09 -116.17,433.94 -106.46,432.12 -96.75,430.30 -80.18,428.65 -63.61,426.99 -47.52,424.59 -31.42,422.19 -15.28,417.47 0.85,412.75 17.99,405.89 35.14,399.03 53.32,390.38 71.50,381.73 94.16,370.01 116.83,358.29 135.64,347.86 154.45,337.43 170.07,326.47 185.69,315.51 200.32,303.15 214.95,290.78 232.60,272.66 250.25,254.54 264.68,239.05 279.10,223.57 290.35,209.87 301.59,196.17 309.73,183.58 317.87,170.99 322.66,158.14 327.44,145.29 329.45,131.12 331.46,116.96 331.77,95.20 332.07,73.44 330.77,55.04 329.47,36.65 327.50,22.86 325.52,9.08 321.61,-1.06 317.69,-11.20 314.12,-16.80 310.56,-22.40 307.48,-25.48 304.40,-28.57 301.79,-30.37 299.18,-32.17 297.29,-33.20 295.40,-34.23 293.79,-34.55 292.19,-34.87 290.66,-35.05 289.13,-35.22 287.93,-35.30 286.73,-35.38 285.59,-34.72 284.45,-34.06 283.33,-33.43 282.22,-32.79 281.20,-32.42 280.18,-32.04 279.60,-31.92 279.01,-31.81 278.59,-31.72 278.18,-31.64 277.75,-31.65 277.33,-31.67 276.92,-31.78 276.51,-31.90 276.14,-32.11 275.77,-32.32 275.46,-32.61 275.15,-32.91 274.92,-33.26 274.70,-33.62 274.56,-34.02 274.42,-34.43 274.39,-34.85 274.35,-35.27 274.42,-35.69 274.48,-36.11 274.65,-36.51 274.81,-36.90 275.06,-37.24 275.32,-37.58 275.65,-37.85 275.97,-38.12 276.36,-38.30 276.74,-38.49 275.56,-38.59 274.37,-38.70 274.31,-43.07 274.26,-47.44 274.47,-50.66 274.69,-53.87 274.70,-54.09 274.72,-54.30 274.80,-54.49 274.88,-54.69 275.02,-54.85 275.16,-55.01 275.35,-55.12 275.53,-55.22 275.74,-55.27 275.95,-55.31 276.16,-55.28 276.37,-55.25 276.56,-55.16 276.75,-55.07 276.90,-54.92 277.05,-54.77 277.15,-54.58 277.25,-54.39 277.28,-54.18 277.31,-53.97 277.27,-53.76 277.23,-53.56 277.13,-53.37 277.03,-53.18 276.87,-53.04 276.71,-52.90 276.52,-52.81 276.33,-52.72 276.11,-52.70 275.90,-52.68 275.70,-52.73 275.49,-52.78 275.31,-52.90 275.13,-53.01 274.99,-53.17 274.86,-53.34 274.78,-53.54 274.71,-53.73 274.70,-53.95 274.69,-54.16 274.75,-54.36 274.81,-54.57 274.93,-54.74 275.06,-54.91 275.23,-55.04 275.40,-55.17 275.60,-55.23 275.80,-55.29 276.02,-55.29 276.23,-55.29 276.43,-55.22 276.63,-55.14 276.80,-55.01 276.96,-54.88 277.08,-54.70 277.20,-54.53 277.25,-54.32 277.30,-54.12 277.30,-54.12 277.30,-54.12 278.10,-50.99 278.90,-47.87 279.63,-43.67 280.37,-39.47 279.69,-35.64 279.01,-31.81 278.59,-31.72 278.18,-31.64 277.75,-31.65 277.33,-31.67 276.92,-31.78 276.51,-31.90 276.14,-32.11 275.77,-32.32 275.46,-32.61 275.15,-32.90 274.92,-33.26 274.70,-33.62 274.56,-34.02 274.42,-34.43 274.39,-34.85 274.35,-35.27 274.42,-35.69 274.48,-36.11 274.65,-36.51 274.81,-36.90 275.06,-37.24 275.32,-37.58 275.65,-37.85 275.97,-38.12 276.36,-38.30 276.74,-38.49 277.77,-38.70 278.80,-38.90 279.73,-39.42 280.66,-39.94 282.25,-40.85 283.84,-41.75 285.48,-42.05 287.12,-42.35 288.54,-42.26 289.96,-42.16 291.88,-41.92 293.81,-41.68 296.26,-41.03 298.71,-40.38 300.96,-39.13 303.21,-37.88 306.28,-35.67 309.36,-33.45 312.89,-29.79 316.42,-26.13 320.28,-19.91 324.15,-13.70 328.25,-2.81 332.35,8.06 334.36,22.11 336.37,36.16 337.67,54.85 338.98,73.54 338.64,95.74 338.31,117.95 336.12,132.81 333.92,147.68 328.81,161.20 323.69,174.72 315.32,187.64 306.94,200.56 295.55,214.42 284.16,228.28 269.68,243.82 255.20,259.36 237.31,277.71 219.41,296.05 204.53,308.61 189.65,321.16 173.73,332.31 157.80,343.47 138.90,353.94 119.99,364.42 97.22,376.18 74.45,387.94 56.07,396.67 37.69,405.40 20.22,412.36 2.76,419.32 -13.82,424.13 -30.41,428.94 -46.67,431.36 -62.94,433.78 -79.23,435.37 -95.51,436.96 -104.92,438.70 -114.33,440.44 -121.98,442.61 -129.62,444.78 -136.12,446.50 -142.62,448.22 -145.81,448.88 -149.00,449.53 -151.00,449.62 -152.99,449.71 -154.43,449.91 -155.87,450.11 -157.84,450.71 -159.80,451.31 -162.29,452.02 -164.77,452.73 -167.80,453.66 -170.83,454.60 -172.89,455.55 -174.96,456.50 -177.40,457.89 -179.85,459.28 -180.18,459.51 -180.52,459.74 -180.90,459.89 -181.29,460.04 -181.69,460.08 -182.10,460.13 -182.50,460.08 -182.91,460.04 -183.29,459.89 -183.68,459.75 -184.01,459.51 -184.35,459.28 -184.62,458.97 -184.89,458.67 -185.08,458.31 -185.27,457.94 -185.37,457.55 -185.47,457.15 -185.47,456.74 -185.47,456.33 -185.37,455.93 -185.27,455.54 -185.08,455.17 -184.89,454.81 -184.62,454.50 -184.35,454.20 -183.08,453.33 -181.80,452.47 -178.84,449.85 -175.88,447.23 -170.80,442.28 -165.72,437.33 -157.89,429.82 -150.06,422.31 -139.03,410.68 -128.00,399.05 -118.17,387.10 -108.33,375.16 -98.63,361.83 -88.93,348.51 -80.90,335.97 -72.86,323.43 -66.90,313.36 -60.94,303.29 -60.33,299.95 -59.73,296.62 -60.78,295.52 -61.83,294.42 -66.03,294.00 -70.23,293.57 -77.93,294.35 -85.64,295.12 -96.41,296.94 -107.18,298.76 -117.33,301.77 -127.49,304.77 -138.09,308.54 -148.69,312.31 -158.68,315.74 -168.68,319.18 -178.19,322.57 -187.71,325.97 -192.59,327.15 -197.47,328.33 -198.77,327.95 -200.08,327.58 -200.44,327.78 -200.80,327.97 -201.19,328.08 -201.59,328.19 -202.00,328.19 -202.42,328.20 -202.82,328.11 -203.22,328.02 -203.59,327.83 -203.96,327.65 -204.27,327.38 -204.58,327.12 -204.82,326.78 -205.06,326.45 -205.22,326.06 -205.37,325.68 -205.43,325.27 -205.48,324.87 -205.44,324.46 -205.40,324.05 -205.26,323.66 -205.12,323.27 -204.89,322.93 -204.67,322.59 -204.36,322.31 -204.06,322.03 -203.52,320.65 -202.98,319.27 -198.07,315.72 -193.17,312.17 -185.14,306.01 -177.12,299.84 -165.63,290.72 -154.14,281.59 -139.97,270.28 -125.81,258.97 -110.02,245.85 -94.24,232.73 -84.03,224.06 -73.81,215.40 -65.52,209.39 -57.23,203.37 -51.49,199.52 -45.74,195.67 -42.53,193.51 -39.33,191.35 -38.92,191.37 -38.51,191.39 -38.12,191.51 -37.73,191.63 -37.37,191.84 -37.02,192.05 -36.73,192.33 -36.44,192.62 -36.22,192.97 -36.01,193.31 -35.88,193.70 -35.75,194.09 -35.73,194.50 -35.70,194.91 -35.77,195.31 -35.84,195.71 -36.00,196.09 -36.16,196.46 -36.41,196.79 -36.66,197.11 -36.98,197.37 -37.30,197.62 -37.67,197.79 -38.04,197.97 -38.44,198.04 -38.84,198.12 -39.61,197.93 -40.37,197.74 -44.24,198.02 -48.11,198.29 -55.06,198.24 -62.01,198.19 -72.09,197.39 -82.17,196.59 -95.68,194.70 -109.19,192.82 -121.00,189.80 -132.80,186.79 -145.63,183.10 -158.47,179.41 -172.32,174.81 -186.17,170.21 -201.04,164.85 -215.91,159.48 -233.32,153.63 -250.74,147.77 -263.41,144.10 -276.07,140.44 -286.43,137.84 -296.79,135.25 -304.34,133.19 -311.89,131.12 -317.02,129.11 -322.16,127.10 -324.34,126.14 -326.53,125.18 -326.94,125.17 -327.34,125.16 -327.73,125.05 -328.12,124.95 -328.48,124.75 -328.83,124.56 -329.13,124.28 -329.42,124.01 -329.64,123.67 -329.86,123.33 -330.00,122.95 -330.13,122.57 -330.17,122.17 -330.21,121.76 -330.15,121.37 -330.10,120.97 -329.94,120.59 -329.79,120.22 -329.56,119.89 -329.32,119.56 -329.01,119.30 -328.70,119.04 -328.34,118.86 -327.98,118.68 -327.58,118.59 -327.19,118.51 -326.42,118.39 -325.66,118.28 -323.20,118.04 -320.74,117.80 -315.69,117.24 -310.65,116.69 -303.21,115.34 -295.77,113.99 -284.34,112.16 -272.91,110.34 -257.59,108.78 -242.26,107.21 -222.62,106.93 -202.97,106.65 -188.29,107.98 -173.61,109.30 -160.06,110.39 -146.51,111.48 -134.88,112.02 -123.25,112.56 -113.95,112.48 -104.65,112.40 -96.37,112.21 -88.08,112.03 -83.21,111.57 -78.34,111.11 -74.28,110.70 -70.23,110.30 -68.08,110.23 -65.93,110.15 -63.33,109.54 -60.73,108.94 -60.41,109.15 -60.10,109.37 -59.84,109.65 -59.59,109.93 -59.41,110.27 -59.23,110.61 -59.14,110.98 -59.04,111.35 -59.04,111.73 -59.04,112.11 -59.13,112.48 -59.22,112.85 -59.40,113.19 -59.57,113.53 -59.82,113.82 -60.07,114.10 -60.39,114.32 -60.70,114.54 -61.06,114.68 -61.41,114.81 -61.79,114.86 -62.17,114.91 -62.55,114.86 -62.93,114.82 -63.28,114.69 -63.64,114.55 -67.15,113.03 -70.66,111.51 -77.60,107.90 -84.55,104.30 -96.13,97.85 -107.70,91.40 -119.96,83.75 -132.21,76.09 -146.77,66.24 -161.33,56.38 -177.96,44.03 -194.59,31.69 -212.67,16.21 -230.75,0.74 -242.64,-11.80 -254.54,-24.36 -264.15,-36.20 -273.76,-48.04 -280.70,-58.18 -287.63,-68.31 -292.34,-76.42 -297.05,-84.52 -300.61,-91.28 -304.17,-98.05 -305.43,-102.17 -306.68,-106.30 -307.01,-106.49 -307.34,-106.67 -307.62,-106.93 -307.90,-107.20 -308.10,-107.51 -308.31,-107.83 -308.43,-108.19 -308.56,-108.55 -308.59,-108.93 -308.62,-109.31 -308.57,-109.69 -308.51,-110.06 -308.36,-110.41 -308.22,-110.76 -307.99,-111.07 -307.77,-111.38 -307.47,-111.62 -307.18,-111.86 -306.84,-112.03 -306.50,-112.19 -306.13,-112.27 -305.75,-112.35 -305.37,-112.34 -304.99,-112.33 -304.63,-112.23 -304.26,-112.12 -303.35,-112.29 -302.43,-112.46 -299.82,-111.41 -297.21,-110.36 -292.06,-107.93 -286.91,-105.49 -278.43,-100.56 -269.94,-95.63 -256.83,-87.48 -243.72,-79.33 -225.75,-68.31 -207.78,-57.30 -184.54,-44.28 -161.30,-31.26 -141.42,-24.10 -121.54,-16.94 -101.55,-12.17 -81.57,-7.41 -60.17,-4.26 -38.77,-1.11 -31.86,-1.21 -24.95,-1.32 -17.53,-1.55 -10.12,-1.79 -5.22,-2.32 -0.33,-2.86 0.01,-2.86 0.35,-2.86 0.69,-2.77 1.03,-2.69 1.34,-2.53 1.64,-2.36 1.90,-2.13 2.16,-1.90 2.36,-1.61 2.56,-1.33 2.68,-1.00 2.80,-0.68 2.84,-0.33 2.88,0.01 2.84,0.35 2.80,0.70 2.67,1.02 2.55,1.35 2.35,1.63 2.15,1.92 1.89,2.15 1.63,2.38 1.32,2.54 1.01,2.70 0.67,2.78 0.33,2.86 0.33,2.86 L 0.33,2.86 Z"></path></g><g transform="translate(553 137) rotate(0 107 8)" stroke="none"><path fill="#1e1e1e" d="M -1.13,2.64 Q -1.13,2.64 -3.30,1.68 -5.46,0.72 -9.22,-5.49 -12.97,-11.71 -11.86,-22.02 -10.75,-32.33 -3.45,-46.64 3.84,-60.95 22.12,-78.42 40.39,-95.89 57.83,-105.68 75.27,-115.47 91.10,-118.53 106.94,-121.60 119.63,-117.87 132.33,-114.13 140.71,-105.17 149.09,-96.20 147.39,-80.95 145.68,-65.70 135.69,-52.35 125.70,-39.00 110.67,-27.54 95.64,-16.09 80.01,-7.67 64.38,0.74 55.83,4.28 47.27,7.82 46.89,7.97 46.51,8.11 46.11,8.16 45.71,8.21 45.30,8.17 44.90,8.12 44.52,7.98 44.14,7.83 43.81,7.60 43.47,7.38 43.20,7.07 42.93,6.77 42.74,6.41 42.55,6.05 42.45,5.66 42.35,5.26 42.35,4.86 42.35,4.45 42.45,4.06 42.54,3.66 42.73,3.30 42.92,2.94 43.18,2.64 43.45,2.34 43.79,2.10 44.12,1.87 48.79,-0.66 53.47,-3.19 68.09,-8.13 82.72,-13.06 102.36,-15.75 122.01,-18.45 142.26,-15.50 162.51,-12.55 181.34,0.76 200.17,14.09 209.46,28.56 218.75,43.02 218.62,56.25 218.48,69.48 209.09,80.69 199.71,91.90 174.67,103.32 149.62,114.74 124.93,122.40 100.23,130.06 79.05,134.77 57.86,139.49 44.38,141.20 30.90,142.91 25.89,141.23 20.89,139.55 20.50,139.55 20.10,139.55 19.73,139.46 19.35,139.37 19.00,139.19 18.65,139.01 18.36,138.75 18.07,138.50 17.84,138.18 17.62,137.86 17.48,137.49 17.34,137.13 17.29,136.74 17.24,136.35 17.28,135.96 17.33,135.58 17.46,135.21 17.60,134.85 17.82,134.52 18.04,134.20 18.33,133.94 18.62,133.68 18.97,133.50 19.31,133.31 19.69,133.22 20.07,133.12 24.47,129.35 28.86,125.57 33.98,123.03 39.11,120.49 42.72,118.67 46.34,116.86 46.54,116.78 46.73,116.71 46.95,116.70 47.16,116.69 47.36,116.75 47.57,116.81 47.74,116.93 47.91,117.06 48.04,117.23 48.17,117.40 48.23,117.60 48.29,117.80 48.29,118.02 48.29,118.23 48.22,118.43 48.14,118.63 48.01,118.80 47.88,118.96 47.70,119.08 47.53,119.20 47.32,119.25 47.11,119.30 46.90,119.29 46.69,119.27 46.49,119.19 46.30,119.11 46.14,118.97 45.98,118.83 45.87,118.64 45.77,118.46 45.72,118.25 45.68,118.04 45.71,117.83 45.74,117.62 45.83,117.43 45.92,117.24 46.07,117.09 46.22,116.94 46.41,116.84 46.60,116.74 46.81,116.71 47.02,116.68 47.23,116.72 47.44,116.76 47.62,116.86 47.81,116.96 47.95,117.12 48.09,117.28 48.18,117.47 48.27,117.67 48.29,117.88 48.30,118.09 48.26,118.30 48.21,118.50 48.09,118.68 47.98,118.86 47.82,119.00 47.65,119.13 47.65,119.13 47.65,119.13 44.28,121.36 40.91,123.60 36.57,126.53 32.24,129.45 26.56,134.50 20.89,139.55 20.50,139.55 20.11,139.55 19.73,139.46 19.35,139.37 19.00,139.19 18.65,139.01 18.36,138.75 18.07,138.50 17.84,138.18 17.62,137.86 17.48,137.49 17.34,137.13 17.29,136.74 17.24,136.35 17.28,135.97 17.33,135.58 17.46,135.21 17.60,134.85 17.82,134.52 18.04,134.20 18.33,133.94 18.62,133.68 18.97,133.50 19.31,133.31 19.69,133.22 20.07,133.12 25.18,134.61 30.30,136.09 43.34,134.42 56.38,132.75 77.31,128.17 98.24,123.58 122.57,116.13 146.90,108.67 170.93,98.05 194.95,87.43 203.61,77.90 212.27,68.37 212.65,57.16 213.03,45.95 204.59,32.67 196.15,19.40 178.67,6.67 161.20,-6.04 142.02,-8.91 122.84,-11.79 103.84,-9.24 84.83,-6.68 70.75,-1.98 56.67,2.72 51.97,5.27 47.27,7.82 46.89,7.97 46.51,8.11 46.11,8.16 45.71,8.21 45.30,8.17 44.90,8.12 44.52,7.98 44.14,7.83 43.81,7.60 43.47,7.38 43.20,7.07 42.93,6.77 42.74,6.41 42.55,6.05 42.45,5.66 42.35,5.27 42.35,4.86 42.35,4.45 42.45,4.06 42.54,3.67 42.73,3.31 42.92,2.95 43.18,2.64 43.45,2.34 43.79,2.10 44.12,1.87 52.74,-1.54 61.37,-4.96 76.69,-12.93 92.02,-20.89 106.53,-31.76 121.04,-42.63 130.50,-54.74 139.97,-66.85 142.08,-80.39 144.19,-93.92 137.22,-101.28 130.25,-108.65 118.99,-112.21 107.72,-115.77 92.90,-113.01 78.07,-110.25 61.25,-100.91 44.43,-91.57 26.73,-74.86 9.03,-58.15 2.05,-44.80 -4.93,-31.45 -6.31,-22.67 -7.69,-13.89 -5.13,-9.03 -2.58,-4.17 -0.72,-3.41 1.13,-2.64 1.43,-2.47 1.73,-2.29 1.98,-2.05 2.23,-1.81 2.41,-1.52 2.60,-1.22 2.71,-0.89 2.82,-0.56 2.84,-0.22 2.87,0.12 2.81,0.46 2.76,0.80 2.62,1.12 2.48,1.44 2.28,1.72 2.07,1.99 1.80,2.21 1.53,2.43 1.21,2.58 0.90,2.73 0.56,2.80 0.22,2.86 -0.12,2.85 -0.46,2.83 -0.80,2.74 -1.13,2.64 -1.13,2.64 L -1.13,2.64 Z"></path></g></svg>